<svg width="500" height="36" viewBox="0 0 500 36" fill="none" xmlns="http://www.w3.org/2000/svg">
<path d="M35.7139 35.998L0 35.998L0 0L35.7139 35.998ZM71.4277 35.998H35.7139L35.7139 0L71.4277 35.998ZM107.142 35.998L71.4277 35.998V0L107.142 35.998ZM142.856 35.998H107.142V0L142.856 35.998ZM178.572 35.998L142.857 35.998V0L178.572 35.998ZM214.286 35.998L178.572 35.998V0L214.286 35.998ZM250 35.998H214.286V0L250 35.998ZM285.714 35.998L250 35.998V0L285.714 35.998ZM321.428 35.998L285.714 35.998V0L321.428 35.998ZM357.142 35.998H321.428V0L357.142 35.998ZM428.57 35.998L357.142 35.998V0L392.855 35.9961V0L428.57 35.998ZM464.284 35.998L428.57 35.998V0L464.284 35.998ZM500 35.998L464.286 35.998V0L500 35.998Z" fill="black"/>
</svg>
