<svg width="500" height="37" viewBox="0 0 500 37" fill="none" xmlns="http://www.w3.org/2000/svg">
<path d="M497.512 36.6077H499.5V0.607727L497.512 0.607727V36.6077ZM492.542 36.6077H494.529V27.6077H492.542V36.6077ZM487.571 36.6077H489.56V18.6077H487.571V36.6077ZM482.602 36.6077H484.589V27.6077H482.602V36.6077ZM477.631 36.6077H479.619V9.60773L477.631 9.60773V36.6077ZM472.661 36.6077H474.648V27.6077H472.661V36.6077ZM467.69 36.6077H469.679V18.6077H467.69V36.6077ZM462.721 36.6077H464.708V27.6077H462.721V36.6077ZM457.75 36.6077H459.738V9.60773H457.75V36.6077ZM452.779 36.6077H454.768V27.6077H452.779V36.6077ZM447.811 36.6077H449.799V0.607727L447.811 0.607727V36.6077ZM442.84 36.6077H444.828V27.6077H442.84V36.6077ZM437.87 36.6077H439.858V18.6077H437.87V36.6077ZM432.899 36.6077H434.888V27.6077H432.899V36.6077ZM427.93 36.6077H429.918V9.60773H427.93V36.6077ZM422.959 36.6077H424.947V27.6077H422.959V36.6077ZM417.989 36.6077H419.978V18.6077H417.989V36.6077ZM413.019 36.6077H415.007V27.6077H413.019V36.6077ZM408.049 36.6077H410.037V9.60773H408.049V36.6077ZM403.078 36.6077H405.066V27.6077H403.078V36.6077ZM398.107 36.6077H400.096V0.607727L398.107 0.607727V36.6077ZM393.137 36.6077H395.125V27.6077H393.137V36.6077ZM388.167 36.6077H390.155V18.6077H388.167V36.6077ZM383.196 36.6077H385.185V27.6077H383.196V36.6077ZM378.227 36.6077H380.214V9.60773H378.227V36.6077ZM373.256 36.6077H375.244V27.6077H373.256V36.6077ZM368.286 36.6077H370.273V18.6077L368.286 18.6077V36.6077ZM363.315 36.6077H365.304V27.6077H363.315V36.6077ZM358.346 36.6077H360.333V9.60773H358.346V36.6077ZM353.375 36.6077L355.363 36.6077V27.6077H353.375V36.6077ZM348.405 36.6077H350.393V0.607727L348.405 0.607727V36.6077ZM343.435 36.6077H345.423V27.6077H343.435V36.6077ZM338.464 36.6077H340.452V18.6077L338.464 18.6077V36.6077ZM333.494 36.6077H335.482V27.6077H333.494V36.6077ZM328.523 36.6077H330.512V9.60773H328.523V36.6077ZM323.554 36.6077H325.542V27.6077H323.554V36.6077ZM318.583 36.6077H320.571V18.6077H318.583V36.6077ZM313.613 36.6077H315.602V27.6077H313.613V36.6077ZM308.643 36.6077H310.631V9.60773H308.643V36.6077ZM303.673 36.6077H305.661V27.6077H303.673V36.6077ZM298.701 36.6077H300.689V0.607727L298.701 0.607727V36.6077ZM293.731 36.6077H295.72V27.6077H293.731V36.6077ZM288.761 36.6077H290.749V18.6077H288.761V36.6077ZM283.791 36.6077H285.779V27.6077H283.791V36.6077ZM278.82 36.6077H280.809V9.60773H278.82V36.6077ZM273.851 36.6077H275.839V27.6077H273.851V36.6077ZM268.88 36.6077H270.868V18.6077H268.88V36.6077ZM263.91 36.6077H265.897V27.6077H263.91V36.6077ZM258.939 36.6077H260.928V9.60773L258.939 9.60773V36.6077ZM253.97 36.6077H255.957V27.6077H253.97V36.6077ZM249 36.6077H250.988V0.607727L249 0.607727V36.6077ZM244.03 36.6077H246.018V27.6077H244.03V36.6077ZM239.06 36.6077H241.048V18.6077H239.06V36.6077ZM234.09 36.6077H236.077V27.6077H234.09V36.6077ZM229.119 36.6077H231.107V9.60773H229.119V36.6077ZM224.148 36.6077H226.137V27.6077H224.148V36.6077ZM219.179 36.6077H221.167V18.6077H219.179V36.6077ZM214.208 36.6077H216.196V27.6077H214.208V36.6077ZM209.238 36.6077H211.227V9.60773H209.238V36.6077ZM204.268 36.6077H206.256V27.6077H204.268V36.6077ZM199.299 36.6077H201.287V0.607727L199.299 0.607727V36.6077ZM194.328 36.6077H196.316V27.6077L194.328 27.6077V36.6077ZM189.358 36.6077H191.347V18.6077H189.358V36.6077ZM184.388 36.6077H186.376V27.6077H184.388V36.6077ZM179.418 36.6077L181.406 36.6077V9.60773H179.418V36.6077ZM174.447 36.6077H176.436V27.6077H174.447V36.6077ZM169.478 36.6077H171.466V18.6077H169.478V36.6077ZM164.507 36.6077H166.495V27.6077L164.507 27.6077V36.6077ZM159.537 36.6077H161.525V9.60773H159.537V36.6077ZM154.566 36.6077H156.555V27.6077H154.566V36.6077ZM149.595 36.6077H151.582V0.607727L149.595 0.607727V36.6077ZM144.624 36.6077H146.612V27.6077H144.624V36.6077ZM139.654 36.6077H141.642V18.6077H139.654V36.6077ZM134.684 36.6077H136.672V27.6077H134.684V36.6077ZM129.714 36.6077H131.701V9.60773H129.714V36.6077ZM124.743 36.6077H126.731V27.6077H124.743V36.6077ZM119.773 36.6077H121.761V18.6077H119.773V36.6077ZM114.803 36.6077H116.791V27.6077H114.803V36.6077ZM109.832 36.6077H111.82V9.60773H109.832V36.6077ZM104.862 36.6077H106.851V27.6077H104.862V36.6077ZM99.8926 36.6077H101.881V0.607727L99.8926 0.607727V36.6077ZM94.9229 36.6077H96.9111V27.6077H94.9229V36.6077ZM89.9521 36.6077H91.9404V18.6077H89.9521V36.6077ZM84.9824 36.6077H86.9707V27.6077H84.9824V36.6077ZM80.0117 36.6077H82V9.60773H80.0117V36.6077ZM75.042 36.6077H77.0303V27.6077H75.042V36.6077ZM70.0713 36.6077H72.0596V18.6077H70.0713V36.6077ZM65.1016 36.6077H67.0898V27.6077H65.1016V36.6077ZM60.1309 36.6077H62.1191V9.60773H60.1309V36.6077ZM55.1611 36.6077H57.1494V27.6077H55.1611V36.6077ZM50.1895 36.6077H52.1777V0.607727L50.1895 0.607727V36.6077ZM45.2197 36.6077H47.208V27.6077H45.2197V36.6077ZM40.249 36.6077H42.2373V18.6077H40.249V36.6077ZM35.2793 36.6077H37.2666V27.6077H35.2793V36.6077ZM30.3086 36.6077H32.2969V9.60773H30.3086V36.6077ZM25.3389 36.6077H27.3262V27.6077H25.3389V36.6077ZM20.3682 36.6077H22.3564V18.6077L20.3682 18.6077V36.6077ZM15.3984 36.6077H17.3857V27.6077H15.3984V36.6077ZM10.4277 36.6077H12.416V9.60773H10.4277V36.6077ZM5.45801 36.6077L7.44531 36.6077V27.6077H5.45801V36.6077ZM0.488281 0.607727V36.6077H2.47656V0.607727L0.488281 0.607727Z" fill="black"/>
</svg>
