<svg width="500" height="36" viewBox="0 0 500 36" fill="none" xmlns="http://www.w3.org/2000/svg">
<path d="M494.949 18H489.899V0.147461L484.849 0.147461V36H500V0.147461L494.949 0.147461V18ZM464.646 18H459.596V0.147461L454.546 0.147461V36H469.697V0.147461L464.646 0.147461V18ZM434.343 18H429.292V0.147461L424.241 0.147461V36H439.394V18H439.393V0.147461L434.343 0.147461V18ZM404.039 18H398.989V0.147461L393.938 0.147461V36H409.09V0.147461L404.039 0.147461V18ZM373.738 18L368.688 18V0.147461L363.638 0.147461V36H378.789V0.147461L373.738 0.147461V18ZM343.435 18L338.384 18V0.147461L333.333 0.147461V36H348.485V18H348.484V0.147461L343.435 0.147461V18ZM313.131 18L308.081 18V0.147461L303.03 0.147461V36H318.182V0.147461L313.131 0.147461V18ZM282.828 18L277.777 18V0.147461L272.728 0.147461V36H287.879V0.147461L282.828 0.147461V18ZM252.524 18H247.474V0.147461L242.423 0.147461V36H257.575V0.147461L252.524 0.147461V18ZM222.222 18H217.171V0.147461L212.12 0.147461V36H227.271V0.147461L222.222 0.147461V18ZM191.92 18H186.87V0.147461L181.819 0.147461V36H196.971V0.147461L191.92 0.147461V18ZM161.617 18H156.566V0.147461L151.517 0.147461V36H166.668V0.147461L161.617 0.147461V18ZM131.313 18H126.263V0.147461L121.212 0.147461V36L136.364 36V18H136.363V0.147461L131.313 0.147461V18ZM101.01 18H95.96V0.147461L90.9092 0.147461V36H106.061V0.147461L101.01 0.147461V18ZM70.707 18H65.6562V0.147461L60.6064 0.147461V36L75.7578 36V0.147461L70.707 0.147461V18ZM40.4033 18H35.3525V0.147461L30.3018 0.147461V36H45.4541V18H45.4531V0.147461L40.4033 0.147461V18ZM10.0996 18H5.0498V0.147461L-0.000976562 0.147461V36L15.1504 36V0.147461L10.0996 0.147461V18ZM474.747 18.1475H479.798V0.147461L474.747 0.147461V18.1475ZM444.444 18.1475H449.495V0.147461L444.444 0.147461V18.1475ZM414.141 18.1475H419.191V0.147461L414.141 0.147461V18.1475ZM383.838 18.1475H388.888V0.147461L383.838 0.147461V18.1475ZM353.536 18.1475H358.587V0.147461L353.536 0.147461V18.1475ZM323.232 18.1475H328.283V0.147461L323.232 0.147461V18.1475ZM292.93 18.1475H297.979V0.147461L292.93 0.147461V18.1475ZM262.626 18.1475H267.677V0.147461L262.626 0.147461V18.1475ZM232.322 18.1475H237.373V0.147461L232.322 0.147461V18.1475ZM202.02 18.1475H207.069V0.147461L202.02 0.147461V18.1475ZM171.718 18.1475H176.769V0.147461L171.718 0.147461V18.1475ZM141.415 18.1475H146.466V0.147461L141.415 0.147461V18.1475ZM111.111 18.1475H116.161V0.147461L111.111 0.147461V18.1475ZM80.8076 18.1475H85.8584V0.147461L80.8076 0.147461V18.1475ZM50.5049 18.1475H55.5557V0.147461L50.5049 0.147461V18.1475ZM20.2012 18.1475L25.252 18.1475V0.147461L20.2012 0.147461V18.1475Z" fill="black"/>
</svg>
