<svg width="509" height="40" viewBox="0 0 509 40" fill="none" xmlns="http://www.w3.org/2000/svg">
<path d="M494.882 0.497986L0 0.497986V39.3954L36.2598 39.3954V39.4199H50.3779V39.3954L193.173 39.3954V39.4199H207.291V39.3954L265.567 39.3954V39.4726L509 39.4726V0.472595L494.882 0.472595V0.497986ZM507 37.4726H496.953V27.1816H507V37.4726ZM494.882 37.4726H484.884V27.1816L494.882 27.1816V37.4726ZM482.835 37.4726L472.812 37.4726V27.1816H482.835V37.4726ZM470.766 37.4726H460.743V27.1816L470.766 27.1816V37.4726ZM458.694 37.4726H448.672V27.1816H458.694V37.4726ZM446.625 37.4726H436.601V27.1816H446.625V37.4726ZM434.554 37.4726H424.532V27.1816H434.554V37.4726ZM422.482 37.4726L412.461 37.4726V27.1816H422.482V37.4726ZM410.414 37.4726H400.392V27.1816L410.414 27.1816V37.4726ZM398.343 37.4726H388.32V27.1816H398.343V37.4726ZM386.273 37.4726H376.249V27.1816L386.273 27.1816V37.4726ZM374.202 37.4726H364.18V27.1816H374.202V37.4726ZM362.131 37.4726H352.108V27.1816H362.131V37.4726ZM350.062 37.4726H340.037V27.1816L350.062 27.1816V37.4726ZM337.99 37.4726H327.967V27.1816H337.99V37.4726ZM325.919 37.4726H315.897V27.1816L325.919 27.1816V37.4726ZM313.849 37.4726L303.828 37.4726V27.1816H313.849V37.4726ZM301.779 37.4726H291.757V27.1816H301.779V37.4726ZM289.71 37.4726H279.686V27.1816H289.71V37.4726ZM277.639 37.4726H267.619V27.1816H277.639V37.4726ZM205.22 37.4199H195.197V27.1288L205.22 27.1288V37.4199ZM48.3066 37.4199H38.2598V27.1288H48.3066V37.4199ZM265.567 37.3954H255.55V27.1044L265.567 27.1044V37.3954ZM253.501 37.3954L243.479 37.3954V27.1044H253.501V37.3954ZM241.432 37.3954H231.407V27.1044L241.432 27.1044V37.3954ZM229.36 37.3954H219.338V27.1044H229.36V37.3954ZM217.289 37.3954H207.291V27.1044H217.289V37.3954ZM193.173 37.3954L183.129 37.3954V27.1044H193.173V37.3954ZM181.079 37.3954H171.06V27.1044L181.079 27.1044V37.3954ZM169.011 37.3954H158.988V27.1044H169.011V37.3954ZM156.941 37.3954H146.917V27.1044H156.941V37.3954ZM144.87 37.3954H134.846V27.1044H144.87V37.3954ZM132.799 37.3954L122.776 37.3954V27.1044H132.799V37.3954ZM120.728 37.3954H110.706V27.1044L120.728 27.1044V37.3954ZM108.658 37.3954H98.6367V27.1044H108.658V37.3954ZM96.5879 37.3954H86.5654V27.1044L96.5879 27.1044V37.3954ZM84.5186 37.3954H74.4941V27.1044H84.5186V37.3954ZM72.4473 37.3954H62.4248V27.1044H72.4473V37.3954ZM36.2588 37.3954H26.1875V27.1044L36.2588 27.1044V37.3954ZM24.1406 37.3954L14.1182 37.3954V27.1044H24.1406V37.3954ZM12.0693 37.3954H2V27.1044H12.0693V37.3954ZM60.376 37.3954H50.3779V27.1044L60.376 27.1044V37.3954ZM507 25.1288H496.953V14.8378L507 14.8378V25.1288ZM494.882 25.1288L484.884 25.1288V14.8378L494.882 14.8378V25.1288ZM482.835 25.1288H472.812V14.8378H482.835V25.1288ZM470.766 25.1288L460.743 25.1288V14.8378H470.766V25.1288ZM458.694 25.1288H448.672V14.8378L458.694 14.8378V25.1288ZM446.625 25.1288H436.601V14.8378L446.625 14.8378V25.1288ZM434.554 25.1288H424.532V14.8378L434.554 14.8378V25.1288ZM422.482 25.1288H412.461V14.8378L422.482 14.8378V25.1288ZM410.414 25.1288L400.392 25.1288V14.8378H410.414V25.1288ZM398.343 25.1288H388.32V14.8378H398.343V25.1288ZM386.273 25.1288L376.249 25.1288V14.8378L386.273 14.8378V25.1288ZM374.202 25.1288H364.18V14.8378L374.202 14.8378V25.1288ZM362.131 25.1288H352.108V14.8378L362.131 14.8378V25.1288ZM350.062 25.1288L340.037 25.1288V14.8378L350.062 14.8378V25.1288ZM337.99 25.1288H327.967V14.8378H337.99V25.1288ZM325.919 25.1288L315.897 25.1288V14.8378H325.919V25.1288ZM313.849 25.1288H303.828V14.8378L313.849 14.8378V25.1288ZM301.779 25.1288H291.757V14.8378L301.779 14.8378V25.1288ZM289.71 25.1288H279.686V14.8378L289.71 14.8378V25.1288ZM277.639 25.1288H267.619V14.8378L277.639 14.8378V25.1288ZM205.22 25.1044L195.197 25.1044V14.8134L205.22 14.8134V25.1044ZM48.3066 25.1044H38.2598V14.8134H48.3066V25.1044ZM265.567 25.08L255.55 25.08V14.789H265.567V25.08ZM253.501 25.08H243.479V14.789H253.501V25.08ZM241.432 25.08L231.407 25.08V14.789L241.432 14.789V25.08ZM229.36 25.08H219.338V14.789L229.36 14.789V25.08ZM217.289 25.08H207.291V14.789L217.289 14.789V25.08ZM193.173 25.08H183.129V14.789H193.173V25.08ZM181.079 25.08L171.06 25.08V14.789H181.079V25.08ZM169.011 25.08H158.988V14.789L169.011 14.789V25.08ZM156.941 25.08H146.917V14.789L156.941 14.789V25.08ZM144.87 25.08H134.846V14.789L144.87 14.789V25.08ZM132.799 25.08H122.776V14.789L132.799 14.789V25.08ZM120.728 25.08L110.706 25.08V14.789H120.728V25.08ZM108.658 25.08H98.6367V14.789H108.658V25.08ZM96.5879 25.08L86.5654 25.08V14.789L96.5879 14.789V25.08ZM84.5186 25.08H74.4941V14.789L84.5186 14.789V25.08ZM72.4473 25.08H62.4248V14.789L72.4473 14.789V25.08ZM60.376 25.08L50.3779 25.08V14.789L60.376 14.789V25.08ZM36.2588 25.08L26.1875 25.08V14.789H36.2588V25.08ZM24.1406 25.08H14.1182V14.789L24.1406 14.789V25.08ZM12.0693 25.08H2V14.789L12.0693 14.789V25.08ZM494.882 12.789L484.884 12.789V2.49799L494.882 2.49799V12.789ZM482.835 12.789H472.812V2.49799L482.835 2.49799V12.789ZM470.766 12.789H460.743V2.49799L470.766 2.49799V12.789ZM458.694 12.789L448.672 12.789V2.49799L458.694 2.49799V12.789ZM446.625 12.789L436.601 12.789V2.49799L446.625 2.49799V12.789ZM434.554 12.789L424.532 12.789V2.49799L434.554 2.49799V12.789ZM422.482 12.789L412.461 12.789V2.49799L422.482 2.49799V12.789ZM410.414 12.789H400.392V2.49799L410.414 2.49799V12.789ZM398.343 12.789H388.32V2.49799L398.343 2.49799V12.789ZM386.273 12.789L376.249 12.789V2.49799L386.273 2.49799V12.789ZM374.202 12.789L364.18 12.789V2.49799L374.202 2.49799V12.789ZM362.131 12.789L352.108 12.789V2.49799L362.131 2.49799V12.789ZM350.062 12.789L340.037 12.789V2.49799L350.062 2.49799V12.789ZM337.99 12.789H327.967V2.49799L337.99 2.49799V12.789ZM325.919 12.789H315.897V2.49799L325.919 2.49799V12.789ZM313.849 12.789L303.828 12.789V2.49799L313.849 2.49799V12.789ZM301.779 12.789L291.757 12.789V2.49799L301.779 2.49799V12.789ZM289.71 12.789L279.686 12.789V2.49799L289.71 2.49799V12.789ZM277.639 12.789L267.619 12.789V2.49799L277.639 2.49799V12.789ZM265.567 12.789H255.55V2.49799L265.567 2.49799V12.789ZM253.501 12.789H243.479V2.49799L253.501 2.49799V12.789ZM241.432 12.789L231.407 12.789V2.49799L241.432 2.49799V12.789ZM229.36 12.789L219.338 12.789V2.49799L229.36 2.49799V12.789ZM217.289 12.789L207.291 12.789V2.49799L217.289 2.49799V12.789ZM205.22 12.789L195.197 12.789V2.49799L205.22 2.49799V12.789ZM193.173 12.789H183.129V2.49799L193.173 2.49799V12.789ZM181.079 12.789H171.06V2.49799L181.079 2.49799V12.789ZM169.011 12.789L158.988 12.789V2.49799L169.011 2.49799V12.789ZM156.941 12.789L146.917 12.789V2.49799L156.941 2.49799V12.789ZM144.87 12.789L134.846 12.789V2.49799L144.87 2.49799V12.789ZM132.799 12.789L122.776 12.789V2.49799L132.799 2.49799V12.789ZM120.728 12.789H110.706V2.49799L120.728 2.49799V12.789ZM108.658 12.789H98.6367V2.49799L108.658 2.49799V12.789ZM96.5879 12.789L86.5654 12.789V2.49799L96.5879 2.49799V12.789ZM84.5186 12.789L74.4941 12.789V2.49799L84.5186 2.49799V12.789ZM72.4473 12.789L62.4248 12.789V2.49799L72.4473 2.49799V12.789ZM60.376 12.789L50.3779 12.789V2.49799L60.376 2.49799V12.789ZM48.3066 12.789H38.2598V2.49799L48.3066 2.49799V12.789ZM36.2588 12.789H26.1875V2.49799L36.2588 2.49799V12.789ZM24.1406 12.789L14.1182 12.789V2.49799L24.1406 2.49799V12.789ZM12.0693 12.789L2 12.789V2.49799L12.0693 2.49799V12.789ZM507 12.7636L496.953 12.7636V2.4726L507 2.4726V12.7636Z" fill="black"/>
</svg>
