<svg width="509" height="37" viewBox="0 0 509 37" fill="none" xmlns="http://www.w3.org/2000/svg">
<path d="M7.0625 17.1914C3.39969 17.1914 0.42984 20.1605 0.429688 23.8232C0.429688 26.7663 2.3476 29.2598 5.00098 30.127V36.46L505.001 36.46V29.8682C507.303 28.8277 508.905 26.5133 508.905 23.8232C508.905 20.1605 505.935 17.1914 502.272 17.1914C498.61 17.1916 495.641 20.1605 495.641 23.8232C495.641 23.9092 495.644 23.9949 495.647 24.0801L491.212 24.0801C491.215 23.9949 491.219 23.9092 491.219 23.8232C491.219 20.1605 488.25 17.1915 484.587 17.1914C480.924 17.1914 477.954 20.1605 477.954 23.8232C477.954 23.9092 477.958 23.9949 477.961 24.0801H473.526C473.53 23.9949 473.533 23.9092 473.533 23.8232C473.533 20.1605 470.563 17.1914 466.9 17.1914C463.238 17.1916 460.269 20.1605 460.269 23.8232C460.269 23.9092 460.272 23.9949 460.275 24.0801H455.84C455.843 23.9949 455.847 23.9092 455.847 23.8232C455.847 20.1605 452.878 17.1915 449.215 17.1914C445.552 17.1914 442.582 20.1605 442.582 23.8232C442.582 23.9092 442.586 23.9949 442.589 24.0801H438.154C438.158 23.9949 438.161 23.9092 438.161 23.8232C438.161 20.1605 435.191 17.1914 431.528 17.1914C427.866 17.1916 424.897 20.1605 424.896 23.8232C424.896 23.9092 424.9 23.9949 424.903 24.0801H420.468C420.471 23.9949 420.475 23.9092 420.475 23.8232C420.474 20.1606 417.505 17.1916 413.843 17.1914C410.18 17.1914 407.21 20.1605 407.21 23.8232C407.21 23.9092 407.214 23.9949 407.217 24.0801H402.782C402.785 23.9949 402.788 23.9092 402.788 23.8232C402.788 20.1605 399.819 17.1914 396.156 17.1914C392.493 17.1914 389.525 20.1605 389.524 23.8232C389.524 23.9092 389.527 23.9949 389.53 24.0801H385.096C385.099 23.9949 385.103 23.9092 385.103 23.8232C385.102 20.1606 382.133 17.1916 378.471 17.1914C374.808 17.1914 371.838 20.1605 371.838 23.8232C371.838 23.9092 371.841 23.9949 371.845 24.0801H367.41C367.413 23.9949 367.416 23.9092 367.416 23.8232C367.416 20.1605 364.447 17.1914 360.784 17.1914C357.121 17.1914 354.152 20.1605 354.152 23.8232C354.152 23.9092 354.155 23.9949 354.158 24.0801H349.724C349.727 23.9949 349.73 23.9092 349.73 23.8232C349.73 20.1605 346.76 17.1914 343.098 17.1914C339.435 17.1916 336.466 20.1605 336.466 23.8232C336.466 23.9092 336.469 23.9949 336.473 24.0801H332.037C332.04 23.9949 332.044 23.9092 332.044 23.8232C332.044 20.1605 329.075 17.1915 325.412 17.1914C321.749 17.1914 318.779 20.1605 318.779 23.8232C318.779 23.9092 318.783 23.9949 318.786 24.0801H314.352C314.355 23.9949 314.358 23.9092 314.358 23.8232C314.358 20.1605 311.388 17.1914 307.726 17.1914C304.063 17.1916 301.094 20.1605 301.094 23.8232C301.094 23.9092 301.097 23.9949 301.101 24.0801H296.665C296.668 23.9949 296.672 23.9092 296.672 23.8232C296.672 20.1605 293.703 17.1915 290.04 17.1914C286.377 17.1914 283.407 20.1605 283.407 23.8232C283.407 23.9092 283.411 23.9949 283.414 24.0801H278.979C278.983 23.9949 278.986 23.9092 278.986 23.8232C278.986 20.1605 276.016 17.1914 272.354 17.1914C268.691 17.1916 265.722 20.1605 265.722 23.8232C265.722 23.9092 265.725 23.9949 265.729 24.0801L261.293 24.0801C261.296 23.9949 261.3 23.9092 261.3 23.8232C261.3 20.1606 258.331 17.1916 254.668 17.1914C251.005 17.1914 248.035 20.1605 248.035 23.8232C248.035 23.9092 248.039 23.9949 248.042 24.0801H243.607C243.611 23.9949 243.613 23.9092 243.613 23.8232C243.613 20.1605 240.644 17.1914 236.981 17.1914C233.319 17.1914 230.35 20.1605 230.35 23.8232C230.35 23.9092 230.352 23.9949 230.355 24.0801H225.921C225.924 23.9949 225.928 23.9092 225.928 23.8232C225.928 20.1606 222.959 17.1916 219.296 17.1914C215.633 17.1914 212.663 20.1605 212.663 23.8232C212.663 23.9092 212.667 23.9949 212.67 24.0801H208.235C208.239 23.9949 208.241 23.9092 208.241 23.8232C208.241 20.1605 205.272 17.1914 201.609 17.1914C197.947 17.1914 194.978 20.1605 194.978 23.8232C194.978 23.9092 194.98 23.9949 194.983 24.0801H190.549C190.552 23.9949 190.556 23.9092 190.556 23.8232C190.556 20.1606 187.586 17.1916 183.924 17.1914C180.261 17.1914 177.291 20.1605 177.291 23.8232C177.291 23.9092 177.295 23.9949 177.298 24.0801L172.862 24.0801C172.866 23.9949 172.869 23.9092 172.869 23.8232C172.869 20.1605 169.9 17.1915 166.237 17.1914C162.574 17.1914 159.605 20.1605 159.604 23.8232C159.604 23.9092 159.608 23.9949 159.611 24.0801H155.177C155.18 23.9949 155.184 23.9092 155.184 23.8232C155.183 20.1605 152.214 17.1914 148.551 17.1914C144.888 17.1916 141.919 20.1605 141.919 23.8232C141.919 23.9092 141.923 23.9949 141.926 24.0801H137.49C137.493 23.9949 137.497 23.9092 137.497 23.8232C137.497 20.1605 134.528 17.1915 130.865 17.1914C127.202 17.1914 124.233 20.1605 124.232 23.8232C124.232 23.9092 124.236 23.9949 124.239 24.0801H119.805C119.808 23.9949 119.812 23.9092 119.812 23.8232C119.811 20.1605 116.842 17.1914 113.179 17.1914C109.516 17.1916 106.547 20.1605 106.547 23.8232C106.547 23.9092 106.55 23.9949 106.554 24.0801H102.118C102.121 23.9949 102.125 23.9092 102.125 23.8232C102.125 20.1606 99.1558 17.1916 95.4932 17.1914C91.8304 17.1914 88.8605 20.1605 88.8604 23.8232C88.8604 23.9092 88.864 23.9949 88.8672 24.0801L84.4326 24.0801C84.4359 23.9949 84.4385 23.9092 84.4385 23.8232C84.4383 20.1605 81.4695 17.1914 77.8066 17.1914C74.1438 17.1914 71.175 20.1605 71.1748 23.8232C71.1748 23.9092 71.1774 23.9949 71.1807 24.0801H66.7461C66.7493 23.9949 66.7529 23.9092 66.7529 23.8232C66.7528 20.1606 63.7837 17.1916 60.1211 17.1914C56.4583 17.1914 53.4884 20.1605 53.4883 23.8232C53.4883 23.9092 53.4919 23.9949 53.4951 24.0801H49.0605C49.0638 23.9949 49.0664 23.9092 49.0664 23.8232C49.0663 20.1605 46.0974 17.1914 42.4346 17.1914C38.7718 17.1914 35.8029 20.1605 35.8027 23.8232C35.8027 23.9092 35.8054 23.9949 35.8086 24.0801H31.374C31.3773 23.9949 31.3809 23.9092 31.3809 23.8232C31.3807 20.1606 28.4117 17.1916 24.749 17.1914C21.0862 17.1914 18.1164 20.1605 18.1162 23.8232C18.1162 23.9092 18.1198 23.9949 18.123 24.0801H13.6875C13.6907 23.9949 13.6943 23.9092 13.6943 23.8232C13.6942 20.1605 10.7252 17.1915 7.0625 17.1914Z" fill="black"/>
<path d="M494.226 6.39355C491.784 6.39375 489.805 8.37361 489.805 10.8154C489.805 13.2573 491.784 15.2371 494.226 15.2373C496.668 15.2373 498.647 13.2574 498.647 10.8154C498.647 8.3735 496.668 6.39355 494.226 6.39355Z" fill="black"/>
<path d="M476.54 6.39355C474.098 6.39355 472.118 8.3735 472.118 10.8154C472.118 13.2574 474.098 15.2373 476.54 15.2373C478.982 15.2372 480.961 13.2573 480.961 10.8154C480.961 8.37354 478.982 6.39363 476.54 6.39355Z" fill="black"/>
<path d="M458.854 6.39355C456.412 6.39375 454.433 8.37361 454.433 10.8154C454.433 13.2573 456.412 15.2371 458.854 15.2373C461.295 15.2373 463.275 13.2574 463.275 10.8154C463.275 8.3735 461.295 6.39355 458.854 6.39355Z" fill="black"/>
<path d="M441.168 6.39355C438.726 6.39355 436.746 8.3735 436.746 10.8154C436.746 13.2574 438.726 15.2373 441.168 15.2373C443.61 15.2372 445.589 13.2573 445.589 10.8154C445.589 8.37354 443.61 6.39363 441.168 6.39355Z" fill="black"/>
<path d="M423.481 6.39355C421.04 6.39375 419.061 8.37361 419.061 10.8154C419.061 13.2573 421.04 15.2371 423.481 15.2373C425.923 15.2373 427.903 13.2574 427.903 10.8154C427.903 8.3735 425.923 6.39355 423.481 6.39355Z" fill="black"/>
<path d="M405.796 6.39355C403.354 6.39355 401.374 8.3735 401.374 10.8154C401.374 13.2574 403.354 15.2373 405.796 15.2373C408.238 15.2371 410.217 13.2572 410.217 10.8154C410.217 8.37362 408.238 6.39376 405.796 6.39355Z" fill="black"/>
<path d="M388.109 6.39355C385.667 6.39361 383.688 8.37353 383.688 10.8154C383.688 13.2573 385.667 15.2372 388.109 15.2373C390.551 15.2373 392.531 13.2574 392.531 10.8154C392.531 8.3735 390.551 6.39355 388.109 6.39355Z" fill="black"/>
<path d="M370.424 6.39355C367.982 6.39355 366.002 8.3735 366.002 10.8154C366.002 13.2574 367.982 15.2373 370.424 15.2373C372.866 15.2371 374.845 13.2572 374.845 10.8154C374.845 8.37362 372.866 6.39376 370.424 6.39355Z" fill="black"/>
<path d="M352.737 6.39355C350.295 6.39361 348.315 8.37353 348.315 10.8154C348.315 13.2573 350.295 15.2372 352.737 15.2373C355.179 15.2373 357.159 13.2574 357.159 10.8154C357.159 8.3735 355.179 6.39355 352.737 6.39355Z" fill="black"/>
<path d="M335.051 6.39355C332.609 6.39375 330.63 8.37361 330.63 10.8154C330.63 13.2573 332.609 15.2371 335.051 15.2373C337.493 15.2373 339.473 13.2574 339.473 10.8154C339.473 8.3735 337.493 6.39355 335.051 6.39355Z" fill="black"/>
<path d="M317.365 6.39355C314.923 6.39355 312.943 8.3735 312.943 10.8154C312.943 13.2574 314.923 15.2373 317.365 15.2373C319.807 15.2372 321.786 13.2573 321.786 10.8154C321.786 8.37354 319.807 6.39363 317.365 6.39355Z" fill="black"/>
<path d="M299.679 6.39355C297.237 6.39375 295.258 8.37361 295.258 10.8154C295.258 13.2573 297.237 15.2371 299.679 15.2373C302.121 15.2373 304.101 13.2574 304.101 10.8154C304.101 8.3735 302.121 6.39355 299.679 6.39355Z" fill="black"/>
<path d="M281.993 6.39355C279.551 6.39355 277.571 8.3735 277.571 10.8154C277.571 13.2574 279.551 15.2373 281.993 15.2373C284.435 15.2372 286.414 13.2573 286.414 10.8154C286.414 8.37354 284.435 6.39363 281.993 6.39355Z" fill="black"/>
<path d="M264.307 6.39355C261.865 6.39375 259.886 8.37361 259.886 10.8154C259.886 13.2573 261.865 15.2371 264.307 15.2373C266.749 15.2373 268.729 13.2574 268.729 10.8154C268.729 8.3735 266.749 6.39355 264.307 6.39355Z" fill="black"/>
<path d="M246.621 6.39355C244.179 6.39355 242.199 8.3735 242.199 10.8154C242.199 13.2574 244.179 15.2373 246.621 15.2373C249.063 15.2371 251.042 13.2572 251.042 10.8154C251.042 8.37362 249.063 6.39376 246.621 6.39355Z" fill="black"/>
<path d="M228.935 6.39355C226.493 6.39361 224.513 8.37353 224.513 10.8154C224.513 13.2573 226.493 15.2372 228.935 15.2373C231.376 15.2373 233.356 13.2574 233.356 10.8154C233.356 8.3735 231.376 6.39355 228.935 6.39355Z" fill="black"/>
<path d="M211.249 6.39355C208.807 6.39355 206.827 8.3735 206.827 10.8154C206.827 13.2574 208.807 15.2373 211.249 15.2373C213.691 15.2371 215.67 13.2572 215.67 10.8154C215.67 8.37362 213.691 6.39376 211.249 6.39355Z" fill="black"/>
<path d="M193.562 6.39355C191.121 6.39361 189.141 8.37353 189.141 10.8154C189.141 13.2573 191.121 15.2372 193.562 15.2373C196.004 15.2373 197.984 13.2574 197.984 10.8154C197.984 8.3735 196.004 6.39355 193.562 6.39355Z" fill="black"/>
<path d="M175.876 6.39355C173.434 6.39375 171.455 8.37361 171.455 10.8154C171.455 13.2573 173.434 15.2371 175.876 15.2373C178.318 15.2373 180.298 13.2574 180.298 10.8154C180.298 8.3735 178.318 6.39355 175.876 6.39355Z" fill="black"/>
<path d="M158.19 6.39355C155.749 6.39355 153.769 8.3735 153.769 10.8154C153.769 13.2574 155.749 15.2373 158.19 15.2373C160.632 15.2372 162.611 13.2573 162.611 10.8154C162.611 8.37354 160.632 6.39363 158.19 6.39355Z" fill="black"/>
<path d="M140.504 6.39355C138.062 6.39375 136.083 8.37361 136.083 10.8154C136.083 13.2573 138.062 15.2371 140.504 15.2373C142.946 15.2373 144.926 13.2574 144.926 10.8154C144.926 8.3735 142.946 6.39355 140.504 6.39355Z" fill="black"/>
<path d="M122.818 6.39355C120.376 6.39355 118.396 8.3735 118.396 10.8154C118.396 13.2574 120.376 15.2373 122.818 15.2373C125.26 15.2372 127.239 13.2573 127.239 10.8154C127.239 8.37354 125.26 6.39363 122.818 6.39355Z" fill="black"/>
<path d="M105.132 6.39355C102.69 6.39375 100.711 8.37361 100.711 10.8154C100.711 13.2573 102.69 15.2371 105.132 15.2373C107.574 15.2373 109.554 13.2574 109.554 10.8154C109.554 8.3735 107.574 6.39355 105.132 6.39355Z" fill="black"/>
<path d="M87.4463 6.39355C85.0044 6.39355 83.0244 8.3735 83.0244 10.8154C83.0244 13.2574 85.0044 15.2373 87.4463 15.2373C89.8881 15.2371 91.8672 13.2572 91.8672 10.8154C91.8672 8.37362 89.8881 6.39376 87.4463 6.39355Z" fill="black"/>
<path d="M69.7598 6.39355C67.3179 6.39361 65.3379 8.37353 65.3379 10.8154C65.3379 13.2573 67.3179 15.2372 69.7598 15.2373C72.2017 15.2373 74.1816 13.2574 74.1816 10.8154C74.1816 8.3735 72.2017 6.39355 69.7598 6.39355Z" fill="black"/>
<path d="M52.0742 6.39355C49.6323 6.39355 47.6523 8.3735 47.6523 10.8154C47.6523 13.2574 49.6323 15.2373 52.0742 15.2373C54.516 15.2371 56.4951 13.2572 56.4951 10.8154C56.4951 8.37362 54.516 6.39376 52.0742 6.39355Z" fill="black"/>
<path d="M34.3877 6.39355C31.9458 6.39361 29.9658 8.37353 29.9658 10.8154C29.9658 13.2573 31.9458 15.2372 34.3877 15.2373C36.8296 15.2373 38.8096 13.2574 38.8096 10.8154C38.8096 8.3735 36.8296 6.39355 34.3877 6.39355Z" fill="black"/>
<path d="M16.7012 6.39355C14.2594 6.39375 12.2803 8.37361 12.2803 10.8154C12.2803 13.2573 14.2594 15.2371 16.7012 15.2373C19.1431 15.2373 21.123 13.2574 21.123 10.8154C21.123 8.3735 19.1431 6.39355 16.7012 6.39355Z" fill="black"/>
<path d="M502.627 0.459961C501.406 0.459961 500.416 1.44999 500.416 2.6709C500.416 3.89187 501.406 4.88184 502.627 4.88184C503.848 4.8818 504.838 3.89185 504.838 2.6709C504.838 1.45001 503.848 0.459998 502.627 0.459961Z" fill="black"/>
<path d="M484.94 0.459961C483.72 0.460188 482.731 1.45013 482.73 2.6709C482.73 3.89173 483.72 4.88161 484.94 4.88184C486.161 4.88184 487.151 3.89187 487.151 2.6709C487.151 1.44999 486.161 0.459961 484.94 0.459961Z" fill="black"/>
<path d="M467.255 0.459961C466.034 0.459961 465.044 1.44999 465.044 2.6709C465.044 3.89187 466.034 4.88184 467.255 4.88184C468.476 4.8818 469.466 3.89185 469.466 2.6709C469.466 1.45001 468.476 0.459998 467.255 0.459961Z" fill="black"/>
<path d="M449.568 0.459961C448.348 0.460056 447.357 1.45005 447.357 2.6709C447.357 3.89181 448.347 4.88174 449.568 4.88184C450.789 4.88184 451.779 3.89187 451.779 2.6709C451.779 1.44999 450.789 0.459961 449.568 0.459961Z" fill="black"/>
<path d="M431.883 0.459961C430.662 0.459961 429.672 1.44999 429.672 2.6709C429.672 3.89187 430.662 4.88184 431.883 4.88184C433.104 4.88167 434.093 3.89176 434.093 2.6709C434.093 1.45009 433.104 0.460129 431.883 0.459961Z" fill="black"/>
<path d="M414.196 0.459961C412.975 0.460056 411.985 1.45005 411.985 2.6709C411.985 3.89181 412.975 4.88174 414.196 4.88184C415.417 4.88184 416.407 3.89187 416.407 2.6709C416.407 1.44999 415.417 0.459961 414.196 0.459961Z" fill="black"/>
<path d="M396.511 0.459961C395.29 0.459961 394.3 1.44999 394.3 2.6709C394.3 3.89187 395.29 4.88184 396.511 4.88184C397.732 4.88167 398.721 3.89176 398.721 2.6709C398.721 1.45009 397.732 0.460129 396.511 0.459961Z" fill="black"/>
<path d="M378.824 0.459961C377.603 0.460056 376.613 1.45005 376.613 2.6709C376.613 3.89181 377.603 4.88174 378.824 4.88184C380.045 4.88184 381.035 3.89187 381.035 2.6709C381.035 1.44999 380.045 0.459961 378.824 0.459961Z" fill="black"/>
<path d="M361.138 0.459961C359.917 0.460188 358.928 1.45013 358.928 2.6709C358.928 3.89173 359.917 4.88161 361.138 4.88184C362.359 4.88184 363.349 3.89187 363.349 2.6709C363.349 1.44999 362.359 0.459961 361.138 0.459961Z" fill="black"/>
<path d="M343.452 0.459961C342.231 0.459961 341.241 1.44999 341.241 2.6709C341.241 3.89187 342.231 4.88184 343.452 4.88184C344.673 4.8818 345.663 3.89185 345.663 2.6709C345.663 1.45001 344.673 0.459998 343.452 0.459961Z" fill="black"/>
<path d="M325.766 0.459961C324.545 0.460188 323.556 1.45013 323.556 2.6709C323.556 3.89173 324.545 4.88161 325.766 4.88184C326.987 4.88184 327.977 3.89187 327.977 2.6709C327.976 1.44999 326.987 0.459961 325.766 0.459961Z" fill="black"/>
<path d="M308.08 0.459961C306.859 0.459961 305.869 1.44999 305.869 2.6709C305.869 3.89187 306.859 4.88184 308.08 4.88184C309.301 4.8818 310.291 3.89185 310.291 2.6709C310.291 1.45001 309.301 0.459998 308.08 0.459961Z" fill="black"/>
<path d="M290.394 0.459961C289.173 0.460056 288.183 1.45005 288.183 2.6709C288.183 3.89181 289.173 4.88174 290.394 4.88184C291.615 4.88184 292.604 3.89187 292.604 2.6709C292.604 1.44999 291.614 0.459961 290.394 0.459961Z" fill="black"/>
<path d="M272.708 0.459961C271.487 0.459961 270.497 1.44999 270.497 2.6709C270.497 3.89187 271.487 4.88184 272.708 4.88184C273.929 4.88167 274.918 3.89176 274.918 2.6709C274.918 1.45009 273.929 0.460129 272.708 0.459961Z" fill="black"/>
<path d="M255.021 0.459961C253.801 0.460056 252.811 1.45005 252.811 2.6709C252.811 3.89181 253.801 4.88174 255.021 4.88184C256.242 4.88184 257.232 3.89187 257.232 2.6709C257.232 1.44999 256.242 0.459961 255.021 0.459961Z" fill="black"/>
<path d="M237.336 0.459961C236.115 0.459961 235.125 1.44999 235.125 2.6709C235.125 3.89187 236.115 4.88184 237.336 4.88184C238.557 4.88167 239.546 3.89176 239.546 2.6709C239.546 1.45009 238.557 0.460129 237.336 0.459961Z" fill="black"/>
<path d="M219.649 0.459961C218.429 0.460056 217.439 1.45005 217.438 2.6709C217.438 3.89181 218.429 4.88174 219.649 4.88184C220.87 4.88184 221.86 3.89187 221.86 2.6709C221.86 1.44999 220.87 0.459961 219.649 0.459961Z" fill="black"/>
<path d="M201.963 0.459961C200.742 0.460188 199.753 1.45013 199.753 2.6709C199.753 3.89173 200.742 4.88161 201.963 4.88184C203.184 4.88184 204.174 3.89187 204.174 2.6709C204.174 1.44999 203.184 0.459961 201.963 0.459961Z" fill="black"/>
<path d="M184.277 0.459961C183.056 0.459961 182.066 1.44999 182.066 2.6709C182.066 3.89187 183.056 4.88184 184.277 4.88184C185.498 4.8818 186.488 3.89185 186.488 2.6709C186.488 1.45001 185.498 0.459998 184.277 0.459961Z" fill="black"/>
<path d="M166.591 0.459961C165.37 0.460188 164.381 1.45013 164.381 2.6709C164.381 3.89173 165.37 4.88161 166.591 4.88184C167.812 4.88184 168.802 3.89187 168.802 2.6709C168.802 1.44999 167.812 0.459961 166.591 0.459961Z" fill="black"/>
<path d="M148.905 0.459961C147.684 0.459961 146.694 1.44999 146.694 2.6709C146.694 3.89187 147.684 4.88184 148.905 4.88184C150.126 4.8818 151.116 3.89185 151.116 2.6709C151.116 1.45001 150.126 0.459998 148.905 0.459961Z" fill="black"/>
<path d="M131.219 0.459961C129.998 0.460056 129.008 1.45005 129.008 2.6709C129.008 3.89181 129.998 4.88174 131.219 4.88184C132.44 4.88184 133.43 3.89187 133.43 2.6709C133.43 1.44999 132.44 0.459961 131.219 0.459961Z" fill="black"/>
<path d="M113.533 0.459961C112.312 0.459961 111.322 1.44999 111.322 2.6709C111.322 3.89187 112.312 4.88184 113.533 4.88184C114.754 4.88167 115.743 3.89176 115.743 2.6709C115.743 1.45009 114.754 0.460129 113.533 0.459961Z" fill="black"/>
<path d="M95.8467 0.459961C94.6258 0.460056 93.6358 1.45005 93.6357 2.6709C93.6357 3.89181 94.6258 4.88174 95.8467 4.88184C97.0677 4.88184 98.0576 3.89187 98.0576 2.6709C98.0576 1.44999 97.0676 0.459961 95.8467 0.459961Z" fill="black"/>
<path d="M78.1611 0.459961C76.9402 0.459961 75.9503 1.44999 75.9502 2.6709C75.9502 3.89187 76.9402 4.88184 78.1611 4.88184C79.382 4.88167 80.3711 3.89176 80.3711 2.6709C80.371 1.45009 79.3819 0.460129 78.1611 0.459961Z" fill="black"/>
<path d="M60.4746 0.459961C59.2538 0.460056 58.2637 1.45005 58.2637 2.6709C58.2637 3.89181 59.2537 4.88174 60.4746 4.88184C61.6956 4.88184 62.6855 3.89187 62.6855 2.6709C62.6855 1.44999 61.6955 0.459961 60.4746 0.459961Z" fill="black"/>
<path d="M42.7881 0.459961C41.5674 0.460188 40.5782 1.45013 40.5781 2.6709C40.5781 3.89173 41.5673 4.88161 42.7881 4.88184C44.0091 4.88184 44.999 3.89187 44.999 2.6709C44.999 1.44999 44.009 0.459961 42.7881 0.459961Z" fill="black"/>
<path d="M25.1025 0.459961C23.8816 0.459961 22.8917 1.44999 22.8916 2.6709C22.8916 3.89187 23.8816 4.88184 25.1025 4.88184C26.3235 4.8818 27.3135 3.89185 27.3135 2.6709C27.3134 1.45001 26.3234 0.459998 25.1025 0.459961Z" fill="black"/>
<path d="M7.41602 0.459961C6.19528 0.460188 5.20612 1.45013 5.20605 2.6709C5.20605 3.89173 6.19525 4.88161 7.41602 4.88184C8.63699 4.88184 9.62695 3.89187 9.62695 2.6709C9.62689 1.44999 8.63693 0.459961 7.41602 0.459961Z" fill="black"/>
</svg>
