<svg width="500" height="36" viewBox="0 0 500 36" fill="none" xmlns="http://www.w3.org/2000/svg">
<path d="M440.763 32.9999C439.931 33.0001 439.257 33.6716 439.257 34.4999C439.257 35.3282 439.931 35.9997 440.763 35.9999L498.494 35.9999C499.326 35.9999 500 35.3283 500 34.4999C500 33.6716 499.326 33 498.494 32.9999L440.763 32.9999ZM378.012 32.9999C377.18 33.0001 376.506 33.6716 376.506 34.4999C376.506 35.3282 377.18 35.9997 378.012 35.9999L435.743 35.9999C436.575 35.9999 437.249 35.3283 437.249 34.4999C437.249 33.6716 436.575 33 435.743 32.9999L378.012 32.9999ZM315.261 32.9999C314.429 33.0001 313.755 33.6716 313.755 34.4999C313.755 35.3282 314.429 35.9997 315.261 35.9999L372.992 35.9999C373.824 35.9999 374.498 35.3283 374.498 34.4999C374.498 33.6716 373.824 33 372.992 32.9999L315.261 32.9999ZM252.51 32.9999C251.678 33.0001 251.004 33.6716 251.004 34.4999C251.004 35.3282 251.678 35.9997 252.51 35.9999L310.241 35.9999C311.073 35.9999 311.747 35.3283 311.747 34.4999C311.747 33.6716 311.073 33 310.241 32.9999L252.51 32.9999ZM189.76 32.9999C188.928 32.9999 188.253 33.6715 188.253 34.4999C188.253 35.3284 188.928 35.9999 189.76 35.9999L247.49 35.9999C248.322 35.9999 248.996 35.3284 248.996 34.4999C248.996 33.6715 248.322 32.9999 247.49 32.9999L189.76 32.9999ZM127.008 32.9999C126.176 33.0001 125.502 33.6716 125.502 34.4999C125.502 35.3282 126.176 35.9997 127.008 35.9999L184.739 35.9999C185.571 35.9999 186.245 35.3283 186.245 34.4999C186.245 33.6716 185.571 33 184.739 32.9999L127.008 32.9999ZM64.2568 32.9999C63.4251 33 62.751 33.6716 62.751 34.4999C62.751 35.3283 63.4251 35.9999 64.2568 35.9999L121.988 35.9999C122.82 35.9997 123.494 35.3282 123.494 34.4999C123.494 33.6716 122.82 33.0002 121.988 32.9999L64.2568 32.9999ZM1.50586 32.9999C0.674164 33 0 33.6716 0 34.4999C0 35.3283 0.674164 35.9999 1.50586 35.9999L59.2373 35.9999C60.0689 35.9997 60.7432 35.3282 60.7432 34.4999C60.7432 33.6716 60.0689 33.0002 59.2373 32.9999L1.50586 32.9999ZM1.50586 28.8749C0.674164 28.875 0 29.5466 0 30.3749C0 31.2033 0.674164 31.8749 1.50586 31.8749L59.2373 31.8749C60.0689 31.8747 60.7432 31.2032 60.7432 30.3749C60.7432 29.5466 60.0689 28.8752 59.2373 28.8749L1.50586 28.8749ZM64.2568 28.2851C63.4251 28.2852 62.751 28.9567 62.751 29.7851C62.751 30.6135 63.4251 31.285 64.2568 31.2851L121.988 31.2851C122.82 31.2849 123.494 30.6134 123.494 29.7851C123.494 28.9568 122.82 28.2853 121.988 28.2851L64.2568 28.2851ZM127.008 27.4999C126.176 27.5001 125.502 28.1716 125.502 28.9999C125.502 29.8282 126.176 30.4997 127.008 30.4999L184.739 30.4999C185.571 30.4999 186.245 29.8283 186.245 28.9999C186.245 28.1716 185.571 27.5 184.739 27.4999L127.008 27.4999ZM189.76 26.3994C188.928 26.3994 188.253 27.0709 188.253 27.8994C188.253 28.7278 188.928 29.3994 189.76 29.3994L247.49 29.3994C248.322 29.3994 248.996 28.7278 248.996 27.8994C248.996 27.0709 248.322 26.3994 247.49 26.3994L189.76 26.3994ZM252.51 24.7499C251.678 24.7501 251.004 25.4216 251.004 26.2499C251.004 27.0782 251.678 27.7497 252.51 27.7499L310.241 27.7499C311.073 27.7499 311.747 27.0783 311.747 26.2499C311.747 25.4216 311.073 24.75 310.241 24.7499L252.51 24.7499ZM1.50586 24.7499C0.674164 24.75 0 25.4216 0 26.2499C0 27.0783 0.674164 27.7499 1.50586 27.7499L59.2373 27.7499C60.0689 27.7497 60.7432 27.0782 60.7432 26.2499C60.7432 25.4216 60.0689 24.7502 59.2373 24.7499L1.50586 24.7499ZM64.2568 23.5712C63.4251 23.5713 62.751 24.2428 62.751 25.0712C62.751 25.8996 63.4252 26.5712 64.2568 26.5712L121.988 26.5712C122.82 26.571 123.494 25.8995 123.494 25.0712C123.494 24.2429 122.82 23.5714 121.988 23.5712L64.2568 23.5712ZM315.261 21.9999C314.429 22.0001 313.755 22.6716 313.755 23.4999C313.755 24.3282 314.429 24.9997 315.261 24.9999L372.992 24.9999C373.824 24.9999 374.498 24.3283 374.498 23.4999C374.498 22.6716 373.824 22 372.992 21.9999L315.261 21.9999ZM127.008 21.9999C126.176 22.0001 125.502 22.6716 125.502 23.4999C125.502 24.3282 126.176 24.9997 127.008 24.9999L184.739 24.9999C185.571 24.9999 186.245 24.3283 186.245 23.4999C186.245 22.6716 185.571 22 184.739 21.9999L127.008 21.9999ZM1.50586 20.6249C0.674164 20.625 0 21.2966 0 22.1249C0 22.9533 0.674164 23.6249 1.50586 23.6249L59.2373 23.6249C60.0689 23.6247 60.7432 22.9532 60.7432 22.1249C60.7432 21.2966 60.0689 20.6252 59.2373 20.6249L1.50586 20.6249ZM189.76 19.7997C188.928 19.7997 188.253 20.4713 188.253 21.2997C188.253 22.1281 188.928 22.7997 189.76 22.7997L247.49 22.7997C248.322 22.7997 248.996 22.1281 248.996 21.2997C248.996 20.4713 248.322 19.7997 247.49 19.7997L189.76 19.7997ZM64.2568 18.8564C63.4253 18.8564 62.7512 19.5282 62.751 20.3564C62.751 21.1848 63.4251 21.8563 64.2568 21.8564L121.988 21.8564C122.82 21.8562 123.494 21.1847 123.494 20.3564C123.494 19.5283 122.82 18.8566 121.988 18.8564L64.2568 18.8564ZM378.012 16.4999C377.18 16.5001 376.506 17.1716 376.506 17.9999C376.506 18.8282 377.18 19.4997 378.012 19.4999L435.743 19.4999C436.575 19.4999 437.249 18.8283 437.249 17.9999C437.249 17.1716 436.575 16.5 435.743 16.4999L378.012 16.4999ZM252.51 16.4999C251.678 16.5001 251.004 17.1716 251.004 17.9999C251.004 18.8282 251.678 19.4997 252.51 19.4999L310.241 19.4999C311.073 19.4999 311.747 18.8283 311.747 17.9999C311.747 17.1716 311.073 16.5 310.241 16.4999L252.51 16.4999ZM127.008 16.4999C126.176 16.5001 125.502 17.1716 125.502 17.9999C125.502 18.8282 126.176 19.4997 127.008 19.4999L184.739 19.4999C185.571 19.4999 186.245 18.8283 186.245 17.9999C186.245 17.1716 185.571 16.5 184.739 16.4999L127.008 16.4999ZM1.50586 16.4999C0.674164 16.5 0 17.1716 0 17.9999C0 18.8283 0.674164 19.4999 1.50586 19.4999L59.2373 19.4999C60.0689 19.4997 60.7432 18.8282 60.7432 17.9999C60.7432 17.1716 60.0689 16.5002 59.2373 16.4999L1.50586 16.4999ZM64.2568 14.1425C63.4251 14.1426 62.751 14.8141 62.751 15.6425C62.751 16.4709 63.4251 17.1425 64.2568 17.1425L121.988 17.1425C122.82 17.1423 123.494 16.4708 123.494 15.6425C123.494 14.8142 122.82 14.1427 121.988 14.1425L64.2568 14.1425ZM189.76 13.2001C188.928 13.2001 188.253 13.871 188.253 14.6992C188.253 15.5276 188.928 16.1992 189.76 16.1992L247.49 16.1992C248.322 16.1992 248.996 15.5276 248.996 14.6992C248.996 13.871 248.322 13.2001 247.49 13.2001L189.76 13.2001ZM1.50586 12.3749C0.674164 12.375 0 13.0466 0 13.8749C0 14.7033 0.674164 15.3749 1.50586 15.3749L59.2373 15.3749C60.0689 15.3747 60.7432 14.7032 60.7432 13.8749C60.7432 13.0466 60.0689 12.3752 59.2373 12.3749L1.50586 12.3749ZM315.261 10.9999C314.429 11.0001 313.755 11.6716 313.755 12.4999C313.755 13.3282 314.429 13.9997 315.261 13.9999L372.992 13.9999C373.824 13.9999 374.498 13.3283 374.498 12.4999C374.498 11.6716 373.824 11 372.992 10.9999L315.261 10.9999ZM127.008 10.9999C126.176 11.0001 125.502 11.6716 125.502 12.4999C125.502 13.3282 126.176 13.9997 127.008 13.9999L184.739 13.9999C185.571 13.9999 186.245 13.3283 186.245 12.4999C186.245 11.6716 185.571 11 184.739 10.9999L127.008 10.9999ZM64.2568 9.42865C63.4253 9.42871 62.7513 10.0995 62.751 10.9277C62.751 11.7561 63.4251 12.4276 64.2568 12.4277L121.988 12.4277C122.82 12.4275 123.494 11.756 123.494 10.9277C123.494 10.0996 122.82 9.42887 121.988 9.42865L64.2568 9.42865ZM252.51 8.24994C251.678 8.25013 251.004 8.92163 251.004 9.74994C251.004 10.5782 251.678 11.2497 252.51 11.2499L310.241 11.2499C311.073 11.2499 311.747 10.5783 311.747 9.74994C311.747 8.92157 311.073 8.25003 310.241 8.24994L252.51 8.24994ZM1.50586 8.24994C0.674164 8.25 0 8.92155 0 9.74994C0 10.5783 0.674164 11.2499 1.50586 11.2499L59.2373 11.2499C60.0689 11.2497 60.7432 10.5782 60.7432 9.74994C60.7432 8.92165 60.0689 8.25016 59.2373 8.24994L1.50586 8.24994ZM189.76 6.59955C188.928 6.59955 188.253 7.27112 188.253 8.09955C188.253 8.92797 188.928 9.59955 189.76 9.59955L247.49 9.59955C248.322 9.59955 248.996 8.92797 248.996 8.09955C248.996 7.27112 248.322 6.59955 247.49 6.59955L189.76 6.59955ZM127.008 5.49994C126.176 5.50013 125.502 6.17163 125.502 6.99994C125.502 7.82825 126.176 8.49975 127.008 8.49994L184.739 8.49994C185.571 8.49985 186.245 7.82831 186.245 6.99994C186.245 6.17157 185.571 5.50003 184.739 5.49994L127.008 5.49994ZM64.2568 4.71381C63.4251 4.71387 62.751 5.38542 62.751 6.21381C62.751 7.04219 63.4251 7.71374 64.2568 7.71381L121.988 7.71381C122.82 7.71359 123.494 7.0421 123.494 6.21381C123.494 5.38552 122.82 4.71403 121.988 4.71381L64.2568 4.71381ZM1.50586 4.12494C0.674164 4.125 0 4.79655 0 5.62494C0 6.45333 0.674164 7.12488 1.50586 7.12494L59.2373 7.12494C60.0689 7.12472 60.7432 6.45323 60.7432 5.62494C60.7432 4.79665 60.0689 4.12516 59.2373 4.12494L1.50586 4.12494ZM440.763 -6.10352e-05C439.931 0.000131949 439.257 0.671632 439.257 1.49994C439.257 2.32825 439.931 2.99975 440.763 2.99994L498.494 2.99994C499.326 2.99985 500 2.32831 500 1.49994C500 0.671567 499.326 2.76377e-05 498.494 -6.10352e-05L440.763 -6.10352e-05ZM378.012 -6.10352e-05C377.18 0.000131949 376.506 0.671632 376.506 1.49994C376.506 2.32825 377.18 2.99975 378.012 2.99994L435.743 2.99994C436.575 2.99985 437.249 2.32831 437.249 1.49994C437.249 0.671567 436.575 2.76377e-05 435.743 -6.10352e-05L378.012 -6.10352e-05ZM315.261 -6.10352e-05C314.429 0.000131949 313.755 0.671632 313.755 1.49994C313.755 2.32825 314.429 2.99975 315.261 2.99994L372.992 2.99994C373.824 2.99985 374.498 2.32831 374.498 1.49994C374.498 0.671567 373.824 2.76377e-05 372.992 -6.10352e-05L315.261 -6.10352e-05ZM252.51 -6.10352e-05C251.678 0.000131949 251.004 0.671632 251.004 1.49994C251.004 2.32825 251.678 2.99975 252.51 2.99994L310.241 2.99994C311.073 2.99985 311.747 2.32831 311.747 1.49994C311.747 0.671567 311.073 2.76377e-05 310.241 -6.10352e-05L252.51 -6.10352e-05ZM189.76 -6.10352e-05C188.928 -6.10352e-05 188.253 0.671513 188.253 1.49994C188.253 2.32836 188.928 2.99994 189.76 2.99994L247.49 2.99994C248.322 2.99994 248.996 2.32836 248.996 1.49994C248.996 0.671513 248.322 -6.10352e-05 247.49 -6.10352e-05L189.76 -6.10352e-05ZM127.008 -6.10352e-05C126.176 0.000131949 125.502 0.671632 125.502 1.49994C125.502 2.32825 126.176 2.99975 127.008 2.99994L184.739 2.99994C185.571 2.99985 186.245 2.32831 186.245 1.49994C186.245 0.671567 185.571 2.76377e-05 184.739 -6.10352e-05L127.008 -6.10352e-05ZM64.2568 -6.10352e-05C63.4251 5.62577e-07 62.751 0.671551 62.751 1.49994C62.751 2.32833 63.4251 2.99988 64.2568 2.99994L121.988 2.99994C122.82 2.99972 123.494 2.32823 123.494 1.49994C123.494 0.671649 122.82 0.000159017 121.988 -6.10352e-05L64.2568 -6.10352e-05ZM1.50586 -6.10352e-05C0.674164 5.62577e-07 0 0.671551 0 1.49994C0 2.32833 0.674164 2.99988 1.50586 2.99994L59.2373 2.99994C60.0689 2.99972 60.7432 2.32823 60.7432 1.49994C60.7432 0.671649 60.0689 0.000159017 59.2373 -6.10352e-05L1.50586 -6.10352e-05Z" fill="black"/>
</svg>
