<svg width="500" height="39" viewBox="0 0 500 39" fill="none" xmlns="http://www.w3.org/2000/svg">
<path d="M10.4229 0.709961C9.30057 0.709961 8.54294 1.66311 8.02637 2.66211C7.47507 3.72847 7.0105 5.20618 6.59961 6.90918C5.98145 9.47139 5.45724 12.6653 4.95996 15.9951L3.97754 22.71C3.48245 26.0245 2.96841 29.159 2.36523 31.6592C1.96194 33.3307 1.53085 34.666 1.06445 35.5684C0.563202 36.5379 0.180359 36.71 0 36.71V38.21C1.54196 38.21 2.85901 37.5356 3.97852 36.4521C5.08594 35.3803 6.02713 33.885 6.85938 32.1611C8.10626 29.5782 9.16199 26.3625 10.1602 23.0264L12.1289 16.3115C12.6243 14.6565 13.1278 13.0503 13.6572 11.5479C14.0929 14.0345 14.4933 16.7911 14.8955 19.5674C15.5457 24.0547 16.2016 28.5944 17.0254 32.0107C17.436 33.7135 17.9007 35.1906 18.4512 36.2568C18.7264 36.7899 19.044 37.2622 19.4209 37.6084C19.8061 37.9621 20.2844 38.21 20.8457 38.21C21.4068 38.2098 21.8845 37.962 22.2695 37.6084C22.6464 37.2622 22.9641 36.7899 23.2393 36.2568C23.7895 35.1906 24.2529 33.7135 24.6631 32.0107C25.486 28.5944 26.142 24.0547 26.791 19.5674C27.1932 16.7863 27.5936 14.0251 28.0293 11.5352C28.5598 13.0412 29.0637 14.6518 29.5596 16.3115L31.5244 23.0264C32.5208 26.3625 33.5748 29.5783 34.8203 32.1611C35.6517 33.8851 36.5932 35.3803 37.7002 36.4521C38.8192 37.5355 40.1358 38.21 41.6777 38.21L41.6807 38.209L41.6816 38.21C41.6833 38.21 41.6849 38.209 41.6865 38.209C43.2246 38.2063 44.5384 37.5335 45.6553 36.4521C46.7622 35.3803 47.7028 33.885 48.5342 32.1611C49.7797 29.5783 50.8336 26.3624 51.8301 23.0264L53.7949 16.3115C54.2906 14.6525 54.795 13.0426 55.3252 11.5371C55.5841 13.0166 55.8306 14.5918 56.0723 16.21L57.0547 22.9248C57.5519 26.2546 58.0762 29.4485 58.6943 32.0107C59.1052 33.7137 59.5698 35.1914 60.1211 36.2578C60.6377 37.2569 61.3952 38.21 62.5176 38.21C63.6398 38.2098 64.3968 37.2568 64.9131 36.2578C65.4641 35.1914 65.9284 33.7137 66.3389 32.0107C66.9564 29.4485 67.4799 26.2546 67.9766 22.9248L68.957 16.21C69.1964 14.6045 69.4419 13.0416 69.6982 11.5723C70.5751 14.0691 71.3796 16.8516 72.1943 19.668C73.4904 24.1478 74.8099 28.7171 76.4717 32.1611C77.3036 33.8852 78.2461 35.3802 79.3545 36.4521C80.4749 37.5356 81.7931 38.21 83.3369 38.21C83.3408 38.21 83.3447 38.209 83.3486 38.209C83.3503 38.209 83.3519 38.21 83.3535 38.21C83.3597 38.21 83.3659 38.209 83.3721 38.209C84.9006 38.1987 86.207 37.5273 87.3193 36.4521C88.4282 35.3803 89.3704 33.8852 90.2031 32.1611C91.4507 29.5781 92.5063 26.3626 93.5039 23.0264L95.4707 16.3115C95.9664 14.6539 96.4709 13.0454 97.001 11.541C97.436 14.0294 97.8354 16.7886 98.2373 19.5674C98.8863 24.0547 99.5421 28.5943 100.366 32.0107C100.777 33.7137 101.242 35.1914 101.793 36.2578C102.31 37.2569 103.067 38.21 104.189 38.21C105.312 38.2099 106.069 37.2569 106.586 36.2578C107.137 35.1914 107.602 33.7137 108.014 32.0107C108.632 29.4485 109.157 26.2546 109.655 22.9248L110.638 16.21C110.877 14.608 111.123 13.0485 111.379 11.582C112.254 14.0764 113.058 16.8552 113.872 19.668C115.168 24.1478 116.488 28.7171 118.149 32.1611C118.981 33.8851 119.923 35.3803 121.031 36.4521C122.152 37.5357 123.47 38.2099 125.014 38.21C125.016 38.21 125.019 38.209 125.021 38.209C125.023 38.209 125.024 38.21 125.025 38.21C125.03 38.21 125.035 38.209 125.039 38.209C126.572 38.2016 127.882 37.5297 128.997 36.4521C130.106 35.3803 131.048 33.8851 131.881 32.1611C133.128 29.5782 134.184 26.3625 135.182 23.0264L137.148 16.3115C137.643 14.6564 138.147 13.0503 138.676 11.5479C138.934 13.0242 139.18 14.5957 139.421 16.21L140.403 22.9248C140.901 26.2546 141.424 29.4486 142.042 32.0107C142.453 33.7136 142.917 35.1905 143.468 36.2568C143.743 36.7899 144.061 37.2622 144.438 37.6084C144.823 37.9619 145.3 38.2099 145.861 38.21C146.423 38.21 146.901 37.9622 147.286 37.6084C147.663 37.2622 147.981 36.7899 148.256 36.2568C148.806 35.1906 149.27 33.7135 149.681 32.0107C150.298 29.4486 150.822 26.2546 151.319 22.9248L152.302 16.21C152.543 14.5956 152.79 13.0242 153.048 11.5479C153.577 13.0502 154.079 14.6565 154.573 16.3115L156.538 23.0264C157.535 26.3625 158.589 29.5783 159.835 32.1611C160.666 33.885 161.607 35.3803 162.714 36.4521C163.831 37.5342 165.146 38.2073 166.686 38.209L166.688 38.21L166.69 38.209L166.691 38.21C168.233 38.2099 169.55 37.5356 170.669 36.4521C171.776 35.3803 172.716 33.885 173.548 32.1611C174.793 29.5783 175.847 26.3624 176.844 23.0264L178.809 16.3115C179.303 14.6552 179.807 13.0482 180.337 11.5449C180.772 14.0323 181.171 16.79 181.572 19.5674C182.221 24.0547 182.877 28.5943 183.701 32.0107C184.112 33.7137 184.577 35.1914 185.128 36.2578C185.645 37.2569 186.402 38.21 187.524 38.21C188.647 38.2099 189.404 37.2569 189.921 36.2578C190.472 35.1914 190.937 33.7137 191.349 32.0107C191.967 29.4485 192.492 26.2546 192.99 22.9248L193.973 16.21C194.212 14.6073 194.457 13.0471 194.714 11.5801C195.59 14.075 196.394 16.8545 197.208 19.668C198.504 24.1478 199.824 28.7171 201.485 32.1611C202.317 33.8852 203.26 35.3802 204.368 36.4521C205.489 37.5356 206.807 38.21 208.351 38.21C208.353 38.21 208.355 38.209 208.357 38.209L208.36 38.21C208.364 38.21 208.368 38.209 208.371 38.209C209.906 38.2029 211.218 37.5308 212.333 36.4521C213.441 35.3802 214.383 33.8851 215.215 32.1611C216.877 28.7171 218.196 24.1478 219.492 19.668C220.312 16.8345 221.123 14.0359 222.006 11.5273C222.442 14.0193 222.841 16.7835 223.244 19.5674C223.893 24.0547 224.549 28.5943 225.373 32.0107C225.784 33.7137 226.249 35.1914 226.8 36.2578C227.316 37.2569 228.074 38.21 229.196 38.21C230.319 38.21 231.076 37.2569 231.593 36.2578C232.144 35.1914 232.609 33.7137 233.021 32.0107C233.639 29.4485 234.164 26.2546 234.662 22.9248L235.645 16.21C235.883 14.6162 236.127 13.0644 236.382 11.6045C237.254 14.0931 238.056 16.8636 238.867 19.668C240.163 24.1478 241.483 28.7171 243.145 32.1611C243.976 33.8851 244.918 35.3802 246.026 36.4521C247.147 37.5356 248.465 38.2098 250.009 38.21C250.014 38.21 250.019 38.209 250.024 38.209C250.027 38.209 250.03 38.21 250.032 38.21C250.041 38.21 250.05 38.2081 250.059 38.208C251.581 38.1937 252.883 37.5239 253.992 36.4521C255.101 35.3803 256.043 33.8852 256.876 32.1611C258.124 29.5781 259.179 26.3626 260.177 23.0264L262.144 16.3115C262.641 14.6485 263.147 13.0349 263.679 11.5264C263.938 13.009 264.185 14.5878 264.428 16.21L265.41 22.9248C265.907 26.2546 266.431 29.4486 267.049 32.0107C267.459 33.7136 267.924 35.1906 268.475 36.2568C268.75 36.7899 269.067 37.2622 269.444 37.6084C269.829 37.9619 270.307 38.2099 270.868 38.21C271.43 38.21 271.908 37.9621 272.293 37.6084C272.67 37.2622 272.987 36.7899 273.263 36.2568C273.813 35.1906 274.277 33.7135 274.688 32.0107C275.305 29.4486 275.829 26.2546 276.326 22.9248L277.309 16.21C277.548 14.6059 277.793 13.0443 278.05 11.5762C278.926 14.072 279.731 16.853 280.545 19.668C281.841 24.1478 283.161 28.7171 284.822 32.1611C285.654 33.8851 286.596 35.3803 287.704 36.4521C288.825 37.5357 290.143 38.2099 291.687 38.21C291.688 38.21 291.69 38.209 291.692 38.209L291.695 38.21C291.699 38.21 291.702 38.209 291.705 38.209C293.241 38.2036 294.553 37.5314 295.669 36.4521C296.777 35.3803 297.719 33.8851 298.551 32.1611C300.213 28.7171 301.533 24.1478 302.829 19.668C303.648 16.8361 304.458 14.0387 305.341 11.5312C305.777 14.0222 306.177 16.7849 306.579 19.5674C307.228 24.0547 307.884 28.5943 308.708 32.0107C309.119 33.7137 309.583 35.1914 310.135 36.2578C310.651 37.2569 311.409 38.21 312.531 38.21C313.653 38.2099 314.411 37.2569 314.928 36.2578C315.479 35.1914 315.944 33.7137 316.355 32.0107C316.974 29.4485 317.499 26.2546 317.997 22.9248L318.979 16.21C319.218 14.6155 319.462 13.063 319.717 11.6025C320.589 14.0917 321.392 16.8628 322.203 19.668C323.499 24.1478 324.82 28.7171 326.481 32.1611C327.313 33.8851 328.255 35.3803 329.363 36.4521C330.484 37.5357 331.802 38.21 333.346 38.21C333.351 38.21 333.355 38.209 333.36 38.209C333.363 38.209 333.365 38.21 333.367 38.21C333.375 38.21 333.383 38.2081 333.392 38.208C334.916 38.1948 336.219 37.5248 337.329 36.4521C338.438 35.3803 339.38 33.8851 340.213 32.1611C341.46 29.5782 342.516 26.3625 343.514 23.0264L345.48 16.3115C345.975 14.6571 346.478 13.0517 347.007 11.5498C347.265 13.0256 347.51 14.5964 347.751 16.21L348.731 22.9248C349.229 26.2547 349.753 29.4484 350.371 32.0107C350.782 33.7137 351.247 35.1914 351.798 36.2578C352.314 37.2569 353.072 38.21 354.194 38.21C355.317 38.2098 356.074 37.2569 356.591 36.2578C357.142 35.1914 357.607 33.7137 358.018 32.0107C358.842 28.5943 359.497 24.0547 360.146 19.5674C360.548 16.7932 360.948 14.0388 361.382 11.5537C361.91 13.0544 362.411 14.6587 362.905 16.3115L364.87 23.0264C365.867 26.3624 366.92 29.5783 368.166 32.1611C368.997 33.8851 369.939 35.3803 371.046 36.4521C372.163 37.5341 373.478 38.2073 375.018 38.209L375.021 38.21L375.022 38.209L375.023 38.21C376.565 38.2099 377.882 37.5356 379.001 36.4521C380.108 35.3803 381.049 33.885 381.88 32.1611C383.125 29.5783 384.179 26.3624 385.176 23.0264L387.141 16.3115C387.635 14.6552 388.14 13.0483 388.669 11.5449C389.104 14.0323 389.503 16.79 389.904 19.5674C390.553 24.0547 391.209 28.5943 392.033 32.0107C392.444 33.7137 392.909 35.1914 393.46 36.2578C393.976 37.2569 394.734 38.2098 395.856 38.21C396.979 38.21 397.736 37.2569 398.253 36.2578C398.804 35.1914 399.269 33.7137 399.68 32.0107C400.298 29.4484 400.822 26.2547 401.319 22.9248L402.3 16.21C402.54 14.5999 402.786 13.0325 403.043 11.5596C403.57 13.0586 404.071 14.6608 404.564 16.3115L406.529 23.0264C407.526 26.3624 408.58 29.5783 409.825 32.1611C410.657 33.885 411.597 35.3803 412.704 36.4521C413.823 37.5356 415.14 38.2098 416.682 38.21L416.684 38.209V38.21L416.687 38.209C418.226 38.2076 419.541 37.5344 420.659 36.4521C421.766 35.3803 422.708 33.8851 423.539 32.1611C424.785 29.5783 425.839 26.3624 426.835 23.0264L428.8 16.3115C429.296 14.6509 429.801 13.0399 430.332 11.5332C430.591 13.0138 430.837 14.5904 431.079 16.21L432.062 22.9248C432.559 26.2546 433.082 29.4486 433.7 32.0107C434.111 33.7136 434.575 35.1905 435.126 36.2568C435.401 36.7899 435.719 37.2622 436.096 37.6084C436.481 37.9619 436.958 38.2099 437.52 38.21C438.081 38.21 438.559 37.9622 438.944 37.6084C439.321 37.2622 439.639 36.7899 439.914 36.2568C440.464 35.1906 440.928 33.7135 441.339 32.0107C441.957 29.4486 442.48 26.2546 442.978 22.9248L443.96 16.21C444.2 14.6038 444.445 13.0402 444.702 11.5703C445.579 14.0677 446.384 16.8508 447.199 19.668C448.495 24.1478 449.815 28.7171 451.477 32.1611C452.308 33.8851 453.25 35.3803 454.358 36.4521C455.479 37.5357 456.797 38.2099 458.341 38.21C458.342 38.21 458.343 38.209 458.345 38.209L458.347 38.21C458.349 38.21 458.351 38.209 458.354 38.209C459.892 38.2053 461.206 37.5328 462.323 36.4521C463.431 35.3802 464.372 33.885 465.203 32.1611C466.448 29.578 467.501 26.3617 468.496 23.0254L470.457 16.3105C470.951 14.6531 471.455 13.0451 471.984 11.541C472.419 14.0294 472.819 16.7885 473.221 19.5674C473.87 24.0547 474.526 28.5943 475.35 32.0107C475.76 33.7137 476.225 35.1914 476.776 36.2578C477.293 37.2569 478.051 38.2098 479.173 38.21C480.295 38.21 481.053 37.2569 481.569 36.2578C482.12 35.1914 482.585 33.7137 482.995 32.0107C483.613 29.4485 484.135 26.2546 484.632 22.9248L485.612 16.21C485.854 14.5903 486.101 13.0138 486.359 11.5332C487.243 14.0401 488.053 16.8366 488.872 19.668C490.168 24.1475 491.486 28.7163 493.146 32.1602C493.976 33.8842 494.917 35.3802 496.023 36.4521C497.142 37.5356 498.458 38.21 500 38.21V36.71C499.911 36.71 499.78 36.6765 499.591 36.5029C499.394 36.3219 499.172 36.0204 498.939 35.5693C498.474 34.6669 498.043 33.331 497.641 31.6592C496.838 28.3256 496.192 23.8649 495.539 19.3525C494.89 14.8652 494.234 10.3256 493.41 6.90918C492.999 5.20618 492.535 3.72847 491.983 2.66211C491.467 1.66312 490.709 0.710138 489.587 0.709961C488.465 0.709961 487.707 1.6631 487.19 2.66211C486.69 3.6308 486.262 4.93923 485.88 6.44727C485.086 4.85525 484.194 3.47434 483.153 2.46777C482.033 1.38436 480.715 0.710074 479.171 0.709961C477.627 0.709961 476.309 1.38418 475.188 2.46777C474.148 3.4745 473.257 4.85596 472.464 6.44824C472.082 4.93994 471.653 3.63191 471.153 2.66309C470.878 2.13007 470.561 1.65773 470.185 1.31152C469.799 0.957787 469.321 0.709961 468.76 0.709961C468.198 0.709972 467.72 0.957837 467.335 1.31152C466.958 1.65769 466.641 2.1301 466.366 2.66309C465.816 3.72934 465.351 5.20626 464.94 6.90918C464.323 9.47135 463.799 12.6653 463.302 15.9951L462.319 22.71C461.824 26.0245 461.31 29.159 460.707 31.6592C460.304 33.331 459.873 34.6669 459.407 35.5693C459.174 36.0203 458.953 36.3218 458.756 36.5029C458.568 36.6751 458.437 36.7084 458.349 36.709H458.346C458.257 36.7087 458.125 36.6759 457.937 36.5029C457.739 36.3218 457.518 36.0202 457.285 35.5693C456.819 34.6669 456.388 33.331 455.985 31.6592C455.383 29.1589 454.868 26.0245 454.373 22.71L453.391 15.9951C452.893 12.6653 452.37 9.47133 451.752 6.90918C451.341 5.20642 450.878 3.72931 450.327 2.66309C450.052 2.13007 449.734 1.6577 449.357 1.31152C448.972 0.957905 448.494 0.709961 447.933 0.709961C447.372 0.710074 446.894 0.958041 446.509 1.31152C446.132 1.6577 445.814 2.13007 445.539 2.66309C445.036 3.63666 444.606 4.95301 444.223 6.4707C443.427 4.86899 442.532 3.47918 441.488 2.46777C440.37 1.3844 439.054 0.710015 437.512 0.709961C435.97 0.709961 434.653 1.38442 433.534 2.46777C432.495 3.47417 431.605 4.85552 430.812 6.44727C430.429 4.93934 430 3.63171 429.5 2.66309C429.225 2.13007 428.907 1.6577 428.53 1.31152C428.145 0.958049 427.667 0.710031 427.106 0.709961C426.545 0.709961 426.067 0.957868 425.682 1.31152C425.305 1.6577 424.987 2.13007 424.712 2.66309C424.161 3.7293 423.698 5.20644 423.287 6.90918C422.463 10.3255 421.806 14.8651 421.156 19.3525C420.502 23.8649 419.855 28.3258 419.05 31.6592C418.646 33.3308 418.215 34.6661 417.748 35.5684C417.247 36.5362 416.865 36.7084 416.685 36.709H416.684C416.503 36.709 416.12 36.5379 415.619 35.5684C415.153 34.666 414.722 33.3307 414.318 31.6592C413.514 28.3257 412.868 23.8649 412.216 19.3525C411.567 14.8652 410.911 10.3255 410.088 6.90918C409.678 5.20644 409.214 3.7293 408.664 2.66309C408.389 2.13006 408.071 1.65773 407.694 1.31152C407.309 0.958006 406.832 0.710057 406.271 0.709961C405.709 0.709961 405.231 0.957851 404.846 1.31152C404.469 1.65773 404.151 2.13006 403.876 2.66309C403.374 3.63555 402.946 4.95037 402.563 6.46582C401.768 4.86597 400.874 3.47822 399.83 2.46777C398.711 1.38437 397.394 0.709961 395.853 0.709961C394.311 0.709964 392.994 1.38436 391.875 2.46777C390.834 3.47567 389.943 4.85936 389.148 6.4541C388.766 4.94337 388.338 3.63313 387.837 2.66309C387.562 2.13007 387.245 1.65773 386.868 1.31152C386.483 0.957787 386.005 0.709961 385.443 0.709961C384.882 0.709968 384.404 0.957836 384.019 1.31152C383.642 1.65769 383.324 2.1301 383.049 2.66309C382.498 3.72931 382.035 5.20648 381.624 6.90918C381.006 9.47135 380.482 12.6653 379.984 15.9951L379.002 22.71C378.506 26.0245 377.991 29.159 377.388 31.6592C376.984 33.3309 376.552 34.666 376.085 35.5684C375.584 36.5362 375.202 36.7084 375.021 36.709H375.021C374.84 36.7088 374.458 36.5375 373.957 35.5684C373.491 34.6661 373.059 33.3308 372.656 31.6592C371.852 28.3257 371.205 23.8649 370.553 19.3525C369.904 14.8652 369.249 10.3255 368.426 6.90918C368.016 5.20631 367.551 3.72935 367.001 2.66309C366.726 2.13006 366.408 1.65773 366.031 1.31152C365.646 0.958021 365.169 0.709978 364.607 0.709961C364.046 0.709961 363.568 0.957787 363.183 1.31152C362.806 1.65773 362.489 2.13006 362.214 2.66309C361.713 3.63436 361.284 4.94681 360.901 6.45996C360.106 4.86261 359.213 3.47697 358.171 2.46777C357.052 1.38443 355.735 0.709961 354.193 0.709961C352.652 0.710027 351.335 1.38438 350.216 2.46777C349.174 3.47665 348.282 4.86228 347.487 6.45898C347.105 4.94611 346.675 3.63421 346.174 2.66309C345.899 2.13007 345.582 1.65772 345.205 1.31152C344.82 0.957842 344.342 0.709961 343.78 0.709961C343.219 0.710046 342.741 0.958047 342.356 1.31152C341.98 1.6577 341.662 2.13007 341.387 2.66309C340.836 3.72933 340.371 5.20632 339.961 6.90918C339.137 10.3255 338.482 14.8651 337.832 19.3525C337.179 23.8649 336.532 28.3256 335.729 31.6592C335.325 33.331 334.895 34.6669 334.429 35.5693C334.196 36.0201 333.974 36.3218 333.777 36.5029C333.593 36.6721 333.463 36.7073 333.374 36.709C333.37 36.709 333.367 36.709 333.363 36.709C333.274 36.708 333.143 36.674 332.957 36.5029C332.76 36.3218 332.538 36.0201 332.306 35.5693C331.84 34.6669 331.409 33.331 331.006 31.6592C330.202 28.3256 329.556 23.8649 328.902 19.3525C328.253 14.8651 327.597 10.3255 326.773 6.90918C326.363 5.20633 325.898 3.72933 325.348 2.66309C325.072 2.13007 324.755 1.6577 324.378 1.31152C323.993 0.958044 323.515 0.71006 322.954 0.709961C322.393 0.709961 321.914 0.957895 321.529 1.31152C321.152 1.6577 320.835 2.13007 320.56 2.66309C320.054 3.64164 319.623 4.96663 319.238 6.49414C318.44 4.88252 317.542 3.48411 316.493 2.46777C315.375 1.38439 314.058 0.710093 312.517 0.709961C310.975 0.709961 309.658 1.38426 308.539 2.46777C307.501 3.47333 306.612 4.85336 305.82 6.44336C305.439 4.93718 305.011 3.63083 304.512 2.66309C304.237 2.13006 303.919 1.65773 303.542 1.31152C303.157 0.958001 302.679 0.710082 302.118 0.709961C301.557 0.709961 301.078 0.957914 300.693 1.31152C300.316 1.6577 299.999 2.13007 299.724 2.66309C299.173 3.72932 298.708 5.20639 298.298 6.90918C297.474 10.3255 296.818 14.8652 296.168 19.3525C295.514 23.8649 294.866 28.3257 294.062 31.6592C293.658 33.3307 293.226 34.666 292.76 35.5684C292.261 36.5324 291.88 36.707 291.698 36.709C291.697 36.709 291.696 36.709 291.694 36.709C291.514 36.7084 291.131 36.5362 290.631 35.5684C290.164 34.666 289.733 33.3307 289.33 31.6592C288.526 28.3257 287.88 23.8649 287.228 19.3525C286.579 14.8652 285.923 10.3255 285.1 6.90918C284.689 5.20646 284.226 3.72931 283.676 2.66309C283.401 2.13006 283.083 1.65773 282.706 1.31152C282.321 0.957887 281.842 0.709961 281.281 0.709961C280.72 0.710097 280.242 0.958037 279.857 1.31152C279.48 1.6577 279.163 2.13007 278.888 2.66309C278.384 3.63806 277.955 4.95708 277.571 6.47754C276.775 4.87286 275.88 3.48066 274.834 2.46777C273.715 1.3844 272.399 0.710035 270.857 0.709961C269.316 0.709961 267.999 1.38445 266.88 2.46777C265.841 3.47323 264.951 4.85254 264.158 6.44238C263.776 4.93658 263.348 3.63063 262.849 2.66309C262.573 2.13007 262.256 1.6577 261.879 1.31152C261.494 0.958054 261.016 0.710006 260.455 0.709961C259.894 0.709961 259.415 0.957885 259.03 1.31152C258.653 1.65767 258.336 2.13008 258.061 2.66309C257.51 3.7293 257.045 5.20642 256.634 6.90918C255.809 10.3255 255.152 14.8652 254.501 19.3525C253.847 23.8648 253.199 28.3257 252.395 31.6592C251.991 33.3309 251.56 34.6669 251.094 35.5693C250.861 36.0201 250.64 36.3218 250.442 36.5029C250.259 36.6715 250.129 36.707 250.04 36.709C250.036 36.709 250.032 36.709 250.028 36.709C249.939 36.708 249.808 36.674 249.622 36.5029C249.425 36.3218 249.203 36.0201 248.971 35.5693C248.505 34.6669 248.074 33.331 247.671 31.6592C246.867 28.3256 246.221 23.8649 245.567 19.3525C244.918 14.8651 244.262 10.3255 243.438 6.90918C243.028 5.20631 242.563 3.72934 242.013 2.66309C241.737 2.13007 241.42 1.6577 241.043 1.31152C240.658 0.95805 240.18 0.710028 239.619 0.709961C239.058 0.709961 238.579 0.957865 238.194 1.31152C237.817 1.6577 237.5 2.13007 237.225 2.66309C236.719 3.64203 236.288 4.96782 235.903 6.49609C235.105 4.88365 234.206 3.48452 233.156 2.46777C232.038 1.38443 230.722 0.709961 229.18 0.709961C227.638 0.709979 226.322 1.38441 225.203 2.46777C224.166 3.47275 223.276 4.85159 222.484 6.44043C222.103 4.93551 221.676 3.63019 221.177 2.66309C220.902 2.13006 220.584 1.65773 220.207 1.31152C219.822 0.958006 219.344 0.710058 218.783 0.709961C218.222 0.709961 217.744 0.957893 217.358 1.31152C216.981 1.6577 216.664 2.13007 216.389 2.66309C215.838 3.7293 215.374 5.20643 214.964 6.90918C214.14 10.3255 213.483 14.8651 212.833 19.3525C212.179 23.8649 211.531 28.3258 210.727 31.6592C210.323 33.3307 209.891 34.6661 209.425 35.5684C208.926 36.5325 208.545 36.7071 208.363 36.709C208.362 36.709 208.361 36.709 208.359 36.709C208.179 36.7084 207.796 36.5362 207.296 35.5684C206.83 34.666 206.398 33.3307 205.995 31.6592C205.191 28.3257 204.545 23.8649 203.893 19.3525C203.244 14.8652 202.588 10.3255 201.765 6.90918C201.354 5.20645 200.891 3.72931 200.341 2.66309C200.066 2.13006 199.748 1.65773 199.371 1.31152C198.986 0.958 198.508 0.710089 197.947 0.709961C197.386 0.709961 196.908 0.95792 196.522 1.31152C196.146 1.6577 195.828 2.13007 195.553 2.66309C195.049 3.63807 194.619 4.95707 194.235 6.47754C193.439 4.87288 192.544 3.48065 191.498 2.46777C190.379 1.38423 189.062 0.709961 187.521 0.709961C185.979 0.710037 184.662 1.38438 183.543 2.46777C182.502 3.47585 181.611 4.86 180.816 6.45508C180.434 4.94397 180.006 3.63334 179.505 2.66309C179.23 2.13006 178.912 1.65773 178.535 1.31152C178.15 0.957889 177.672 0.709961 177.11 0.709961C176.549 0.710099 176.072 0.958038 175.687 1.31152C175.31 1.6577 174.992 2.13007 174.717 2.66309C174.166 3.72932 173.702 5.20637 173.291 6.90918C172.467 10.3255 171.811 14.8652 171.161 19.3525C170.507 23.8649 169.86 28.3257 169.055 31.6592C168.651 33.3307 168.22 34.666 167.753 35.5684C167.253 36.5357 166.87 36.7082 166.689 36.709H166.688C166.508 36.709 166.125 36.5379 165.624 35.5684C165.158 34.666 164.726 33.3307 164.323 31.6592C163.519 28.3257 162.873 23.8649 162.221 19.3525C161.572 14.8651 160.916 10.3255 160.093 6.90918C159.683 5.20647 159.219 3.72931 158.669 2.66309C158.394 2.13006 158.076 1.65773 157.699 1.31152C157.314 0.957869 156.836 0.709961 156.274 0.709961C155.713 0.710077 155.236 0.958041 154.851 1.31152C154.474 1.6577 154.156 2.13007 153.881 2.66309C153.38 3.63352 152.951 4.94457 152.568 6.45605C151.774 4.86026 150.88 3.4762 149.839 2.46777C148.72 1.3845 147.403 0.709961 145.861 0.709961C144.32 0.710095 143.004 1.38464 141.885 2.46777C140.843 3.47651 139.95 4.86159 139.155 6.45801C138.772 4.94562 138.343 3.63397 137.842 2.66309C137.567 2.13007 137.249 1.6577 136.872 1.31152C136.487 0.95805 136.009 0.71003 135.448 0.709961C134.887 0.709961 134.409 0.957867 134.023 1.31152C133.647 1.6577 133.329 2.13007 133.054 2.66309C132.503 3.7293 132.04 5.20644 131.629 6.90918C130.805 10.3255 130.148 14.8651 129.498 19.3525C128.844 23.8649 128.197 28.3258 127.392 31.6592C126.988 33.3308 126.556 34.6661 126.09 35.5684C125.592 36.5309 125.211 36.7065 125.029 36.709C125.027 36.709 125.025 36.709 125.023 36.709C124.842 36.7077 124.46 36.5344 123.961 35.5684C123.495 34.666 123.063 33.3307 122.66 31.6592C121.856 28.3257 121.21 23.8649 120.558 19.3525C119.909 14.8652 119.253 10.3255 118.43 6.90918C118.02 5.20644 117.556 3.7293 117.006 2.66309C116.731 2.13006 116.413 1.65773 116.036 1.31152C115.651 0.958007 115.173 0.710051 114.612 0.709961C114.051 0.709961 113.573 0.957887 113.188 1.31152C112.811 1.6577 112.493 2.13007 112.218 2.66309C111.714 3.6385 111.285 4.95818 110.9 6.47949C110.104 4.87398 109.207 3.48107 108.161 2.46777C107.043 1.3844 105.726 0.710015 104.185 0.709961C102.643 0.709961 101.326 1.38444 100.207 2.46777C99.1664 3.4753 98.2747 4.85817 97.4805 6.45215C97.0984 4.94229 96.6703 3.6327 96.1699 2.66309C95.8948 2.13006 95.5771 1.65773 95.2002 1.31152C94.8152 0.958001 94.3374 0.710082 93.7764 0.709961C93.2151 0.709961 92.7367 0.957914 92.3516 1.31152C91.9746 1.6577 91.6571 2.13007 91.3818 2.66309C90.8313 3.72932 90.3667 5.20639 89.9561 6.90918C89.1323 10.3255 88.4763 14.8652 87.8262 19.3525C87.1724 23.8649 86.5247 28.3257 85.7197 31.6592C85.3161 33.3307 84.8846 34.666 84.418 35.5684C83.9211 36.5289 83.5409 36.7058 83.3584 36.709C83.3558 36.709 83.3532 36.709 83.3506 36.709C83.169 36.7071 82.7876 36.5327 82.2891 35.5684C81.8227 34.666 81.3916 33.3307 80.9883 31.6592C80.3851 29.159 79.8711 26.0245 79.376 22.71L78.3936 15.9951C77.8963 12.6653 77.3721 9.47139 76.7539 6.90918C76.343 5.20618 75.8784 3.72847 75.3271 2.66211C74.8106 1.66309 74.053 0.709961 72.9307 0.709961C71.8083 0.71 71.0505 1.66306 70.5342 2.66211C70.031 3.63582 69.6013 4.95278 69.2178 6.4707C68.4221 4.86899 67.5275 3.47918 66.4834 2.46777C65.3649 1.38444 64.0487 0.709961 62.5068 0.709961C60.9649 0.709985 59.6483 1.38436 58.5293 2.46777C57.489 3.47501 56.5985 4.85775 55.8047 6.45117C55.422 4.94137 54.9925 3.63167 54.4912 2.66211C53.9746 1.66308 53.217 0.709964 52.0947 0.709961C50.9724 0.709961 50.2148 1.66308 49.6982 2.66211C49.1469 3.72847 48.6823 5.20618 48.2715 6.90918C47.4474 10.3256 46.7916 14.8652 46.1426 19.3525C45.49 23.8649 44.844 28.3256 44.041 31.6592C43.6383 33.331 43.2079 34.6669 42.7422 35.5693C42.5094 36.0203 42.2879 36.3218 42.0908 36.5029C41.9035 36.675 41.7724 36.7084 41.6836 36.709H41.6816C41.5927 36.709 41.4605 36.6765 41.2715 36.5029C41.0744 36.3218 40.853 36.0202 40.6201 35.5693C40.1542 34.6669 39.7234 33.331 39.3203 31.6592C38.7174 29.1589 38.2024 26.0245 37.707 22.71L36.7246 15.9951C36.2268 12.6653 35.7017 9.47142 35.083 6.90918C34.6718 5.20618 34.2068 3.72845 33.6553 2.66211C33.1385 1.66313 32.381 0.71004 31.2588 0.709961C30.1365 0.709961 29.3788 1.6631 28.8623 2.66211C28.3614 3.63099 27.9332 4.93979 27.5508 6.44824C26.7571 4.85573 25.865 3.47457 24.8252 2.46777C23.7062 1.38446 22.3895 0.709961 20.8477 0.709961C19.306 0.710052 17.9895 1.3846 16.8701 2.46777C15.8265 3.47776 14.9321 4.86485 14.1357 6.46387C13.7519 4.94882 13.3222 3.63432 12.8193 2.66211C12.3026 1.66313 11.545 0.710065 10.4229 0.709961ZM479.171 2.20996C480.233 2.21007 481.195 2.66091 482.11 3.5459C483.038 4.44266 483.887 5.76043 484.684 7.41113C484.908 7.87533 485.124 8.36247 485.337 8.86816C484.708 11.9677 484.169 15.6772 483.638 19.3525C482.986 23.8649 482.34 28.3257 481.537 31.6592C481.134 33.3306 480.703 34.666 480.237 35.5684C479.736 36.5379 479.353 36.71 479.173 36.71C478.992 36.7097 478.61 36.5373 478.109 35.5684C477.643 34.6661 477.212 33.3308 476.809 31.6592C476.005 28.3257 475.358 23.8649 474.705 19.3525C474.174 15.6772 473.634 11.9677 473.006 8.86816C473.218 8.36227 473.436 7.8755 473.66 7.41113C474.456 5.7605 475.305 4.4426 476.231 3.5459C477.146 2.66089 478.109 2.20996 479.171 2.20996ZM437.512 2.20996C438.571 2.21001 439.531 2.66089 440.444 3.5459C441.37 4.44258 442.219 5.75943 443.015 7.41016C443.243 7.88309 443.463 8.37954 443.68 8.89551C443.053 11.9895 442.515 15.688 441.984 19.3525C441.331 23.8649 440.685 28.3256 439.881 31.6592C439.478 33.331 439.047 34.6669 438.581 35.5693C438.348 36.0201 438.127 36.3218 437.93 36.5029C437.741 36.6765 437.608 36.71 437.52 36.71C437.431 36.7099 437.298 36.6765 437.109 36.5029C436.912 36.3218 436.691 36.0201 436.458 35.5693C435.992 34.6669 435.561 33.331 435.158 31.6592C434.355 28.3256 433.708 23.8649 433.055 19.3525C432.522 15.6753 431.983 11.9638 431.354 8.86328C431.566 8.35915 431.783 7.87399 432.006 7.41113C432.802 5.76049 433.651 4.44267 434.577 3.5459C435.491 2.66075 436.452 2.20996 437.512 2.20996ZM395.853 2.20996C396.912 2.20996 397.872 2.66082 398.786 3.5459C399.712 4.44268 400.562 5.76031 401.358 7.41113C401.585 7.88125 401.806 8.37406 402.021 8.88672C401.394 11.9825 400.855 15.6844 400.324 19.3525C399.672 23.8649 399.026 28.3257 398.222 31.6592C397.818 33.3308 397.387 34.666 396.921 35.5684C396.42 36.5379 396.037 36.71 395.856 36.71C395.676 36.7097 395.294 36.5373 394.793 35.5684C394.327 34.6661 393.895 33.3308 393.492 31.6592C392.688 28.3257 392.041 23.8649 391.389 19.3525C390.857 15.6791 390.319 11.9716 389.69 8.87305C389.904 8.36544 390.122 7.87695 390.347 7.41113C391.143 5.76031 391.993 4.44268 392.919 3.5459C393.833 2.66082 394.793 2.20996 395.853 2.20996ZM354.193 2.20996C355.253 2.20996 356.214 2.66075 357.128 3.5459C358.054 4.44267 358.903 5.76047 359.699 7.41113C359.925 7.87941 360.145 8.37037 360.359 8.88086C359.732 11.9778 359.193 15.6822 358.662 19.3525C358.009 23.8649 357.363 28.3257 356.559 31.6592C356.155 33.3308 355.724 34.6661 355.258 35.5684C354.757 36.5372 354.375 36.7097 354.194 36.71C354.014 36.71 353.631 36.5379 353.13 35.5684C352.663 34.666 352.232 33.3308 351.829 31.6592C351.025 28.3257 350.379 23.8649 349.727 19.3525C349.196 15.6815 348.657 11.9762 348.029 8.87891C348.243 8.36927 348.462 7.87868 348.688 7.41113C349.484 5.76029 350.334 4.44269 351.26 3.5459C352.174 2.66082 353.134 2.21002 354.193 2.20996ZM312.517 2.20996C313.576 2.21009 314.536 2.66096 315.449 3.5459C316.375 4.4426 317.224 5.75946 318.02 7.41016C318.252 7.89162 318.475 8.39782 318.695 8.92383C318.071 12.012 317.533 15.6991 317.004 19.3525C316.35 23.8649 315.702 28.3257 314.897 31.6592C314.494 33.3307 314.062 34.6661 313.596 35.5684C313.094 36.5377 312.712 36.7099 312.531 36.71C312.351 36.71 311.968 36.5379 311.467 35.5684C311 34.666 310.569 33.3307 310.166 31.6592C309.362 28.3257 308.716 23.8649 308.063 19.3525C307.532 15.6753 306.993 11.9637 306.363 8.86328C306.575 8.35902 306.791 7.87311 307.014 7.41016C307.809 5.75965 308.657 4.44253 309.583 3.5459C310.497 2.66084 311.457 2.20996 312.517 2.20996ZM270.857 2.20996C271.917 2.21003 272.876 2.66091 273.79 3.5459C274.716 4.44259 275.565 5.75944 276.36 7.41016C276.589 7.8837 276.81 8.38077 277.026 8.89746C276.592 11.0435 276.2 13.4804 275.824 15.9951L274.842 22.71C274.347 26.0245 273.832 29.1589 273.229 31.6592C272.826 33.331 272.396 34.6669 271.93 35.5693C271.697 36.0202 271.475 36.3218 271.278 36.5029C271.089 36.6765 270.957 36.71 270.868 36.71C270.779 36.7099 270.648 36.6764 270.459 36.5029C270.262 36.3218 270.04 36.0205 269.807 35.5693C269.341 34.6669 268.91 33.331 268.507 31.6592C267.904 29.159 267.391 26.0245 266.896 22.71L265.913 15.9951C265.535 13.4648 265.141 11.0132 264.703 8.85742C264.914 8.3556 265.129 7.87202 265.352 7.41113C266.148 5.76043 266.997 4.44268 267.923 3.5459C268.837 2.66074 269.798 2.20996 270.857 2.20996ZM229.18 2.20996C230.239 2.20996 231.2 2.66084 232.113 3.5459C233.039 4.44256 233.887 5.7597 234.683 7.41016C234.915 7.89233 235.14 8.39893 235.36 8.92578C234.736 12.0136 234.198 15.6999 233.669 19.3525C233.015 23.8649 232.367 28.3258 231.562 31.6592C231.159 33.3308 230.727 34.6661 230.261 35.5684C229.759 36.5379 229.377 36.7099 229.196 36.71C229.016 36.71 228.633 36.5379 228.132 35.5684C227.665 34.666 227.234 33.3307 226.831 31.6592C226.027 28.3257 225.381 23.8649 224.729 19.3525C224.197 15.6741 223.657 11.9614 223.027 8.86035C223.239 8.35711 223.454 7.87224 223.677 7.41016C224.472 5.75945 225.321 4.44257 226.247 3.5459C227.161 2.6609 228.12 2.20998 229.18 2.20996ZM187.521 2.20996C188.58 2.20996 189.54 2.66084 190.454 3.5459C191.38 4.44255 192.228 5.75967 193.023 7.41016C193.253 7.88569 193.474 8.38527 193.691 8.9043C193.065 11.9965 192.527 15.6915 191.997 19.3525C191.343 23.8649 190.696 28.3257 189.891 31.6592C189.487 33.3307 189.056 34.666 188.589 35.5684C188.088 36.5376 187.705 36.7098 187.524 36.71C187.344 36.71 186.961 36.5379 186.46 35.5684C185.994 34.666 185.562 33.3307 185.159 31.6592C184.355 28.3257 183.709 23.8649 183.057 19.3525C182.525 15.6799 181.987 11.9731 181.358 8.875C181.572 8.36669 181.791 7.87757 182.016 7.41113C182.812 5.76032 183.661 4.44268 184.587 3.5459C185.501 2.66082 186.461 2.21003 187.521 2.20996ZM145.861 2.20996C146.921 2.20996 147.882 2.66075 148.796 3.5459C149.722 4.44267 150.571 5.7604 151.367 7.41113C151.592 7.87793 151.812 8.36723 152.025 8.87598C151.397 11.9739 150.858 15.6803 150.326 19.3525C149.673 23.8649 149.026 28.3256 148.223 31.6592C147.82 33.331 147.389 34.6669 146.923 35.5693C146.69 36.0202 146.469 36.3218 146.271 36.5029C146.082 36.6765 145.95 36.71 145.861 36.71C145.772 36.7099 145.64 36.6765 145.451 36.5029C145.254 36.3218 145.033 36.0201 144.8 35.5693C144.334 34.6669 143.903 33.331 143.5 31.6592C142.696 28.3256 142.05 23.8649 141.396 19.3525C140.865 15.6803 140.327 11.9739 139.698 8.87598C139.912 8.36736 140.13 7.87781 140.355 7.41113C141.152 5.76035 142.002 4.44269 142.928 3.5459C143.842 2.66087 144.802 2.21009 145.861 2.20996ZM104.185 2.20996C105.244 2.21001 106.204 2.66089 107.117 3.5459C108.043 4.44258 108.892 5.75943 109.688 7.41016C109.917 7.88666 110.14 8.38705 110.357 8.90723C109.731 11.9988 109.192 15.6926 108.662 19.3525C108.008 23.8649 107.361 28.3258 106.556 31.6592C106.152 33.3307 105.721 34.6661 105.254 35.5684C104.753 36.5378 104.37 36.7099 104.189 36.71C104.009 36.71 103.626 36.5379 103.125 35.5684C102.659 34.666 102.227 33.3307 101.824 31.6592C101.02 28.3257 100.374 23.8649 99.7217 19.3525C99.1905 15.6799 98.6516 11.9731 98.0234 8.875C98.237 8.36695 98.4539 7.87733 98.6787 7.41113C99.4749 5.76045 100.324 4.44268 101.25 3.5459C102.164 2.66074 103.125 2.20996 104.185 2.20996ZM62.5068 2.20996C63.5661 2.20996 64.5267 2.66084 65.4404 3.5459C66.3659 4.44256 67.2145 5.75969 68.0098 7.41016C68.2378 7.88334 68.4585 8.38022 68.6748 8.89648C68.0484 11.9903 67.5109 15.6884 66.9814 19.3525C66.3294 23.8649 65.6842 28.3257 64.8809 31.6592C64.478 33.3307 64.0472 34.666 63.5811 35.5684C63.0803 36.5375 62.6979 36.7098 62.5176 36.71C62.3372 36.71 61.9544 36.5379 61.4531 35.5684C60.9867 34.666 60.5556 33.3307 60.1523 31.6592C59.3481 28.3257 58.701 23.8649 58.0479 19.3525C57.5158 15.6772 56.9762 11.9677 56.3467 8.86816C56.5593 8.36229 56.7771 7.87547 57.001 7.41113C57.7971 5.76031 58.647 4.44268 59.5732 3.5459C60.4874 2.66082 61.4476 2.20998 62.5068 2.20996ZM20.8477 2.20996C21.907 2.20996 22.868 2.66075 23.7822 3.5459C24.7083 4.44267 25.5575 5.76045 26.3535 7.41113C26.5772 7.87496 26.7954 8.36094 27.0078 8.86621C26.3782 11.9662 25.8383 15.6764 25.3066 19.3525C24.654 23.8649 24.008 28.3256 23.2051 31.6592C22.8024 33.331 22.3719 34.6669 21.9062 35.5693C21.6735 36.0203 21.4519 36.3218 21.2549 36.5029C21.0663 36.6762 20.9346 36.7099 20.8457 36.71C20.7568 36.71 20.6246 36.6765 20.4355 36.5029C20.2384 36.3218 20.017 36.0202 19.7842 35.5693C19.3182 34.6669 18.8875 33.331 18.4844 31.6592C17.8815 29.1589 17.3665 26.0245 16.8711 22.71L15.8887 15.9951C15.5114 13.4717 15.1181 11.0265 14.6807 8.875C14.8945 8.36663 15.1137 7.87759 15.3389 7.41113C16.1358 5.7603 16.9864 4.44275 17.9131 3.5459C18.8278 2.66074 19.7884 2.21005 20.8477 2.20996ZM239.619 2.20996C239.708 2.21002 239.84 2.24366 240.028 2.41699C240.225 2.59803 240.447 2.89967 240.68 3.35059C241.146 4.25298 241.577 5.5889 241.98 7.26074C242.583 9.76092 243.097 12.8955 243.592 16.21L244.574 22.9248C245.071 26.2546 245.595 29.4486 246.213 32.0107C246.548 33.3996 246.922 34.637 247.346 35.625C247.253 35.5454 247.161 35.4623 247.069 35.374C246.142 34.4772 245.293 33.1595 244.496 31.5088C242.901 28.203 241.615 23.7718 240.308 19.252C239.251 15.5997 238.18 11.8882 236.921 8.77539C237.031 8.24936 237.142 7.74288 237.258 7.26074C237.661 5.58892 238.092 4.25298 238.558 3.35059C238.79 2.89976 239.012 2.59809 239.209 2.41699C239.398 2.2435 239.53 2.20996 239.619 2.20996ZM322.954 2.20996C323.043 2.21004 323.175 2.24372 323.363 2.41699C323.56 2.59804 323.782 2.89968 324.015 3.35059C324.481 4.25297 324.911 5.58895 325.314 7.26074C325.917 9.76094 326.432 12.8954 326.927 16.21L327.909 22.9248C328.406 26.2546 328.93 29.4486 329.548 32.0107C329.882 33.3976 330.255 34.6337 330.678 35.6211C330.587 35.5427 330.496 35.4608 330.406 35.374C329.479 34.4772 328.629 33.1595 327.832 31.5088C326.636 29.0295 325.614 25.9173 324.626 22.6094L322.663 15.8945C321.913 13.3796 321.13 10.9329 320.257 8.77441C320.367 8.24879 320.477 7.74253 320.593 7.26074C320.996 5.58894 321.427 4.25298 321.893 3.35059C322.125 2.89974 322.347 2.59807 322.544 2.41699C322.733 2.2435 322.865 2.20996 322.954 2.20996ZM72.9307 2.20996C73.111 2.20996 73.4939 2.38217 73.9951 3.35156C74.4615 4.25384 74.8926 5.58921 75.2959 7.26074C75.8991 9.76089 76.4131 12.8954 76.9082 16.21L77.8906 22.9248C78.3879 26.2546 78.9121 29.4485 79.5303 32.0107C79.8637 33.3929 80.2354 34.6255 80.6572 35.6113C80.5702 35.5358 80.4826 35.4573 80.3965 35.374C79.4692 34.4772 78.6197 33.1595 77.8232 31.5088C76.2282 28.203 74.9424 23.7718 73.6348 19.252C72.575 15.5886 71.5003 11.8656 70.2363 8.74707C70.3445 8.23117 70.4533 7.73424 70.5674 7.26074C70.9703 5.58914 71.401 4.25384 71.8672 3.35156C72.3681 2.38232 72.7504 2.21 72.9307 2.20996ZM114.612 2.20996C114.701 2.21004 114.833 2.24374 115.021 2.41699C115.219 2.59806 115.44 2.89962 115.673 3.35059C116.139 4.25297 116.569 5.5889 116.972 7.26074C117.775 10.5943 118.421 15.055 119.073 19.5674C119.722 24.0547 120.378 28.5943 121.202 32.0107C121.535 33.3893 121.906 34.6189 122.326 35.6035C122.242 35.5303 122.157 35.4545 122.074 35.374C121.147 34.4772 120.297 33.1595 119.5 31.5088C118.304 29.0295 117.282 25.9173 116.294 22.6094L114.331 15.8945C113.579 13.3727 112.794 10.9197 111.918 8.75684C112.027 8.23747 112.136 7.7372 112.251 7.26074C112.654 5.58893 113.085 4.25298 113.551 3.35059C113.784 2.89975 114.005 2.59808 114.202 2.41699C114.391 2.2435 114.523 2.20996 114.612 2.20996ZM197.947 2.20996C198.036 2.21007 198.168 2.24382 198.356 2.41699C198.553 2.59807 198.775 2.89964 199.008 3.35059C199.474 4.25297 199.904 5.5889 200.307 7.26074C201.11 10.5943 201.756 15.055 202.408 19.5674C203.057 24.0547 203.713 28.5943 204.537 32.0107C204.869 33.3884 205.24 34.6173 205.66 35.6016C205.577 35.5288 205.493 35.4538 205.41 35.374C204.483 34.4772 203.633 33.1594 202.837 31.5088C201.641 29.0295 200.619 25.9173 199.631 22.6094L197.668 15.8945C196.915 13.3723 196.13 10.9189 195.254 8.75586C195.363 8.2369 195.471 7.73686 195.586 7.26074C195.989 5.58895 196.42 4.25297 196.886 3.35059C197.119 2.89972 197.34 2.59806 197.537 2.41699C197.726 2.2435 197.858 2.20996 197.947 2.20996ZM281.281 2.20996C281.37 2.20996 281.503 2.24354 281.691 2.41699C281.888 2.59808 282.11 2.89966 282.343 3.35059C282.808 4.25297 283.239 5.5889 283.642 7.26074C284.445 10.5942 285.091 15.055 285.743 19.5674C286.392 24.0547 287.048 28.5943 287.872 32.0107C288.204 33.3874 288.574 34.6157 288.994 35.5996C288.912 35.5276 288.829 35.453 288.747 35.374C287.82 34.4772 286.969 33.1595 286.173 31.5088C284.977 29.0295 283.955 25.9173 282.967 22.6094L281.004 15.8945C280.251 13.3715 279.465 10.9174 278.589 8.75391C278.698 8.23561 278.806 7.73629 278.921 7.26074C279.324 5.58893 279.755 4.25297 280.221 3.35059C280.454 2.8997 280.675 2.59805 280.872 2.41699C281.061 2.2438 281.192 2.21008 281.281 2.20996ZM447.933 2.20996C448.021 2.20996 448.154 2.2435 448.343 2.41699C448.54 2.59807 448.761 2.89973 448.994 3.35059C449.46 4.25298 449.891 5.58892 450.294 7.26074C450.897 9.76095 451.411 12.8954 451.906 16.21L452.889 22.9248C453.386 26.2546 453.91 29.4486 454.527 32.0107C454.859 33.3873 455.229 34.6149 455.648 35.5986C455.566 35.5267 455.483 35.4528 455.401 35.374C454.474 34.4772 453.624 33.1595 452.827 31.5088C451.631 29.0295 450.609 25.9173 449.621 22.6094L447.658 15.8945C446.905 13.3692 446.119 10.913 445.241 8.74805C445.35 8.23183 445.458 7.73451 445.572 7.26074C445.975 5.58894 446.406 4.25297 446.872 3.35059C447.105 2.89969 447.326 2.59805 447.523 2.41699C447.712 2.24375 447.844 2.21006 447.933 2.20996ZM31.2588 2.20996C31.4393 2.21005 31.8219 2.38241 32.3232 3.35156C32.7899 4.25383 33.2213 5.58918 33.625 7.26074C34.4299 10.5941 35.0777 15.055 35.7314 19.5674C36.3816 24.0548 37.0385 28.5944 37.8623 32.0107C38.1932 33.3831 38.562 34.6076 38.9795 35.5898C38.9008 35.5207 38.8212 35.4495 38.7432 35.374C37.8171 34.4772 36.9679 33.1595 36.1719 31.5088C34.9762 29.0293 33.9542 25.9165 32.9658 22.6084L31.001 15.8936C30.243 13.3558 29.4519 10.8877 28.5684 8.71484C28.6745 8.21046 28.7817 7.72441 28.8936 7.26074C29.2968 5.58919 29.7279 4.25385 30.1943 3.35156C30.6955 2.38218 31.0785 2.20996 31.2588 2.20996ZM489.587 2.20996C489.767 2.21016 490.149 2.38274 490.65 3.35156C491.117 4.25383 491.548 5.58911 491.951 7.26074C492.755 10.5942 493.402 15.055 494.055 19.5674C494.704 24.0547 495.359 28.5944 496.182 32.0107C496.512 33.3808 496.879 34.6036 497.296 35.585C497.219 35.5174 497.142 35.4476 497.066 35.374C496.141 34.4773 495.292 33.1602 494.497 31.5098C493.302 29.0303 492.281 25.9176 491.294 22.6094L489.331 15.8945C488.574 13.3563 487.782 10.8879 486.898 8.71484C487.004 8.21051 487.111 7.72436 487.223 7.26074C487.626 5.58903 488.057 4.25384 488.523 3.35156C489.024 2.38219 489.407 2.20996 489.587 2.20996ZM468.76 2.20996C468.849 2.20996 468.98 2.24358 469.169 2.41699C469.366 2.59802 469.588 2.89958 469.82 3.35059C470.286 4.25297 470.716 5.5889 471.119 7.26074C471.231 7.72536 471.339 8.21229 471.445 8.71777C470.563 10.8903 469.772 13.3575 469.016 15.8945L467.055 22.6094C466.068 25.9173 465.047 29.0295 463.852 31.5088C463.056 33.1594 462.207 34.4773 461.28 35.374C461.205 35.4472 461.128 35.5168 461.052 35.584C461.468 34.6029 461.836 33.3803 462.166 32.0107C462.784 29.4485 463.307 26.2546 463.804 22.9248L464.786 16.21C465.281 12.8954 465.796 9.76095 466.398 7.26074C466.802 5.5889 467.232 4.25298 467.698 3.35059C467.931 2.89981 468.153 2.59811 468.35 2.41699C468.539 2.24352 468.671 2.20997 468.76 2.20996ZM177.11 2.20996C177.199 2.20996 177.332 2.24354 177.521 2.41699C177.718 2.59808 177.939 2.89965 178.172 3.35059C178.638 4.25297 179.068 5.5889 179.471 7.26074C179.583 7.72713 179.691 8.21606 179.798 8.72363C178.916 10.8944 178.125 13.3592 177.368 15.8936L175.403 22.6084C174.415 25.9165 173.393 29.0293 172.197 31.5088C171.401 33.1596 170.551 34.4772 169.625 35.374C169.55 35.447 169.474 35.5169 169.397 35.584C169.815 34.6028 170.182 33.38 170.513 32.0107C171.131 29.4485 171.656 26.2546 172.154 22.9248L173.137 16.21C173.632 12.8954 174.147 9.76096 174.75 7.26074C175.153 5.58895 175.584 4.25297 176.05 3.35059C176.283 2.89971 176.504 2.59805 176.701 2.41699C176.89 2.2438 177.021 2.21008 177.11 2.20996ZM406.271 2.20996C406.359 2.21004 406.491 2.24375 406.68 2.41699C406.877 2.59806 407.098 2.89962 407.331 3.35059C407.797 4.25297 408.227 5.5889 408.63 7.26074C409.433 10.5943 410.079 15.055 410.731 19.5674C411.38 24.0547 412.036 28.5943 412.86 32.0107C413.19 33.3792 413.558 34.6011 413.975 35.582C413.899 35.5154 413.823 35.4465 413.748 35.374C412.822 34.4772 411.973 33.1596 411.177 31.5088C409.981 29.0293 408.958 25.9166 407.97 22.6084L406.005 15.8936C405.249 13.3644 404.461 10.9046 403.581 8.7373C403.689 8.2249 403.797 7.73127 403.91 7.26074C404.313 5.5889 404.743 4.25297 405.209 3.35059C405.442 2.89968 405.663 2.59809 405.86 2.41699C406.049 2.24354 406.182 2.20996 406.271 2.20996ZM385.443 2.20996C385.532 2.20996 385.664 2.24357 385.853 2.41699C386.05 2.59802 386.271 2.89958 386.504 3.35059C386.97 4.25297 387.4 5.5889 387.803 7.26074C387.915 7.72742 388.023 8.21671 388.13 8.72461C387.248 10.8951 386.457 13.3594 385.7 15.8936L383.735 22.6084C382.747 25.9166 381.724 29.0293 380.528 31.5088C379.732 33.1596 378.883 34.4772 377.957 35.374C377.882 35.4464 377.807 35.5155 377.731 35.582C378.148 34.6012 378.515 33.379 378.846 32.0107C379.464 29.4485 379.989 26.2546 380.486 22.9248L381.469 16.21C381.964 12.8954 382.479 9.76098 383.082 7.26074C383.485 5.5889 383.916 4.25299 384.382 3.35059C384.615 2.89981 384.836 2.59811 385.033 2.41699C385.222 2.24351 385.354 2.20997 385.443 2.20996ZM52.0947 2.20996C52.2751 2.20996 52.658 2.38218 53.1592 3.35156C53.6256 4.25385 54.0567 5.58922 54.46 7.26074C54.5723 7.72618 54.6796 8.21424 54.7861 8.7207C53.9034 10.8922 53.1118 13.3578 52.3545 15.8936L50.3896 22.6084C49.401 25.9166 48.3783 29.0293 47.1826 31.5088C46.3865 33.1596 45.5375 34.4772 44.6113 35.374C44.5373 35.4457 44.4624 35.5141 44.3877 35.5801C44.8032 34.5996 45.1696 33.3784 45.499 32.0107C46.3219 28.5944 46.9779 24.0547 47.627 19.5674C48.2796 15.055 48.9254 10.5942 49.7295 7.26074C50.1327 5.58921 50.5639 4.25385 51.0303 3.35156C51.5315 2.38218 51.9144 2.20996 52.0947 2.20996ZM10.4229 2.20996C10.6033 2.21008 10.986 2.38249 11.4873 3.35156C11.9539 4.25383 12.3854 5.58918 12.7891 7.26074C12.9022 7.72926 13.0117 8.2204 13.1191 8.73047C11.8495 11.8523 10.7686 15.5811 9.7041 19.251C8.39301 23.7709 7.10477 28.2027 5.50879 31.5088C4.71182 33.1597 3.8613 34.4771 2.93457 35.374C2.86032 35.4459 2.78482 35.514 2.70996 35.5801C3.12622 34.5995 3.49332 33.3782 3.82324 32.0107C4.44141 29.4485 4.96475 26.2546 5.46191 22.9248L6.44434 16.21C6.93961 12.8954 7.45441 9.76091 8.05762 7.26074C8.46091 5.58919 8.89197 4.25384 9.3584 3.35156C9.85962 2.38217 10.2425 2.20996 10.4229 2.20996ZM427.106 2.20996C427.195 2.21002 427.327 2.24366 427.516 2.41699C427.713 2.59803 427.934 2.89967 428.167 3.35059C428.633 4.25296 429.064 5.58896 429.467 7.26074C429.579 7.72499 429.686 8.21173 429.792 8.7168C428.908 10.8892 428.116 13.3564 427.358 15.8936L425.394 22.6084C424.405 25.9165 423.383 29.0293 422.188 31.5088C421.391 33.1595 420.542 34.4772 419.616 35.374C419.543 35.445 419.469 35.5127 419.395 35.5781C419.811 34.5979 420.178 33.3773 420.508 32.0107C421.127 29.4485 421.652 26.2546 422.149 22.9248L423.132 16.21C423.627 12.8954 424.142 9.76097 424.745 7.26074C425.148 5.58892 425.579 4.25298 426.045 3.35059C426.278 2.89976 426.499 2.59808 426.696 2.41699C426.885 2.2435 427.018 2.20996 427.106 2.20996ZM364.607 2.20996C364.696 2.20998 364.828 2.24358 365.017 2.41699C365.214 2.59803 365.435 2.89957 365.668 3.35059C366.134 4.25297 366.564 5.5889 366.967 7.26074C367.77 10.5943 368.416 15.055 369.068 19.5674C369.717 24.0547 370.373 28.5943 371.197 32.0107C371.527 33.3769 371.894 34.597 372.31 35.5771C372.236 35.512 372.162 35.4447 372.089 35.374C371.163 34.4772 370.314 33.1595 369.518 31.5088C368.322 29.0293 367.3 25.9165 366.312 22.6084L364.347 15.8936C363.591 13.3626 362.801 10.901 361.92 8.73242C362.027 8.22177 362.135 7.72977 362.248 7.26074C362.651 5.5889 363.081 4.25297 363.547 3.35059C363.78 2.89959 364.001 2.59802 364.198 2.41699C364.387 2.24359 364.519 2.20996 364.607 2.20996ZM156.274 2.20996C156.363 2.20996 156.496 2.24354 156.685 2.41699C156.882 2.59809 157.103 2.89967 157.336 3.35059C157.802 4.25297 158.232 5.5889 158.635 7.26074C159.237 9.76097 159.751 12.8954 160.245 16.21L161.226 22.9248C161.723 26.2547 162.247 29.4484 162.865 32.0107C163.195 33.3769 163.562 34.597 163.978 35.5771C163.904 35.512 163.83 35.4447 163.757 35.374C162.831 34.4772 161.982 33.1594 161.186 31.5088C159.99 29.0293 158.968 25.9165 157.979 22.6084L156.015 15.8936C155.258 13.3608 154.469 10.8972 153.588 8.72754C153.695 8.21872 153.801 7.7282 153.914 7.26074C154.317 5.58894 154.748 4.25297 155.214 3.35059C155.447 2.89969 155.668 2.59805 155.865 2.41699C156.054 2.24376 156.186 2.21006 156.274 2.20996ZM302.118 2.20996C302.207 2.21006 302.339 2.24381 302.527 2.41699C302.724 2.59807 302.946 2.89964 303.179 3.35059C303.644 4.25297 304.075 5.5889 304.478 7.26074C304.589 7.72358 304.697 8.20851 304.803 8.71191C303.919 10.8858 303.127 13.355 302.369 15.8945L300.406 22.6094C299.419 25.9173 298.396 29.0295 297.2 31.5088C296.404 33.1595 295.553 34.4772 294.626 35.374C294.554 35.4438 294.481 35.5108 294.408 35.5752C294.824 34.5955 295.19 33.3759 295.52 32.0107C296.138 29.4485 296.663 26.2546 297.161 22.9248L298.144 16.21C298.639 12.8954 299.154 9.76096 299.757 7.26074C300.16 5.58894 300.591 4.25297 301.057 3.35059C301.289 2.89973 301.511 2.59807 301.708 2.41699C301.897 2.2435 302.029 2.20996 302.118 2.20996ZM218.783 2.20996C218.872 2.21004 219.004 2.24376 219.192 2.41699C219.389 2.59806 219.611 2.89962 219.844 3.35059C220.309 4.25297 220.74 5.5889 221.143 7.26074C221.254 7.72266 221.361 8.20665 221.467 8.70898C220.196 11.8354 219.116 15.5735 218.052 19.252C216.744 23.7718 215.458 28.203 213.863 31.5088C213.067 33.1595 212.217 34.4772 211.29 35.374C211.218 35.4435 211.146 35.5101 211.073 35.5742C211.489 34.5946 211.855 33.3755 212.185 32.0107C212.803 29.4485 213.328 26.2546 213.826 22.9248L214.809 16.21C215.304 12.8954 215.819 9.76096 216.422 7.26074C216.825 5.58893 217.256 4.25298 217.722 3.35059C217.955 2.89974 218.176 2.59807 218.373 2.41699C218.562 2.2435 218.694 2.20996 218.783 2.20996ZM135.448 2.20996C135.537 2.21002 135.669 2.24366 135.857 2.41699C136.055 2.59803 136.276 2.89967 136.509 3.35059C136.975 4.25296 137.406 5.58896 137.809 7.26074C137.921 7.72889 138.03 8.21986 138.137 8.72949C137.255 10.8988 136.465 13.3613 135.708 15.8936L133.741 22.6084C132.752 25.9167 131.728 29.0293 130.53 31.5088C129.733 33.1595 128.882 34.4772 127.954 35.374C127.883 35.4428 127.811 35.5087 127.739 35.5723C128.154 34.593 128.52 33.3745 128.85 32.0107C129.468 29.4485 129.993 26.2546 130.491 22.9248L131.474 16.21C131.969 12.8954 132.484 9.76097 133.087 7.26074C133.49 5.58892 133.921 4.25298 134.387 3.35059C134.62 2.89976 134.841 2.59808 135.038 2.41699C135.227 2.2435 135.359 2.20996 135.448 2.20996ZM93.7764 2.20996C93.8652 2.21006 93.997 2.24381 94.1855 2.41699C94.3826 2.59807 94.6042 2.89964 94.8369 3.35059C95.3026 4.25297 95.733 5.5889 96.1357 7.26074C96.2479 7.72621 96.3555 8.21421 96.4619 8.7207C95.5791 10.8922 94.7881 13.358 94.0303 15.8936L92.0635 22.6084C91.074 25.9165 90.0501 29.0294 88.8525 31.5088C88.0552 33.1594 87.2051 34.4772 86.2773 35.374C86.2087 35.4403 86.1395 35.504 86.0703 35.5654C86.4842 34.5874 86.8492 33.3714 87.1777 32.0107C87.7964 29.4485 88.3216 26.2546 88.8193 22.9248L89.8018 16.21C90.2971 12.8954 90.8121 9.76096 91.415 7.26074C91.8182 5.58894 92.2489 4.25297 92.7148 3.35059C92.9477 2.89973 93.1691 2.59807 93.3662 2.41699C93.5552 2.2435 93.6875 2.20996 93.7764 2.20996ZM343.78 2.20996C343.869 2.20996 344.002 2.24354 344.19 2.41699C344.387 2.5981 344.609 2.89969 344.842 3.35059C345.308 4.25297 345.738 5.5889 346.141 7.26074C346.253 7.72892 346.362 8.21984 346.469 8.72949C345.587 10.8988 344.797 13.3613 344.04 15.8936L342.073 22.6084C341.084 25.9166 340.06 29.0293 338.862 31.5088C338.065 33.1596 337.214 34.4772 336.286 35.374C336.218 35.4398 336.15 35.5035 336.081 35.5645C336.494 34.5867 336.859 33.3712 337.187 32.0107C337.804 29.4486 338.328 26.2546 338.825 22.9248L339.808 16.21C340.303 12.8954 340.817 9.76094 341.42 7.26074C341.823 5.58895 342.254 4.25297 342.72 3.35059C342.953 2.89967 343.174 2.59804 343.371 2.41699C343.56 2.24369 343.691 2.21003 343.78 2.20996ZM260.455 2.20996C260.544 2.21 260.675 2.24364 260.864 2.41699C261.061 2.59808 261.284 2.89947 261.517 3.35059C261.983 4.25298 262.413 5.5889 262.816 7.26074C262.928 7.72258 263.034 8.20674 263.14 8.70898C262.255 10.8833 261.462 13.3534 260.703 15.8936L258.736 22.6084C257.747 25.9166 256.723 29.0293 255.525 31.5088C254.728 33.1594 253.878 34.4772 252.95 35.374C252.883 35.4388 252.816 35.5014 252.748 35.5615C253.161 34.5842 253.525 33.3697 253.853 32.0107C254.471 29.4485 254.996 26.2547 255.494 22.9248L256.479 16.21C256.974 12.8954 257.489 9.7609 258.093 7.26074C258.496 5.58903 258.927 4.25296 259.394 3.35059C259.626 2.89983 259.848 2.59807 260.045 2.41699C260.234 2.24345 260.366 2.20996 260.455 2.20996Z" fill="black"/>
</svg>
