<svg width="502" height="38" viewBox="0 0 502 38" fill="none" xmlns="http://www.w3.org/2000/svg">
<path d="M0.5 0.499939V37.4999L501.5 37.4999V0.499939L0.5 0.499939ZM497.457 36.4999L440.371 36.4999L459.4 25.539L497.457 36.4999ZM436.63 36.4999L379.543 36.4999L417.602 25.539L436.63 36.4999ZM372.457 36.4999L315.371 36.4999L334.4 25.539L372.457 36.4999ZM311.63 36.4999L254.543 36.4999L292.602 25.539L311.63 36.4999ZM247.456 36.4999L190.37 36.4999L209.399 25.539L247.456 36.4999ZM186.629 36.4999L129.542 36.4999L167.601 25.539L186.629 36.4999ZM122.456 36.4999L65.3701 36.4999L84.3994 25.539L122.456 36.4999ZM61.6289 36.4999L4.54199 36.4999L42.6006 25.539L61.6289 36.4999ZM458.063 25.1542L439 36.1347V19.664L458.063 25.1542ZM333.063 25.1542L314 36.1347V19.664L333.063 25.1542ZM208.062 25.1542L188.999 36.1347V19.664L208.062 25.1542ZM83.0625 25.1542L63.999 36.1347V19.664L83.0625 25.1542ZM500.5 36.1337L470.753 18.9999L500.5 1.86517V36.1337ZM438 36.1337L418.938 25.1542L438 19.664V36.1337ZM406.249 18.9999L376.501 36.1337V1.86517L406.249 18.9999ZM375.5 36.1337L345.753 18.9999L375.5 1.86517V36.1337ZM313 36.1337L293.938 25.1542L313 19.664V36.1337ZM281.249 18.9999L251.501 36.1337V1.86517L281.249 18.9999ZM250.499 36.1337L220.752 18.9999L250.499 1.86517V36.1337ZM187.999 36.1337L168.937 25.1542L187.999 19.664V36.1337ZM156.248 18.9999L126.5 36.1337V1.86517L156.248 18.9999ZM125.499 36.1337L95.752 18.9999L125.499 1.86517V36.1337ZM62.999 36.1337L43.9365 25.1542L62.999 19.664V36.1337ZM31.248 18.9999L1.5 36.1337V1.86517L31.248 18.9999ZM416.397 24.8447L379.812 35.3818L407.251 19.5771L416.397 24.8447ZM291.397 24.8447L254.812 35.3818L282.251 19.5771L291.397 24.8447ZM166.396 24.8447L129.812 35.3818L157.25 19.5771L166.396 24.8447ZM41.3965 24.8447L4.81152 35.3818L32.25 19.5771L41.3965 24.8447ZM497.188 35.3808L460.604 24.8447L469.751 19.5771L497.188 35.3808ZM372.188 35.3808L335.604 24.8447L344.751 19.5771L372.188 35.3808ZM247.188 35.3808L210.604 24.8447L219.75 19.5771L247.188 35.3808ZM122.188 35.3808L85.6035 24.8447L94.75 19.5771L122.188 35.3808ZM468.748 18.9999L459.268 24.4599L440.308 18.9999L459.268 13.539L468.748 18.9999ZM436.694 18.9999L417.733 24.4599L408.253 18.9999L417.733 13.539L436.694 18.9999ZM343.748 18.9999L334.268 24.4599L315.308 18.9999L334.268 13.539L343.748 18.9999ZM311.694 18.9999L292.733 24.4599L283.253 18.9999L292.733 13.539L311.694 18.9999ZM218.747 18.9999L209.267 24.4599L190.307 18.9999L209.267 13.539L218.747 18.9999ZM186.693 18.9999L167.732 24.4599L158.252 18.9999L167.732 13.539L186.693 18.9999ZM93.7471 18.9999L84.2666 24.4599L65.3066 18.9999L84.2666 13.539L93.7471 18.9999ZM61.6934 18.9999L42.7324 24.4599L33.252 18.9999L42.7324 13.539L61.6934 18.9999ZM469.751 18.4218L460.604 13.1542L497.188 2.6181L469.751 18.4218ZM416.397 13.1542L407.251 18.4218L379.812 2.61713L416.397 13.1542ZM344.751 18.4218L335.604 13.1542L372.188 2.6181L344.751 18.4218ZM291.397 13.1542L282.251 18.4218L254.812 2.61713L291.397 13.1542ZM219.75 18.4218L210.604 13.1542L247.188 2.6181L219.75 18.4218ZM166.396 13.1542L157.25 18.4218L129.812 2.61713L166.396 13.1542ZM94.75 18.4218L85.6035 13.1542L122.188 2.6181L94.75 18.4218ZM41.3965 13.1542L32.25 18.4218L4.81152 2.61713L41.3965 13.1542ZM458.063 12.8447L439 18.3349V1.8642L458.063 12.8447ZM438 18.3349L418.938 12.8447L438 1.86517V18.3349ZM333.063 12.8447L314 18.3349V1.8642L333.063 12.8447ZM313 18.3349L293.938 12.8447L313 1.86517V18.3349ZM208.062 12.8447L188.999 18.3349V1.8642L208.062 12.8447ZM187.999 18.3349L168.937 12.8447L187.999 1.86517V18.3349ZM83.0625 12.8447L63.999 18.3349V1.8642L83.0625 12.8447ZM62.999 18.3349L43.9365 12.8447L62.999 1.86517V18.3349ZM459.4 12.4599L440.371 1.49994L497.457 1.49994L459.4 12.4599ZM417.602 12.4599L379.543 1.49994L436.63 1.49994L417.602 12.4599ZM334.4 12.4599L315.371 1.49994L372.457 1.49994L334.4 12.4599ZM292.602 12.4599L254.543 1.49994L311.63 1.49994L292.602 12.4599ZM209.399 12.4599L190.37 1.49994L247.456 1.49994L209.399 12.4599ZM167.601 12.4599L129.542 1.49994L186.629 1.49994L167.601 12.4599ZM84.3994 12.4599L65.3701 1.49994L122.456 1.49994L84.3994 12.4599ZM42.6006 12.4599L4.54199 1.49994L61.6289 1.49994L42.6006 12.4599Z" fill="black"/>
</svg>
