<svg width="500" height="36" viewBox="0 0 500 36" fill="none" xmlns="http://www.w3.org/2000/svg">
<path d="M494 0H500V36H494V0ZM468 0L474 0V36L468 36V0ZM442 0H448V36H442V0ZM416 0H422V36H416V0ZM390 0H396V36H390V0ZM364 0H370V36H364V0ZM338 0H344V36H338V0ZM312 0H318V36H312V0ZM286 0H292V36H286V0ZM260 0H266V36H260V0ZM234 0L240 0V36L234 36V0ZM208 0H214V36H208V0ZM182 0H188V36H182V0ZM156 0H162V36H156V0ZM130 0H136V36H130V0ZM104 0H110V36H104V0ZM78 0H84V36H78V0ZM52 0H58V36H52V0ZM26 0H32V36H26V0ZM0 0H6V36H0V0ZM481 18L487 18V36H481V18ZM455 18L461 18V36H455V18ZM429 18H435V36H429V18ZM403 18H409V36H403V18ZM377 18H383V36H377V18ZM351 18H357V36L351 36V18ZM325 18H331V36H325V18ZM299 18H305V36H299V18ZM273 18H279V36H273V18ZM247 18H253V36H247V18ZM221 18L227 18V36H221V18ZM195 18L201 18V36H195V18ZM169 18H175V36H169V18ZM143 18H149V36H143V18ZM117 18H123V36L117 36V18ZM91 18H97V36H91V18ZM65 18H71V36H65V18ZM39 18H45V36H39V18ZM13 18H19V36H13V18Z" fill="black"/>
</svg>
