<svg width="500" height="36" viewBox="0 0 500 36" fill="none" xmlns="http://www.w3.org/2000/svg">
<path d="M500 36V33.5996H497.3L500 36ZM494.6 36V33.5996L497.299 36V33.5996H491.899L494.6 36ZM486.5 36V33.5996L489.199 36V33.5996L491.898 36V33.5996H483.8L486.5 36ZM481.1 36V33.5996L483.799 36V33.5996H478.399L481.1 36ZM473 36V33.5996L475.699 36V33.5996L478.398 36V33.5996L470.3 33.5996L473 36ZM467.6 36V33.5996L470.299 36V33.5996H464.899L467.6 36ZM459.5 36V33.5996L462.199 36V33.5996L464.898 36V33.5996H456.8L459.5 36ZM454.1 36V33.5996L456.799 36V33.5996H451.399L454.1 36ZM446 36V33.5996L448.699 36V33.5996L451.398 36V33.5996H443.3L446 36ZM440.6 36V33.5996L443.299 36V33.5996H437.899L440.6 36ZM432.5 36V33.5996L435.199 36V33.5996L437.898 36V33.5996H429.8L432.5 36ZM427.1 36V33.5996L429.799 36V33.5996H424.399L427.1 36ZM419 36V33.5996L421.699 36V33.5996L424.398 36V33.5996H416.3L419 36ZM413.6 36V33.5996L416.299 36V33.5996L410.899 33.5996L413.6 36ZM405.5 36V33.5996L408.199 36V33.5996L410.898 36V33.5996H402.8L405.5 36ZM400.1 36V33.5996L402.799 36V33.5996H397.399L400.1 36ZM392 36V33.5996L394.699 36V33.5996L397.398 36V33.5996H389.3L392 36ZM386.6 36V33.5996L389.299 36V33.5996H383.899L386.6 36ZM378.5 36V33.5996L381.199 36V33.5996L383.898 36V33.5996H375.8L378.5 36ZM370.401 36V33.6006L373.1 36V33.5996L375.799 36V33.5996H367.701L370.401 36ZM365.001 36V33.5996L367.7 36V33.5996H362.301L365.001 36ZM356.901 36V33.5996L359.601 36V33.5996L362.3 36V33.5996L354.201 33.5996L356.901 36ZM351.501 36V33.5996L354.2 36V33.5996H348.801L351.501 36ZM343.401 36V33.5996L346.101 36V33.5996L348.8 36V33.5996H340.701L343.401 36ZM338.001 36V33.5996L340.7 36V33.5996H335.301L338.001 36ZM329.901 36V33.5996L332.601 36V33.5996L335.3 36V33.5996H327.201L329.901 36ZM324.501 36V33.5996L327.2 36V33.5996H321.801L324.501 36ZM316.401 36V33.5996L319.101 36V33.5996L321.8 36V33.5996H313.701L316.401 36ZM311.001 36V33.5996L313.7 36V33.5996H308.301L311.001 36ZM302.901 36V33.5996L305.601 36V33.5996L308.3 36V33.5996H300.201L302.901 36ZM297.501 36V33.5996L300.2 36V33.5996L294.801 33.5996L297.501 36ZM289.401 36V33.5996L292.101 36V33.5996L294.8 36V33.5996H286.701L289.401 36ZM284.001 36V33.5996L286.7 36V33.5996H281.301L284.001 36ZM275.901 36V33.5996L278.601 36V33.5996L281.3 36V33.5996H273.201L275.901 36ZM270.501 36V33.5996L273.2 36V33.5996H267.801L270.501 36ZM262.401 36V33.5996L265.101 36V33.5996L267.8 36V33.5996H259.701L262.401 36ZM257.001 36V33.5996L259.7 36V33.5996H254.301L257.001 36ZM248.901 36V33.5996L251.601 36V33.5996L254.3 36V33.5996H246.201L248.901 36ZM243.501 36V33.5996L246.2 36V33.5996H240.801L243.501 36ZM240.801 36V33.5996L238.101 33.5996L240.801 36ZM235.4 36V33.5996L238.1 36V33.5996H232.7L235.4 36ZM227.301 36V33.5996L230 36V33.5996L232.699 36V33.5996H224.601L227.301 36ZM221.9 36V33.5996L224.6 36V33.5996H219.2L221.9 36ZM213.801 36V33.5996L216.5 36V33.5996L219.199 36V33.5996H211.101L213.801 36ZM208.4 36V33.5996L211.1 36V33.5996H205.7L208.4 36ZM200.301 36V33.5996L203 36V33.5996L205.699 36V33.5996H197.601L200.301 36ZM194.9 36V33.5996L197.6 36V33.5996H192.2L194.9 36ZM186.801 36V33.5996L189.5 36V33.5996L192.199 36V33.5996H184.101L186.801 36ZM181.4 36V33.5996L184.1 36V33.5996L178.7 33.5996L181.4 36ZM173.301 36V33.5996L176 36V33.5996L178.699 36V33.5996H170.601L173.301 36ZM167.9 36V33.5996L170.6 36V33.5996H165.2L167.9 36ZM159.801 36V33.5996L162.5 36V33.5996L165.199 36V33.5996H157.101L159.801 36ZM154.4 36V33.5996L157.1 36V33.5996H151.7L154.4 36ZM146.301 36V33.5996L149 36V33.5996L151.699 36V33.5996H143.601L146.301 36ZM140.9 36V33.5996L143.6 36V33.5996H138.2L140.9 36ZM132.801 36V33.5996L135.5 36V33.5996L138.199 36V33.5996H130.101L132.801 36ZM127.4 36V33.5996L130.1 36V33.5996H124.7L127.4 36ZM119.301 36V33.5996L122 36V33.5996L124.699 36V33.5996L116.601 33.5996L119.301 36ZM111.201 33.6006H108.502L111.202 36V33.6006L113.9 36V33.5996L116.6 36V33.5996H111.2L111.201 33.6006ZM105.802 36V33.6006L108.501 36V33.6006H103.102L105.802 36ZM97.7021 36V33.6006L100.401 36V33.6006L103.101 36V33.6006H95.002L97.7021 36ZM92.3018 36V33.6006L95.001 36V33.6006H89.6016L92.3018 36ZM84.2021 36V33.6006L86.9014 36V33.6006L89.6006 36V33.6006H81.502L84.2021 36ZM78.8018 36V33.6006L81.501 36V33.6006H76.1016L78.8018 36ZM70.7021 36V33.6006L73.4014 36V33.6006L76.1006 36V33.6006H68.002L70.7021 36ZM65.3018 36V33.6006L68.001 36V33.6006L62.6016 33.6006L65.3018 36ZM57.2021 36V33.6006L59.9014 36V33.6006L62.6006 36V33.6006H54.502L57.2021 36ZM51.8018 36V33.6006L54.501 36V33.6006H49.1016L51.8018 36ZM43.7021 36V33.6006L46.4014 36V33.6006L49.1006 36V33.6006H41.002L43.7021 36ZM38.3018 36V33.6006L41.001 36V33.6006H35.6016L38.3018 36ZM30.2021 36V33.6006L32.9014 36V33.6006L35.6006 36V33.6006H27.502L30.2021 36ZM24.8018 36V33.6006L27.501 36V33.6006H22.1016L24.8018 36ZM16.7021 36V33.6006L19.4014 36V33.6006L22.1006 36V33.6006H14.002L16.7021 36ZM11.3018 36V33.6006L14.001 36V33.6006H8.60156L11.3018 36ZM5.90137 36V33.6006L8.60059 36V33.6006L3.20117 33.6006L5.90137 36ZM494.601 33.5996V28.8008L499.999 33.5996V28.7998H489.2L494.601 33.5996ZM489.2 33.5996V28.7998L483.8 28.7998L489.2 33.5996ZM483.8 33.5996V28.7998H478.399L483.8 33.5996ZM478.399 33.5996V28.7998H472.999L478.399 33.5996ZM467.601 33.5996V28.8008L472.999 33.5996V28.7998H462.2L467.601 33.5996ZM462.2 33.5996V28.7998H456.8L462.2 33.5996ZM456.8 33.5996V28.7998L451.399 28.7998L456.8 33.5996ZM451.399 33.5996V28.7998H445.999L451.399 33.5996ZM440.601 33.5996V28.8008L445.999 33.5996V28.7998H435.2L440.601 33.5996ZM435.2 33.5996V28.7998H429.8L435.2 33.5996ZM429.8 33.5996V28.7998L424.399 28.7998L429.8 33.5996ZM424.399 33.5996V28.7998H418.999L424.399 33.5996ZM413.601 33.5996V28.8008L418.999 33.5996V28.7998H408.2L413.601 33.5996ZM408.2 33.5996V28.7998H402.8L408.2 33.5996ZM402.8 33.5996V28.7998L397.399 28.7998L402.8 33.5996ZM397.399 33.5996V28.7998H391.999L397.399 33.5996ZM386.601 33.5996V28.8008L391.999 33.5996V28.7998H381.2L386.601 33.5996ZM381.2 33.5996V28.7998H375.8L381.2 33.5996ZM370.402 33.5996V28.8018L375.8 33.5996V28.7998L365.002 28.7998L370.402 33.5996ZM365.002 33.5996V28.7998H359.602L365.002 33.5996ZM359.602 33.5996V28.7998H354.201L359.602 33.5996ZM354.201 33.5996V28.7998H348.801L354.201 33.5996ZM343.402 33.5996V28.8008L348.801 33.5996V28.7998L338.002 28.7998L343.402 33.5996ZM338.002 33.5996V28.7998H332.602L338.002 33.5996ZM332.602 33.5996V28.7998H327.201L332.602 33.5996ZM327.201 33.5996V28.7998H321.801L327.201 33.5996ZM316.402 33.5996V28.8008L321.801 33.5996V28.7998L311.002 28.7998L316.402 33.5996ZM311.002 33.5996V28.7998H305.602L311.002 33.5996ZM305.602 33.5996V28.7998H300.201L305.602 33.5996ZM300.201 33.5996V28.7998H294.801L300.201 33.5996ZM289.402 33.5996V28.8008L294.801 33.5996V28.7998H284.002L289.402 33.5996ZM284.002 33.5996V28.7998L278.602 28.7998L284.002 33.5996ZM278.602 33.5996V28.7998H273.201L278.602 33.5996ZM273.201 33.5996V28.7998H267.801L273.201 33.5996ZM262.402 33.5996V28.8008L267.801 33.5996V28.7998H257.002L262.402 33.5996ZM257.002 33.5996V28.7998L251.602 28.7998L257.002 33.5996ZM251.602 33.5996V28.7998H246.201L251.602 33.5996ZM246.201 33.5996V28.7998H240.801L246.201 33.5996ZM240.8 33.5996V28.7998H235.399L240.8 33.5996ZM235.399 33.5996V28.7998H229.999L235.399 33.5996ZM229.999 33.5996V28.7998H224.599L229.999 33.5996ZM219.2 33.5996V28.8008L224.599 33.5996V28.7998L213.8 28.7998L219.2 33.5996ZM213.8 33.5996V28.7998H208.399L213.8 33.5996ZM208.399 33.5996V28.7998H202.999L208.399 33.5996ZM202.999 33.5996V28.7998H197.599L202.999 33.5996ZM192.2 33.5996V28.8008L197.599 33.5996V28.7998L186.8 28.7998L192.2 33.5996ZM186.8 33.5996V28.7998H181.399L186.8 33.5996ZM181.399 33.5996V28.7998H175.999L181.399 33.5996ZM175.999 33.5996V28.7998H170.599L175.999 33.5996ZM165.2 33.5996V28.8008L170.599 33.5996V28.7998L159.8 28.7998L165.2 33.5996ZM159.8 33.5996V28.7998H154.399L159.8 33.5996ZM154.399 33.5996V28.7998H148.999L154.399 33.5996ZM148.999 33.5996V28.7998H143.599L148.999 33.5996ZM138.2 33.5996V28.8008L143.599 33.5996V28.7998L132.8 28.7998L138.2 33.5996ZM132.8 33.5996V28.7998H127.399L132.8 33.5996ZM127.399 33.5996V28.7998H121.999L127.399 33.5996ZM121.999 33.5996V28.7998H116.599L121.999 33.5996ZM111.201 33.5996V28.8018L116.599 33.5996V28.7998L105.801 28.7998L111.201 33.5996ZM105.801 33.5996V28.7998H100.4L105.801 33.5996ZM95.002 33.5996V28.8008L100.4 33.5996V28.7998H89.6016L95.002 33.5996ZM89.6016 33.5996V28.7998H84.2012L89.6016 33.5996ZM84.2012 33.5996V28.7998L78.8008 28.7998L84.2012 33.5996ZM78.8008 33.5996V28.7998H73.4004L78.8008 33.5996ZM68.002 33.5996V28.8008L73.4004 33.5996V28.7998H62.6016L68.002 33.5996ZM62.6016 33.5996V28.7998H57.2012L62.6016 33.5996ZM57.2012 33.5996V28.7998H51.8008L57.2012 33.5996ZM51.8008 33.5996V28.7998L46.4004 28.7998L51.8008 33.5996ZM41.002 33.5996V28.8008L46.4004 33.5996V28.7998H35.6016L41.002 33.5996ZM35.6016 33.5996V28.7998H30.2012L35.6016 33.5996ZM30.2012 33.5996V28.7998H24.8008L30.2012 33.5996ZM24.8008 33.5996V28.7998L19.4004 28.7998L24.8008 33.5996ZM14.002 33.5996V28.8008L19.4004 33.5996V28.7998H8.60156L14.002 33.5996ZM8.60156 33.5996V28.7998H3.20117L8.60156 33.5996ZM500 28.7998V19.2002H489.2L500 28.7998ZM478.4 28.7998V19.2002L489.199 28.7998V19.2002L467.601 19.2002L478.4 28.7998ZM467.6 28.7998V19.2002H456.8L467.6 28.7998ZM446 28.7998V19.2002L456.799 28.7998V19.2002L435.2 19.2002L446 28.7998ZM424.4 28.7998V19.2002L435.199 28.7998V19.2002L413.601 19.2002L424.4 28.7998ZM413.6 28.7998V19.2002H402.8L413.6 28.7998ZM392 28.7998V19.2002L402.799 28.7998V19.2002L381.2 19.2002L392 28.7998ZM381.199 28.7998V19.2002H370.399L381.199 28.7998ZM359.601 28.7998V19.2002L370.399 28.7998V19.2002L348.801 19.2002L359.601 28.7998ZM348.8 28.7998V19.2002L338 19.2002L348.8 28.7998ZM327.2 28.7998V19.2002L337.999 28.7998V19.2002H316.4L327.2 28.7998ZM305.601 28.7998V19.2002L316.399 28.7998V19.2002L294.801 19.2002L305.601 28.7998ZM294.8 28.7998V19.2002H284L294.8 28.7998ZM273.2 28.7998V19.2002L283.999 28.7998V19.2002L262.4 19.2002L273.2 28.7998ZM251.601 28.7998V19.2002L262.399 28.7998V19.2002L240.801 19.2002L251.601 28.7998ZM240.801 28.7998V19.2002H230.001L240.801 28.7998ZM230 28.7998V19.2002L219.2 19.2002L230 28.7998ZM208.4 28.7998V19.2002L219.199 28.7998V19.2002H197.601L208.4 28.7998ZM186.801 28.7998V19.2002L197.6 28.7998V19.2002L176.001 19.2002L186.801 28.7998ZM176 28.7998V19.2002L165.2 19.2002L176 28.7998ZM154.4 28.7998V19.2002L165.199 28.7998V19.2002H143.601L154.4 28.7998ZM132.801 28.7998V19.2002L143.6 28.7998V19.2002L122.001 19.2002L132.801 28.7998ZM122 28.7998V19.2002H111.2L122 28.7998ZM111.2 28.7998V19.2002L100.4 19.2002L111.2 28.7998ZM89.6006 28.7998V19.2002L100.399 28.7998V19.2002L78.8008 19.2002L89.6006 28.7998ZM68.001 28.7998V19.2002L78.7998 28.7998V19.2002H57.2012L68.001 28.7998ZM57.2002 28.7998V19.2002L46.4004 19.2002L57.2002 28.7998ZM35.6006 28.7998V19.2002L46.3994 28.7998V19.2002H24.8008L35.6006 28.7998ZM14.001 28.7998V19.2002L24.7998 28.7998V19.2002L3.20117 19.2002L14.001 28.7998ZM499.999 19.2002V0L478.399 0L499.999 19.2002ZM478.399 19.2002V0L456.8 0L478.399 19.2002ZM456.798 19.2002V0L435.198 0L456.798 19.2002ZM435.198 19.2002V0L413.599 0L435.198 19.2002ZM413.599 19.2002V0L391.999 0L413.599 19.2002ZM370.4 19.2002V0L391.999 19.2002V0L348.801 0L370.4 19.2002ZM348.801 19.2002V0L327.201 0L348.801 19.2002ZM327.199 19.2002V0L305.6 0L327.199 19.2002ZM305.6 19.2002V0L284 0L305.6 19.2002ZM284 19.2002V0L262.4 0L284 19.2002ZM262.4 19.2002V0L240.801 0L262.4 19.2002ZM240.8 19.2002V0L219.2 0L240.8 19.2002ZM219.2 19.2002V0L197.601 0L219.2 19.2002ZM197.599 19.2002V0L175.999 0L197.599 19.2002ZM175.999 19.2002V0L154.399 0L175.999 19.2002ZM154.399 19.2002V0L132.8 0L154.399 19.2002ZM111.201 19.2002V0L132.8 19.2002V0L89.6016 0L111.201 19.2002ZM89.6016 19.2002V0L68.002 0L89.6016 19.2002ZM68 19.2002V0L46.4004 0L68 19.2002ZM46.4004 19.2002V0L24.8008 0L46.4004 19.2002ZM24.8008 19.2002V0L3.20117 0L24.8008 19.2002Z" fill="black"/>
</svg>
