<svg width="512" height="40" viewBox="0 0 512 40" fill="none" xmlns="http://www.w3.org/2000/svg">
<path fill-rule="evenodd" clip-rule="evenodd" d="M499.877 0.464291L257.018 0.464291V0.445221L245.879 0.445221V0.464291L0.984161 0.464291V39.5008H12.1234V39.4827L254.983 39.4827V39.5008H266.122V39.4827L511.016 39.4827V0.445221L499.877 0.445221V0.464291ZM264.038 37.4452H257.018V30.2879H264.038V37.4452ZM10.0388 37.4452H3.01614V30.2879L10.0388 30.2879V37.4452ZM508.984 37.4272H501.961V30.2698H508.984V37.4272ZM499.877 37.4272H492.891V30.2698L499.877 30.2698V37.4272ZM490.822 37.4272H483.82V30.2698H490.822V37.4272ZM481.752 37.4272H474.748V30.2698H481.752V37.4272ZM472.681 37.4272H465.677V30.2698L472.681 30.2698V37.4272ZM463.608 37.4272H456.605V30.2698H463.608V37.4272ZM454.538 37.4272H447.534V30.2698H454.538V37.4272ZM445.465 37.4272H438.461V30.2698L445.465 30.2698V37.4272ZM436.395 37.4272H429.391V30.2698H436.395V37.4272ZM427.322 37.4272L420.32 37.4272V30.2698H427.322V37.4272ZM418.252 37.4272H411.248V30.2698H418.252V37.4272ZM409.181 37.4272H402.177V30.2698H409.181V37.4272ZM400.108 37.4272H393.105V30.2698H400.108V37.4272ZM391.038 37.4272H384.034V30.2698H391.038V37.4272ZM381.965 37.4272H374.961V30.2698L381.965 30.2698V37.4272ZM372.895 37.4272L365.891 37.4272V30.2698H372.895V37.4272ZM363.822 37.4272H356.82V30.2698H363.822V37.4272ZM354.752 37.4272H347.748V30.2698L354.752 30.2698V37.4272ZM345.681 37.4272H338.677V30.2698H345.681V37.4272ZM336.608 37.4272H329.605V30.2698H336.608V37.4272ZM327.538 37.4272H320.534V30.2698L327.538 30.2698V37.4272ZM318.465 37.4272H311.461V30.2698H318.465V37.4272ZM309.395 37.4272L302.391 37.4272V30.2698H309.395V37.4272ZM300.322 37.4272H293.32V30.2698L300.322 30.2698V37.4272ZM291.252 37.4272H284.248V30.2698H291.252V37.4272ZM282.181 37.4272H275.177V30.2698H282.181V37.4272ZM273.108 37.4272H266.122V30.2698H273.108V37.4272ZM254.983 37.4272L247.963 37.4272V30.2698H254.983V37.4272ZM245.879 37.4272H238.893V30.2698H245.879V37.4272ZM236.824 37.4272H229.822V30.2698L236.824 30.2698V37.4272ZM227.754 37.4272H220.75V30.2698H227.754V37.4272ZM218.683 37.4272H211.679V30.2698H218.683V37.4272ZM209.61 37.4272H202.607V30.2698L209.61 30.2698V37.4272ZM200.54 37.4272H193.536V30.2698H200.54V37.4272ZM191.467 37.4272H184.463V30.2698H191.467V37.4272ZM182.397 37.4272H175.393V30.2698L182.397 30.2698V37.4272ZM173.324 37.4272H166.321V30.2698H173.324V37.4272ZM164.254 37.4272H157.249V30.2698H164.254V37.4272ZM155.182 37.4272H148.178V30.2698L155.182 30.2698V37.4272ZM146.109 37.4272H139.106V30.2698H146.109V37.4272ZM137.039 37.4272L130.035 37.4272V30.2698H137.039V37.4272ZM127.966 37.4272H120.962V30.2698H127.966V37.4272ZM118.896 37.4272H111.892V30.2698H118.896V37.4272ZM109.823 37.4272H102.821V30.2698H109.823V37.4272ZM100.753 37.4272H93.7487V30.2698H100.753V37.4272ZM91.682 37.4272H84.6781V30.2698L91.682 30.2698V37.4272ZM82.6094 37.4272L75.6056 37.4272V30.2698H82.6094V37.4272ZM73.5388 37.4272H66.535V30.2698H73.5388V37.4272ZM64.4663 37.4272H57.4624V30.2698L64.4663 30.2698V37.4272ZM55.3957 37.4272H48.3919V30.2698H55.3957V37.4272ZM46.3232 37.4272H39.3213V30.2698H46.3232V37.4272ZM37.2526 37.4272H30.2487V30.2698L37.2526 30.2698V37.4272ZM28.182 37.4272H21.1782V30.2698H28.182V37.4272ZM19.1094 37.4272L12.1234 37.4272V30.2698H19.1094V37.4272ZM499.877 28.1772L492.891 28.1772V21.0198L499.877 21.0198V28.1772ZM490.822 28.1772H483.82V21.0198H490.822V28.1772ZM481.752 28.1772H474.748V21.0198H481.752V28.1772ZM472.681 28.1772L465.677 28.1772V21.0198L472.681 21.0198V28.1772ZM463.608 28.1772H456.605V21.0198H463.608V28.1772ZM454.538 28.1772H447.534V21.0198H454.538V28.1772ZM445.465 28.1772L438.461 28.1772V21.0198L445.465 21.0198V28.1772ZM436.395 28.1772H429.391V21.0198H436.395V28.1772ZM427.322 28.1772H420.32V21.0198H427.322V28.1772ZM418.252 28.1772H411.248V21.0198H418.252V28.1772ZM409.181 28.1772H402.177V21.0198H409.181V28.1772ZM400.108 28.1772H393.105V21.0198H400.108V28.1772ZM391.038 28.1772H384.034V21.0198H391.038V28.1772ZM381.965 28.1772L374.961 28.1772V21.0198L381.965 21.0198V28.1772ZM372.895 28.1772H365.891V21.0198H372.895V28.1772ZM363.822 28.1772H356.82V21.0198H363.822V28.1772ZM354.752 28.1772L347.748 28.1772V21.0198L354.752 21.0198V28.1772ZM345.681 28.1772H338.677V21.0198H345.681V28.1772ZM336.608 28.1772H329.605V21.0198H336.608V28.1772ZM327.538 28.1772L320.534 28.1772V21.0198L327.538 21.0198V28.1772ZM318.465 28.1772H311.461V21.0198H318.465V28.1772ZM309.395 28.1772H302.391V21.0198H309.395V28.1772ZM300.322 28.1772L293.32 28.1772V21.0198L300.322 21.0198V28.1772ZM291.252 28.1772H284.248V21.0198H291.252V28.1772ZM282.181 28.1772H275.177V21.0198H282.181V28.1772ZM273.108 28.1772H266.122V21.0198H273.108V28.1772ZM264.038 28.1772H257.018V21.0198H264.038V28.1772ZM245.879 28.1772H238.893V21.0198H245.879V28.1772ZM236.824 28.1772L229.822 28.1772V21.0198L236.824 21.0198V28.1772ZM227.754 28.1772H220.75V21.0198H227.754V28.1772ZM218.683 28.1772H211.679V21.0198H218.683V28.1772ZM209.61 28.1772L202.607 28.1772V21.0198L209.61 21.0198V28.1772ZM200.54 28.1772H193.536V21.0198H200.54V28.1772ZM191.467 28.1772H184.463V21.0198H191.467V28.1772ZM182.397 28.1772L175.393 28.1772V21.0198L182.397 21.0198V28.1772ZM173.324 28.1772H166.321V21.0198H173.324V28.1772ZM164.254 28.1772H157.249V21.0198H164.254V28.1772ZM155.182 28.1772L148.178 28.1772V21.0198L155.182 21.0198V28.1772ZM146.109 28.1772H139.106V21.0198H146.109V28.1772ZM137.039 28.1772H130.035V21.0198H137.039V28.1772ZM127.966 28.1772H120.962V21.0198H127.966V28.1772ZM118.896 28.1772H111.892V21.0198H118.896V28.1772ZM109.823 28.1772H102.821V21.0198H109.823V28.1772ZM100.753 28.1772H93.7487V21.0198H100.753V28.1772ZM91.682 28.1772L84.6781 28.1772V21.0198L91.682 21.0198V28.1772ZM82.6094 28.1772H75.6056V21.0198H82.6094V28.1772ZM73.5388 28.1772H66.535V21.0198H73.5388V28.1772ZM64.4663 28.1772L57.4624 28.1772V21.0198L64.4663 21.0198V28.1772ZM55.3957 28.1772H48.3919V21.0198H55.3957V28.1772ZM46.3232 28.1772H39.3213V21.0198H46.3232V28.1772ZM37.2526 28.1772L30.2487 28.1772V21.0198L37.2526 21.0198V28.1772ZM28.182 28.1772H21.1782V21.0198H28.182V28.1772ZM19.1094 28.1772H12.1234V21.0198H19.1094V28.1772ZM10.0388 28.1772L3.01614 28.1772V21.0198L10.0388 21.0198V28.1772ZM508.984 28.1581H501.961V21.0008H508.984V28.1581ZM254.983 28.1581H247.963V21.0008H254.983V28.1581ZM264.038 18.9452H257.018V11.7879L264.038 11.7879V18.9452ZM10.0388 18.9452L3.01614 18.9452V11.7879H10.0388V18.9452ZM508.984 18.9272H501.961V11.7698L508.984 11.7698V18.9272ZM499.877 18.9272L492.891 18.9272V11.7698H499.877V18.9272ZM490.822 18.9272H483.82V11.7698L490.822 11.7698V18.9272ZM481.752 18.9272H474.748V11.7698L481.752 11.7698V18.9272ZM472.681 18.9272L465.677 18.9272V11.7698H472.681V18.9272ZM463.608 18.9272H456.605V11.7698L463.608 11.7698V18.9272ZM454.538 18.9272H447.534V11.7698H454.538V18.9272ZM445.465 18.9272L438.461 18.9272V11.7698H445.465V18.9272ZM436.395 18.9272H429.391V11.7698L436.395 11.7698V18.9272ZM427.322 18.9272H420.32V11.7698H427.322V18.9272ZM418.252 18.9272H411.248V11.7698L418.252 11.7698V18.9272ZM409.181 18.9272H402.177V11.7698L409.181 11.7698V18.9272ZM400.108 18.9272H393.105V11.7698H400.108V18.9272ZM391.038 18.9272H384.034V11.7698L391.038 11.7698V18.9272ZM381.965 18.9272L374.961 18.9272V11.7698H381.965V18.9272ZM372.895 18.9272H365.891V11.7698H372.895V18.9272ZM363.822 18.9272H356.82V11.7698L363.822 11.7698V18.9272ZM354.752 18.9272L347.748 18.9272V11.7698H354.752V18.9272ZM345.681 18.9272H338.677V11.7698L345.681 11.7698V18.9272ZM336.608 18.9272H329.605V11.7698L336.608 11.7698V18.9272ZM327.538 18.9272L320.534 18.9272V11.7698H327.538V18.9272ZM318.465 18.9272H311.461V11.7698L318.465 11.7698V18.9272ZM309.395 18.9272H302.391V11.7698H309.395V18.9272ZM300.322 18.9272L293.32 18.9272V11.7698H300.322V18.9272ZM291.252 18.9272H284.248V11.7698L291.252 11.7698V18.9272ZM282.181 18.9272H275.177V11.7698H282.181V18.9272ZM273.108 18.9272H266.122V11.7698L273.108 11.7698V18.9272ZM254.983 18.9272H247.963V11.7698H254.983V18.9272ZM245.879 18.9272H238.893V11.7698L245.879 11.7698V18.9272ZM236.824 18.9272L229.822 18.9272V11.7698H236.824V18.9272ZM227.754 18.9272H220.75V11.7698H227.754V18.9272ZM218.683 18.9272H211.679V11.7698L218.683 11.7698V18.9272ZM209.61 18.9272L202.607 18.9272V11.7698H209.61V18.9272ZM200.54 18.9272H193.536V11.7698L200.54 11.7698V18.9272ZM191.467 18.9272H184.463V11.7698L191.467 11.7698V18.9272ZM182.397 18.9272L175.393 18.9272V11.7698H182.397V18.9272ZM173.324 18.9272H166.321V11.7698L173.324 11.7698V18.9272ZM164.254 18.9272H157.249V11.7698H164.254V18.9272ZM155.182 18.9272L148.178 18.9272V11.7698H155.182V18.9272ZM146.109 18.9272H139.106V11.7698L146.109 11.7698V18.9272ZM137.039 18.9272H130.035V11.7698H137.039V18.9272ZM127.966 18.9272H120.962V11.7698L127.966 11.7698V18.9272ZM118.896 18.9272H111.892V11.7698L118.896 11.7698V18.9272ZM109.823 18.9272H102.821V11.7698H109.823V18.9272ZM100.753 18.9272H93.7487V11.7698L100.753 11.7698V18.9272ZM91.682 18.9272L84.6781 18.9272V11.7698H91.682V18.9272ZM82.6094 18.9272H75.6056V11.7698H82.6094V18.9272ZM73.5388 18.9272H66.535V11.7698L73.5388 11.7698V18.9272ZM64.4663 18.9272L57.4624 18.9272V11.7698H64.4663V18.9272ZM55.3957 18.9272H48.3919V11.7698L55.3957 11.7698V18.9272ZM46.3232 18.9272H39.3213V11.7698L46.3232 11.7698V18.9272ZM37.2526 18.9272L30.2487 18.9272V11.7698H37.2526V18.9272ZM28.182 18.9272H21.1782V11.7698L28.182 11.7698V18.9272ZM19.1094 18.9272H12.1234V11.7698H19.1094V18.9272ZM499.877 9.67715H492.891V2.51985L499.877 2.51985V9.67715ZM490.822 9.67715L483.82 9.67715V2.51985L490.822 2.51985V9.67715ZM481.752 9.67715L474.748 9.67715V2.51985L481.752 2.51985V9.67715ZM472.681 9.67715H465.677V2.51985L472.681 2.51985V9.67715ZM463.608 9.67715L456.605 9.67715V2.51985L463.608 2.51985V9.67715ZM454.538 9.67715H447.534V2.51985L454.538 2.51985V9.67715ZM445.465 9.67715H438.461V2.51985L445.465 2.51985V9.67715ZM436.395 9.67715L429.391 9.67715V2.51985L436.395 2.51985V9.67715ZM427.322 9.67715H420.32V2.51985L427.322 2.51985V9.67715ZM418.252 9.67715L411.248 9.67715V2.51985L418.252 2.51985V9.67715ZM409.181 9.67715L402.177 9.67715V2.51985L409.181 2.51985V9.67715ZM400.108 9.67715H393.105V2.51985L400.108 2.51985V9.67715ZM391.038 9.67715L384.034 9.67715V2.51985L391.038 2.51985V9.67715ZM381.965 9.67715H374.961V2.51985L381.965 2.51985V9.67715ZM372.895 9.67715H365.891V2.51985L372.895 2.51985V9.67715ZM363.822 9.67715L356.82 9.67715V2.51985L363.822 2.51985V9.67715ZM354.752 9.67715H347.748V2.51985L354.752 2.51985V9.67715ZM345.681 9.67715L338.677 9.67715V2.51985L345.681 2.51985V9.67715ZM336.608 9.67715L329.605 9.67715V2.51985L336.608 2.51985V9.67715ZM327.538 9.67715H320.534V2.51985L327.538 2.51985V9.67715ZM318.465 9.67715L311.461 9.67715V2.51985L318.465 2.51985V9.67715ZM309.395 9.67715H302.391V2.51985L309.395 2.51985V9.67715ZM300.322 9.67715H293.32V2.51985L300.322 2.51985V9.67715ZM291.252 9.67715L284.248 9.67715V2.51985L291.252 2.51985V9.67715ZM282.181 9.67715H275.177V2.51985L282.181 2.51985V9.67715ZM273.108 9.67715L266.122 9.67715V2.51985L273.108 2.51985V9.67715ZM264.038 9.67715L257.018 9.67715V2.51985L264.038 2.51985V9.67715ZM245.879 9.67715L238.893 9.67715V2.51985L245.879 2.51985V9.67715ZM236.824 9.67715H229.822V2.51985L236.824 2.51985V9.67715ZM227.754 9.67715H220.75V2.51985L227.754 2.51985V9.67715ZM218.683 9.67715L211.679 9.67715V2.51985L218.683 2.51985V9.67715ZM209.61 9.67715H202.607V2.51985L209.61 2.51985V9.67715ZM200.54 9.67715L193.536 9.67715V2.51985L200.54 2.51985V9.67715ZM191.467 9.67715L184.463 9.67715V2.51985L191.467 2.51985V9.67715ZM182.397 9.67715H175.393V2.51985L182.397 2.51985V9.67715ZM173.324 9.67715L166.321 9.67715V2.51985L173.324 2.51985V9.67715ZM164.254 9.67715H157.249V2.51985L164.254 2.51985V9.67715ZM155.182 9.67715H148.178V2.51985L155.182 2.51985V9.67715ZM146.109 9.67715L139.106 9.67715V2.51985L146.109 2.51985V9.67715ZM137.039 9.67715H130.035V2.51985L137.039 2.51985V9.67715ZM127.966 9.67715L120.962 9.67715V2.51985L127.966 2.51985V9.67715ZM118.896 9.67715L111.892 9.67715V2.51985L118.896 2.51985V9.67715ZM109.823 9.67715H102.821V2.51985L109.823 2.51985V9.67715ZM100.753 9.67715L93.7487 9.67715V2.51985L100.753 2.51985V9.67715ZM91.682 9.67715H84.6781V2.51985L91.682 2.51985V9.67715ZM82.6094 9.67715H75.6056V2.51985L82.6094 2.51985V9.67715ZM73.5388 9.67715L66.535 9.67715V2.51985L73.5388 2.51985V9.67715ZM64.4663 9.67715H57.4624V2.51985L64.4663 2.51985V9.67715ZM55.3957 9.67715L48.3919 9.67715V2.51985L55.3957 2.51985V9.67715ZM46.3232 9.67715L39.3213 9.67715V2.51985L46.3232 2.51985V9.67715ZM37.2526 9.67715H30.2487V2.51985L37.2526 2.51985V9.67715ZM28.182 9.67715L21.1782 9.67715V2.51985L28.182 2.51985V9.67715ZM19.1094 9.67715H12.1234V2.51985L19.1094 2.51985V9.67715ZM10.0388 9.67715H3.01614V2.51985L10.0388 2.51985V9.67715ZM508.984 9.65808L501.961 9.65808V2.50078L508.984 2.50078V9.65808ZM254.983 9.65808H247.963V2.50078L254.983 2.50078V9.65808Z" fill="black"/>
</svg>
