<svg width="500" height="55" viewBox="0 0 500 55" fill="none" xmlns="http://www.w3.org/2000/svg">
<path d="M434.125 45.4609C431.64 45.4609 429.625 47.4757 429.625 49.9609C429.625 52.4459 431.64 54.4609 434.125 54.4609C436.61 54.4609 438.625 52.4459 438.625 49.9609C438.625 47.4757 436.61 45.4609 434.125 45.4609Z" fill="black"/>
<path fill-rule="evenodd" clip-rule="evenodd" d="M111.906 0.459961C109.421 0.459961 107.406 2.47566 107.406 4.96094C107.407 7.43288 109.4 9.43898 111.867 9.45996L101.062 9.45996C101.036 6.99664 99.0319 5.00781 96.5625 5.00781C94.0931 5.00781 92.0891 6.99664 92.0635 9.45996L0 9.45996V11.46L31.4785 11.46C30.9799 12.1844 30.6875 13.0619 30.6875 14.0078C30.6877 15.7129 31.6361 17.1966 33.0342 17.96L0 17.96V19.96L47.2207 19.96C46.4824 20.7616 46.0312 21.832 46.0312 23.0078C46.0314 24.3946 46.6591 25.6345 47.6455 26.46L0 26.46V28.46H17.0176C15.997 29.2849 15.3438 30.5464 15.3438 31.9609C15.3439 33.1132 15.7778 34.1639 16.4902 34.96H8.74219C8.12408 33.2128 6.45886 31.9609 4.5 31.9609C2.54114 31.9609 0.875916 33.2128 0.257812 34.96H0V36.96H0.0283203C0.276947 39.2101 2.18365 40.9609 4.5 40.9609C6.81635 40.9609 8.72305 39.2101 8.97168 36.96L383.685 36.96C384.103 39.0121 385.918 40.5566 388.094 40.5566C390.269 40.5566 392.084 39.0121 392.503 36.96H400.732C399.642 37.7812 398.938 39.0867 398.938 40.5566C398.938 41.6631 399.337 42.6763 400 43.46L0 43.46V45.46L414.301 45.46C414.505 47.7559 416.432 49.5566 418.781 49.5566C421.13 49.5566 423.057 47.7559 423.262 45.46L480.117 45.46C480.13 45.4601 480.143 45.4609 480.156 45.4609C480.169 45.4609 480.182 45.4601 480.195 45.46H500V43.46H483.898C484.377 42.7451 484.656 41.8856 484.656 40.9609C484.656 39.2181 483.665 37.7074 482.216 36.96H491.091C491.509 39.0121 493.324 40.5566 495.5 40.5566C497.676 40.5566 499.491 39.0121 499.909 36.96H500V34.96H499.865C499.376 33.0047 497.607 31.5566 495.5 31.5566C493.393 31.5566 491.624 33.0047 491.135 34.96L469.178 34.96C468.688 33.0047 466.92 31.5566 464.812 31.5566C462.705 31.5566 460.937 33.0047 460.447 34.96H453.834C453.344 33.0047 451.576 31.5566 449.469 31.5566C447.362 31.5566 445.593 33.0047 445.104 34.96L392.459 34.96C391.969 33.0047 390.201 31.5566 388.094 31.5566C385.987 31.5566 384.218 33.0047 383.729 34.96H376.104C376.816 34.1639 377.25 33.1132 377.25 31.9609C377.25 30.5464 376.597 29.2849 375.576 28.46L500 28.46V26.46L361.793 26.46C361.338 24.4565 359.547 22.9609 357.406 22.9609C355.265 22.9609 353.475 24.4565 353.02 26.46H344.89C345.909 25.635 346.562 24.3746 346.562 22.9609C346.562 21.8078 346.128 20.7562 345.415 19.96L500 19.96V17.96L331.185 17.96C330.914 15.7331 329.019 14.0078 326.719 14.0078C324.419 14.0078 322.523 15.7331 322.253 17.96L300.497 17.96C300.227 15.7331 298.331 14.0078 296.031 14.0078C293.731 14.0078 291.836 15.7331 291.565 17.96H285.153C284.883 15.7331 282.987 14.0078 280.688 14.0078C278.388 14.0078 276.492 15.7331 276.222 17.96L223.778 17.96C223.508 15.7331 221.612 14.0078 219.312 14.0078C217.013 14.0078 215.117 15.7331 214.847 17.96H206.122C207.52 17.1966 208.469 15.7129 208.469 14.0078C208.469 13.0619 208.176 12.1844 207.678 11.46L500 11.46V9.45996L193.124 9.45996C193.098 6.99664 191.094 5.00781 188.625 5.00781C186.156 5.00781 184.152 6.99664 184.126 9.45996L157.977 9.45996C160.444 9.43898 162.437 7.43288 162.438 4.96094C162.438 2.47566 160.423 0.459961 157.938 0.459961C155.452 0.459961 153.438 2.47566 153.438 4.96094C153.438 7.43288 155.431 9.43898 157.898 9.45996H147.093C147.067 6.99664 145.063 5.00781 142.594 5.00781C140.124 5.00781 138.12 6.99664 138.095 9.45996L127.289 9.45996C129.756 9.43898 131.75 7.43288 131.75 4.96094C131.75 2.47566 129.735 0.459961 127.25 0.459961C124.765 0.459961 122.75 2.47566 122.75 4.96094C122.75 7.43288 124.744 9.43898 127.211 9.45996L111.945 9.45996C114.412 9.43898 116.406 7.43288 116.406 4.96094C116.406 2.47566 114.392 0.459961 111.906 0.459961ZM445.06 36.96C445.478 39.0121 447.293 40.5566 449.469 40.5566C451.644 40.5566 453.459 39.0121 453.878 36.96H460.403C460.822 39.0121 462.637 40.5566 464.812 40.5566C466.988 40.5566 468.803 39.0121 469.222 36.96L478.097 36.96C476.648 37.7074 475.656 39.2181 475.656 40.9609C475.656 41.8856 475.936 42.7451 476.414 43.46L422.988 43.46C422.344 41.763 420.704 40.5566 418.781 40.5566C416.858 40.5566 415.219 41.763 414.574 43.46L406.875 43.46C407.538 42.6763 407.937 41.6631 407.938 40.5566C407.938 39.0867 407.233 37.7812 406.143 36.96L445.06 36.96ZM353.02 28.46C353.474 30.464 355.265 31.9609 357.406 31.9609C359.548 31.9609 361.338 30.464 361.793 28.46L369.924 28.46C368.903 29.2849 368.25 30.5464 368.25 31.9609C368.25 33.1132 368.684 34.1639 369.396 34.96L268.697 34.96C269.41 34.1639 269.844 33.1132 269.844 31.9609C269.844 30.5464 269.191 29.2849 268.17 28.46L353.02 28.46ZM245.725 28.46C246.315 30.2577 248.005 31.5566 250 31.5566C251.995 31.5566 253.685 30.2577 254.275 28.46H262.518C261.497 29.2849 260.844 30.5464 260.844 31.9609C260.844 33.1132 261.278 34.1639 261.99 34.96L23.1973 34.96C23.9097 34.1639 24.3436 33.1132 24.3438 31.9609C24.3438 30.5464 23.6905 29.2849 22.6699 28.46L245.725 28.46ZM322.46 19.96C323.064 21.7323 324.742 23.0078 326.719 23.0078C328.696 23.0078 330.373 21.7323 330.978 19.96H338.71C337.997 20.7562 337.562 21.8078 337.562 22.9609C337.563 24.3746 338.216 25.635 339.235 26.46H314.202C315.222 25.635 315.875 24.3746 315.875 22.9609C315.875 21.8078 315.441 20.7562 314.728 19.96H322.46ZM276.429 19.96C277.033 21.7323 278.711 23.0078 280.688 23.0078C282.664 23.0078 284.342 21.7323 284.946 19.96H291.772C292.377 21.7323 294.054 23.0078 296.031 23.0078C298.008 23.0078 299.686 21.7323 300.29 19.96H308.022C307.309 20.7562 306.875 21.8078 306.875 22.9609C306.875 24.3746 307.528 25.635 308.548 26.46L254.459 26.46C254.167 24.2568 252.283 22.5566 250 22.5566C247.717 22.5566 245.833 24.2568 245.541 26.46H237.542C238.528 25.6345 239.156 24.3946 239.156 23.0078C239.156 21.832 238.705 20.7616 237.967 19.96L276.429 19.96ZM61.6162 19.96C62.2205 21.7323 63.8982 23.0078 65.875 23.0078C67.8518 23.0078 69.5295 21.7323 70.1338 19.96L169.022 19.96C169.627 21.7323 171.304 23.0078 173.281 23.0078C175.258 23.0078 176.936 21.7323 177.54 19.96L215.054 19.96C215.658 21.7323 217.336 23.0078 219.312 23.0078C221.289 23.0078 222.967 21.7323 223.571 19.96L231.346 19.96C230.607 20.7616 230.156 21.832 230.156 23.0078C230.156 24.3946 230.784 25.6345 231.771 26.46L53.417 26.46C54.4034 25.6345 55.0311 24.3946 55.0312 23.0078C55.0312 21.832 54.5801 20.7616 53.8418 19.96H61.6162ZM92.5068 11.46C93.2339 12.9675 94.7768 14.0078 96.5625 14.0078C98.3482 14.0078 99.8911 12.9675 100.618 11.46L138.538 11.46C139.265 12.9675 140.808 14.0078 142.594 14.0078C144.379 14.0078 145.922 12.9675 146.649 11.46L184.569 11.46C185.296 12.9675 186.839 14.0078 188.625 14.0078C190.411 14.0078 191.954 12.9675 192.681 11.46H200.26C199.761 12.1844 199.469 13.0619 199.469 14.0078C199.469 15.7129 200.417 17.1966 201.815 17.96L177.747 17.96C177.477 15.7331 175.581 14.0078 173.281 14.0078C170.981 14.0078 169.086 15.7331 168.815 17.96L83.3721 17.96C84.7702 17.1966 85.7186 15.7129 85.7188 14.0078C85.7188 13.0619 85.4263 12.1844 84.9277 11.46L92.5068 11.46ZM77.5098 11.46C77.0112 12.1844 76.7188 13.0619 76.7188 14.0078C76.7189 15.7129 77.6673 17.1966 79.0654 17.96H70.3408C70.0706 15.7331 68.1748 14.0078 65.875 14.0078C63.5752 14.0078 61.6794 15.7331 61.4092 17.96L37.3408 17.96C38.7389 17.1966 39.6873 15.7129 39.6875 14.0078C39.6875 13.0619 39.3951 12.1844 38.8965 11.46L77.5098 11.46Z" fill="black"/>
</svg>
