<svg width="502" height="38" viewBox="0 0 502 38" fill="none" xmlns="http://www.w3.org/2000/svg">
<path fill-rule="evenodd" clip-rule="evenodd" d="M495.024 0C492.508 8.25838e-06 490.304 1.33525 489.077 3.33398C487.848 1.34827 485.65 0.0244141 483.144 0.0244141C480.625 0.0244223 478.419 1.36084 477.192 3.3623C475.966 1.36071 473.759 0.0244141 471.24 0.0244141C468.721 0.0245951 466.515 1.36143 465.289 3.36328C464.063 1.36105 461.855 0.0244141 459.336 0.0244141C456.817 0.024595 454.612 1.36109 453.386 3.3623C452.16 1.36065 449.953 0.0244141 447.434 0.0244141C444.914 0.0245087 442.707 1.36176 441.481 3.36426C440.255 1.36175 438.049 0.0244141 435.529 0.0244141C433.01 0.0244223 430.803 1.36176 429.577 3.36426C428.351 1.36175 426.145 0.0244141 423.625 0.0244141C421.106 0.0244223 418.9 1.36084 417.674 3.3623C416.448 1.36084 414.241 0.0245004 411.723 0.0244141C409.203 0.0244223 406.996 1.36182 405.771 3.36426C404.545 1.36163 402.337 0.0244141 399.817 0.0244141C397.299 0.024595 395.093 1.36109 393.867 3.3623C392.641 1.36065 390.434 0.0244141 387.915 0.0244141C385.396 0.0245087 383.189 1.36176 381.963 3.36426C380.737 1.36175 378.53 0.0244141 376.011 0.0244141C373.491 0.0244223 371.285 1.36176 370.059 3.36426C368.833 1.36175 366.626 0.0244141 364.106 0.0244141C361.588 0.0244223 359.381 1.36084 358.155 3.3623C356.929 1.36084 354.723 0.0245004 352.204 0.0244141C349.685 0.0244223 347.478 1.36182 346.252 3.36426C345.026 1.36163 342.818 0.0244141 340.299 0.0244141C337.78 0.0245951 335.574 1.36201 334.348 3.36426C333.122 1.36157 330.914 0.0244141 328.395 0.0244141C325.875 0.0245087 323.668 1.36176 322.442 3.36426C321.216 1.36175 319.01 0.0244141 316.49 0.0244141C313.971 0.0244223 311.765 1.36084 310.539 3.3623C309.313 1.36083 307.107 0.0244141 304.588 0.0244141C302.069 0.0244223 299.863 1.36084 298.637 3.3623C297.411 1.36084 295.204 0.0245004 292.686 0.0244141C290.166 0.0244223 287.959 1.36182 286.733 3.36426C285.507 1.36163 283.3 0.0244141 280.78 0.0244141C278.261 0.0245951 276.055 1.36201 274.829 3.36426C273.603 1.36157 271.396 0.0244141 268.876 0.0244141C266.358 0.0245087 264.153 1.36016 262.927 3.36035C261.7 1.35973 259.494 0.0244141 256.976 0.0244141C254.457 0.0245087 252.251 1.36084 251.024 3.3623C249.798 1.36083 247.592 0.0244141 245.073 0.0244141C242.554 0.0244223 240.347 1.36176 239.121 3.36426C237.895 1.36176 235.688 0.0245005 233.169 0.0244141C230.649 0.0244223 228.443 1.36182 227.217 3.36426C225.991 1.36163 223.783 0.0244141 221.264 0.0244141C218.745 0.024595 216.54 1.3605 215.313 3.36133C214.087 1.36013 211.88 0.0244141 209.361 0.0244141C206.85 0.0245945 204.65 1.35383 203.422 3.3457C202.194 1.3534 199.992 0.0244141 197.48 0.0244141C194.954 0.024509 192.741 1.36901 191.518 3.38086C190.294 1.369 188.081 0.0244141 185.555 0.0244141C183.036 0.0244223 180.83 1.36084 179.604 3.3623C178.377 1.36084 176.171 0.0245004 173.652 0.0244141C171.134 0.0244223 168.927 1.3609 167.701 3.3623C166.475 1.36071 164.268 0.0244141 161.749 0.0244141C159.23 0.0245951 157.024 1.36143 155.798 3.36328C154.572 1.36105 152.364 0.0244141 149.845 0.0244141C147.325 0.0245951 145.119 1.36201 143.894 3.36426C142.668 1.36157 140.46 0.0244141 137.94 0.0244141C135.421 0.0245087 133.214 1.36176 131.988 3.36426C130.762 1.36175 128.556 0.0244141 126.036 0.0244141C123.517 0.0244223 121.311 1.36084 120.085 3.3623C118.859 1.36084 116.653 0.0245004 114.134 0.0244141C111.614 0.0244223 109.408 1.36182 108.182 3.36426C106.956 1.36176 104.749 0.0245005 102.229 0.0244141C99.7108 0.0244223 97.5045 1.3609 96.2783 3.3623C95.0522 1.36071 92.8451 0.0244141 90.3262 0.0244141C87.8069 0.0245951 85.6009 1.36201 84.375 3.36426C83.1491 1.36157 80.9416 0.0244141 78.4219 0.0244141C75.9024 0.0245087 73.6956 1.36176 72.4697 3.36426C71.2438 1.36175 69.0371 0.0244141 66.5176 0.0244141C63.9988 0.0244223 61.7926 1.36084 60.5664 3.3623C59.3402 1.36083 57.134 0.0244141 54.6152 0.0244141C52.1035 0.0244223 49.903 1.35358 48.6748 3.3457C47.4466 1.35358 45.246 0.0245002 42.7344 0.0244141C40.1989 0.0244224 37.98 1.37872 36.7588 3.40234C35.5376 1.37854 33.3179 0.0244141 30.7822 0.0244141C28.2629 0.0245951 26.057 1.36201 24.8311 3.36426C23.6051 1.36157 21.3976 0.0244141 18.8779 0.0244141C16.3592 0.0245087 14.1529 1.36084 12.9268 3.3623C11.7006 1.36083 9.49438 0.0244141 6.97559 0.0244141C3.12225 0.0244267 0 3.15228 0 7.00391C6.10352e-05 9.53944 1.35391 11.7601 3.37793 12.9824C1.35349 14.2047 0 16.427 0 18.9629C6.10352e-05 21.5073 1.36356 23.7345 3.39941 24.9541C1.36356 26.1736 0.00012207 28.4009 0 30.9453C0 34.7969 3.12225 37.9248 6.97559 37.9248C9.49472 37.9248 11.7007 36.5879 12.9268 34.5859C14.1528 36.5878 16.3589 37.9247 18.8779 37.9248C21.398 37.9248 23.6052 36.5871 24.8311 34.584C26.0569 36.5867 28.2626 37.9246 30.7822 37.9248C33.3136 37.9248 35.5305 36.5757 36.7529 34.5576C37.9726 36.588 40.1938 37.9492 42.7344 37.9492C45.2515 37.9491 47.456 36.6136 48.6826 34.6143C49.9122 36.6002 52.1082 37.9248 54.6152 37.9248C57.1344 37.9248 59.3403 36.5879 60.5664 34.5859C61.7925 36.5878 63.9984 37.9248 66.5176 37.9248C69.0375 37.9248 71.2439 36.5869 72.4697 34.584C73.6955 36.5869 75.902 37.9247 78.4219 37.9248C80.9419 37.9248 83.1492 36.5871 84.375 34.584C85.6008 36.5867 87.8065 37.9246 90.3262 37.9248C92.8454 37.9248 95.0522 36.588 96.2783 34.5859C97.5044 36.5878 99.7104 37.9248 102.229 37.9248C104.749 37.9247 106.956 36.5869 108.182 34.584C109.408 36.5869 111.614 37.9248 114.134 37.9248C116.653 37.9247 118.859 36.5878 120.085 34.5859C121.311 36.5878 123.517 37.9248 126.036 37.9248C128.556 37.9248 130.762 36.5869 131.988 34.584C133.214 36.5869 135.421 37.9247 137.94 37.9248C140.46 37.9248 142.668 36.5871 143.894 34.584C145.119 36.5867 147.325 37.9246 149.845 37.9248C152.364 37.9248 154.572 36.5876 155.798 34.585C157.024 36.5873 159.23 37.9246 161.749 37.9248C164.268 37.9248 166.475 36.588 167.701 34.5859C168.927 36.5878 171.133 37.9248 173.652 37.9248C176.171 37.9247 178.377 36.5878 179.604 34.5859C180.83 36.5878 183.036 37.9248 185.555 37.9248C188.077 37.9248 190.286 36.585 191.511 34.5791C192.733 36.5979 194.949 37.9491 197.48 37.9492C199.998 37.9492 202.202 36.6135 203.429 34.6143C204.658 36.6002 206.854 37.9246 209.361 37.9248C211.88 37.9248 214.087 36.5886 215.313 34.5869C216.54 36.5882 218.745 37.9246 221.264 37.9248C223.784 37.9248 225.991 36.5871 227.217 34.584C228.443 36.5869 230.649 37.9248 233.169 37.9248C235.689 37.9247 237.895 36.5869 239.121 34.584C240.347 36.5869 242.553 37.9248 245.073 37.9248C247.592 37.9248 249.798 36.5879 251.024 34.5859C252.25 36.5878 254.457 37.9247 256.976 37.9248C259.478 37.9248 261.672 36.6045 262.902 34.624C264.124 36.6465 266.341 37.9999 268.876 38C271.396 38 273.603 36.6623 274.829 34.6592C276.055 36.6619 278.261 37.9998 280.78 38C283.3 38 285.508 36.6622 286.733 34.6592C287.959 36.6621 290.166 38 292.686 38C295.205 37.9999 297.411 36.663 298.637 34.6611C299.863 36.663 302.069 38 304.588 38C307.107 38 309.313 36.6631 310.539 34.6611C311.765 36.663 313.971 38 316.49 38C319.01 38 321.217 36.6621 322.442 34.6592C323.668 36.6621 325.875 37.9999 328.395 38C330.915 38 333.122 36.6623 334.348 34.6592C335.573 36.6619 337.779 37.9998 340.299 38C342.819 38 345.026 36.6622 346.252 34.6592C347.478 36.6621 349.684 38 352.204 38C354.723 37.9999 356.929 36.663 358.155 34.6611C359.381 36.663 361.587 38 364.106 38C366.626 38 368.833 36.6621 370.059 34.6592C371.284 36.6621 373.491 38 376.011 38C378.531 38 380.737 36.6621 381.963 34.6592C383.189 36.6621 385.395 37.9999 387.915 38C390.434 38 392.641 36.6632 393.867 34.6611C395.093 36.6628 397.299 37.9998 399.817 38C402.337 38 404.545 36.6622 405.771 34.6592C406.996 36.6621 409.203 38 411.723 38C414.242 37.9999 416.448 36.663 417.674 34.6611C418.9 36.663 421.106 38 423.625 38C426.145 38 428.351 36.6621 429.577 34.6592C430.803 36.6621 433.009 38 435.529 38C438.049 38 440.256 36.6621 441.481 34.6592C442.707 36.6621 444.914 37.9999 447.434 38C449.953 38 452.16 36.6632 453.386 34.6611C454.612 36.6628 456.817 37.9998 459.336 38C461.856 38 464.063 36.6628 465.289 34.6602C466.515 36.6625 468.721 37.9998 471.24 38C473.759 38 475.966 36.6632 477.192 34.6611C478.418 36.663 480.624 38 483.144 38C485.656 38 487.856 36.6703 489.084 34.6777C490.312 36.6703 492.512 38 495.024 38C498.878 38 502 34.8721 502 31.0205C502 28.4664 500.626 26.2321 498.577 25.0156C500.626 23.7992 502 21.5648 502 19.0107C502 16.4496 500.619 14.2094 498.561 12.9951C500.619 11.7809 502 9.5407 502 6.97949C502 3.128 498.878 0 495.024 0ZM495.024 26.041C497.771 26.041 500 28.2719 500 31.0205C500 33.7693 497.771 36 495.024 36C492.49 36 490.399 34.1012 490.09 31.6484C490.108 31.4416 490.119 31.2321 490.119 31.0205C490.119 30.8088 490.108 30.5995 490.09 30.3926C490.399 27.9402 492.49 26.041 495.024 26.041ZM483.144 26.041C485.678 26.041 487.77 27.9401 488.079 30.3926C488.061 30.5995 488.049 30.8088 488.049 31.0205C488.049 31.2321 488.061 31.4416 488.079 31.6484C487.77 34.1012 485.678 36 483.144 36C480.572 36 478.455 34.0456 478.195 31.541C478.208 31.3692 478.216 31.1955 478.216 31.0205C478.216 30.8451 478.208 30.6712 478.195 30.499C478.456 27.9952 480.573 26.041 483.144 26.041ZM471.24 26.041C473.812 26.041 475.93 27.9962 476.189 30.501C476.177 30.6726 476.168 30.8457 476.168 31.0205C476.168 31.1949 476.177 31.3679 476.189 31.5391C475.93 34.0446 473.812 36 471.24 36C468.666 35.9997 466.548 34.0408 466.292 31.5322C466.304 31.3633 466.312 31.1925 466.312 31.0205C466.312 30.8484 466.304 30.6778 466.292 30.5088C466.548 28.0005 468.666 26.0413 471.24 26.041ZM459.336 26.041C461.91 26.041 464.03 28.0003 464.286 30.5088C464.274 30.6778 464.265 30.8484 464.265 31.0205C464.265 31.1926 464.274 31.3633 464.286 31.5322C464.03 34.041 461.91 36 459.336 36C456.764 35.9997 454.648 34.0444 454.389 31.5391C454.401 31.3679 454.409 31.1949 454.409 31.0205C454.409 30.8457 454.401 30.6726 454.389 30.501C454.649 27.9964 456.765 26.0413 459.336 26.041ZM447.434 26.041C450.005 26.041 452.122 27.9952 452.383 30.499C452.37 30.6713 452.36 30.845 452.36 31.0205C452.36 31.1955 452.369 31.3692 452.382 31.541C452.122 34.0456 450.005 36 447.434 36C444.858 35.9999 442.739 34.0394 442.484 31.5293C442.496 31.3613 442.505 31.1916 442.505 31.0205C442.505 30.8484 442.497 30.6778 442.484 30.5088C442.741 28.0004 444.859 26.0412 447.434 26.041ZM435.529 26.041C438.104 26.041 440.223 28.0003 440.479 30.5088C440.467 30.6778 440.458 30.8484 440.458 31.0205C440.458 31.1926 440.467 31.3633 440.479 31.5322C440.223 34.0411 438.104 36 435.529 36C432.955 36 430.837 34.042 430.58 31.5342C430.592 31.3646 430.601 31.1932 430.601 31.0205C430.601 30.8474 430.592 30.6758 430.58 30.5059C430.838 27.9988 432.956 26.041 435.529 26.041ZM423.625 26.041C426.198 26.041 428.318 27.9987 428.575 30.5059C428.563 30.6759 428.554 30.8474 428.554 31.0205C428.554 31.1932 428.563 31.3646 428.575 31.5342C428.318 34.0421 426.199 36 423.625 36C421.054 36 418.937 34.0456 418.677 31.541C418.689 31.3692 418.698 31.1955 418.698 31.0205C418.698 30.8451 418.689 30.6712 418.677 30.499C418.938 27.9952 421.054 26.041 423.625 26.041ZM411.723 26.041C414.294 26.0411 416.411 27.9963 416.671 30.501C416.658 30.6726 416.649 30.8457 416.649 31.0205C416.649 31.1949 416.658 31.3679 416.671 31.5391C416.412 34.0445 414.295 35.9999 411.723 36C409.148 36 407.03 34.041 406.773 31.5322C406.786 31.3633 406.793 31.1925 406.793 31.0205C406.793 30.8484 406.786 30.6778 406.773 30.5088C407.03 28.0003 409.148 26.041 411.723 26.041ZM399.817 26.041C402.392 26.041 404.511 28.0003 404.768 30.5088C404.755 30.6778 404.747 30.8484 404.747 31.0205C404.747 31.1916 404.755 31.3613 404.768 31.5293C404.513 34.0395 402.393 36 399.817 36C397.245 35.9997 395.129 34.0444 394.87 31.5391C394.883 31.3679 394.891 31.1949 394.891 31.0205C394.891 30.8457 394.883 30.6726 394.87 30.501C395.13 27.9964 397.246 26.0413 399.817 26.041ZM387.915 26.041C390.486 26.041 392.603 27.9952 392.864 30.499C392.852 30.6713 392.842 30.845 392.842 31.0205C392.842 31.1955 392.851 31.3692 392.863 31.541C392.603 34.0456 390.487 36 387.915 36C385.34 35.9999 383.221 34.0394 382.966 31.5293C382.978 31.3613 382.986 31.1916 382.986 31.0205C382.986 30.8484 382.978 30.6778 382.966 30.5088C383.222 28.0004 385.341 26.0412 387.915 26.041ZM376.011 26.041C378.585 26.041 380.705 28.0003 380.961 30.5088C380.949 30.6778 380.939 30.8484 380.939 31.0205C380.939 31.1926 380.949 31.3633 380.961 31.5322C380.705 34.0411 378.585 36 376.011 36C373.437 36 371.318 34.042 371.062 31.5342C371.074 31.3646 371.082 31.1932 371.082 31.0205C371.082 30.8474 371.074 30.6758 371.062 30.5059C371.319 27.9988 373.437 26.041 376.011 26.041ZM364.106 26.041C366.68 26.041 368.799 27.9987 369.057 30.5059C369.044 30.6759 369.035 30.8474 369.035 31.0205C369.035 31.1932 369.044 31.3646 369.057 31.5342C368.8 34.0421 366.68 36 364.106 36C361.535 36 359.418 34.0456 359.158 31.541C359.171 31.3692 359.18 31.1955 359.18 31.0205C359.18 30.8451 359.171 30.6712 359.158 30.499C359.419 27.9952 361.536 26.041 364.106 26.041ZM352.204 26.041C354.776 26.0411 356.892 27.9963 357.152 30.501C357.14 30.6726 357.131 30.8457 357.131 31.0205C357.131 31.1949 357.14 31.3679 357.152 31.5391C356.893 34.0445 354.776 35.9999 352.204 36C349.63 36 347.511 34.041 347.255 31.5322C347.267 31.3633 347.274 31.1925 347.274 31.0205C347.274 30.8484 347.267 30.6778 347.255 30.5088C347.511 28.0003 349.63 26.041 352.204 26.041ZM340.299 26.041C342.873 26.041 344.993 28.0003 345.249 30.5088C345.237 30.6778 345.229 30.8484 345.229 31.0205C345.229 31.1916 345.237 31.3613 345.249 31.5293C344.994 34.0395 342.874 36 340.299 36C337.724 35.9997 335.604 34.0393 335.35 31.5293C335.362 31.3613 335.37 31.1916 335.37 31.0205C335.37 30.8484 335.362 30.6778 335.35 30.5088C335.606 28.0004 337.725 26.0413 340.299 26.041ZM328.395 26.041C330.969 26.041 333.088 28.0003 333.345 30.5088C333.332 30.6778 333.323 30.8484 333.323 31.0205C333.323 31.1926 333.332 31.3633 333.345 31.5322C333.089 34.041 330.969 36 328.395 36C325.819 35.9999 323.7 34.0394 323.445 31.5293C323.457 31.3613 323.466 31.1916 323.466 31.0205C323.466 30.8484 323.458 30.6778 323.445 30.5088C323.702 28.0004 325.82 26.0412 328.395 26.041ZM316.49 26.041C319.065 26.041 321.184 28.0003 321.44 30.5088C321.428 30.6778 321.419 30.8484 321.419 31.0205C321.419 31.1926 321.428 31.3633 321.44 31.5322C321.184 34.0411 319.065 36 316.49 36C313.919 36 311.802 34.0456 311.542 31.541C311.555 31.3692 311.563 31.1955 311.563 31.0205C311.563 30.8441 311.555 30.6693 311.542 30.4961C311.804 27.9937 313.92 26.041 316.49 26.041ZM304.588 26.041C307.158 26.041 309.275 27.9936 309.537 30.4961C309.524 30.6693 309.515 30.844 309.515 31.0205C309.515 31.1955 309.523 31.3692 309.536 31.541C309.276 34.0456 307.159 36 304.588 36C302.016 36 299.9 34.0456 299.64 31.541C299.652 31.3692 299.661 31.1955 299.661 31.0205C299.661 30.8451 299.652 30.6712 299.64 30.499C299.9 27.9952 302.017 26.041 304.588 26.041ZM292.686 26.041C295.257 26.0411 297.374 27.9963 297.634 30.501C297.621 30.6726 297.612 30.8457 297.612 31.0205C297.612 31.1949 297.621 31.3679 297.634 31.5391C297.375 34.0445 295.258 35.9999 292.686 36C290.111 36 287.992 34.041 287.736 31.5322C287.749 31.3633 287.756 31.1925 287.756 31.0205C287.756 30.8484 287.749 30.6778 287.736 30.5088C287.993 28.0003 290.111 26.041 292.686 26.041ZM280.78 26.041C283.355 26.041 285.474 28.0003 285.73 30.5088C285.718 30.6778 285.71 30.8484 285.71 31.0205C285.71 31.1916 285.718 31.3613 285.73 31.5293C285.476 34.0395 283.356 36 280.78 36C278.205 35.9997 276.086 34.0393 275.831 31.5293C275.843 31.3613 275.852 31.1916 275.852 31.0205C275.852 30.8484 275.843 30.6778 275.831 30.5088C276.087 28.0004 278.206 26.0413 280.78 26.041ZM268.876 26.041C271.45 26.041 273.57 28.0003 273.826 30.5088C273.814 30.6778 273.805 30.8484 273.805 31.0205C273.805 31.1926 273.814 31.3633 273.826 31.5322C273.57 34.041 271.451 36 268.876 36C266.297 35.9999 264.176 34.0332 263.927 31.5176C263.942 31.3289 263.951 31.1379 263.951 30.9453C263.951 30.7831 263.944 30.6223 263.934 30.4629C264.211 27.9766 266.318 26.0412 268.876 26.041ZM197.48 25.9902C200.011 25.9902 202.102 27.8834 202.415 30.3311C202.397 30.5335 202.386 30.7383 202.386 30.9453C202.386 31.1622 202.398 31.377 202.417 31.5889C202.112 34.0455 200.018 35.9492 197.48 35.9492C194.854 35.9491 192.704 33.9094 192.521 31.3281C192.527 31.2015 192.53 31.0736 192.53 30.9453C192.53 30.8248 192.528 30.705 192.521 30.5859C192.717 28.0162 194.862 25.9904 197.48 25.9902ZM42.7344 25.9902C45.2662 25.9904 47.3559 27.8851 47.668 30.334C47.6505 30.5355 47.6396 30.7393 47.6396 30.9453C47.6396 31.1609 47.6518 31.3743 47.6709 31.585C47.3676 34.0434 45.273 35.9491 42.7344 35.9492C39.9875 35.9492 37.759 33.7183 37.7588 30.9697C37.7588 28.221 39.9873 25.9902 42.7344 25.9902ZM256.976 25.9658C259.553 25.9658 261.675 27.9302 261.927 30.4434C261.911 30.6338 261.9 30.8261 261.9 31.0205C261.9 31.183 261.909 31.3442 261.92 31.5039C261.642 33.9902 259.534 35.9248 256.976 35.9248C254.404 35.9247 252.288 33.9692 252.028 31.4639C252.041 31.2927 252.049 31.1197 252.049 30.9453C252.049 30.7705 252.041 30.5974 252.028 30.4258C252.288 27.9212 254.404 25.966 256.976 25.9658ZM245.073 25.9658C247.644 25.9658 249.762 27.92 250.022 30.4238C250.01 30.5961 250 30.7698 250 30.9453C250 31.1204 250.01 31.294 250.022 31.4658C249.762 33.9704 247.645 35.9248 245.073 35.9248C242.499 35.9248 240.38 33.9658 240.124 31.457C240.136 31.2881 240.145 31.1173 240.145 30.9453C240.145 30.7732 240.136 30.6026 240.124 30.4336C240.38 27.9251 242.499 25.9658 245.073 25.9658ZM233.169 25.9658C235.744 25.9659 237.863 27.9262 238.118 30.4355C238.106 30.6039 238.098 30.7738 238.098 30.9453C238.098 31.1164 238.106 31.2861 238.118 31.4541C237.863 33.9642 235.744 35.9247 233.169 35.9248C230.594 35.9248 228.476 33.9658 228.22 31.457C228.232 31.2881 228.239 31.1173 228.239 30.9453C228.239 30.7732 228.232 30.6026 228.22 30.4336C228.476 27.9251 230.595 25.9658 233.169 25.9658ZM221.264 25.9658C223.838 25.9658 225.958 27.9251 226.214 30.4336C226.202 30.6026 226.193 30.7732 226.193 30.9453C226.193 31.1164 226.202 31.2861 226.214 31.4541C225.959 33.9643 223.839 35.9248 221.264 35.9248C218.692 35.9245 216.577 33.9702 216.316 31.4658C216.329 31.294 216.337 31.1203 216.337 30.9453C216.337 30.7699 216.329 30.596 216.316 30.4238C216.577 27.9202 218.693 25.9661 221.264 25.9658ZM209.361 25.9658C211.932 25.9658 214.05 27.92 214.311 30.4238C214.298 30.5961 214.288 30.7698 214.288 30.9453C214.288 31.1203 214.297 31.294 214.31 31.4658C214.049 33.9704 211.933 35.9248 209.361 35.9248C206.829 35.9245 204.74 34.0288 204.429 31.5791C204.446 31.3782 204.456 31.1751 204.456 30.9697C204.456 30.7539 204.445 30.54 204.426 30.3291C204.73 27.8712 206.823 25.9661 209.361 25.9658ZM185.555 25.9658C188.182 25.9658 190.334 28.007 190.517 30.5898C190.51 30.7155 190.505 30.8424 190.505 30.9697C190.505 31.0883 190.509 31.2061 190.515 31.3232C190.322 33.8958 188.175 35.9248 185.555 35.9248C182.983 35.9248 180.867 33.9704 180.606 31.4658C180.619 31.294 180.628 31.1203 180.628 30.9453C180.628 30.7699 180.619 30.5961 180.606 30.4238C180.867 27.92 182.984 25.9658 185.555 25.9658ZM173.652 25.9658C176.224 25.9659 178.341 27.9211 178.601 30.4258C178.588 30.5974 178.579 30.7705 178.579 30.9453C178.579 31.1197 178.588 31.2927 178.601 31.4639C178.341 33.9693 176.224 35.9247 173.652 35.9248C171.081 35.9248 168.964 33.9704 168.704 31.4658C168.717 31.294 168.725 31.1203 168.725 30.9453C168.725 30.7699 168.717 30.596 168.704 30.4238C168.965 27.92 171.081 25.9658 173.652 25.9658ZM161.749 25.9658C164.321 25.9658 166.438 27.921 166.698 30.4258C166.686 30.5974 166.677 30.7705 166.677 30.9453C166.677 31.1197 166.686 31.2927 166.698 31.4639C166.439 33.9694 164.321 35.9248 161.749 35.9248C159.175 35.9245 157.057 33.9656 156.801 31.457C156.813 31.2881 156.82 31.1173 156.82 30.9453C156.82 30.7732 156.813 30.6026 156.801 30.4336C157.057 27.9253 159.175 25.9661 161.749 25.9658ZM149.845 25.9658C152.419 25.9658 154.539 27.9251 154.795 30.4336C154.783 30.6026 154.773 30.7732 154.773 30.9453C154.773 31.1174 154.783 31.2881 154.795 31.457C154.539 33.9658 152.419 35.9248 149.845 35.9248C147.269 35.9245 145.15 33.9641 144.896 31.4541C144.908 31.2861 144.916 31.1164 144.916 30.9453C144.916 30.7732 144.908 30.6026 144.896 30.4336C145.152 27.9252 147.271 25.9661 149.845 25.9658ZM137.94 25.9658C140.515 25.9658 142.634 27.9251 142.891 30.4336C142.878 30.6026 142.869 30.7732 142.869 30.9453C142.869 31.1174 142.878 31.2881 142.891 31.457C142.635 33.9658 140.515 35.9248 137.94 35.9248C135.365 35.9247 133.246 33.9642 132.991 31.4541C133.003 31.2861 133.012 31.1164 133.012 30.9453C133.012 30.7732 133.003 30.6026 132.991 30.4336C133.248 27.9252 135.366 25.966 137.94 25.9658ZM126.036 25.9658C128.61 25.9658 130.73 27.9251 130.986 30.4336C130.974 30.6026 130.965 30.7732 130.965 30.9453C130.965 31.1174 130.974 31.2881 130.986 31.457C130.73 33.9659 128.611 35.9248 126.036 35.9248C123.465 35.9248 121.348 33.9704 121.088 31.4658C121.101 31.294 121.109 31.1203 121.109 30.9453C121.109 30.7699 121.101 30.5961 121.088 30.4238C121.349 27.92 123.465 25.9658 126.036 25.9658ZM114.134 25.9658C116.705 25.9659 118.822 27.9211 119.082 30.4258C119.069 30.5974 119.061 30.7705 119.061 30.9453C119.061 31.1197 119.069 31.2927 119.082 31.4639C118.823 33.9693 116.706 35.9247 114.134 35.9248C111.559 35.9248 109.441 33.9658 109.185 31.457C109.197 31.2881 109.205 31.1173 109.205 30.9453C109.205 30.7732 109.197 30.6026 109.185 30.4336C109.441 27.9251 111.56 25.9658 114.134 25.9658ZM102.229 25.9658C104.804 25.9659 106.922 27.9252 107.179 30.4336C107.166 30.6026 107.158 30.7732 107.158 30.9453C107.158 31.1164 107.167 31.2861 107.179 31.4541C106.924 33.9642 104.805 35.9247 102.229 35.9248C99.658 35.9248 97.5414 33.9704 97.2812 31.4658C97.2939 31.294 97.3018 31.1203 97.3018 30.9453C97.3018 30.7699 97.294 30.596 97.2812 30.4238C97.5421 27.92 99.6586 25.9658 102.229 25.9658ZM90.3262 25.9658C92.8978 25.9658 95.0155 27.921 95.2754 30.4258C95.2628 30.5974 95.2539 30.7705 95.2539 30.9453C95.2539 31.1197 95.2628 31.2927 95.2754 31.4639C95.0162 33.9694 92.8983 35.9248 90.3262 35.9248C87.7509 35.9245 85.6317 33.9641 85.377 31.4541C85.3891 31.2861 85.3975 31.1164 85.3975 30.9453C85.3975 30.7732 85.3892 30.6026 85.377 30.4336C85.6333 27.9252 87.7521 25.9661 90.3262 25.9658ZM78.4219 25.9658C80.9962 25.9658 83.1158 27.9251 83.3721 30.4336C83.3598 30.6026 83.3506 30.7732 83.3506 30.9453C83.3506 31.1174 83.3598 31.2881 83.3721 31.457C83.116 33.9658 80.9964 35.9248 78.4219 35.9248C75.8465 35.9247 73.7274 33.9642 73.4727 31.4541C73.4848 31.2861 73.4932 31.1164 73.4932 30.9453C73.4932 30.7732 73.4849 30.6026 73.4727 30.4336C73.729 27.9252 75.8477 25.966 78.4219 25.9658ZM66.5176 25.9658C69.0919 25.9658 71.2115 27.9251 71.4678 30.4336C71.4555 30.6026 71.4463 30.7732 71.4463 30.9453C71.4463 31.1174 71.4555 31.2881 71.4678 31.457C71.2118 33.9659 69.0921 35.9248 66.5176 35.9248C63.9461 35.9248 61.8295 33.9704 61.5693 31.4658C61.582 31.294 61.5908 31.1203 61.5908 30.9453C61.5908 30.7689 61.5822 30.5941 61.5693 30.4209C61.8315 27.9185 63.9476 25.9658 66.5176 25.9658ZM54.6152 25.9658C57.1852 25.9658 59.3023 27.9184 59.5645 30.4209C59.5516 30.5941 59.542 30.7688 59.542 30.9453C59.542 31.1203 59.5508 31.294 59.5635 31.4658C59.3033 33.9704 57.1867 35.9248 54.6152 35.9248C52.0827 35.9248 49.9929 34.029 49.6816 31.5791C49.699 31.3782 49.71 31.1751 49.71 30.9697C49.71 30.7532 49.699 30.5387 49.6797 30.3271C49.9843 27.87 52.0775 25.9658 54.6152 25.9658ZM30.7822 25.9658C33.5292 25.9658 35.7576 28.1967 35.7578 30.9453C35.7578 33.6941 33.5293 35.9248 30.7822 35.9248C28.2069 35.9245 26.0877 33.9641 25.833 31.4541C25.8451 31.2861 25.8535 31.1164 25.8535 30.9453C25.8535 30.7732 25.8453 30.6026 25.833 30.4336C26.0893 27.9252 28.2082 25.9661 30.7822 25.9658ZM18.8779 25.9658C21.4522 25.9658 23.5718 27.9251 23.8281 30.4336C23.8159 30.6026 23.8066 30.7732 23.8066 30.9453C23.8066 31.1174 23.8159 31.2881 23.8281 31.457C23.5721 33.9658 21.4525 35.9248 18.8779 35.9248C16.3059 35.9247 14.1899 33.9692 13.9307 31.4639C13.9432 31.2927 13.9512 31.1197 13.9512 30.9453C13.9512 30.7705 13.9433 30.5974 13.9307 30.4258C14.1906 27.9212 16.3065 25.966 18.8779 25.9658ZM6.97559 25.9658C9.54657 25.9658 11.664 27.92 11.9248 30.4238C11.912 30.5961 11.9023 30.7698 11.9023 30.9453C11.9023 31.1204 11.9121 31.294 11.9248 31.4658C11.6647 33.9704 9.54712 35.9248 6.97559 35.9248C4.22852 35.9248 2 33.6941 2 30.9453C2.00018 28.1967 4.22864 25.9658 6.97559 25.9658ZM441.481 22.6484C442.076 23.62 442.902 24.4338 443.882 25.0156C442.902 25.5973 442.076 26.4105 441.481 27.3818C440.887 26.4108 440.062 25.5973 439.082 25.0156C440.062 24.4339 440.887 23.6198 441.481 22.6484ZM429.577 22.6484C430.172 23.62 430.997 24.4338 431.978 25.0156C430.998 25.5973 430.172 26.4105 429.577 27.3818C428.983 26.4108 428.157 25.5973 427.178 25.0156C428.158 24.4339 428.983 23.6198 429.577 22.6484ZM405.771 22.6484C406.365 23.6198 407.19 24.4339 408.17 25.0156C407.19 25.5972 406.365 26.4108 405.771 27.3818C405.176 26.4108 404.351 25.5973 403.371 25.0156C404.351 24.4338 405.176 23.6198 405.771 22.6484ZM381.963 22.6484C382.557 23.62 383.383 24.4338 384.363 25.0156C383.383 25.5973 382.557 26.4105 381.963 27.3818C381.368 26.4108 380.543 25.5973 379.563 25.0156C380.543 24.4339 381.368 23.6198 381.963 22.6484ZM370.059 22.6484C370.653 23.62 371.479 24.4338 372.459 25.0156C371.479 25.5973 370.653 26.4105 370.059 27.3818C369.464 26.4108 368.639 25.5973 367.659 25.0156C368.639 24.4339 369.464 23.6198 370.059 22.6484ZM346.252 22.6484C346.846 23.6198 347.672 24.4339 348.651 25.0156C347.672 25.5972 346.846 26.4108 346.252 27.3818C345.658 26.4108 344.832 25.5973 343.853 25.0156C344.832 24.4338 345.658 23.6198 346.252 22.6484ZM334.348 22.6484C334.942 23.6198 335.767 24.4339 336.747 25.0156C335.767 25.5972 334.942 26.4107 334.348 27.3818C333.753 26.4108 332.928 25.5973 331.948 25.0156C332.928 24.4338 333.753 23.6198 334.348 22.6484ZM322.442 22.6484C323.037 23.62 323.863 24.4338 324.843 25.0156C323.863 25.5973 323.037 26.4105 322.442 27.3818C321.848 26.4108 321.023 25.5973 320.043 25.0156C321.023 24.4339 321.848 23.6198 322.442 22.6484ZM286.733 22.6484C287.328 23.6198 288.153 24.4339 289.133 25.0156C288.153 25.5972 287.328 26.4108 286.733 27.3818C286.139 26.4108 285.313 25.5973 284.334 25.0156C285.314 24.4338 286.139 23.6198 286.733 22.6484ZM274.829 22.6484C275.424 23.6198 276.249 24.4339 277.229 25.0156C276.249 25.5972 275.424 26.4107 274.829 27.3818C274.235 26.4108 273.409 25.5973 272.43 25.0156C273.409 24.4338 274.235 23.6198 274.829 22.6484ZM465.289 22.6494C465.884 23.6205 466.709 24.434 467.688 25.0156C466.709 25.5971 465.884 26.4101 465.289 27.3809C464.695 26.4101 463.869 25.5971 462.89 25.0156C463.869 24.434 464.695 23.6204 465.289 22.6494ZM477.192 22.6504C477.787 23.6212 478.612 24.4342 479.592 25.0156C478.613 25.5969 477.787 26.4094 477.192 27.3799C476.598 26.4097 475.773 25.5969 474.794 25.0156C475.773 24.4342 476.598 23.6209 477.192 22.6504ZM453.386 22.6504C453.98 23.621 454.805 24.4343 455.784 25.0156C454.805 25.5969 453.98 26.4096 453.386 27.3799C452.791 26.4097 451.966 25.5969 450.987 25.0156C451.966 24.4342 452.791 23.6209 453.386 22.6504ZM417.674 22.6504C418.268 23.6212 419.094 24.4342 420.073 25.0156C419.094 25.5969 418.268 26.4094 417.674 27.3799C417.08 26.4096 416.254 25.5969 415.275 25.0156C416.255 24.4342 417.079 23.6209 417.674 22.6504ZM393.867 22.6504C394.462 23.621 395.286 24.4343 396.266 25.0156C395.287 25.5969 394.462 26.4096 393.867 27.3799C393.273 26.4097 392.448 25.5969 391.469 25.0156C392.448 24.4342 393.273 23.6209 393.867 22.6504ZM358.155 22.6504C358.75 23.6212 359.575 24.4342 360.555 25.0156C359.575 25.5969 358.75 26.4094 358.155 27.3799C357.561 26.4096 356.736 25.5969 355.757 25.0156C356.736 24.4342 357.561 23.6209 358.155 22.6504ZM310.539 22.6504C311.134 23.6212 311.959 24.4342 312.938 25.0156C311.959 25.5969 311.134 26.4094 310.539 27.3799C309.945 26.4096 309.12 25.5969 308.141 25.0156C309.12 24.4342 309.945 23.6209 310.539 22.6504ZM298.637 22.6504C299.231 23.6212 300.057 24.4342 301.036 25.0156C300.057 25.5969 299.231 26.4094 298.637 27.3799C298.042 26.4096 297.217 25.5969 296.238 25.0156C297.217 24.4342 298.042 23.6209 298.637 22.6504ZM489.084 22.667C489.678 23.6303 490.499 24.4376 491.473 25.0156C490.499 25.5935 489.678 26.4002 489.084 27.3633C488.49 26.4005 487.67 25.5935 486.696 25.0156C487.67 24.4376 488.49 23.6301 489.084 22.667ZM36.752 22.5752C37.3436 23.5601 38.1708 24.3869 39.1562 24.9775C38.1786 25.5634 37.3563 26.3819 36.7656 27.3564C36.174 26.3714 35.346 25.5448 34.3604 24.9541C35.3382 24.3681 36.1613 23.55 36.752 22.5752ZM262.911 22.6279C263.507 23.6086 264.337 24.4297 265.324 25.0156C264.358 25.5891 263.543 26.3885 262.95 27.3418C262.359 26.3632 261.534 25.5418 260.554 24.9541C261.514 24.3788 262.323 23.5792 262.911 22.6279ZM191.511 22.5957C192.102 23.5717 192.925 24.391 193.903 24.9775C192.933 25.5591 192.115 26.3698 191.525 27.335C190.935 26.3591 190.111 25.5405 189.132 24.9541C190.103 24.3722 190.921 23.5615 191.511 22.5957ZM239.121 22.6006C239.711 23.5643 240.527 24.3733 241.497 24.9541C240.528 25.5348 239.711 26.3433 239.121 27.3066C238.532 26.3435 237.715 25.5348 236.746 24.9541C237.715 24.3733 238.532 23.564 239.121 22.6006ZM227.217 22.6006C227.806 23.5641 228.622 24.3733 229.592 24.9541C228.623 25.5347 227.806 26.3435 227.217 27.3066C226.627 26.3435 225.811 25.5348 224.842 24.9541C225.811 24.3733 226.627 23.564 227.217 22.6006ZM143.894 22.6006C144.483 23.5641 145.299 24.3733 146.269 24.9541C145.299 25.5347 144.483 26.3435 143.894 27.3066C143.304 26.3436 142.487 25.5348 141.519 24.9541C142.488 24.3733 143.304 23.564 143.894 22.6006ZM131.988 22.6006C132.578 23.5643 133.395 24.3733 134.364 24.9541C133.395 25.5348 132.578 26.3433 131.988 27.3066C131.399 26.3435 130.582 25.5347 129.613 24.9541C130.583 24.3733 131.399 23.564 131.988 22.6006ZM108.182 22.6006C108.771 23.5641 109.587 24.3733 110.557 24.9541C109.588 25.5347 108.771 26.3435 108.182 27.3066C107.592 26.3435 106.776 25.5348 105.807 24.9541C106.776 24.3733 107.592 23.564 108.182 22.6006ZM84.375 22.6006C84.9647 23.5641 85.7806 24.3733 86.75 24.9541C85.7809 25.5347 84.9646 26.3435 84.375 27.3066C83.7855 26.3436 82.9689 25.5348 82 24.9541C82.9692 24.3733 83.7855 23.564 84.375 22.6006ZM72.4697 22.6006C73.0594 23.5643 73.8761 24.3733 74.8457 24.9541C73.8764 25.5348 73.0594 26.3433 72.4697 27.3066C71.8802 26.3435 71.0638 25.5347 70.0947 24.9541C71.064 24.3733 71.8801 23.564 72.4697 22.6006ZM24.8311 22.6006C25.4207 23.5641 26.2367 24.3733 27.2061 24.9541C26.2369 25.5347 25.4207 26.3435 24.8311 27.3066C24.2416 26.3436 23.425 25.5348 22.4561 24.9541C23.4252 24.3733 24.2416 23.564 24.8311 22.6006ZM155.798 22.6016C156.387 23.5647 157.204 24.3735 158.173 24.9541C157.204 25.5346 156.387 26.3428 155.798 27.3057C155.208 26.3429 154.392 25.5346 153.423 24.9541C154.392 24.3734 155.208 23.5647 155.798 22.6016ZM251.024 22.6025C251.614 23.5654 252.43 24.3736 253.399 24.9541C252.431 25.5344 251.614 26.3422 251.024 27.3047C250.435 26.3424 249.619 25.5344 248.65 24.9541C249.619 24.3737 250.435 23.5652 251.024 22.6025ZM179.604 22.6025C180.193 23.5654 181.01 24.3736 181.979 24.9541C181.01 25.5344 180.193 26.3421 179.604 27.3047C179.014 26.3424 178.198 25.5344 177.229 24.9541C178.198 24.3737 179.014 23.5652 179.604 22.6025ZM167.701 22.6025C168.291 23.5652 169.106 24.3737 170.075 24.9541C169.107 25.5344 168.291 26.3424 167.701 27.3047C167.112 26.3424 166.296 25.5344 165.327 24.9541C166.296 24.3736 167.112 23.5652 167.701 22.6025ZM120.085 22.6025C120.675 23.5654 121.491 24.3736 122.46 24.9541C121.491 25.5344 120.675 26.3421 120.085 27.3047C119.496 26.3424 118.679 25.5344 117.711 24.9541C118.68 24.3737 119.495 23.5652 120.085 22.6025ZM96.2783 22.6025C96.8679 23.5652 97.6836 24.3737 98.6523 24.9541C97.6839 25.5344 96.8678 26.3424 96.2783 27.3047C95.6889 26.3424 94.8727 25.5344 93.9043 24.9541C94.8729 24.3736 95.6889 23.5652 96.2783 22.6025ZM60.5664 22.6025C61.156 23.5654 61.9724 24.3736 62.9414 24.9541C61.9727 25.5344 61.156 26.3421 60.5664 27.3047C59.9769 26.3424 59.1608 25.5344 58.1924 24.9541C59.161 24.3737 59.9769 23.5652 60.5664 22.6025ZM12.9268 22.6025C13.5164 23.5654 14.3328 24.3736 15.3018 24.9541C14.3331 25.5344 13.5164 26.3422 12.9268 27.3047C12.3373 26.3424 11.5211 25.5344 10.5527 24.9541C11.5214 24.3737 12.3372 23.5652 12.9268 22.6025ZM215.313 22.6035C215.903 23.5659 216.719 24.3738 217.688 24.9541C216.719 25.5342 215.903 26.3417 215.313 27.3037C214.724 26.3417 213.908 25.5343 212.939 24.9541C213.908 24.3738 214.724 23.5658 215.313 22.6035ZM48.6836 22.6318C49.2718 23.5815 50.0801 24.3797 51.0391 24.9541C50.0721 25.5333 49.2573 26.3396 48.668 27.2998C48.08 26.3503 47.271 25.552 46.3125 24.9775C47.2791 24.3981 48.0945 23.592 48.6836 22.6318ZM203.43 22.6318C204.018 23.5815 204.826 24.3796 205.785 24.9541C204.818 25.5334 204.003 26.3396 203.414 27.2998C202.826 26.3505 202.018 25.552 201.06 24.9775C202.026 24.3982 202.841 23.5918 203.43 22.6318ZM495.024 14.0312C497.771 14.0312 500 16.262 500 19.0107C500 21.7593 497.771 23.9902 495.024 23.9902C492.49 23.9902 490.398 22.0905 490.09 19.6377C490.108 19.4311 490.119 19.2221 490.119 19.0107C490.119 18.7989 490.108 18.5889 490.09 18.3818C490.399 15.9295 492.49 14.0313 495.024 14.0312ZM483.144 14.0312C485.678 14.0312 487.77 15.9295 488.079 18.3818C488.061 18.5889 488.049 18.7989 488.049 19.0107C488.049 19.2221 488.061 19.4311 488.079 19.6377C487.771 22.0906 485.678 23.9902 483.144 23.9902C480.572 23.9902 478.456 22.0355 478.195 19.5312C478.208 19.3594 478.216 19.1859 478.216 19.0107C478.216 18.8351 478.208 18.6607 478.195 18.4883C478.456 15.9846 480.573 14.0313 483.144 14.0312ZM471.24 14.0312C473.812 14.0312 475.929 15.9856 476.189 18.4902C476.177 18.662 476.168 18.8358 476.168 19.0107C476.168 19.1852 476.177 19.358 476.189 19.5293C475.93 22.0345 473.812 23.9902 471.24 23.9902C468.666 23.99 466.548 22.0302 466.292 19.5215C466.304 19.3528 466.312 19.1825 466.312 19.0107C466.312 18.8384 466.304 18.6672 466.292 18.498C466.548 15.9899 468.666 14.0315 471.24 14.0312ZM459.336 14.0312C461.91 14.0312 464.03 15.9897 464.286 18.498C464.274 18.6673 464.265 18.8384 464.265 19.0107C464.265 19.1826 464.274 19.3528 464.286 19.5215C464.03 22.0304 461.911 23.9902 459.336 23.9902C456.764 23.99 454.648 22.0342 454.389 19.5293C454.401 19.358 454.409 19.1852 454.409 19.0107C454.409 18.8358 454.401 18.662 454.389 18.4902C454.649 15.9858 456.765 14.0315 459.336 14.0312ZM447.434 14.0312C450.004 14.0312 452.122 15.9846 452.383 18.4883C452.37 18.6607 452.36 18.8351 452.36 19.0107C452.36 19.1859 452.37 19.3593 452.383 19.5312C452.122 22.0355 450.005 23.9902 447.434 23.9902C444.858 23.9901 442.74 22.0292 442.485 19.5195C442.497 19.3515 442.505 19.1819 442.505 19.0107C442.505 18.8384 442.497 18.6673 442.484 18.498C442.741 15.9898 444.859 14.0314 447.434 14.0312ZM435.529 14.0312C438.104 14.0312 440.223 15.9896 440.479 18.498C440.467 18.6673 440.458 18.8384 440.458 19.0107C440.458 19.1826 440.467 19.3528 440.479 19.5215C440.224 22.0304 438.104 23.9902 435.529 23.9902C432.956 23.9902 430.837 22.0319 430.58 19.5244C430.592 19.3547 430.601 19.1835 430.601 19.0107C430.601 18.8374 430.593 18.6653 430.58 18.4951C430.838 15.9881 432.956 14.0313 435.529 14.0312ZM423.625 14.0312C426.198 14.0312 428.317 15.9881 428.575 18.4951C428.563 18.6653 428.554 18.8374 428.554 19.0107C428.554 19.1836 428.563 19.3547 428.575 19.5244C428.318 22.032 426.199 23.9902 423.625 23.9902C421.054 23.9902 418.937 22.0355 418.677 19.5312C418.689 19.3593 418.698 19.1859 418.698 19.0107C418.698 18.8351 418.69 18.6607 418.677 18.4883C418.938 15.9846 421.054 14.0313 423.625 14.0312ZM411.723 14.0312C414.294 14.0314 416.411 15.9857 416.671 18.4902C416.658 18.662 416.649 18.8358 416.649 19.0107C416.649 19.1852 416.658 19.358 416.671 19.5293C416.411 22.0344 414.294 23.9901 411.723 23.9902C409.148 23.9902 407.029 22.0304 406.773 19.5215C406.786 19.3528 406.793 19.1825 406.793 19.0107C406.793 18.8384 406.786 18.6672 406.773 18.498C407.03 15.9897 409.148 14.0313 411.723 14.0312ZM399.817 14.0312C402.392 14.0312 404.511 15.9897 404.768 18.498C404.755 18.6673 404.747 18.8384 404.747 19.0107C404.747 19.1819 404.755 19.3514 404.768 19.5195C404.513 22.0294 402.393 23.9902 399.817 23.9902C397.246 23.99 395.13 22.0342 394.87 19.5293C394.883 19.358 394.891 19.1852 394.891 19.0107C394.891 18.8358 394.883 18.662 394.87 18.4902C395.13 15.9858 397.246 14.0315 399.817 14.0312ZM387.915 14.0312C390.486 14.0312 392.603 15.9846 392.864 18.4883C392.851 18.6607 392.842 18.8351 392.842 19.0107C392.842 19.1859 392.852 19.3593 392.864 19.5312C392.604 22.0355 390.486 23.9902 387.915 23.9902C385.34 23.9901 383.222 22.0292 382.967 19.5195C382.979 19.3515 382.986 19.1819 382.986 19.0107C382.986 18.8384 382.978 18.6673 382.966 18.498C383.222 15.9898 385.341 14.0314 387.915 14.0312ZM376.011 14.0312C378.585 14.0312 380.705 15.9896 380.961 18.498C380.949 18.6673 380.939 18.8384 380.939 19.0107C380.939 19.1826 380.949 19.3528 380.961 19.5215C380.705 22.0304 378.585 23.9902 376.011 23.9902C373.437 23.9902 371.319 22.0319 371.062 19.5244C371.074 19.3547 371.082 19.1835 371.082 19.0107C371.082 18.8374 371.074 18.6653 371.062 18.4951C371.319 15.9881 373.438 14.0313 376.011 14.0312ZM364.106 14.0312C366.68 14.0312 368.799 15.9881 369.057 18.4951C369.044 18.6653 369.035 18.8374 369.035 19.0107C369.035 19.1836 369.044 19.3547 369.057 19.5244C368.799 22.032 366.68 23.9902 364.106 23.9902C361.535 23.9902 359.419 22.0355 359.158 19.5312C359.171 19.3593 359.18 19.1859 359.18 19.0107C359.18 18.8351 359.171 18.6607 359.158 18.4883C359.419 15.9846 361.536 14.0313 364.106 14.0312ZM352.204 14.0312C354.776 14.0314 356.892 15.9857 357.152 18.4902C357.14 18.662 357.131 18.8358 357.131 19.0107C357.131 19.1852 357.14 19.358 357.152 19.5293C356.893 22.0344 354.776 23.9901 352.204 23.9902C349.63 23.9902 347.511 22.0304 347.255 19.5215C347.267 19.3528 347.274 19.1825 347.274 19.0107C347.274 18.8384 347.267 18.6672 347.255 18.498C347.511 15.9897 349.63 14.0313 352.204 14.0312ZM340.299 14.0312C342.873 14.0312 344.993 15.9897 345.249 18.498C345.237 18.6673 345.229 18.8384 345.229 19.0107C345.229 19.1819 345.237 19.3514 345.249 19.5195C344.994 22.0294 342.874 23.9902 340.299 23.9902C337.724 23.99 335.606 22.0292 335.351 19.5195C335.363 19.3515 335.37 19.1819 335.37 19.0107C335.37 18.8384 335.362 18.6673 335.35 18.498C335.606 15.9898 337.725 14.0315 340.299 14.0312ZM328.395 14.0312C330.969 14.0312 333.088 15.9896 333.345 18.498C333.332 18.6673 333.323 18.8384 333.323 19.0107C333.323 19.1826 333.333 19.3528 333.345 19.5215C333.089 22.0304 330.969 23.9902 328.395 23.9902C325.819 23.9901 323.701 22.0292 323.446 19.5195C323.458 19.3515 323.466 19.1819 323.466 19.0107C323.466 18.8384 323.458 18.6673 323.445 18.498C323.702 15.9898 325.82 14.0314 328.395 14.0312ZM316.49 14.0312C319.064 14.0312 321.184 15.9896 321.44 18.498C321.428 18.6673 321.419 18.8384 321.419 19.0107C321.419 19.1826 321.428 19.3528 321.44 19.5215C321.185 22.0304 319.065 23.9902 316.49 23.9902C313.919 23.9902 311.802 22.0355 311.542 19.5312C311.555 19.3593 311.563 19.1859 311.563 19.0107C311.563 18.8341 311.555 18.6587 311.542 18.4854C311.804 15.9831 313.92 14.0313 316.49 14.0312ZM304.588 14.0312C307.158 14.0312 309.275 15.983 309.537 18.4854C309.524 18.6587 309.515 18.8341 309.515 19.0107C309.515 19.1859 309.523 19.3593 309.536 19.5312C309.276 22.0355 307.159 23.9902 304.588 23.9902C302.017 23.9902 299.9 22.0355 299.64 19.5312C299.652 19.3593 299.661 19.1859 299.661 19.0107C299.661 18.8351 299.652 18.6607 299.64 18.4883C299.901 15.9846 302.017 14.0313 304.588 14.0312ZM292.686 14.0312C295.257 14.0314 297.374 15.9857 297.634 18.4902C297.621 18.662 297.612 18.8358 297.612 19.0107C297.612 19.1852 297.621 19.358 297.634 19.5293C297.374 22.0344 295.257 23.9901 292.686 23.9902C290.111 23.9902 287.992 22.0304 287.736 19.5215C287.749 19.3528 287.756 19.1825 287.756 19.0107C287.756 18.8384 287.749 18.6672 287.736 18.498C287.993 15.9897 290.111 14.0313 292.686 14.0312ZM280.78 14.0312C283.355 14.0312 285.474 15.9897 285.73 18.498C285.718 18.6673 285.71 18.8384 285.71 19.0107C285.71 19.1819 285.718 19.3514 285.73 19.5195C285.475 22.0294 283.356 23.9902 280.78 23.9902C278.205 23.99 276.087 22.0292 275.832 19.5195C275.844 19.3515 275.852 19.1819 275.852 19.0107C275.852 18.8384 275.843 18.6673 275.831 18.498C276.087 15.9898 278.206 14.0315 280.78 14.0312ZM268.876 14.0312C271.45 14.0312 273.57 15.9896 273.826 18.498C273.814 18.6673 273.805 18.8384 273.805 19.0107C273.805 19.1826 273.814 19.3528 273.826 19.5215C273.57 22.0304 271.451 23.9902 268.876 23.9902C266.301 23.9901 264.182 22.0293 263.927 19.5195C263.941 19.3358 263.951 19.1503 263.951 18.9629C263.951 18.7948 263.943 18.628 263.932 18.4629C264.204 15.9715 266.314 14.0314 268.876 14.0312ZM197.48 14.0068C200.012 14.0068 202.102 15.9008 202.415 18.3486C202.397 18.551 202.386 18.7559 202.386 18.9629C202.386 19.1796 202.398 19.3938 202.417 19.6055C202.112 22.0624 200.018 23.9658 197.48 23.9658C194.854 23.9657 192.704 21.9263 192.521 19.3447C192.527 19.2183 192.53 19.091 192.53 18.9629C192.53 18.8424 192.529 18.7225 192.522 18.6035C192.718 16.0336 194.862 14.007 197.48 14.0068ZM42.7344 14.0068C45.2663 14.007 47.3561 15.9024 47.668 18.3516C47.6505 18.553 47.6396 18.7569 47.6396 18.9629C47.6396 19.1783 47.6518 19.3911 47.6709 19.6016C47.3678 22.0603 45.2731 23.9657 42.7344 23.9658C39.9873 23.9658 37.7588 21.7351 37.7588 18.9863C37.7588 16.2376 39.9873 14.0068 42.7344 14.0068ZM256.976 13.9834C259.549 13.9834 261.669 15.9414 261.926 18.4492C261.911 18.6344 261.9 18.8218 261.9 19.0107C261.9 19.1789 261.909 19.3455 261.921 19.5107C261.648 22.0019 259.538 23.9424 256.976 23.9424C254.404 23.9422 252.288 21.9866 252.028 19.4814C252.041 19.3102 252.049 19.1373 252.049 18.9629C252.049 18.7882 252.041 18.6149 252.028 18.4434C252.288 15.9385 254.404 13.9835 256.976 13.9834ZM245.073 13.9834C247.644 13.9834 249.762 15.9373 250.022 18.4414C250.01 18.6136 250 18.7875 250 18.9629C250 19.138 250.01 19.3115 250.022 19.4834C249.762 21.9878 247.645 23.9424 245.073 23.9424C242.499 23.9424 240.38 21.9826 240.124 19.4736C240.136 19.3049 240.145 19.1347 240.145 18.9629C240.145 18.7908 240.136 18.6201 240.124 18.4512C240.38 15.9425 242.499 13.9834 245.073 13.9834ZM233.169 13.9834C235.744 13.9835 237.863 15.9435 238.118 18.4531C238.106 18.6215 238.098 18.7915 238.098 18.9629C238.098 19.134 238.106 19.3036 238.118 19.4717C237.863 21.9816 235.744 23.9423 233.169 23.9424C230.594 23.9424 228.476 21.9826 228.22 19.4736C228.232 19.3049 228.239 19.1347 228.239 18.9629C228.239 18.7908 228.232 18.6201 228.22 18.4512C228.476 15.9425 230.595 13.9834 233.169 13.9834ZM221.264 13.9834C223.838 13.9834 225.958 15.9424 226.214 18.4512C226.202 18.6202 226.193 18.7908 226.193 18.9629C226.193 19.134 226.202 19.3036 226.214 19.4717C225.959 21.9816 223.839 23.9424 221.264 23.9424C218.693 23.9421 216.577 21.9875 216.316 19.4834C216.329 19.3115 216.337 19.138 216.337 18.9629C216.337 18.7875 216.329 18.6136 216.316 18.4414C216.577 15.9376 218.693 13.9837 221.264 13.9834ZM209.361 13.9834C211.932 13.9834 214.05 15.9373 214.311 18.4414C214.298 18.6136 214.288 18.7875 214.288 18.9629C214.288 19.138 214.298 19.3115 214.311 19.4834C214.05 21.9878 211.933 23.9424 209.361 23.9424C206.829 23.9421 204.74 22.0461 204.429 19.5967C204.446 19.3955 204.456 19.192 204.456 18.9863C204.456 18.7707 204.445 18.5574 204.426 18.3467C204.729 15.8885 206.823 13.9837 209.361 13.9834ZM185.555 13.9834C188.182 13.9834 190.334 16.0243 190.517 18.6074C190.51 18.7329 190.505 18.8592 190.505 18.9863C190.505 19.1049 190.509 19.2227 190.515 19.3398C190.322 21.9126 188.175 23.9424 185.555 23.9424C182.983 23.9424 180.867 21.9877 180.606 19.4834C180.619 19.3115 180.628 19.138 180.628 18.9629C180.628 18.7875 180.619 18.6136 180.606 18.4414C180.867 15.9374 182.984 13.9834 185.555 13.9834ZM173.652 13.9834C176.224 13.9835 178.341 15.9385 178.601 18.4434C178.588 18.6149 178.579 18.7882 178.579 18.9629C178.579 19.1374 178.588 19.3102 178.601 19.4814C178.341 21.9866 176.224 23.9423 173.652 23.9424C171.081 23.9424 168.964 21.9877 168.704 19.4834C168.717 19.3115 168.725 19.138 168.725 18.9629C168.725 18.7875 168.717 18.6136 168.704 18.4414C168.965 15.9374 171.081 13.9834 173.652 13.9834ZM161.749 13.9834C164.321 13.9834 166.439 15.9384 166.698 18.4434C166.686 18.6149 166.677 18.7881 166.677 18.9629C166.677 19.1374 166.686 19.3102 166.698 19.4814C166.439 21.9867 164.321 23.9424 161.749 23.9424C159.175 23.9421 157.057 21.9825 156.801 19.4736C156.813 19.3049 156.82 19.1347 156.82 18.9629C156.82 18.7908 156.813 18.6201 156.801 18.4512C157.057 15.9426 159.175 13.9837 161.749 13.9834ZM149.845 13.9834C152.419 13.9834 154.539 15.9424 154.795 18.4512C154.783 18.6202 154.773 18.7908 154.773 18.9629C154.773 19.1347 154.783 19.3049 154.795 19.4736C154.539 21.9827 152.419 23.9424 149.845 23.9424C147.27 23.9421 145.151 21.9814 144.896 19.4717C144.909 19.3036 144.916 19.134 144.916 18.9629C144.916 18.7908 144.908 18.6202 144.896 18.4512C145.152 15.9426 147.27 13.9837 149.845 13.9834ZM137.94 13.9834C140.515 13.9834 142.635 15.9424 142.891 18.4512C142.878 18.6202 142.869 18.7908 142.869 18.9629C142.869 19.1347 142.878 19.3049 142.891 19.4736C142.635 21.9827 140.515 23.9424 137.94 23.9424C135.365 23.9422 133.247 21.9815 132.992 19.4717C133.004 19.3036 133.012 19.134 133.012 18.9629C133.012 18.7908 133.003 18.6201 132.991 18.4512C133.247 15.9425 135.366 13.9835 137.94 13.9834ZM126.036 13.9834C128.611 13.9834 130.73 15.9424 130.986 18.4512C130.974 18.6202 130.965 18.7908 130.965 18.9629C130.965 19.1347 130.974 19.3049 130.986 19.4736C130.731 21.9827 128.611 23.9424 126.036 23.9424C123.465 23.9424 121.348 21.9877 121.088 19.4834C121.101 19.3115 121.109 19.138 121.109 18.9629C121.109 18.7875 121.101 18.6136 121.088 18.4414C121.349 15.9374 123.465 13.9834 126.036 13.9834ZM114.134 13.9834C116.705 13.9835 118.822 15.9385 119.082 18.4434C119.069 18.6149 119.061 18.7882 119.061 18.9629C119.061 19.1374 119.069 19.3102 119.082 19.4814C118.823 21.9866 116.706 23.9423 114.134 23.9424C111.559 23.9424 109.44 21.9826 109.185 19.4736C109.197 19.3049 109.205 19.1347 109.205 18.9629C109.205 18.7908 109.197 18.6201 109.185 18.4512C109.441 15.9425 111.559 13.9834 114.134 13.9834ZM102.229 13.9834C104.804 13.9835 106.923 15.9425 107.179 18.4512C107.166 18.6202 107.158 18.7908 107.158 18.9629C107.158 19.134 107.167 19.3036 107.179 19.4717C106.924 21.9816 104.805 23.9423 102.229 23.9424C99.6582 23.9424 97.5416 21.9877 97.2812 19.4834C97.2939 19.3115 97.3018 19.138 97.3018 18.9629C97.3018 18.7875 97.294 18.6136 97.2812 18.4414C97.5419 15.9374 99.6584 13.9834 102.229 13.9834ZM90.3262 13.9834C92.898 13.9834 95.0157 15.9384 95.2754 18.4434C95.2628 18.6149 95.2539 18.7881 95.2539 18.9629C95.2539 19.1374 95.2628 19.3102 95.2754 19.4814C95.016 21.9867 92.8982 23.9424 90.3262 23.9424C87.7511 23.9421 85.6329 21.9814 85.3779 19.4717C85.39 19.3036 85.3975 19.134 85.3975 18.9629C85.3975 18.7908 85.3892 18.6202 85.377 18.4512C85.6331 15.9426 87.7519 13.9837 90.3262 13.9834ZM78.4219 13.9834C80.9964 13.9834 83.116 15.9424 83.3721 18.4512C83.3598 18.6202 83.3506 18.7908 83.3506 18.9629C83.3506 19.1347 83.3599 19.3049 83.3721 19.4736C83.1163 21.9827 80.9966 23.9424 78.4219 23.9424C75.8467 23.9422 73.7286 21.9815 73.4736 19.4717C73.4857 19.3036 73.4932 19.134 73.4932 18.9629C73.4932 18.7908 73.4849 18.6201 73.4727 18.4512C73.7288 15.9425 75.8475 13.9835 78.4219 13.9834ZM66.5176 13.9834C69.0921 13.9834 71.2117 15.9424 71.4678 18.4512C71.4555 18.6202 71.4463 18.7908 71.4463 18.9629C71.4463 19.1347 71.4556 19.3049 71.4678 19.4736C71.212 21.9827 69.0923 23.9424 66.5176 23.9424C63.9463 23.9424 61.8297 21.9877 61.5693 19.4834C61.582 19.3115 61.5908 19.138 61.5908 18.9629C61.5908 18.7865 61.5822 18.6116 61.5693 18.4385C61.8313 15.9358 63.9474 13.9834 66.5176 13.9834ZM54.6152 13.9834C57.1854 13.9834 59.3026 15.9358 59.5645 18.4385C59.5516 18.6116 59.542 18.7865 59.542 18.9629C59.542 19.138 59.5508 19.3115 59.5635 19.4834C59.3031 21.9877 57.1866 23.9424 54.6152 23.9424C52.0829 23.9424 49.9931 22.0463 49.6816 19.5967C49.6991 19.3955 49.71 19.192 49.71 18.9863C49.71 18.77 49.699 18.5561 49.6797 18.3447C49.9841 15.8874 52.0774 13.9834 54.6152 13.9834ZM30.7822 13.9834C33.5293 13.9834 35.7578 16.2141 35.7578 18.9629C35.7577 21.7116 33.5292 23.9424 30.7822 23.9424C28.2072 23.9421 26.089 21.9814 25.834 19.4717C25.8461 19.3036 25.8535 19.134 25.8535 18.9629C25.8535 18.7908 25.8452 18.6202 25.833 18.4512C26.0891 15.9426 28.208 13.9837 30.7822 13.9834ZM18.8779 13.9834C21.4524 13.9834 23.572 15.9424 23.8281 18.4512C23.8159 18.6202 23.8066 18.7908 23.8066 18.9629C23.8066 19.1347 23.8159 19.3049 23.8281 19.4736C23.5723 21.9827 21.4526 23.9424 18.8779 23.9424C16.3061 23.9422 14.1902 21.9866 13.9307 19.4814C13.9433 19.3102 13.9512 19.1373 13.9512 18.9629C13.9512 18.7882 13.9433 18.6149 13.9307 18.4434C14.1904 15.9385 16.3063 13.9835 18.8779 13.9834ZM6.97559 13.9834C9.54675 13.9834 11.6642 15.9373 11.9248 18.4414C11.9121 18.6136 11.9023 18.7875 11.9023 18.9629C11.9023 19.138 11.9121 19.3115 11.9248 19.4834C11.6645 21.9878 9.54694 23.9424 6.97559 23.9424C4.22858 23.9424 2.00009 21.7116 2 18.9629C2 16.2141 4.22855 13.9834 6.97559 13.9834ZM36.7588 10.6035C37.3499 11.5834 38.1746 12.4057 39.1562 12.9941C38.1786 13.58 37.3563 14.3986 36.7656 15.373C36.1781 14.3951 35.3582 13.5722 34.3818 12.9824C35.3544 12.3948 36.1719 11.5766 36.7588 10.6035ZM441.481 10.6416C442.075 11.612 442.899 12.4252 443.878 13.0068C442.9 13.5883 442.075 14.4011 441.481 15.3711C440.888 14.4013 440.064 13.5883 439.086 13.0068C440.064 12.4252 440.888 11.6118 441.481 10.6416ZM429.577 10.6416C430.171 11.612 430.995 12.4252 431.974 13.0068C430.995 13.5883 430.171 14.4011 429.577 15.3711C428.983 14.4013 428.16 13.5883 427.182 13.0068C428.16 12.4252 428.983 11.6118 429.577 10.6416ZM405.771 10.6416C406.364 11.6118 407.188 12.4252 408.166 13.0068C407.188 13.5883 406.364 14.4013 405.771 15.3711C405.177 14.4013 404.353 13.5883 403.375 13.0068C404.353 12.4252 405.177 11.6117 405.771 10.6416ZM381.963 10.6416C382.557 11.612 383.381 12.4252 384.359 13.0068C383.381 13.5883 382.557 14.4011 381.963 15.3711C381.369 14.4013 380.545 13.5883 379.567 13.0068C380.546 12.4252 381.369 11.6118 381.963 10.6416ZM370.059 10.6416C370.652 11.612 371.477 12.4252 372.455 13.0068C371.477 13.5883 370.652 14.4011 370.059 15.3711C369.465 14.4013 368.641 13.5883 367.663 13.0068C368.641 12.4252 369.465 11.6118 370.059 10.6416ZM346.252 10.6416C346.846 11.6118 347.669 12.4252 348.647 13.0068C347.669 13.5883 346.846 14.4013 346.252 15.3711C345.658 14.4013 344.834 13.5883 343.856 13.0068C344.835 12.4252 345.658 11.6117 346.252 10.6416ZM334.348 10.6416C334.941 11.6118 335.765 12.4252 336.743 13.0068C335.765 13.5883 334.941 14.4013 334.348 15.3711C333.754 14.4013 332.93 13.5883 331.952 13.0068C332.93 12.4252 333.754 11.6117 334.348 10.6416ZM322.442 10.6416C323.036 11.612 323.86 12.4252 324.839 13.0068C323.861 13.5883 323.036 14.4011 322.442 15.3711C321.849 14.4013 321.025 13.5883 320.047 13.0068C321.025 12.4252 321.849 11.6118 322.442 10.6416ZM286.733 10.6416C287.327 11.6118 288.151 12.4252 289.129 13.0068C288.151 13.5883 287.327 14.4013 286.733 15.3711C286.14 14.4013 285.316 13.5883 284.338 13.0068C285.316 12.4252 286.14 11.6117 286.733 10.6416ZM274.829 10.6416C275.423 11.6118 276.246 12.4252 277.225 13.0068C276.247 13.5883 275.423 14.4013 274.829 15.3711C274.236 14.4013 273.411 13.5883 272.434 13.0068C273.412 12.4252 274.236 11.6117 274.829 10.6416ZM465.289 10.6426C465.883 11.6125 466.707 12.4254 467.685 13.0068C466.707 13.5881 465.883 14.4006 465.289 15.3701C464.695 14.4007 463.871 13.5882 462.894 13.0068C463.871 12.4253 464.695 11.6124 465.289 10.6426ZM477.192 10.6436C477.786 11.6131 478.61 12.4255 479.588 13.0068C478.61 13.5879 477.786 14.3999 477.192 15.3691C476.599 14.4002 475.775 13.5879 474.798 13.0068C475.775 12.4255 476.599 11.6129 477.192 10.6436ZM453.386 10.6436C453.979 11.6129 454.803 12.4256 455.78 13.0068C454.803 13.5879 453.979 14.4001 453.386 15.3691C452.792 14.4002 451.968 13.588 450.991 13.0068C451.969 12.4255 452.792 11.6129 453.386 10.6436ZM417.674 10.6436C418.268 11.6131 419.091 12.4255 420.069 13.0068C419.092 13.5879 418.268 14.3999 417.674 15.3691C417.08 14.4002 416.257 13.5879 415.279 13.0068C416.257 12.4256 417.08 11.6129 417.674 10.6436ZM393.867 10.6436C394.461 11.6129 395.284 12.4256 396.262 13.0068C395.284 13.5879 394.461 14.4001 393.867 15.3691C393.274 14.4002 392.45 13.588 391.473 13.0068C392.45 12.4255 393.274 11.6129 393.867 10.6436ZM358.155 10.6436C358.749 11.6131 359.573 12.4255 360.551 13.0068C359.573 13.5879 358.749 14.3999 358.155 15.3691C357.562 14.4002 356.738 13.5879 355.761 13.0068C356.738 12.4256 357.562 11.6129 358.155 10.6436ZM310.539 10.6436C311.133 11.6131 311.957 12.4255 312.935 13.0068C311.957 13.5879 311.133 14.3999 310.539 15.3691C309.945 14.4002 309.122 13.5879 308.145 13.0068C309.122 12.4256 309.945 11.6129 310.539 10.6436ZM298.637 10.6436C299.23 11.6131 300.054 12.4255 301.032 13.0068C300.055 13.5879 299.23 14.3999 298.637 15.3691C298.043 14.4002 297.219 13.5879 296.242 13.0068C297.22 12.4256 298.043 11.6129 298.637 10.6436ZM489.092 10.6484C489.688 11.6119 490.512 12.4188 491.489 12.9951C490.508 13.5737 489.681 14.3841 489.084 15.3525C488.491 14.391 487.672 13.5845 486.7 13.0068C487.676 12.4265 488.498 11.6156 489.092 10.6484ZM191.518 10.625C192.108 11.5957 192.929 12.41 193.903 12.9941C192.933 13.5757 192.115 14.3864 191.525 15.3516C190.939 14.3828 190.123 13.5679 189.153 12.9824C190.119 12.3991 190.932 11.5888 191.518 10.625ZM262.927 10.6455C263.52 11.6141 264.343 12.426 265.32 13.0068C264.351 13.5828 263.534 14.3859 262.941 15.3437C262.355 14.3784 261.541 13.5663 260.574 12.9824C261.533 12.4032 262.342 11.6004 262.927 10.6455ZM239.121 10.6416C239.706 11.5982 240.515 12.4025 241.476 12.9824C240.515 13.5621 239.707 14.3669 239.121 15.3232C238.536 14.3672 237.727 13.5621 236.768 12.9824C237.727 12.4025 238.536 11.598 239.121 10.6416ZM227.217 10.6416C227.802 11.598 228.61 12.4026 229.57 12.9824C228.61 13.5621 227.802 14.3671 227.217 15.3232C226.632 14.3672 225.823 13.5621 224.863 12.9824C225.823 12.4025 226.632 11.5979 227.217 10.6416ZM143.894 10.6416C144.479 11.598 145.287 12.4026 146.247 12.9824C145.287 13.5621 144.479 14.3671 143.894 15.3232C143.308 14.367 142.499 13.5622 141.539 12.9824C142.499 12.4025 143.308 11.5982 143.894 10.6416ZM131.988 10.6416C132.574 11.5982 133.383 12.4025 134.343 12.9824C133.383 13.5621 132.574 14.3669 131.988 15.3232C131.403 14.3672 130.595 13.5621 129.635 12.9824C130.595 12.4026 131.403 11.598 131.988 10.6416ZM108.182 10.6416C108.767 11.598 109.575 12.4026 110.535 12.9824C109.575 13.5621 108.767 14.3671 108.182 15.3232C107.596 14.3672 106.788 13.5621 105.828 12.9824C106.788 12.4025 107.596 11.598 108.182 10.6416ZM84.375 10.6416C84.9603 11.598 85.7685 12.4026 86.7285 12.9824C85.7686 13.5621 84.9604 14.3671 84.375 15.3232C83.7896 14.367 82.9805 13.5622 82.0205 12.9824C82.9806 12.4025 83.7897 11.5982 84.375 10.6416ZM72.4697 10.6416C73.0551 11.5982 73.864 12.4025 74.8242 12.9824C73.8641 13.5621 73.0552 14.3669 72.4697 15.3232C71.8844 14.3672 71.076 13.5621 70.1162 12.9824C71.0761 12.4026 71.8845 11.598 72.4697 10.6416ZM24.8311 10.6416C25.4164 11.598 26.2246 12.4026 27.1846 12.9824C26.2246 13.5621 25.4164 14.3671 24.8311 15.3232C24.2457 14.367 23.4366 13.5622 22.4766 12.9824C23.4367 12.4025 24.2458 11.5982 24.8311 10.6416ZM155.798 10.6426C156.383 11.5986 157.192 12.4027 158.151 12.9824C157.192 13.5619 156.383 14.3665 155.798 15.3223C155.213 14.3665 154.404 13.562 153.444 12.9824C154.404 12.4027 155.213 11.5986 155.798 10.6426ZM251.024 10.6436C251.61 11.5993 252.418 12.4029 253.378 12.9824C252.418 13.5618 251.61 14.3658 251.024 15.3213C250.439 14.366 249.631 13.5617 248.672 12.9824C249.631 12.4029 250.439 11.5991 251.024 10.6436ZM179.604 10.6436C180.189 11.5993 180.997 12.4029 181.957 12.9824C180.997 13.5617 180.189 14.3658 179.604 15.3213C179.018 14.366 178.21 13.5617 177.251 12.9824C178.21 12.4029 179.018 11.5991 179.604 10.6436ZM167.701 10.6436C168.286 11.5991 169.094 12.4029 170.054 12.9824C169.094 13.5617 168.286 14.366 167.701 15.3213C167.116 14.366 166.308 13.5617 165.349 12.9824C166.308 12.4029 167.116 11.5991 167.701 10.6436ZM120.085 10.6436C120.67 11.5993 121.479 12.4029 122.438 12.9824C121.479 13.5617 120.67 14.3658 120.085 15.3213C119.5 14.366 118.692 13.5617 117.732 12.9824C118.692 12.4029 119.5 11.5991 120.085 10.6436ZM96.2783 10.6436C96.8635 11.5991 97.6715 12.4029 98.6309 12.9824C97.6716 13.5617 96.8636 14.366 96.2783 15.3213C95.6931 14.366 94.8849 13.5617 93.9258 12.9824C94.885 12.4029 95.6932 11.5991 96.2783 10.6436ZM60.5664 10.6436C61.1517 11.5993 61.9603 12.4029 62.9199 12.9824C61.9604 13.5617 61.1518 14.3658 60.5664 15.3213C59.9812 14.366 59.1731 13.5617 58.2139 12.9824C59.1732 12.4029 59.9813 11.5991 60.5664 10.6436ZM12.9268 10.6436C13.512 11.5993 14.3207 12.4029 15.2803 12.9824C14.3208 13.5618 13.5121 14.3658 12.9268 15.3213C12.3415 14.366 11.5334 13.5617 10.5742 12.9824C11.5335 12.4029 12.3416 11.5991 12.9268 10.6436ZM215.313 10.6445C215.899 11.5998 216.707 12.4031 217.666 12.9824C216.707 13.5615 215.899 14.3653 215.313 15.3203C214.728 14.3654 213.92 13.5616 212.961 12.9824C213.92 12.403 214.728 11.5997 215.313 10.6445ZM203.422 10.6602C204.006 11.6083 204.81 12.4064 205.764 12.9824C204.806 13.5607 203.999 14.3632 203.414 15.3164C202.826 14.3672 202.018 13.5685 201.06 12.9941C202.022 12.4171 202.834 11.615 203.422 10.6602ZM48.6748 10.6602C49.2593 11.6085 50.0636 12.4063 51.0176 12.9824C50.0598 13.5607 49.2531 14.3632 48.668 15.3164C48.08 14.367 47.271 13.5686 46.3125 12.9941C47.275 12.4171 48.0864 11.615 48.6748 10.6602ZM483.144 2.02441C485.675 2.02441 487.766 3.91871 488.078 6.36719C488.061 6.56904 488.049 6.77311 488.049 6.97949C488.049 7.19608 488.061 7.41049 488.08 7.62207C487.776 10.0793 485.681 11.9834 483.144 11.9834C480.572 11.9834 478.456 10.0287 478.195 7.52441C478.208 7.35251 478.216 7.17903 478.216 7.00391C478.216 6.82852 478.208 6.65458 478.195 6.48242C478.456 3.97839 480.572 2.02443 483.144 2.02441ZM471.24 2.02441C473.812 2.02441 475.93 3.97939 476.189 6.48437C476.177 6.65591 476.168 6.82917 476.168 7.00391C476.168 7.17838 476.177 7.35118 476.189 7.52246C475.93 10.0277 473.812 11.9834 471.24 11.9834C468.666 11.9831 466.548 10.0235 466.292 7.51465C466.304 7.34594 466.312 7.1757 466.312 7.00391C466.312 6.83184 466.304 6.66115 466.292 6.49219C466.548 3.98366 468.666 2.02467 471.24 2.02441ZM459.336 2.02441C461.91 2.02441 464.03 3.98345 464.286 6.49219C464.274 6.66117 464.265 6.83182 464.265 7.00391C464.265 7.17573 464.274 7.34592 464.286 7.51465C464.03 10.0237 461.911 11.9834 459.336 11.9834C456.764 11.9831 454.648 10.0275 454.389 7.52246C454.401 7.3512 454.409 7.17836 454.409 7.00391C454.409 6.82918 454.401 6.65589 454.389 6.48437C454.648 3.9796 456.764 2.02467 459.336 2.02441ZM447.434 2.02441C450.005 2.02441 452.122 3.97835 452.383 6.48242C452.37 6.6546 452.36 6.82849 452.36 7.00391C452.36 7.17905 452.37 7.35249 452.383 7.52441C452.123 10.0288 450.005 11.9834 447.434 11.9834C444.858 11.9833 442.74 10.0225 442.485 7.5127C442.497 7.34464 442.505 7.17503 442.505 7.00391C442.505 6.83183 442.497 6.66116 442.484 6.49219C442.74 3.98354 444.859 2.02455 447.434 2.02441ZM435.529 2.02441C438.104 2.02441 440.223 3.98342 440.479 6.49219C440.467 6.66118 440.458 6.83181 440.458 7.00391C440.458 7.17573 440.467 7.34592 440.479 7.51465C440.224 10.0237 438.104 11.9834 435.529 11.9834C432.956 11.9834 430.837 10.0252 430.58 7.51758C430.592 7.34791 430.601 7.1767 430.601 7.00391C430.601 6.83084 430.592 6.65918 430.58 6.48926C430.838 3.98194 432.956 2.02443 435.529 2.02441ZM423.625 2.02441C426.199 2.02441 428.318 3.98188 428.575 6.48926C428.563 6.65921 428.554 6.83082 428.554 7.00391C428.554 7.17673 428.563 7.34789 428.575 7.51758C428.318 10.0252 426.199 11.9834 423.625 11.9834C421.054 11.9834 418.937 10.0287 418.677 7.52441C418.689 7.35251 418.698 7.17903 418.698 7.00391C418.698 6.82851 418.689 6.65459 418.677 6.48242C418.937 3.97839 421.054 2.02443 423.625 2.02441ZM411.723 2.02441C414.294 2.02454 416.411 3.97948 416.671 6.48437C416.658 6.65591 416.649 6.82917 416.649 7.00391C416.649 7.17838 416.658 7.35118 416.671 7.52246C416.411 10.0277 414.295 11.9833 411.723 11.9834C409.148 11.9834 407.029 10.0236 406.773 7.51465C406.786 7.34594 406.793 7.1757 406.793 7.00391C406.793 6.83184 406.786 6.66115 406.773 6.49219C407.03 3.98349 409.148 2.02443 411.723 2.02441ZM399.817 2.02441C402.392 2.02441 404.511 3.98345 404.768 6.49219C404.755 6.66117 404.747 6.83182 404.747 7.00391C404.747 7.17506 404.755 7.34461 404.768 7.5127C404.513 10.0227 402.393 11.9834 399.817 11.9834C397.246 11.9831 395.13 10.0275 394.87 7.52246C394.883 7.3512 394.891 7.17836 394.891 7.00391C394.891 6.82918 394.883 6.65589 394.87 6.48437C395.13 3.9796 397.246 2.02467 399.817 2.02441ZM387.915 2.02441C390.486 2.02441 392.604 3.97835 392.864 6.48242C392.852 6.6546 392.842 6.82849 392.842 7.00391C392.842 7.17905 392.852 7.35249 392.864 7.52441C392.604 10.0288 390.486 11.9834 387.915 11.9834C385.34 11.9833 383.222 10.0225 382.967 7.5127C382.979 7.34464 382.986 7.17503 382.986 7.00391C382.986 6.83183 382.978 6.66116 382.966 6.49219C383.222 3.98354 385.341 2.02455 387.915 2.02441ZM376.011 2.02441C378.585 2.02441 380.705 3.98342 380.961 6.49219C380.949 6.66118 380.939 6.83181 380.939 7.00391C380.939 7.17573 380.949 7.34592 380.961 7.51465C380.705 10.0237 378.585 11.9834 376.011 11.9834C373.437 11.9834 371.319 10.0252 371.062 7.51758C371.074 7.34791 371.082 7.1767 371.082 7.00391C371.082 6.83084 371.074 6.65918 371.062 6.48926C371.319 3.98194 373.437 2.02443 376.011 2.02441ZM364.106 2.02441C366.68 2.02441 368.799 3.98188 369.057 6.48926C369.044 6.65921 369.035 6.83082 369.035 7.00391C369.035 7.17673 369.044 7.34789 369.057 7.51758C368.799 10.0252 366.68 11.9834 364.106 11.9834C361.535 11.9834 359.419 10.0287 359.158 7.52441C359.171 7.35251 359.18 7.17903 359.18 7.00391C359.18 6.82851 359.171 6.65459 359.158 6.48242C359.419 3.97839 361.535 2.02443 364.106 2.02441ZM352.204 2.02441C354.776 2.02454 356.893 3.97948 357.152 6.48437C357.14 6.65591 357.131 6.82917 357.131 7.00391C357.131 7.17838 357.14 7.35118 357.152 7.52246C356.893 10.0277 354.776 11.9833 352.204 11.9834C349.629 11.9834 347.511 10.0236 347.255 7.51465C347.267 7.34594 347.274 7.1757 347.274 7.00391C347.274 6.83184 347.267 6.66115 347.255 6.49219C347.511 3.98349 349.63 2.02443 352.204 2.02441ZM340.299 2.02441C342.873 2.02441 344.993 3.98345 345.249 6.49219C345.237 6.66117 345.229 6.83182 345.229 7.00391C345.229 7.17506 345.237 7.34461 345.249 7.5127C344.994 10.0227 342.874 11.9834 340.299 11.9834C337.724 11.9831 335.606 10.0224 335.351 7.5127C335.363 7.34463 335.37 7.17504 335.37 7.00391C335.37 6.83182 335.362 6.66117 335.35 6.49219C335.606 3.98361 337.725 2.02467 340.299 2.02441ZM328.395 2.02441C330.969 2.02441 333.089 3.98343 333.345 6.49219C333.332 6.66117 333.323 6.83182 333.323 7.00391C333.323 7.17573 333.333 7.34592 333.345 7.51465C333.089 10.0237 330.969 11.9834 328.395 11.9834C325.819 11.9833 323.701 10.0225 323.446 7.5127C323.458 7.34464 323.466 7.17503 323.466 7.00391C323.466 6.83183 323.458 6.66116 323.445 6.49219C323.701 3.98354 325.82 2.02455 328.395 2.02441ZM316.49 2.02441C319.065 2.02441 321.184 3.98342 321.44 6.49219C321.428 6.66118 321.419 6.83181 321.419 7.00391C321.419 7.17573 321.428 7.34592 321.44 7.51465C321.185 10.0237 319.065 11.9834 316.49 11.9834C313.919 11.9834 311.802 10.0287 311.542 7.52441C311.555 7.3525 311.563 7.17904 311.563 7.00391C311.563 6.82752 311.555 6.65262 311.542 6.47949C311.804 3.97685 313.92 2.02443 316.49 2.02441ZM304.588 2.02441C307.158 2.02441 309.275 3.9768 309.537 6.47949C309.524 6.65264 309.515 6.82749 309.515 7.00391C309.515 7.17904 309.523 7.3525 309.536 7.52441C309.276 10.0287 307.159 11.9834 304.588 11.9834C302.017 11.9834 299.9 10.0287 299.64 7.52441C299.652 7.35251 299.661 7.17903 299.661 7.00391C299.661 6.82851 299.652 6.65459 299.64 6.48242C299.9 3.97839 302.017 2.02443 304.588 2.02441ZM292.686 2.02441C295.257 2.02454 297.374 3.97948 297.634 6.48437C297.621 6.65591 297.612 6.82917 297.612 7.00391C297.612 7.17838 297.621 7.35118 297.634 7.52246C297.374 10.0277 295.257 11.9833 292.686 11.9834C290.111 11.9834 287.992 10.0236 287.736 7.51465C287.749 7.34594 287.756 7.1757 287.756 7.00391C287.756 6.83184 287.749 6.66115 287.736 6.49219C287.992 3.98349 290.111 2.02443 292.686 2.02441ZM280.78 2.02441C283.355 2.02441 285.474 3.98345 285.73 6.49219C285.718 6.66117 285.71 6.83182 285.71 7.00391C285.71 7.17506 285.718 7.34461 285.73 7.5127C285.476 10.0227 283.356 11.9834 280.78 11.9834C278.205 11.9831 276.087 10.0224 275.832 7.5127C275.844 7.34463 275.852 7.17504 275.852 7.00391C275.852 6.83182 275.843 6.66117 275.831 6.49219C276.087 3.98361 278.206 2.02467 280.78 2.02441ZM268.876 2.02441C271.45 2.02441 273.57 3.98343 273.826 6.49219C273.814 6.66117 273.805 6.83182 273.805 7.00391C273.805 7.17573 273.814 7.34592 273.826 7.51465C273.57 10.0237 271.451 11.9834 268.876 11.9834C266.307 11.9833 264.194 10.0327 263.93 7.53223C263.943 7.35777 263.951 7.18168 263.951 7.00391C263.951 6.82586 263.943 6.64932 263.93 6.47461C264.194 3.97445 266.308 2.02455 268.876 2.02441ZM256.976 2.02441C259.543 2.02441 261.657 3.97229 261.923 6.4707C261.91 6.6467 261.9 6.82453 261.9 7.00391C261.9 7.18238 261.911 7.35905 261.924 7.53418C261.659 10.0339 259.544 11.9834 256.976 11.9834C254.404 11.9833 252.288 10.0276 252.028 7.52246C252.041 7.35121 252.049 7.17835 252.049 7.00391C252.049 6.82919 252.041 6.65589 252.028 6.48437C252.288 3.97953 254.404 2.02455 256.976 2.02441ZM245.073 2.02441C247.644 2.02441 249.762 3.97834 250.022 6.48242C250.01 6.65461 250 6.82849 250 7.00391C250 7.17906 250.01 7.35248 250.022 7.52441C249.762 10.0288 247.645 11.9834 245.073 11.9834C242.499 11.9834 240.38 10.0237 240.124 7.51465C240.136 7.34594 240.145 7.17571 240.145 7.00391C240.145 6.83184 240.136 6.66116 240.124 6.49219C240.38 3.98348 242.499 2.02443 245.073 2.02441ZM233.169 2.02441C235.743 2.02454 237.862 3.98354 238.118 6.49219C238.106 6.66116 238.098 6.83183 238.098 7.00391C238.098 7.17506 238.106 7.34462 238.118 7.5127C237.863 10.0226 235.744 11.9833 233.169 11.9834C230.594 11.9834 228.476 10.0236 228.22 7.51465C228.232 7.34594 228.239 7.1757 228.239 7.00391C228.239 6.83184 228.232 6.66115 228.22 6.49219C228.476 3.98349 230.595 2.02443 233.169 2.02441ZM221.264 2.02441C223.838 2.02441 225.958 3.98345 226.214 6.49219C226.202 6.66117 226.193 6.83182 226.193 7.00391C226.193 7.17506 226.202 7.34461 226.214 7.5127C225.959 10.0227 223.839 11.9834 221.264 11.9834C218.693 11.9831 216.577 10.0286 216.316 7.52441C216.329 7.35251 216.337 7.17903 216.337 7.00391C216.337 6.82852 216.329 6.65458 216.316 6.48242C216.577 3.97858 218.693 2.02467 221.264 2.02441ZM209.361 2.02441C211.932 2.02441 214.05 3.97836 214.311 6.48242C214.298 6.6546 214.288 6.82849 214.288 7.00391C214.288 7.17905 214.298 7.35249 214.311 7.52441C214.05 10.0288 211.933 11.9834 209.361 11.9834C206.826 11.9831 204.734 10.0827 204.427 7.62891C204.445 7.42295 204.456 7.21459 204.456 7.00391C204.456 6.79295 204.445 6.58415 204.427 6.37793C204.735 3.92447 206.826 2.02467 209.361 2.02441ZM197.48 2.02441C200.015 2.02441 202.107 3.92276 202.416 6.375C202.397 6.58217 202.386 6.79195 202.386 7.00391C202.386 7.21559 202.398 7.42492 202.416 7.63184C202.107 10.0844 200.015 11.9834 197.48 11.9834C194.858 11.9833 192.711 9.94989 192.521 7.37402C192.528 7.25147 192.53 7.12804 192.53 7.00391C192.53 6.8795 192.528 6.75562 192.521 6.63281C192.711 4.05723 194.858 2.02455 197.48 2.02441ZM185.555 2.02441C188.178 2.02441 190.327 4.05864 190.516 6.63574C190.509 6.75762 190.505 6.88046 190.505 7.00391C190.505 7.12676 190.509 7.24882 190.516 7.37012C190.328 9.94798 188.179 11.9834 185.555 11.9834C182.983 11.9834 180.867 10.0287 180.606 7.52441C180.619 7.35251 180.628 7.17903 180.628 7.00391C180.628 6.82851 180.619 6.65459 180.606 6.48242C180.867 3.97839 182.984 2.02443 185.555 2.02441ZM173.652 2.02441C176.224 2.02454 178.341 3.97948 178.601 6.48437C178.588 6.65591 178.579 6.82917 178.579 7.00391C178.579 7.17838 178.588 7.35118 178.601 7.52246C178.341 10.0277 176.224 11.9833 173.652 11.9834C171.081 11.9834 168.964 10.0287 168.704 7.52441C168.717 7.35251 168.725 7.17903 168.725 7.00391C168.725 6.82852 168.717 6.65458 168.704 6.48242C168.965 3.9784 171.081 2.02443 173.652 2.02441ZM161.749 2.02441C164.321 2.02441 166.439 3.97939 166.698 6.48437C166.686 6.65592 166.677 6.82916 166.677 7.00391C166.677 7.17838 166.686 7.35118 166.698 7.52246C166.439 10.0277 164.321 11.9834 161.749 11.9834C159.175 11.9831 157.057 10.0235 156.801 7.51465C156.813 7.34594 156.82 7.1757 156.82 7.00391C156.82 6.83184 156.813 6.66115 156.801 6.49219C157.057 3.98366 159.175 2.02467 161.749 2.02441ZM149.845 2.02441C152.419 2.02441 154.539 3.98345 154.795 6.49219C154.783 6.66117 154.773 6.83182 154.773 7.00391C154.773 7.17573 154.783 7.34592 154.795 7.51465C154.539 10.0237 152.419 11.9834 149.845 11.9834C147.27 11.9831 145.151 10.0224 144.896 7.5127C144.909 7.34463 144.916 7.17504 144.916 7.00391C144.916 6.83182 144.908 6.66117 144.896 6.49219C145.152 3.98361 147.27 2.02467 149.845 2.02441ZM137.94 2.02441C140.515 2.02441 142.635 3.98343 142.891 6.49219C142.878 6.66117 142.869 6.83182 142.869 7.00391C142.869 7.17573 142.878 7.34592 142.891 7.51465C142.635 10.0237 140.515 11.9834 137.94 11.9834C135.365 11.9833 133.247 10.0225 132.992 7.5127C133.004 7.34464 133.012 7.17503 133.012 7.00391C133.012 6.83183 133.003 6.66116 132.991 6.49219C133.247 3.98354 135.366 2.02455 137.94 2.02441ZM126.036 2.02441C128.611 2.02441 130.73 3.98342 130.986 6.49219C130.974 6.66118 130.965 6.83181 130.965 7.00391C130.965 7.17573 130.974 7.34592 130.986 7.51465C130.731 10.0237 128.611 11.9834 126.036 11.9834C123.465 11.9834 121.348 10.0287 121.088 7.52441C121.101 7.35251 121.109 7.17903 121.109 7.00391C121.109 6.82851 121.101 6.65459 121.088 6.48242C121.349 3.97839 123.465 2.02443 126.036 2.02441ZM114.134 2.02441C116.705 2.02454 118.822 3.97948 119.082 6.48437C119.069 6.65591 119.061 6.82917 119.061 7.00391C119.061 7.17838 119.069 7.35118 119.082 7.52246C118.823 10.0277 116.706 11.9833 114.134 11.9834C111.559 11.9834 109.44 10.0236 109.185 7.51465C109.197 7.34594 109.205 7.17571 109.205 7.00391C109.205 6.83184 109.197 6.66116 109.185 6.49219C109.441 3.98349 111.559 2.02443 114.134 2.02441ZM102.229 2.02441C104.804 2.02454 106.923 3.98354 107.179 6.49219C107.166 6.66117 107.158 6.83182 107.158 7.00391C107.158 7.17506 107.167 7.34461 107.179 7.5127C106.924 10.0226 104.805 11.9833 102.229 11.9834C99.6582 11.9834 97.5416 10.0287 97.2812 7.52441C97.2939 7.35251 97.3018 7.17903 97.3018 7.00391C97.3018 6.82852 97.294 6.65458 97.2812 6.48242C97.5419 3.9784 99.6584 2.02443 102.229 2.02441ZM90.3262 2.02441C92.898 2.02441 95.0157 3.97939 95.2754 6.48437C95.2628 6.65592 95.2539 6.82916 95.2539 7.00391C95.2539 7.17838 95.2628 7.35118 95.2754 7.52246C95.016 10.0277 92.8982 11.9834 90.3262 11.9834C87.7511 11.9831 85.6329 10.0224 85.3779 7.5127C85.39 7.34463 85.3975 7.17504 85.3975 7.00391C85.3975 6.83182 85.3892 6.66117 85.377 6.49219C85.6331 3.98361 87.7519 2.02467 90.3262 2.02441ZM78.4219 2.02441C80.9964 2.02441 83.116 3.98343 83.3721 6.49219C83.3598 6.66117 83.3506 6.83182 83.3506 7.00391C83.3506 7.17573 83.3599 7.34592 83.3721 7.51465C83.1163 10.0237 80.9966 11.9834 78.4219 11.9834C75.8467 11.9833 73.7286 10.0225 73.4736 7.5127C73.4857 7.34464 73.4932 7.17503 73.4932 7.00391C73.4932 6.83183 73.4849 6.66116 73.4727 6.49219C73.7288 3.98354 75.8475 2.02455 78.4219 2.02441ZM66.5176 2.02441C69.0921 2.02441 71.2117 3.98342 71.4678 6.49219C71.4555 6.66118 71.4463 6.83181 71.4463 7.00391C71.4463 7.17573 71.4556 7.34592 71.4678 7.51465C71.212 10.0237 69.0923 11.9834 66.5176 11.9834C63.9463 11.9834 61.8297 10.0287 61.5693 7.52441C61.582 7.3525 61.5908 7.17904 61.5908 7.00391C61.5908 6.82752 61.5822 6.65262 61.5693 6.47949C61.8313 3.97685 63.9474 2.02443 66.5176 2.02441ZM54.6152 2.02441C57.1854 2.02441 59.3026 3.9768 59.5645 6.47949C59.5516 6.65264 59.542 6.82749 59.542 7.00391C59.542 7.17904 59.5508 7.3525 59.5635 7.52441C59.3031 10.0287 57.1866 11.9834 54.6152 11.9834C52.0802 11.9834 49.9887 10.0833 49.6807 7.62988C49.699 7.42362 49.71 7.21491 49.71 7.00391C49.71 6.79264 49.6991 6.58347 49.6807 6.37695C49.989 3.92383 52.0804 2.02443 54.6152 2.02441ZM42.7344 2.02441C45.2685 2.02454 47.3598 3.92287 47.6689 6.375C47.6504 6.58216 47.6396 6.79197 47.6396 7.00391C47.6396 7.21461 47.6516 7.42292 47.6699 7.62891C47.3624 10.0828 45.2697 11.9833 42.7344 11.9834C39.9874 11.9834 37.7589 9.7526 37.7588 7.00391C37.7588 4.25513 39.9873 2.02443 42.7344 2.02441ZM30.7822 2.02441C33.5293 2.02441 35.7578 4.25513 35.7578 7.00391C35.7577 9.75261 33.5292 11.9834 30.7822 11.9834C28.2072 11.9831 26.089 10.0224 25.834 7.5127C25.8461 7.34463 25.8535 7.17504 25.8535 7.00391C25.8535 6.83182 25.8452 6.66117 25.833 6.49219C26.0891 3.98361 28.208 2.02467 30.7822 2.02441ZM18.8779 2.02441C21.4524 2.02441 23.572 3.98343 23.8281 6.49219C23.8159 6.66117 23.8066 6.83182 23.8066 7.00391C23.8066 7.17573 23.8159 7.34592 23.8281 7.51465C23.5723 10.0237 21.4526 11.9834 18.8779 11.9834C16.3061 11.9833 14.1902 10.0276 13.9307 7.52246C13.9433 7.35121 13.9512 7.17835 13.9512 7.00391C13.9512 6.82919 13.9433 6.65589 13.9307 6.48437C14.1904 3.97953 16.3063 2.02455 18.8779 2.02441ZM6.97559 2.02441C9.54675 2.02441 11.6642 3.97834 11.9248 6.48242C11.9121 6.65461 11.9023 6.82849 11.9023 7.00391C11.9023 7.17906 11.9121 7.35248 11.9248 7.52441C11.6645 10.0288 9.54694 11.9834 6.97559 11.9834C4.22858 11.9834 2.00009 9.7526 2 7.00391C2 4.25513 4.22855 2.02443 6.97559 2.02441ZM495.024 2C497.771 2 500 4.23085 500 6.97949C500 9.72828 497.771 11.959 495.024 11.959C492.493 11.959 490.403 10.0647 490.091 7.61621C490.108 7.41438 490.119 7.21026 490.119 7.00391C490.119 6.78698 490.108 6.57226 490.089 6.36035C490.394 3.90369 492.487 2.00001 495.024 2Z" fill="black"/>
</svg>
