<svg width="502" height="38" viewBox="0 0 502 38" fill="none" xmlns="http://www.w3.org/2000/svg">
<path d="M480.215 18.7324L501 18.7324M480.215 18.7324L490.608 0.732361L501 18.7324M480.215 18.7324L490.608 36.7324L501 18.7324M501 18.7324V27.7324M501 18.7324V9.73236M459.37 18.7324H480.154M459.37 18.7324L469.762 0.732361L480.154 18.7324M459.37 18.7324L469.762 36.7324L480.154 18.7324M438.537 18.7324L459.321 18.7324M438.537 18.7324L448.929 0.732361L459.321 18.7324M438.537 18.7324L448.929 36.7324L459.321 18.7324M417.703 18.7324L438.488 18.7324M417.703 18.7324L428.096 0.732361L438.488 18.7324M417.703 18.7324L428.096 36.7324L438.488 18.7324M396.87 18.7324L417.654 18.7324M396.87 18.7324L407.262 0.732361L417.654 18.7324M396.87 18.7324L407.262 36.7324L417.654 18.7324M376.037 18.7324H396.821M376.037 18.7324L386.429 0.732361L396.821 18.7324M376.037 18.7324L386.429 36.7324L396.821 18.7324M355.203 18.7324L375.988 18.7324M355.203 18.7324L365.596 0.732361L375.988 18.7324M355.203 18.7324L365.596 36.7324L375.988 18.7324M334.37 18.7324L355.155 18.7324M334.37 18.7324L344.762 0.732361L355.155 18.7324M334.37 18.7324L344.762 36.7324L355.155 18.7324M313.537 18.7324H334.321M313.537 18.7324L323.929 0.732361L334.321 18.7324M313.537 18.7324L323.929 36.7324L334.321 18.7324M292.704 18.7324L313.488 18.7324M292.704 18.7324L303.096 0.732361L313.488 18.7324M292.704 18.7324L303.096 36.7324L313.488 18.7324M271.87 18.7324L292.655 18.7324M271.87 18.7324L282.263 0.732361L292.655 18.7324M271.87 18.7324L282.263 36.7324L292.655 18.7324M251 18.7324L271.785 18.7324M251 18.7324L261.392 0.732361L271.785 18.7324M251 18.7324L261.392 36.7324L271.785 18.7324M251 18.7324H230.215M251 18.7324L240.608 0.732361L230.215 18.7324M251 18.7324L240.608 36.7324L230.215 18.7324M501 0.732361L480.215 0.732361L490.608 18.7324M501 0.732361L490.608 18.7324M501 0.732361V9.73236M490.608 18.7324L501 36.7324M490.608 18.7324L480.215 36.7324H501M469.762 18.7324L480.154 0.732361L459.37 0.732361L469.762 18.7324ZM469.762 18.7324L480.154 36.7324L459.37 36.7324L469.762 18.7324ZM448.929 18.7324L459.321 0.732361L438.537 0.732361L448.929 18.7324ZM448.929 18.7324L459.321 36.7324H438.537L448.929 18.7324ZM428.096 18.7324L438.488 0.732361L417.703 0.732361L428.096 18.7324ZM428.096 18.7324L438.488 36.7324H417.703L428.096 18.7324ZM407.262 18.7324L417.654 0.732361L396.87 0.732361L407.262 18.7324ZM407.262 18.7324L417.654 36.7324L396.87 36.7324L407.262 18.7324ZM386.429 18.7324L396.821 0.732361L376.037 0.732361L386.429 18.7324ZM386.429 18.7324L396.821 36.7324H376.037L386.429 18.7324ZM365.596 18.7324L375.988 0.732361L355.203 0.732361L365.596 18.7324ZM365.596 18.7324L375.988 36.7324L355.203 36.7324L365.596 18.7324ZM344.762 18.7324L355.155 0.732361L334.37 0.732361L344.762 18.7324ZM344.762 18.7324L355.155 36.7324H334.37L344.762 18.7324ZM323.929 18.7324L334.321 0.732361L313.537 0.732361L323.929 18.7324ZM323.929 18.7324L334.321 36.7324H313.537L323.929 18.7324ZM303.096 18.7324L313.488 0.732361L292.704 0.732361L303.096 18.7324ZM303.096 18.7324L313.488 36.7324L292.704 36.7324L303.096 18.7324ZM282.263 18.7324L292.655 0.732361L271.87 0.732361L282.263 18.7324ZM282.263 18.7324L292.655 36.7324H271.87L282.263 18.7324ZM251 0.732361L271.785 0.732361L261.392 18.7324M251 0.732361L261.392 18.7324M251 0.732361L230.215 0.732361L240.608 18.7324M251 0.732361L240.608 18.7324M261.392 18.7324L271.785 36.7324H251M261.392 18.7324L251 36.7324M501 36.7324V27.7324M251 36.7324L230.215 36.7324L240.608 18.7324M251 36.7324L240.608 18.7324M501 27.7324L1 27.7324M209.37 18.7324L230.154 18.7324M209.37 18.7324L219.762 0.732361L230.154 18.7324M209.37 18.7324L219.762 36.7324L230.154 18.7324M188.537 18.7324L209.321 18.7324M188.537 18.7324L198.929 0.732361L209.321 18.7324M188.537 18.7324L198.929 36.7324L209.321 18.7324M167.703 18.7324H188.488M167.703 18.7324L178.096 0.732361L188.488 18.7324M167.703 18.7324L178.096 36.7324L188.488 18.7324M146.87 18.7324L167.654 18.7324M146.87 18.7324L157.262 0.732361L167.654 18.7324M146.87 18.7324L157.262 36.7324L167.654 18.7324M126.037 18.7324L146.821 18.7324M126.037 18.7324L136.429 0.732361L146.821 18.7324M126.037 18.7324L136.429 36.7324L146.821 18.7324M105.203 18.7324L125.988 18.7324M105.203 18.7324L115.596 0.732361L125.988 18.7324M105.203 18.7324L115.596 36.7324L125.988 18.7324M84.3701 18.7324H105.155M84.3701 18.7324L94.7622 0.732361L105.155 18.7324M84.3701 18.7324L94.7622 36.7324L105.155 18.7324M63.5366 18.7324L84.3213 18.7324M63.5366 18.7324L73.9292 0.732361L84.3213 18.7324M63.5366 18.7324L73.9292 36.7324L84.3213 18.7324M42.7036 18.7324L63.4883 18.7324M42.7036 18.7324L53.0957 0.732361L63.4883 18.7324M42.7036 18.7324L53.0957 36.7324L63.4883 18.7324M21.8701 18.7324L42.6548 18.7324M21.8701 18.7324L32.2627 0.732361L42.6548 18.7324M21.8701 18.7324L32.2627 36.7324L42.6548 18.7324M1 18.7324H21.7847M1 18.7324L11.3921 0.732361L21.7847 18.7324M1 18.7324V9.73236M1 18.7324L11.3921 36.7324L21.7847 18.7324M1 18.7324V27.7324M219.762 18.7324L230.154 0.732361L209.37 0.732361L219.762 18.7324ZM219.762 18.7324L230.154 36.7324H209.37L219.762 18.7324ZM198.929 18.7324L209.321 0.732361L188.537 0.732361L198.929 18.7324ZM198.929 18.7324L209.321 36.7324H188.537L198.929 18.7324ZM178.096 18.7324L188.488 0.732361L167.703 0.732361L178.096 18.7324ZM178.096 18.7324L188.488 36.7324L167.703 36.7324L178.096 18.7324ZM157.262 18.7324L167.654 0.732361L146.87 0.732361L157.262 18.7324ZM157.262 18.7324L167.654 36.7324H146.87L157.262 18.7324ZM136.429 18.7324L146.821 0.732361L126.037 0.732361L136.429 18.7324ZM136.429 18.7324L146.821 36.7324H126.037L136.429 18.7324ZM115.596 18.7324L125.988 0.732361L105.203 0.732361L115.596 18.7324ZM115.596 18.7324L125.988 36.7324L105.203 36.7324L115.596 18.7324ZM94.7622 18.7324L105.155 0.732361L84.3701 0.732361L94.7622 18.7324ZM94.7622 18.7324L105.155 36.7324H84.3701L94.7622 18.7324ZM73.9292 18.7324L84.3213 0.732361L63.5366 0.732361L73.9292 18.7324ZM73.9292 18.7324L84.3213 36.7324L63.5366 36.7324L73.9292 18.7324ZM53.0957 18.7324L63.4883 0.732361L42.7036 0.732361L53.0957 18.7324ZM53.0957 18.7324L63.4883 36.7324H42.7036L53.0957 18.7324ZM32.2627 18.7324L42.6548 0.732361L21.8701 0.732361L32.2627 18.7324ZM32.2627 18.7324L42.6548 36.7324H21.8701L32.2627 18.7324ZM1 0.732361L21.7847 0.732361L11.3921 18.7324M1 0.732361L11.3921 18.7324M1 0.732361V9.73236M11.3921 18.7324L21.7847 36.7324L1 36.7324M11.3921 18.7324L1 36.7324M1 9.73236L501 9.73236M1 36.7324V27.7324" stroke="black" stroke-linejoin="bevel"/>
</svg>
