<svg width="500" height="36" viewBox="0 0 500 36" fill="none" xmlns="http://www.w3.org/2000/svg">
<g clip-path="url(#clip0_1593_9994)">
<path d="M305 22C302.791 22 301 20.2091 301 18C301 15.7909 302.791 14 305 14C307.209 14 309 15.7909 309 18C309 20.2091 307.209 22 305 22Z" fill="black"/>
<path d="M315 22C312.791 22 311 20.2091 311 18C311 15.7909 312.791 14 315 14C317.209 14 319 15.7909 319 18C319 20.2091 317.209 22 315 22Z" fill="black"/>
<path d="M325 22C322.791 22 321 20.2091 321 18C321 15.7909 322.791 14 325 14C327.209 14 329 15.7909 329 18C329 20.2091 327.209 22 325 22Z" fill="black"/>
<path d="M335 22C332.791 22 331 20.2091 331 18C331 15.7909 332.791 14 335 14C337.209 14 339 15.7909 339 18C339 20.2091 337.209 22 335 22Z" fill="black"/>
<path d="M345 22C342.791 22 341 20.2091 341 18C341 15.7909 342.791 14 345 14C347.209 14 349 15.7909 349 18C349 20.2091 347.209 22 345 22Z" fill="black"/>
<path d="M355 22C352.791 22 351 20.2091 351 18C351 15.7909 352.791 14 355 14C357.209 14 359 15.7909 359 18C359 20.2091 357.209 22 355 22Z" fill="black"/>
<path d="M365 22C362.791 22 361 20.2091 361 18C361 15.7909 362.791 14 365 14C367.209 14 369 15.7909 369 18C369 20.2091 367.209 22 365 22Z" fill="black"/>
<path d="M375 22C372.791 22 371 20.2091 371 18C371 15.7909 372.791 14 375 14C377.209 14 379 15.7909 379 18C379 20.2091 377.209 22 375 22Z" fill="black"/>
<path d="M385 22C382.791 22 381 20.2091 381 18C381 15.7909 382.791 14 385 14C387.209 14 389 15.7909 389 18C389 20.2091 387.209 22 385 22Z" fill="black"/>
<path d="M395 22C392.791 22 391 20.2091 391 18C391 15.7909 392.791 14 395 14C397.209 14 399 15.7909 399 18C399 20.2091 397.209 22 395 22Z" fill="black"/>
<path d="M305 38C302.791 38 301 36.2091 301 34C301 31.7909 302.791 30 305 30C307.209 30 309 31.7909 309 34C309 36.2091 307.209 38 305 38Z" fill="black"/>
<path d="M315 38C312.791 38 311 36.2091 311 34C311 31.7909 312.791 30 315 30C317.209 30 319 31.7909 319 34C319 36.2091 317.209 38 315 38Z" fill="black"/>
<path d="M325 38C322.791 38 321 36.2091 321 34C321 31.7909 322.791 30 325 30C327.209 30 329 31.7909 329 34C329 36.2091 327.209 38 325 38Z" fill="black"/>
<path d="M335 38C332.791 38 331 36.2091 331 34C331 31.7909 332.791 30 335 30C337.209 30 339 31.7909 339 34C339 36.2091 337.209 38 335 38Z" fill="black"/>
<path d="M345 38C342.791 38 341 36.2091 341 34C341 31.7909 342.791 30 345 30C347.209 30 349 31.7909 349 34C349 36.2091 347.209 38 345 38Z" fill="black"/>
<path d="M355 38C352.791 38 351 36.2091 351 34C351 31.7909 352.791 30 355 30C357.209 30 359 31.7909 359 34C359 36.2091 357.209 38 355 38Z" fill="black"/>
<path d="M365 38C362.791 38 361 36.2091 361 34C361 31.7909 362.791 30 365 30C367.209 30 369 31.7909 369 34C369 36.2091 367.209 38 365 38Z" fill="black"/>
<path d="M375 38C372.791 38 371 36.2091 371 34C371 31.7909 372.791 30 375 30C377.209 30 379 31.7909 379 34C379 36.2091 377.209 38 375 38Z" fill="black"/>
<path d="M385 38C382.791 38 381 36.2091 381 34C381 31.7909 382.791 30 385 30C387.209 30 389 31.7909 389 34C389 36.2091 387.209 38 385 38Z" fill="black"/>
<path d="M395 38C392.791 38 391 36.2091 391 34C391 31.7909 392.791 30 395 30C397.209 30 399 31.7909 399 34C399 36.2091 397.209 38 395 38Z" fill="black"/>
<path d="M305 6C302.791 6 301 4.20914 301 2C301 -0.209139 302.791 -2 305 -2C307.209 -2 309 -0.209139 309 2C309 4.20914 307.209 6 305 6Z" fill="black"/>
<path d="M315 6C312.791 6 311 4.20914 311 2C311 -0.209139 312.791 -2 315 -2C317.209 -2 319 -0.209139 319 2C319 4.20914 317.209 6 315 6Z" fill="black"/>
<path d="M325 6C322.791 6 321 4.20914 321 2C321 -0.209139 322.791 -2 325 -2C327.209 -2 329 -0.209139 329 2C329 4.20914 327.209 6 325 6Z" fill="black"/>
<path d="M335 6C332.791 6 331 4.20914 331 2C331 -0.209139 332.791 -2 335 -2C337.209 -2 339 -0.209139 339 2C339 4.20914 337.209 6 335 6Z" fill="black"/>
<path d="M345 6C342.791 6 341 4.20914 341 2C341 -0.209139 342.791 -2 345 -2C347.209 -2 349 -0.209139 349 2C349 4.20914 347.209 6 345 6Z" fill="black"/>
<path d="M355 6C352.791 6 351 4.20914 351 2C351 -0.209139 352.791 -2 355 -2C357.209 -2 359 -0.209139 359 2C359 4.20914 357.209 6 355 6Z" fill="black"/>
<path d="M365 6C362.791 6 361 4.20914 361 2C361 -0.209139 362.791 -2 365 -2C367.209 -2 369 -0.209139 369 2C369 4.20914 367.209 6 365 6Z" fill="black"/>
<path d="M375 6C372.791 6 371 4.20914 371 2C371 -0.209139 372.791 -2 375 -2C377.209 -2 379 -0.209139 379 2C379 4.20914 377.209 6 375 6Z" fill="black"/>
<path d="M385 6C382.791 6 381 4.20914 381 2C381 -0.209139 382.791 -2 385 -2C387.209 -2 389 -0.209139 389 2C389 4.20914 387.209 6 385 6Z" fill="black"/>
<path d="M395 6C392.791 6 391 4.20914 391 2C391 -0.209139 392.791 -2 395 -2C397.209 -2 399 -0.209139 399 2C399 4.20914 397.209 6 395 6Z" fill="black"/>
<path d="M300 13C298.343 13 297 11.6569 297 10C297 8.34315 298.343 7 300 7C301.657 7 303 8.34315 303 10C303 11.6569 301.657 13 300 13Z" fill="black"/>
<path d="M310 14C307.791 14 306 12.2091 306 10C306 7.79086 307.791 6 310 6C312.209 6 314 7.79086 314 10C314 12.2091 312.209 14 310 14Z" fill="black"/>
<path d="M320 14C317.791 14 316 12.2091 316 10C316 7.79086 317.791 6 320 6C322.209 6 324 7.79086 324 10C324 12.2091 322.209 14 320 14Z" fill="black"/>
<path d="M330 14C327.791 14 326 12.2091 326 10C326 7.79086 327.791 6 330 6C332.209 6 334 7.79086 334 10C334 12.2091 332.209 14 330 14Z" fill="black"/>
<path d="M340 14C337.791 14 336 12.2091 336 10C336 7.79086 337.791 6 340 6C342.209 6 344 7.79086 344 10C344 12.2091 342.209 14 340 14Z" fill="black"/>
<path d="M350 14C347.791 14 346 12.2091 346 10C346 7.79086 347.791 6 350 6C352.209 6 354 7.79086 354 10C354 12.2091 352.209 14 350 14Z" fill="black"/>
<path d="M360 14C357.791 14 356 12.2091 356 10C356 7.79086 357.791 6 360 6C362.209 6 364 7.79086 364 10C364 12.2091 362.209 14 360 14Z" fill="black"/>
<path d="M370 14C367.791 14 366 12.2091 366 10C366 7.79086 367.791 6 370 6C372.209 6 374 7.79086 374 10C374 12.2091 372.209 14 370 14Z" fill="black"/>
<path d="M380 14C377.791 14 376 12.2091 376 10C376 7.79086 377.791 6 380 6C382.209 6 384 7.79086 384 10C384 12.2091 382.209 14 380 14Z" fill="black"/>
<path d="M390 14C387.791 14 386 12.2091 386 10C386 7.79086 387.791 6 390 6C392.209 6 394 7.79086 394 10C394 12.2091 392.209 14 390 14Z" fill="black"/>
<path d="M400 14C397.791 14 396 12.2091 396 10C396 7.79086 397.791 6 400 6C402.209 6 404 7.79086 404 10C404 12.2091 402.209 14 400 14Z" fill="black"/>
<path d="M300 29C298.343 29 297 27.6569 297 26C297 24.3431 298.343 23 300 23C301.657 23 303 24.3431 303 26C303 27.6569 301.657 29 300 29Z" fill="black"/>
<path d="M310 30C307.791 30 306 28.2091 306 26C306 23.7909 307.791 22 310 22C312.209 22 314 23.7909 314 26C314 28.2091 312.209 30 310 30Z" fill="black"/>
<path d="M320 30C317.791 30 316 28.2091 316 26C316 23.7909 317.791 22 320 22C322.209 22 324 23.7909 324 26C324 28.2091 322.209 30 320 30Z" fill="black"/>
<path d="M330 30C327.791 30 326 28.2091 326 26C326 23.7909 327.791 22 330 22C332.209 22 334 23.7909 334 26C334 28.2091 332.209 30 330 30Z" fill="black"/>
<path d="M340 30C337.791 30 336 28.2091 336 26C336 23.7909 337.791 22 340 22C342.209 22 344 23.7909 344 26C344 28.2091 342.209 30 340 30Z" fill="black"/>
<path d="M350 30C347.791 30 346 28.2091 346 26C346 23.7909 347.791 22 350 22C352.209 22 354 23.7909 354 26C354 28.2091 352.209 30 350 30Z" fill="black"/>
<path d="M360 30C357.791 30 356 28.2091 356 26C356 23.7909 357.791 22 360 22C362.209 22 364 23.7909 364 26C364 28.2091 362.209 30 360 30Z" fill="black"/>
<path d="M370 30C367.791 30 366 28.2091 366 26C366 23.7909 367.791 22 370 22C372.209 22 374 23.7909 374 26C374 28.2091 372.209 30 370 30Z" fill="black"/>
<path d="M380 30C377.791 30 376 28.2091 376 26C376 23.7909 377.791 22 380 22C382.209 22 384 23.7909 384 26C384 28.2091 382.209 30 380 30Z" fill="black"/>
<path d="M390 30C387.791 30 386 28.2091 386 26C386 23.7909 387.791 22 390 22C392.209 22 394 23.7909 394 26C394 28.2091 392.209 30 390 30Z" fill="black"/>
<path d="M400 30C397.791 30 396 28.2091 396 26C396 23.7909 397.791 22 400 22C402.209 22 404 23.7909 404 26C404 28.2091 402.209 30 400 30Z" fill="black"/>
<path d="M406 23C403.239 23 401 20.7614 401 18C401 15.2386 403.239 13 406 13C408.761 13 411 15.2386 411 18C411 20.7614 408.761 23 406 23Z" fill="black"/>
<path d="M416 23C413.239 23 411 20.7614 411 18C411 15.2386 413.239 13 416 13C418.761 13 421 15.2386 421 18C421 20.7614 418.761 23 416 23Z" fill="black"/>
<path d="M426 23C423.239 23 421 20.7614 421 18C421 15.2386 423.239 13 426 13C428.761 13 431 15.2386 431 18C431 20.7614 428.761 23 426 23Z" fill="black"/>
<path d="M436 23C433.239 23 431 20.7614 431 18C431 15.2386 433.239 13 436 13C438.761 13 441 15.2386 441 18C441 20.7614 438.761 23 436 23Z" fill="black"/>
<path d="M446 23C443.239 23 441 20.7614 441 18C441 15.2386 443.239 13 446 13C448.761 13 451 15.2386 451 18C451 20.7614 448.761 23 446 23Z" fill="black"/>
<path d="M456 23C453.239 23 451 20.7614 451 18C451 15.2386 453.239 13 456 13C458.761 13 461 15.2386 461 18C461 20.7614 458.761 23 456 23Z" fill="black"/>
<path d="M466 23C463.239 23 461 20.7614 461 18C461 15.2386 463.239 13 466 13C468.761 13 471 15.2386 471 18C471 20.7614 468.761 23 466 23Z" fill="black"/>
<path d="M476 23C473.239 23 471 20.7614 471 18C471 15.2386 473.239 13 476 13C478.761 13 481 15.2386 481 18C481 20.7614 478.761 23 476 23Z" fill="black"/>
<path d="M486 23C483.239 23 481 20.7614 481 18C481 15.2386 483.239 13 486 13C488.761 13 491 15.2386 491 18C491 20.7614 488.761 23 486 23Z" fill="black"/>
<path d="M496 23C493.239 23 491 20.7614 491 18C491 15.2386 493.239 13 496 13C498.761 13 501 15.2386 501 18C501 20.7614 498.761 23 496 23Z" fill="black"/>
<path d="M406 39C403.239 39 401 36.7614 401 34C401 31.2386 403.239 29 406 29C408.761 29 411 31.2386 411 34C411 36.7614 408.761 39 406 39Z" fill="black"/>
<path d="M416 39C413.239 39 411 36.7614 411 34C411 31.2386 413.239 29 416 29C418.761 29 421 31.2386 421 34C421 36.7614 418.761 39 416 39Z" fill="black"/>
<path d="M426 39C423.239 39 421 36.7614 421 34C421 31.2386 423.239 29 426 29C428.761 29 431 31.2386 431 34C431 36.7614 428.761 39 426 39Z" fill="black"/>
<path d="M436 39C433.239 39 431 36.7614 431 34C431 31.2386 433.239 29 436 29C438.761 29 441 31.2386 441 34C441 36.7614 438.761 39 436 39Z" fill="black"/>
<path d="M446 39C443.239 39 441 36.7614 441 34C441 31.2386 443.239 29 446 29C448.761 29 451 31.2386 451 34C451 36.7614 448.761 39 446 39Z" fill="black"/>
<path d="M456 39C453.239 39 451 36.7614 451 34C451 31.2386 453.239 29 456 29C458.761 29 461 31.2386 461 34C461 36.7614 458.761 39 456 39Z" fill="black"/>
<path d="M466 39C463.239 39 461 36.7614 461 34C461 31.2386 463.239 29 466 29C468.761 29 471 31.2386 471 34C471 36.7614 468.761 39 466 39Z" fill="black"/>
<path d="M476 39C473.239 39 471 36.7614 471 34C471 31.2386 473.239 29 476 29C478.761 29 481 31.2386 481 34C481 36.7614 478.761 39 476 39Z" fill="black"/>
<path d="M486 39C483.239 39 481 36.7614 481 34C481 31.2386 483.239 29 486 29C488.761 29 491 31.2386 491 34C491 36.7614 488.761 39 486 39Z" fill="black"/>
<path d="M496 39C493.239 39 491 36.7614 491 34C491 31.2386 493.239 29 496 29C498.761 29 501 31.2386 501 34C501 36.7614 498.761 39 496 39Z" fill="black"/>
<path d="M406 7C403.239 7 401 4.76142 401 2C401 -0.761424 403.239 -3 406 -3C408.761 -3 411 -0.761424 411 2C411 4.76142 408.761 7 406 7Z" fill="black"/>
<path d="M416 7C413.239 7 411 4.76142 411 2C411 -0.761424 413.239 -3 416 -3C418.761 -3 421 -0.761424 421 2C421 4.76142 418.761 7 416 7Z" fill="black"/>
<path d="M426 7C423.239 7 421 4.76142 421 2C421 -0.761424 423.239 -3 426 -3C428.761 -3 431 -0.761424 431 2C431 4.76142 428.761 7 426 7Z" fill="black"/>
<path d="M436 7C433.239 7 431 4.76142 431 2C431 -0.761424 433.239 -3 436 -3C438.761 -3 441 -0.761424 441 2C441 4.76142 438.761 7 436 7Z" fill="black"/>
<path d="M446 7C443.239 7 441 4.76142 441 2C441 -0.761424 443.239 -3 446 -3C448.761 -3 451 -0.761424 451 2C451 4.76142 448.761 7 446 7Z" fill="black"/>
<path d="M456 7C453.239 7 451 4.76142 451 2C451 -0.761424 453.239 -3 456 -3C458.761 -3 461 -0.761424 461 2C461 4.76142 458.761 7 456 7Z" fill="black"/>
<path d="M466 7C463.239 7 461 4.76142 461 2C461 -0.761424 463.239 -3 466 -3C468.761 -3 471 -0.761424 471 2C471 4.76142 468.761 7 466 7Z" fill="black"/>
<path d="M476 7C473.239 7 471 4.76142 471 2C471 -0.761424 473.239 -3 476 -3C478.761 -3 481 -0.761424 481 2C481 4.76142 478.761 7 476 7Z" fill="black"/>
<path d="M486 7C483.239 7 481 4.76142 481 2C481 -0.761424 483.239 -3 486 -3C488.761 -3 491 -0.761424 491 2C491 4.76142 488.761 7 486 7Z" fill="black"/>
<path d="M496 7C493.239 7 491 4.76142 491 2C491 -0.761424 493.239 -3 496 -3C498.761 -3 501 -0.761424 501 2C501 4.76142 498.761 7 496 7Z" fill="black"/>
<path d="M400 14C397.791 14 396 12.2091 396 10C396 7.79086 397.791 6 400 6C402.209 6 404 7.79086 404 10C404 12.2091 402.209 14 400 14Z" fill="black"/>
<path d="M411 15C408.239 15 406 12.7614 406 10C406 7.23858 408.239 5 411 5C413.761 5 416 7.23858 416 10C416 12.7614 413.761 15 411 15Z" fill="black"/>
<path d="M421 15C418.239 15 416 12.7614 416 10C416 7.23858 418.239 5 421 5C423.761 5 426 7.23858 426 10C426 12.7614 423.761 15 421 15Z" fill="black"/>
<path d="M431 15C428.239 15 426 12.7614 426 10C426 7.23858 428.239 5 431 5C433.761 5 436 7.23858 436 10C436 12.7614 433.761 15 431 15Z" fill="black"/>
<path d="M441 15C438.239 15 436 12.7614 436 10C436 7.23858 438.239 5 441 5C443.761 5 446 7.23858 446 10C446 12.7614 443.761 15 441 15Z" fill="black"/>
<path d="M451 15C448.239 15 446 12.7614 446 10C446 7.23858 448.239 5 451 5C453.761 5 456 7.23858 456 10C456 12.7614 453.761 15 451 15Z" fill="black"/>
<path d="M461 15C458.239 15 456 12.7614 456 10C456 7.23858 458.239 5 461 5C463.761 5 466 7.23858 466 10C466 12.7614 463.761 15 461 15Z" fill="black"/>
<path d="M471 15C468.239 15 466 12.7614 466 10C466 7.23858 468.239 5 471 5C473.761 5 476 7.23858 476 10C476 12.7614 473.761 15 471 15Z" fill="black"/>
<path d="M481 15C478.239 15 476 12.7614 476 10C476 7.23858 478.239 5 481 5C483.761 5 486 7.23858 486 10C486 12.7614 483.761 15 481 15Z" fill="black"/>
<path d="M491 15C488.239 15 486 12.7614 486 10C486 7.23858 488.239 5 491 5C493.761 5 496 7.23858 496 10C496 12.7614 493.761 15 491 15Z" fill="black"/>
<path d="M501 15C498.239 15 496 12.7614 496 10C496 7.23858 498.239 5 501 5C503.761 5 506 7.23858 506 10C506 12.7614 503.761 15 501 15Z" fill="black"/>
<path d="M400 30C397.791 30 396 28.2091 396 26C396 23.7909 397.791 22 400 22C402.209 22 404 23.7909 404 26C404 28.2091 402.209 30 400 30Z" fill="black"/>
<path d="M411 31C408.239 31 406 28.7614 406 26C406 23.2386 408.239 21 411 21C413.761 21 416 23.2386 416 26C416 28.7614 413.761 31 411 31Z" fill="black"/>
<path d="M421 31C418.239 31 416 28.7614 416 26C416 23.2386 418.239 21 421 21C423.761 21 426 23.2386 426 26C426 28.7614 423.761 31 421 31Z" fill="black"/>
<path d="M431 31C428.239 31 426 28.7614 426 26C426 23.2386 428.239 21 431 21C433.761 21 436 23.2386 436 26C436 28.7614 433.761 31 431 31Z" fill="black"/>
<path d="M441 31C438.239 31 436 28.7614 436 26C436 23.2386 438.239 21 441 21C443.761 21 446 23.2386 446 26C446 28.7614 443.761 31 441 31Z" fill="black"/>
<path d="M451 31C448.239 31 446 28.7614 446 26C446 23.2386 448.239 21 451 21C453.761 21 456 23.2386 456 26C456 28.7614 453.761 31 451 31Z" fill="black"/>
<path d="M461 31C458.239 31 456 28.7614 456 26C456 23.2386 458.239 21 461 21C463.761 21 466 23.2386 466 26C466 28.7614 463.761 31 461 31Z" fill="black"/>
<path d="M471 31C468.239 31 466 28.7614 466 26C466 23.2386 468.239 21 471 21C473.761 21 476 23.2386 476 26C476 28.7614 473.761 31 471 31Z" fill="black"/>
<path d="M481 31C478.239 31 476 28.7614 476 26C476 23.2386 478.239 21 481 21C483.761 21 486 23.2386 486 26C486 28.7614 483.761 31 481 31Z" fill="black"/>
<path d="M491 31C488.239 31 486 28.7614 486 26C486 23.2386 488.239 21 491 21C493.761 21 496 23.2386 496 26C496 28.7614 493.761 31 491 31Z" fill="black"/>
<path d="M501 31C498.239 31 496 28.7614 496 26C496 23.2386 498.239 21 501 21C503.761 21 506 23.2386 506 26C506 28.7614 503.761 31 501 31Z" fill="black"/>
<path d="M205 21C203.343 21 202 19.6569 202 18C202 16.3431 203.343 15 205 15C206.657 15 208 16.3431 208 18C208 19.6569 206.657 21 205 21Z" fill="black"/>
<path d="M215 21C213.343 21 212 19.6569 212 18C212 16.3431 213.343 15 215 15C216.657 15 218 16.3431 218 18C218 19.6569 216.657 21 215 21Z" fill="black"/>
<path d="M225 21C223.343 21 222 19.6569 222 18C222 16.3431 223.343 15 225 15C226.657 15 228 16.3431 228 18C228 19.6569 226.657 21 225 21Z" fill="black"/>
<path d="M235 21C233.343 21 232 19.6569 232 18C232 16.3431 233.343 15 235 15C236.657 15 238 16.3431 238 18C238 19.6569 236.657 21 235 21Z" fill="black"/>
<path d="M245 21C243.343 21 242 19.6569 242 18C242 16.3431 243.343 15 245 15C246.657 15 248 16.3431 248 18C248 19.6569 246.657 21 245 21Z" fill="black"/>
<path d="M255 21C253.343 21 252 19.6569 252 18C252 16.3431 253.343 15 255 15C256.657 15 258 16.3431 258 18C258 19.6569 256.657 21 255 21Z" fill="black"/>
<path d="M265 21C263.343 21 262 19.6569 262 18C262 16.3431 263.343 15 265 15C266.657 15 268 16.3431 268 18C268 19.6569 266.657 21 265 21Z" fill="black"/>
<path d="M275 21C273.343 21 272 19.6569 272 18C272 16.3431 273.343 15 275 15C276.657 15 278 16.3431 278 18C278 19.6569 276.657 21 275 21Z" fill="black"/>
<path d="M285 21C283.343 21 282 19.6569 282 18C282 16.3431 283.343 15 285 15C286.657 15 288 16.3431 288 18C288 19.6569 286.657 21 285 21Z" fill="black"/>
<path d="M295 21C293.343 21 292 19.6569 292 18C292 16.3431 293.343 15 295 15C296.657 15 298 16.3431 298 18C298 19.6569 296.657 21 295 21Z" fill="black"/>
<path d="M205 37C203.343 37 202 35.6569 202 34C202 32.3431 203.343 31 205 31C206.657 31 208 32.3431 208 34C208 35.6569 206.657 37 205 37Z" fill="black"/>
<path d="M215 37C213.343 37 212 35.6569 212 34C212 32.3431 213.343 31 215 31C216.657 31 218 32.3431 218 34C218 35.6569 216.657 37 215 37Z" fill="black"/>
<path d="M225 37C223.343 37 222 35.6569 222 34C222 32.3431 223.343 31 225 31C226.657 31 228 32.3431 228 34C228 35.6569 226.657 37 225 37Z" fill="black"/>
<path d="M235 37C233.343 37 232 35.6569 232 34C232 32.3431 233.343 31 235 31C236.657 31 238 32.3431 238 34C238 35.6569 236.657 37 235 37Z" fill="black"/>
<path d="M245 37C243.343 37 242 35.6569 242 34C242 32.3431 243.343 31 245 31C246.657 31 248 32.3431 248 34C248 35.6569 246.657 37 245 37Z" fill="black"/>
<path d="M255 37C253.343 37 252 35.6569 252 34C252 32.3431 253.343 31 255 31C256.657 31 258 32.3431 258 34C258 35.6569 256.657 37 255 37Z" fill="black"/>
<path d="M265 37C263.343 37 262 35.6569 262 34C262 32.3431 263.343 31 265 31C266.657 31 268 32.3431 268 34C268 35.6569 266.657 37 265 37Z" fill="black"/>
<path d="M275 37C273.343 37 272 35.6569 272 34C272 32.3431 273.343 31 275 31C276.657 31 278 32.3431 278 34C278 35.6569 276.657 37 275 37Z" fill="black"/>
<path d="M285 37C283.343 37 282 35.6569 282 34C282 32.3431 283.343 31 285 31C286.657 31 288 32.3431 288 34C288 35.6569 286.657 37 285 37Z" fill="black"/>
<path d="M295 37C293.343 37 292 35.6569 292 34C292 32.3431 293.343 31 295 31C296.657 31 298 32.3431 298 34C298 35.6569 296.657 37 295 37Z" fill="black"/>
<path d="M205 5C203.343 5 202 3.65685 202 2C202 0.343146 203.343 -1 205 -1C206.657 -1 208 0.343146 208 2C208 3.65685 206.657 5 205 5Z" fill="black"/>
<path d="M215 5C213.343 5 212 3.65685 212 2C212 0.343146 213.343 -1 215 -1C216.657 -1 218 0.343146 218 2C218 3.65685 216.657 5 215 5Z" fill="black"/>
<path d="M225 5C223.343 5 222 3.65685 222 2C222 0.343146 223.343 -1 225 -1C226.657 -1 228 0.343146 228 2C228 3.65685 226.657 5 225 5Z" fill="black"/>
<path d="M235 5C233.343 5 232 3.65685 232 2C232 0.343146 233.343 -1 235 -1C236.657 -1 238 0.343146 238 2C238 3.65685 236.657 5 235 5Z" fill="black"/>
<path d="M245 5C243.343 5 242 3.65685 242 2C242 0.343146 243.343 -1 245 -1C246.657 -1 248 0.343146 248 2C248 3.65685 246.657 5 245 5Z" fill="black"/>
<path d="M255 5C253.343 5 252 3.65685 252 2C252 0.343146 253.343 -1 255 -1C256.657 -1 258 0.343146 258 2C258 3.65685 256.657 5 255 5Z" fill="black"/>
<path d="M265 5C263.343 5 262 3.65685 262 2C262 0.343146 263.343 -1 265 -1C266.657 -1 268 0.343146 268 2C268 3.65685 266.657 5 265 5Z" fill="black"/>
<path d="M275 5C273.343 5 272 3.65685 272 2C272 0.343146 273.343 -1 275 -1C276.657 -1 278 0.343146 278 2C278 3.65685 276.657 5 275 5Z" fill="black"/>
<path d="M285 5C283.343 5 282 3.65685 282 2C282 0.343146 283.343 -1 285 -1C286.657 -1 288 0.343146 288 2C288 3.65685 286.657 5 285 5Z" fill="black"/>
<path d="M295 5C293.343 5 292 3.65685 292 2C292 0.343146 293.343 -1 295 -1C296.657 -1 298 0.343146 298 2C298 3.65685 296.657 5 295 5Z" fill="black"/>
<path d="M200 12C198.895 12 198 11.1046 198 10C198 8.89543 198.895 8 200 8C201.105 8 202 8.89543 202 10C202 11.1046 201.105 12 200 12Z" fill="black"/>
<path d="M210 13C208.343 13 207 11.6569 207 10C207 8.34315 208.343 7 210 7C211.657 7 213 8.34315 213 10C213 11.6569 211.657 13 210 13Z" fill="black"/>
<path d="M220 13C218.343 13 217 11.6569 217 10C217 8.34315 218.343 7 220 7C221.657 7 223 8.34315 223 10C223 11.6569 221.657 13 220 13Z" fill="black"/>
<path d="M230 13C228.343 13 227 11.6569 227 10C227 8.34315 228.343 7 230 7C231.657 7 233 8.34315 233 10C233 11.6569 231.657 13 230 13Z" fill="black"/>
<path d="M240 13C238.343 13 237 11.6569 237 10C237 8.34315 238.343 7 240 7C241.657 7 243 8.34315 243 10C243 11.6569 241.657 13 240 13Z" fill="black"/>
<path d="M250 13C248.343 13 247 11.6569 247 10C247 8.34315 248.343 7 250 7C251.657 7 253 8.34315 253 10C253 11.6569 251.657 13 250 13Z" fill="black"/>
<path d="M260 13C258.343 13 257 11.6569 257 10C257 8.34315 258.343 7 260 7C261.657 7 263 8.34315 263 10C263 11.6569 261.657 13 260 13Z" fill="black"/>
<path d="M270 13C268.343 13 267 11.6569 267 10C267 8.34315 268.343 7 270 7C271.657 7 273 8.34315 273 10C273 11.6569 271.657 13 270 13Z" fill="black"/>
<path d="M280 13C278.343 13 277 11.6569 277 10C277 8.34315 278.343 7 280 7C281.657 7 283 8.34315 283 10C283 11.6569 281.657 13 280 13Z" fill="black"/>
<path d="M290 13C288.343 13 287 11.6569 287 10C287 8.34315 288.343 7 290 7C291.657 7 293 8.34315 293 10C293 11.6569 291.657 13 290 13Z" fill="black"/>
<path d="M300 13C298.343 13 297 11.6569 297 10C297 8.34315 298.343 7 300 7C301.657 7 303 8.34315 303 10C303 11.6569 301.657 13 300 13Z" fill="black"/>
<path d="M200 28C198.895 28 198 27.1046 198 26C198 24.8954 198.895 24 200 24C201.105 24 202 24.8954 202 26C202 27.1046 201.105 28 200 28Z" fill="black"/>
<path d="M210 29C208.343 29 207 27.6569 207 26C207 24.3431 208.343 23 210 23C211.657 23 213 24.3431 213 26C213 27.6569 211.657 29 210 29Z" fill="black"/>
<path d="M220 29C218.343 29 217 27.6569 217 26C217 24.3431 218.343 23 220 23C221.657 23 223 24.3431 223 26C223 27.6569 221.657 29 220 29Z" fill="black"/>
<path d="M230 29C228.343 29 227 27.6569 227 26C227 24.3431 228.343 23 230 23C231.657 23 233 24.3431 233 26C233 27.6569 231.657 29 230 29Z" fill="black"/>
<path d="M240 29C238.343 29 237 27.6569 237 26C237 24.3431 238.343 23 240 23C241.657 23 243 24.3431 243 26C243 27.6569 241.657 29 240 29Z" fill="black"/>
<path d="M250 29C248.343 29 247 27.6569 247 26C247 24.3431 248.343 23 250 23C251.657 23 253 24.3431 253 26C253 27.6569 251.657 29 250 29Z" fill="black"/>
<path d="M260 29C258.343 29 257 27.6569 257 26C257 24.3431 258.343 23 260 23C261.657 23 263 24.3431 263 26C263 27.6569 261.657 29 260 29Z" fill="black"/>
<path d="M270 29C268.343 29 267 27.6569 267 26C267 24.3431 268.343 23 270 23C271.657 23 273 24.3431 273 26C273 27.6569 271.657 29 270 29Z" fill="black"/>
<path d="M280 29C278.343 29 277 27.6569 277 26C277 24.3431 278.343 23 280 23C281.657 23 283 24.3431 283 26C283 27.6569 281.657 29 280 29Z" fill="black"/>
<path d="M290 29C288.343 29 287 27.6569 287 26C287 24.3431 288.343 23 290 23C291.657 23 293 24.3431 293 26C293 27.6569 291.657 29 290 29Z" fill="black"/>
<path d="M300 29C298.343 29 297 27.6569 297 26C297 24.3431 298.343 23 300 23C301.657 23 303 24.3431 303 26C303 27.6569 301.657 29 300 29Z" fill="black"/>
<path d="M105 20C103.895 20 103 19.1046 103 18C103 16.8954 103.895 16 105 16C106.105 16 107 16.8954 107 18C107 19.1046 106.105 20 105 20Z" fill="black"/>
<path d="M115 20C113.895 20 113 19.1046 113 18C113 16.8954 113.895 16 115 16C116.105 16 117 16.8954 117 18C117 19.1046 116.105 20 115 20Z" fill="black"/>
<path d="M125 20C123.895 20 123 19.1046 123 18C123 16.8954 123.895 16 125 16C126.105 16 127 16.8954 127 18C127 19.1046 126.105 20 125 20Z" fill="black"/>
<path d="M135 20C133.895 20 133 19.1046 133 18C133 16.8954 133.895 16 135 16C136.105 16 137 16.8954 137 18C137 19.1046 136.105 20 135 20Z" fill="black"/>
<path d="M145 20C143.895 20 143 19.1046 143 18C143 16.8954 143.895 16 145 16C146.105 16 147 16.8954 147 18C147 19.1046 146.105 20 145 20Z" fill="black"/>
<path d="M155 20C153.895 20 153 19.1046 153 18C153 16.8954 153.895 16 155 16C156.105 16 157 16.8954 157 18C157 19.1046 156.105 20 155 20Z" fill="black"/>
<path d="M165 20C163.895 20 163 19.1046 163 18C163 16.8954 163.895 16 165 16C166.105 16 167 16.8954 167 18C167 19.1046 166.105 20 165 20Z" fill="black"/>
<path d="M175 20C173.895 20 173 19.1046 173 18C173 16.8954 173.895 16 175 16C176.105 16 177 16.8954 177 18C177 19.1046 176.105 20 175 20Z" fill="black"/>
<path d="M185 20C183.895 20 183 19.1046 183 18C183 16.8954 183.895 16 185 16C186.105 16 187 16.8954 187 18C187 19.1046 186.105 20 185 20Z" fill="black"/>
<path d="M195 20C193.895 20 193 19.1046 193 18C193 16.8954 193.895 16 195 16C196.105 16 197 16.8954 197 18C197 19.1046 196.105 20 195 20Z" fill="black"/>
<path d="M105 36C103.895 36 103 35.1046 103 34C103 32.8954 103.895 32 105 32C106.105 32 107 32.8954 107 34C107 35.1046 106.105 36 105 36Z" fill="black"/>
<path d="M115 36C113.895 36 113 35.1046 113 34C113 32.8954 113.895 32 115 32C116.105 32 117 32.8954 117 34C117 35.1046 116.105 36 115 36Z" fill="black"/>
<path d="M125 36C123.895 36 123 35.1046 123 34C123 32.8954 123.895 32 125 32C126.105 32 127 32.8954 127 34C127 35.1046 126.105 36 125 36Z" fill="black"/>
<path d="M135 36C133.895 36 133 35.1046 133 34C133 32.8954 133.895 32 135 32C136.105 32 137 32.8954 137 34C137 35.1046 136.105 36 135 36Z" fill="black"/>
<path d="M145 36C143.895 36 143 35.1046 143 34C143 32.8954 143.895 32 145 32C146.105 32 147 32.8954 147 34C147 35.1046 146.105 36 145 36Z" fill="black"/>
<path d="M155 36C153.895 36 153 35.1046 153 34C153 32.8954 153.895 32 155 32C156.105 32 157 32.8954 157 34C157 35.1046 156.105 36 155 36Z" fill="black"/>
<path d="M165 36C163.895 36 163 35.1046 163 34C163 32.8954 163.895 32 165 32C166.105 32 167 32.8954 167 34C167 35.1046 166.105 36 165 36Z" fill="black"/>
<path d="M175 36C173.895 36 173 35.1046 173 34C173 32.8954 173.895 32 175 32C176.105 32 177 32.8954 177 34C177 35.1046 176.105 36 175 36Z" fill="black"/>
<path d="M185 36C183.895 36 183 35.1046 183 34C183 32.8954 183.895 32 185 32C186.105 32 187 32.8954 187 34C187 35.1046 186.105 36 185 36Z" fill="black"/>
<path d="M195 36C193.895 36 193 35.1046 193 34C193 32.8954 193.895 32 195 32C196.105 32 197 32.8954 197 34C197 35.1046 196.105 36 195 36Z" fill="black"/>
<path d="M105 4C103.895 4 103 3.10457 103 2C103 0.895431 103.895 0 105 0C106.105 0 107 0.895431 107 2C107 3.10457 106.105 4 105 4Z" fill="black"/>
<path d="M115 4C113.895 4 113 3.10457 113 2C113 0.895431 113.895 0 115 0C116.105 0 117 0.895431 117 2C117 3.10457 116.105 4 115 4Z" fill="black"/>
<path d="M125 4C123.895 4 123 3.10457 123 2C123 0.895431 123.895 0 125 0C126.105 0 127 0.895431 127 2C127 3.10457 126.105 4 125 4Z" fill="black"/>
<path d="M135 4C133.895 4 133 3.10457 133 2C133 0.895431 133.895 0 135 0C136.105 0 137 0.895431 137 2C137 3.10457 136.105 4 135 4Z" fill="black"/>
<path d="M145 4C143.895 4 143 3.10457 143 2C143 0.895431 143.895 0 145 0C146.105 0 147 0.895431 147 2C147 3.10457 146.105 4 145 4Z" fill="black"/>
<path d="M155 4C153.895 4 153 3.10457 153 2C153 0.895431 153.895 0 155 0C156.105 0 157 0.895431 157 2C157 3.10457 156.105 4 155 4Z" fill="black"/>
<path d="M165 4C163.895 4 163 3.10457 163 2C163 0.895431 163.895 0 165 0C166.105 0 167 0.895431 167 2C167 3.10457 166.105 4 165 4Z" fill="black"/>
<path d="M175 4C173.895 4 173 3.10457 173 2C173 0.895431 173.895 0 175 0C176.105 0 177 0.895431 177 2C177 3.10457 176.105 4 175 4Z" fill="black"/>
<path d="M185 4C183.895 4 183 3.10457 183 2C183 0.895431 183.895 0 185 0C186.105 0 187 0.895431 187 2C187 3.10457 186.105 4 185 4Z" fill="black"/>
<path d="M195 4C193.895 4 193 3.10457 193 2C193 0.895431 193.895 0 195 0C196.105 0 197 0.895431 197 2C197 3.10457 196.105 4 195 4Z" fill="black"/>
<path d="M100 11C99.4477 11 99 10.5523 99 10C99 9.44771 99.4477 9 100 9C100.552 9 101 9.44771 101 10C101 10.5523 100.552 11 100 11Z" fill="black"/>
<path d="M110 12C108.895 12 108 11.1046 108 10C108 8.89543 108.895 8 110 8C111.105 8 112 8.89543 112 10C112 11.1046 111.105 12 110 12Z" fill="black"/>
<path d="M120 12C118.895 12 118 11.1046 118 10C118 8.89543 118.895 8 120 8C121.105 8 122 8.89543 122 10C122 11.1046 121.105 12 120 12Z" fill="black"/>
<path d="M130 12C128.895 12 128 11.1046 128 10C128 8.89543 128.895 8 130 8C131.105 8 132 8.89543 132 10C132 11.1046 131.105 12 130 12Z" fill="black"/>
<path d="M140 12C138.895 12 138 11.1046 138 10C138 8.89543 138.895 8 140 8C141.105 8 142 8.89543 142 10C142 11.1046 141.105 12 140 12Z" fill="black"/>
<path d="M150 12C148.895 12 148 11.1046 148 10C148 8.89543 148.895 8 150 8C151.105 8 152 8.89543 152 10C152 11.1046 151.105 12 150 12Z" fill="black"/>
<path d="M160 12C158.895 12 158 11.1046 158 10C158 8.89543 158.895 8 160 8C161.105 8 162 8.89543 162 10C162 11.1046 161.105 12 160 12Z" fill="black"/>
<path d="M170 12C168.895 12 168 11.1046 168 10C168 8.89543 168.895 8 170 8C171.105 8 172 8.89543 172 10C172 11.1046 171.105 12 170 12Z" fill="black"/>
<path d="M180 12C178.895 12 178 11.1046 178 10C178 8.89543 178.895 8 180 8C181.105 8 182 8.89543 182 10C182 11.1046 181.105 12 180 12Z" fill="black"/>
<path d="M190 12C188.895 12 188 11.1046 188 10C188 8.89543 188.895 8 190 8C191.105 8 192 8.89543 192 10C192 11.1046 191.105 12 190 12Z" fill="black"/>
<path d="M200 12C198.895 12 198 11.1046 198 10C198 8.89543 198.895 8 200 8C201.105 8 202 8.89543 202 10C202 11.1046 201.105 12 200 12Z" fill="black"/>
<path d="M100 27C99.4477 27 99 26.5523 99 26C99 25.4477 99.4477 25 100 25C100.552 25 101 25.4477 101 26C101 26.5523 100.552 27 100 27Z" fill="black"/>
<path d="M110 28C108.895 28 108 27.1046 108 26C108 24.8954 108.895 24 110 24C111.105 24 112 24.8954 112 26C112 27.1046 111.105 28 110 28Z" fill="black"/>
<path d="M120 28C118.895 28 118 27.1046 118 26C118 24.8954 118.895 24 120 24C121.105 24 122 24.8954 122 26C122 27.1046 121.105 28 120 28Z" fill="black"/>
<path d="M130 28C128.895 28 128 27.1046 128 26C128 24.8954 128.895 24 130 24C131.105 24 132 24.8954 132 26C132 27.1046 131.105 28 130 28Z" fill="black"/>
<path d="M140 28C138.895 28 138 27.1046 138 26C138 24.8954 138.895 24 140 24C141.105 24 142 24.8954 142 26C142 27.1046 141.105 28 140 28Z" fill="black"/>
<path d="M150 28C148.895 28 148 27.1046 148 26C148 24.8954 148.895 24 150 24C151.105 24 152 24.8954 152 26C152 27.1046 151.105 28 150 28Z" fill="black"/>
<path d="M160 28C158.895 28 158 27.1046 158 26C158 24.8954 158.895 24 160 24C161.105 24 162 24.8954 162 26C162 27.1046 161.105 28 160 28Z" fill="black"/>
<path d="M170 28C168.895 28 168 27.1046 168 26C168 24.8954 168.895 24 170 24C171.105 24 172 24.8954 172 26C172 27.1046 171.105 28 170 28Z" fill="black"/>
<path d="M180 28C178.895 28 178 27.1046 178 26C178 24.8954 178.895 24 180 24C181.105 24 182 24.8954 182 26C182 27.1046 181.105 28 180 28Z" fill="black"/>
<path d="M190 28C188.895 28 188 27.1046 188 26C188 24.8954 188.895 24 190 24C191.105 24 192 24.8954 192 26C192 27.1046 191.105 28 190 28Z" fill="black"/>
<path d="M200 28C198.895 28 198 27.1046 198 26C198 24.8954 198.895 24 200 24C201.105 24 202 24.8954 202 26C202 27.1046 201.105 28 200 28Z" fill="black"/>
<path d="M5 19C4.44772 19 4 18.5523 4 18C4 17.4477 4.44772 17 5 17C5.55228 17 6 17.4477 6 18C6 18.5523 5.55228 19 5 19Z" fill="black"/>
<path d="M15 19C14.4477 19 14 18.5523 14 18C14 17.4477 14.4477 17 15 17C15.5523 17 16 17.4477 16 18C16 18.5523 15.5523 19 15 19Z" fill="black"/>
<path d="M25 19C24.4477 19 24 18.5523 24 18C24 17.4477 24.4477 17 25 17C25.5523 17 26 17.4477 26 18C26 18.5523 25.5523 19 25 19Z" fill="black"/>
<path d="M35 19C34.4477 19 34 18.5523 34 18C34 17.4477 34.4477 17 35 17C35.5523 17 36 17.4477 36 18C36 18.5523 35.5523 19 35 19Z" fill="black"/>
<path d="M45 19C44.4477 19 44 18.5523 44 18C44 17.4477 44.4477 17 45 17C45.5523 17 46 17.4477 46 18C46 18.5523 45.5523 19 45 19Z" fill="black"/>
<path d="M55 19C54.4477 19 54 18.5523 54 18C54 17.4477 54.4477 17 55 17C55.5523 17 56 17.4477 56 18C56 18.5523 55.5523 19 55 19Z" fill="black"/>
<path d="M65 19C64.4477 19 64 18.5523 64 18C64 17.4477 64.4477 17 65 17C65.5523 17 66 17.4477 66 18C66 18.5523 65.5523 19 65 19Z" fill="black"/>
<path d="M75 19C74.4477 19 74 18.5523 74 18C74 17.4477 74.4477 17 75 17C75.5523 17 76 17.4477 76 18C76 18.5523 75.5523 19 75 19Z" fill="black"/>
<path d="M85 19C84.4477 19 84 18.5523 84 18C84 17.4477 84.4477 17 85 17C85.5523 17 86 17.4477 86 18C86 18.5523 85.5523 19 85 19Z" fill="black"/>
<path d="M95 19C94.4477 19 94 18.5523 94 18C94 17.4477 94.4477 17 95 17C95.5523 17 96 17.4477 96 18C96 18.5523 95.5523 19 95 19Z" fill="black"/>
<path d="M5 35C4.44772 35 4 34.5523 4 34C4 33.4477 4.44772 33 5 33C5.55228 33 6 33.4477 6 34C6 34.5523 5.55228 35 5 35Z" fill="black"/>
<path d="M15 35C14.4477 35 14 34.5523 14 34C14 33.4477 14.4477 33 15 33C15.5523 33 16 33.4477 16 34C16 34.5523 15.5523 35 15 35Z" fill="black"/>
<path d="M25 35C24.4477 35 24 34.5523 24 34C24 33.4477 24.4477 33 25 33C25.5523 33 26 33.4477 26 34C26 34.5523 25.5523 35 25 35Z" fill="black"/>
<path d="M35 35C34.4477 35 34 34.5523 34 34C34 33.4477 34.4477 33 35 33C35.5523 33 36 33.4477 36 34C36 34.5523 35.5523 35 35 35Z" fill="black"/>
<path d="M45 35C44.4477 35 44 34.5523 44 34C44 33.4477 44.4477 33 45 33C45.5523 33 46 33.4477 46 34C46 34.5523 45.5523 35 45 35Z" fill="black"/>
<path d="M55 35C54.4477 35 54 34.5523 54 34C54 33.4477 54.4477 33 55 33C55.5523 33 56 33.4477 56 34C56 34.5523 55.5523 35 55 35Z" fill="black"/>
<path d="M65 35C64.4477 35 64 34.5523 64 34C64 33.4477 64.4477 33 65 33C65.5523 33 66 33.4477 66 34C66 34.5523 65.5523 35 65 35Z" fill="black"/>
<path d="M75 35C74.4477 35 74 34.5523 74 34C74 33.4477 74.4477 33 75 33C75.5523 33 76 33.4477 76 34C76 34.5523 75.5523 35 75 35Z" fill="black"/>
<path d="M85 35C84.4477 35 84 34.5523 84 34C84 33.4477 84.4477 33 85 33C85.5523 33 86 33.4477 86 34C86 34.5523 85.5523 35 85 35Z" fill="black"/>
<path d="M95 35C94.4477 35 94 34.5523 94 34C94 33.4477 94.4477 33 95 33C95.5523 33 96 33.4477 96 34C96 34.5523 95.5523 35 95 35Z" fill="black"/>
<path d="M5 3C4.44772 3 4 2.55228 4 2C4 1.44772 4.44772 1 5 1C5.55228 1 6 1.44772 6 2C6 2.55228 5.55228 3 5 3Z" fill="black"/>
<path d="M15 3C14.4477 3 14 2.55228 14 2C14 1.44772 14.4477 1 15 1C15.5523 1 16 1.44772 16 2C16 2.55228 15.5523 3 15 3Z" fill="black"/>
<path d="M25 3C24.4477 3 24 2.55228 24 2C24 1.44772 24.4477 1 25 1C25.5523 1 26 1.44772 26 2C26 2.55228 25.5523 3 25 3Z" fill="black"/>
<path d="M35 3C34.4477 3 34 2.55228 34 2C34 1.44772 34.4477 1 35 1C35.5523 1 36 1.44772 36 2C36 2.55228 35.5523 3 35 3Z" fill="black"/>
<path d="M45 3C44.4477 3 44 2.55228 44 2C44 1.44772 44.4477 1 45 1C45.5523 1 46 1.44772 46 2C46 2.55228 45.5523 3 45 3Z" fill="black"/>
<path d="M55 3C54.4477 3 54 2.55228 54 2C54 1.44772 54.4477 1 55 1C55.5523 1 56 1.44772 56 2C56 2.55228 55.5523 3 55 3Z" fill="black"/>
<path d="M65 3C64.4477 3 64 2.55228 64 2C64 1.44772 64.4477 1 65 1C65.5523 1 66 1.44772 66 2C66 2.55228 65.5523 3 65 3Z" fill="black"/>
<path d="M75 3C74.4477 3 74 2.55228 74 2C74 1.44772 74.4477 1 75 1C75.5523 1 76 1.44772 76 2C76 2.55228 75.5523 3 75 3Z" fill="black"/>
<path d="M85 3C84.4477 3 84 2.55228 84 2C84 1.44772 84.4477 1 85 1C85.5523 1 86 1.44772 86 2C86 2.55228 85.5523 3 85 3Z" fill="black"/>
<path d="M95 3C94.4477 3 94 2.55228 94 2C94 1.44772 94.4477 1 95 1C95.5523 1 96 1.44772 96 2C96 2.55228 95.5523 3 95 3Z" fill="black"/>
<path d="M0 11C-0.552277 11 -1 10.5523 -1 10C-1 9.44771 -0.552277 9 0 9C0.552277 9 1 9.44771 1 10C1 10.5523 0.552277 11 0 11Z" fill="black"/>
<path d="M10 11C9.44772 11 9 10.5523 9 10C9 9.44771 9.44772 9 10 9C10.5523 9 11 9.44771 11 10C11 10.5523 10.5523 11 10 11Z" fill="black"/>
<path d="M20 11C19.4477 11 19 10.5523 19 10C19 9.44771 19.4477 9 20 9C20.5523 9 21 9.44771 21 10C21 10.5523 20.5523 11 20 11Z" fill="black"/>
<path d="M30 11C29.4477 11 29 10.5523 29 10C29 9.44771 29.4477 9 30 9C30.5523 9 31 9.44771 31 10C31 10.5523 30.5523 11 30 11Z" fill="black"/>
<path d="M40 11C39.4477 11 39 10.5523 39 10C39 9.44771 39.4477 9 40 9C40.5523 9 41 9.44771 41 10C41 10.5523 40.5523 11 40 11Z" fill="black"/>
<path d="M50 11C49.4477 11 49 10.5523 49 10C49 9.44771 49.4477 9 50 9C50.5523 9 51 9.44771 51 10C51 10.5523 50.5523 11 50 11Z" fill="black"/>
<path d="M60 11C59.4477 11 59 10.5523 59 10C59 9.44771 59.4477 9 60 9C60.5523 9 61 9.44771 61 10C61 10.5523 60.5523 11 60 11Z" fill="black"/>
<path d="M70 11C69.4477 11 69 10.5523 69 10C69 9.44771 69.4477 9 70 9C70.5523 9 71 9.44771 71 10C71 10.5523 70.5523 11 70 11Z" fill="black"/>
<path d="M80 11C79.4477 11 79 10.5523 79 10C79 9.44771 79.4477 9 80 9C80.5523 9 81 9.44771 81 10C81 10.5523 80.5523 11 80 11Z" fill="black"/>
<path d="M90 11C89.4477 11 89 10.5523 89 10C89 9.44771 89.4477 9 90 9C90.5523 9 91 9.44771 91 10C91 10.5523 90.5523 11 90 11Z" fill="black"/>
<path d="M100 11C99.4477 11 99 10.5523 99 10C99 9.44771 99.4477 9 100 9C100.552 9 101 9.44771 101 10C101 10.5523 100.552 11 100 11Z" fill="black"/>
<path d="M0 27C-0.552277 27 -1 26.5523 -1 26C-1 25.4477 -0.552277 25 0 25C0.552277 25 1 25.4477 1 26C1 26.5523 0.552277 27 0 27Z" fill="black"/>
<path d="M10 27C9.44772 27 9 26.5523 9 26C9 25.4477 9.44772 25 10 25C10.5523 25 11 25.4477 11 26C11 26.5523 10.5523 27 10 27Z" fill="black"/>
<path d="M20 27C19.4477 27 19 26.5523 19 26C19 25.4477 19.4477 25 20 25C20.5523 25 21 25.4477 21 26C21 26.5523 20.5523 27 20 27Z" fill="black"/>
<path d="M30 27C29.4477 27 29 26.5523 29 26C29 25.4477 29.4477 25 30 25C30.5523 25 31 25.4477 31 26C31 26.5523 30.5523 27 30 27Z" fill="black"/>
<path d="M40 27C39.4477 27 39 26.5523 39 26C39 25.4477 39.4477 25 40 25C40.5523 25 41 25.4477 41 26C41 26.5523 40.5523 27 40 27Z" fill="black"/>
<path d="M50 27C49.4477 27 49 26.5523 49 26C49 25.4477 49.4477 25 50 25C50.5523 25 51 25.4477 51 26C51 26.5523 50.5523 27 50 27Z" fill="black"/>
<path d="M60 27C59.4477 27 59 26.5523 59 26C59 25.4477 59.4477 25 60 25C60.5523 25 61 25.4477 61 26C61 26.5523 60.5523 27 60 27Z" fill="black"/>
<path d="M70 27C69.4477 27 69 26.5523 69 26C69 25.4477 69.4477 25 70 25C70.5523 25 71 25.4477 71 26C71 26.5523 70.5523 27 70 27Z" fill="black"/>
<path d="M80 27C79.4477 27 79 26.5523 79 26C79 25.4477 79.4477 25 80 25C80.5523 25 81 25.4477 81 26C81 26.5523 80.5523 27 80 27Z" fill="black"/>
<path d="M90 27C89.4477 27 89 26.5523 89 26C89 25.4477 89.4477 25 90 25C90.5523 25 91 25.4477 91 26C91 26.5523 90.5523 27 90 27Z" fill="black"/>
<path d="M100 27C99.4477 27 99 26.5523 99 26C99 25.4477 99.4477 25 100 25C100.552 25 101 25.4477 101 26C101 26.5523 100.552 27 100 27Z" fill="black"/>
</g>
<defs>
<clipPath id="clip0_1593_9994">
<rect width="500" height="36" fill="white" transform="matrix(-1 0 0 1 500 0)"/>
</clipPath>
</defs>
</svg>
