<svg width="500" height="36" viewBox="0 0 500 36" fill="none" xmlns="http://www.w3.org/2000/svg">
<path d="M494.996 36H500V0L494.996 0V36ZM484.235 36H489.239V18L484.235 18V36ZM473.475 36H478.479V0L473.475 0V36ZM462.714 36H467.718V18H462.714V36ZM451.953 36H456.957V0L451.953 0V36ZM441.192 36H446.196V18H441.192V36ZM430.432 36H435.436V0L430.432 0V36ZM419.671 36H424.675V18H419.671V36ZM408.91 36L413.914 36V0L408.91 0V36ZM398.149 36H403.153V18L398.149 18V36ZM387.389 36H392.392V0L387.389 0V36ZM376.628 36H381.631V18H376.628V36ZM365.867 36H370.87V0L365.867 0V36ZM355.106 36H360.109V18H355.106V36ZM344.346 36H349.349V0L344.346 0V36ZM333.585 36H338.588V18H333.585V36ZM322.824 36H327.827V0L322.824 0V36ZM312.063 36H317.066V18H312.063V36ZM301.303 36H306.306V0L301.303 0V36ZM290.541 36H295.545V18H290.541V36ZM279.78 36H284.784V0L279.78 0V36ZM269.02 36H274.023V18H269.02V36ZM258.259 36H263.263V0L258.259 0V36ZM247.498 36H252.502V18H247.498V36ZM236.737 36L241.741 36V0L236.737 0V36ZM225.977 36H230.98V18H225.977V36ZM215.216 36H220.22V0L215.216 0V36ZM204.455 36H209.459V18H204.455V36ZM193.694 36H198.698V0L193.694 0V36ZM182.934 36H187.938V18H182.934V36ZM172.173 36H177.177V0L172.173 0V36ZM161.412 36H166.416V18L161.412 18V36ZM150.651 36H155.654V0L150.651 0V36ZM139.891 36H144.894V18H139.891V36ZM129.13 36H134.133V0L129.13 0V36ZM118.369 36L123.372 36V18H118.369V36ZM107.608 36H112.611V0L107.608 0V36ZM96.8477 36H101.851V18H96.8477V36ZM86.0869 36H91.0898V0L86.0869 0V36ZM75.3262 36H80.3291V18L75.3262 18V36ZM64.5654 36L69.5684 36V0L64.5654 0V36ZM53.8047 36H58.8076V18H53.8047V36ZM43.0439 36H48.0469V0L43.0439 0V36ZM32.2832 36H37.2861V18H32.2832V36ZM21.5225 36H26.5254V0L21.5225 0V36ZM10.7617 18V36H15.7646V18H10.7617ZM0.000976562 36H5.00391V0L0.000976562 0V36Z" fill="black"/>
</svg>
