<svg width="500" height="36" viewBox="0 0 500 36" fill="none" xmlns="http://www.w3.org/2000/svg">
<path d="M14.2969 18.1289H7.14844V36H21.4453V0.257812L14.2969 0.257812V18.1289ZM464.769 18H457.62V35.8711L471.917 35.8711V0.128906L464.769 0.128906V18ZM436.609 18H429.461V35.8711H443.758V0.128906L436.609 0.128906V18ZM408.45 18H401.302V35.8711L415.599 35.8711V0.128906L408.45 0.128906V18ZM380.291 18H373.143V35.8711H387.439V0.128906L380.291 0.128906V18ZM352.132 18H344.983V35.8711L359.28 35.8711V0.128906L352.132 0.128906V18ZM323.973 18H316.824V35.8711H331.121V0.128906L323.973 0.128906V18ZM295.813 18H288.665V35.8711L302.962 35.8711V0.128906L295.813 0.128906V18ZM267.654 18H260.506V35.8711H274.803V0.128906L267.654 0.128906V18ZM239.495 18H232.347V35.8711L246.644 35.8711V0.128906L239.495 0.128906V18ZM211.336 18H204.188V35.8711H218.484V0.128906L211.336 0.128906V18ZM183.176 18H176.027V35.8711L190.324 35.8711V0.128906L183.176 0.128906V18ZM155.017 18H147.868V35.8711H162.165V0.128906L155.017 0.128906V18ZM126.857 18H119.709V35.8711L134.006 35.8711V0.128906L126.857 0.128906V18ZM98.6982 18H91.5498V35.8711H105.847V0.128906L98.6982 0.128906V18ZM70.5391 18H63.3906V35.8711L77.6875 35.8711V0.128906L70.5391 0.128906V18ZM42.3799 18H35.2314V35.8711H49.5283V0.128906L42.3799 0.128906V18ZM492.852 17.8711H485.703V35.7422H500V0L492.852 0V17.8711ZM0 18.1289H7.14844V0.257812L0 0.257812V18.1289ZM450.472 18L457.62 18V0.128906L450.472 0.128906V18ZM422.312 18L429.461 18V0.128906L422.312 0.128906V18ZM394.153 18L401.302 18V0.128906L394.153 0.128906V18ZM365.994 18L373.143 18V0.128906L365.994 0.128906V18ZM337.835 18L344.983 18V0.128906L337.835 0.128906V18ZM309.676 18L316.824 18V0.128906L309.676 0.128906V18ZM281.517 18L288.665 18V0.128906L281.517 0.128906V18ZM253.357 18L260.506 18V0.128906L253.357 0.128906V18ZM225.198 18H232.347V0.128906L225.198 0.128906V18ZM197.039 18H204.188V0.128906L197.039 0.128906V18ZM168.879 18H176.027V0.128906L168.879 0.128906V18ZM140.72 18H147.868V0.128906L140.72 0.128906V18ZM112.561 18H119.709V0.128906L112.561 0.128906V18ZM84.4014 18H91.5498V0.128906L84.4014 0.128906V18ZM56.2422 18H63.3906V0.128906L56.2422 0.128906V18ZM28.083 18H35.2314V0.128906L28.083 0.128906V18ZM478.555 17.8711L485.703 17.8711V0L478.555 0V17.8711Z" fill="black"/>
</svg>
