<svg width="509" height="36" viewBox="0 0 509 36" fill="none" xmlns="http://www.w3.org/2000/svg">
<path d="M500.5 27C498.015 27 496 29.0147 496 31.5C496 33.9853 498.015 36 500.5 36C502.985 36 505 33.9853 505 31.5C505 29.0147 502.985 27 500.5 27Z" fill="black"/>
<path d="M482.964 27C480.479 27.0003 478.464 29.0149 478.464 31.5C478.464 33.9851 480.479 35.9997 482.964 36C485.449 36 487.464 33.9853 487.464 31.5C487.464 29.0147 485.449 27 482.964 27Z" fill="black"/>
<path d="M465.429 27C462.944 27.0003 460.929 29.0149 460.929 31.5C460.929 33.9851 462.944 35.9997 465.429 36C467.914 36 469.929 33.9853 469.929 31.5C469.929 29.0147 467.914 27 465.429 27Z" fill="black"/>
<path d="M447.894 27C445.408 27.0003 443.394 29.0149 443.394 31.5C443.394 33.9851 445.408 35.9997 447.894 36C450.379 36 452.394 33.9853 452.394 31.5C452.394 29.0147 450.379 27 447.894 27Z" fill="black"/>
<path d="M430.358 27C427.873 27.0003 425.858 29.0149 425.858 31.5C425.858 33.9851 427.873 35.9997 430.358 36C432.844 36 434.858 33.9853 434.858 31.5C434.858 29.0147 432.844 27 430.358 27Z" fill="black"/>
<path d="M412.823 27C410.338 27.0003 408.323 29.0149 408.323 31.5C408.323 33.9851 410.338 35.9997 412.823 36C415.309 36 417.323 33.9853 417.323 31.5C417.323 29.0147 415.309 27 412.823 27Z" fill="black"/>
<path d="M395.288 27C392.803 27.0003 390.788 29.0149 390.788 31.5C390.788 33.9851 392.803 35.9997 395.288 36C397.773 36 399.788 33.9853 399.788 31.5C399.788 29.0147 397.773 27 395.288 27Z" fill="black"/>
<path d="M377.753 27C375.268 27.0003 373.253 29.0149 373.253 31.5C373.253 33.9851 375.268 35.9997 377.753 36C380.238 36 382.253 33.9853 382.253 31.5C382.253 29.0147 380.238 27 377.753 27Z" fill="black"/>
<path d="M360.218 27C357.733 27.0003 355.718 29.0149 355.718 31.5C355.718 33.9851 357.733 35.9997 360.218 36C362.703 36 364.718 33.9853 364.718 31.5C364.718 29.0147 362.703 27 360.218 27Z" fill="black"/>
<path d="M342.683 27C340.198 27.0003 338.183 29.0149 338.183 31.5C338.183 33.9851 340.198 35.9997 342.683 36C345.168 36 347.183 33.9853 347.183 31.5C347.183 29.0147 345.168 27 342.683 27Z" fill="black"/>
<path d="M325.147 27C322.662 27.0003 320.647 29.0149 320.647 31.5C320.647 33.9851 322.662 35.9997 325.147 36C327.633 36 329.647 33.9853 329.647 31.5C329.647 29.0147 327.633 27 325.147 27Z" fill="black"/>
<path d="M307.612 27C305.127 27.0003 303.112 29.0149 303.112 31.5C303.112 33.9851 305.127 35.9997 307.612 36C310.098 36 312.112 33.9853 312.112 31.5C312.112 29.0147 310.098 27 307.612 27Z" fill="black"/>
<path d="M290.077 27C287.592 27.0003 285.577 29.0149 285.577 31.5C285.577 33.9851 287.592 35.9997 290.077 36C292.562 36 294.577 33.9853 294.577 31.5C294.577 29.0147 292.562 27 290.077 27Z" fill="black"/>
<path d="M272.542 27C270.057 27.0003 268.042 29.0149 268.042 31.5C268.042 33.9851 270.057 35.9997 272.542 36C275.027 36 277.042 33.9853 277.042 31.5C277.042 29.0147 275.027 27 272.542 27Z" fill="black"/>
<path d="M255.007 27C252.522 27.0003 250.507 29.0149 250.507 31.5C250.507 33.9851 252.522 35.9997 255.007 36C257.492 36 259.507 33.9853 259.507 31.5C259.507 29.0147 257.492 27 255.007 27Z" fill="black"/>
<path d="M237.472 27C234.987 27.0003 232.972 29.0149 232.972 31.5C232.972 33.9851 234.987 35.9997 237.472 36C239.957 36 241.972 33.9853 241.972 31.5C241.972 29.0147 239.957 27 237.472 27Z" fill="black"/>
<path d="M219.937 27C217.451 27.0003 215.437 29.0149 215.437 31.5C215.437 33.9851 217.451 35.9997 219.937 36C222.422 36 224.437 33.9853 224.437 31.5C224.437 29.0147 222.422 27 219.937 27Z" fill="black"/>
<path d="M202.401 27C199.916 27.0003 197.901 29.0149 197.901 31.5C197.901 33.9851 199.916 35.9997 202.401 36C204.887 36 206.901 33.9853 206.901 31.5C206.901 29.0147 204.887 27 202.401 27Z" fill="black"/>
<path d="M184.866 27C182.381 27.0003 180.366 29.0149 180.366 31.5C180.366 33.9851 182.381 35.9997 184.866 36C187.352 36 189.366 33.9853 189.366 31.5C189.366 29.0147 187.352 27 184.866 27Z" fill="black"/>
<path d="M167.331 27C164.846 27.0003 162.831 29.0149 162.831 31.5C162.831 33.9851 164.846 35.9997 167.331 36C169.816 36 171.831 33.9853 171.831 31.5C171.831 29.0147 169.816 27 167.331 27Z" fill="black"/>
<path d="M149.796 27C147.311 27.0003 145.296 29.0149 145.296 31.5C145.296 33.9851 147.311 35.9997 149.796 36C152.281 36 154.296 33.9853 154.296 31.5C154.296 29.0147 152.281 27 149.796 27Z" fill="black"/>
<path d="M132.261 27C129.776 27.0003 127.761 29.0149 127.761 31.5C127.761 33.9851 129.776 35.9997 132.261 36C134.746 36 136.761 33.9853 136.761 31.5C136.761 29.0147 134.746 27 132.261 27Z" fill="black"/>
<path d="M114.726 27C112.241 27.0003 110.226 29.0149 110.226 31.5C110.226 33.9851 112.241 35.9997 114.726 36C117.211 36 119.226 33.9853 119.226 31.5C119.226 29.0147 117.211 27 114.726 27Z" fill="black"/>
<path d="M97.1904 27C94.7054 27.0003 92.6904 29.0149 92.6904 31.5C92.6904 33.9851 94.7054 35.9997 97.1904 36C99.6757 36 101.69 33.9853 101.69 31.5C101.69 29.0147 99.6757 27 97.1904 27Z" fill="black"/>
<path d="M79.6553 27C77.1702 27.0003 75.1553 29.0149 75.1553 31.5C75.1553 33.9851 77.1702 35.9997 79.6553 36C82.1406 36 84.1553 33.9853 84.1553 31.5C84.1553 29.0147 82.1406 27 79.6553 27Z" fill="black"/>
<path d="M62.1201 27C59.6351 27.0003 57.6201 29.0149 57.6201 31.5C57.6201 33.9851 59.6351 35.9997 62.1201 36C64.6054 36 66.6201 33.9853 66.6201 31.5C66.6201 29.0147 64.6054 27 62.1201 27Z" fill="black"/>
<path d="M44.585 27C42.0999 27.0003 40.085 29.0149 40.085 31.5C40.085 33.9851 42.0999 35.9997 44.585 36C47.0703 36 49.085 33.9853 49.085 31.5C49.085 29.0147 47.0703 27 44.585 27Z" fill="black"/>
<path d="M27.0498 27C24.5648 27.0003 22.5498 29.0149 22.5498 31.5C22.5498 33.9851 24.5648 35.9997 27.0498 36C29.5351 36 31.5498 33.9853 31.5498 31.5C31.5498 29.0147 29.5351 27 27.0498 27Z" fill="black"/>
<path d="M9.51465 27C7.0296 27.0003 5.01465 29.0149 5.01465 31.5C5.01465 33.9851 7.0296 35.9997 9.51465 36C11.9999 36 14.0146 33.9853 14.0146 31.5C14.0146 29.0147 11.9999 27 9.51465 27Z" fill="black"/>
<path d="M492.213 16C488.899 16 486.213 18.6863 486.213 22C486.213 25.3137 488.899 28 492.213 28C495.527 28 498.213 25.3137 498.213 22C498.213 18.6863 495.527 16 492.213 16Z" fill="black"/>
<path d="M474.641 15.5781C471.327 15.5781 468.641 18.2645 468.641 21.5781C468.641 24.8918 471.327 27.5781 474.641 27.5781C477.954 27.5781 480.641 24.8918 480.641 21.5781C480.64 18.2645 477.954 15.5781 474.641 15.5781Z" fill="black"/>
<path d="M457.068 15.5781C453.755 15.5781 451.068 18.2645 451.068 21.5781C451.068 24.8918 453.755 27.5781 457.068 27.5781C460.382 27.5781 463.068 24.8918 463.068 21.5781C463.068 18.2645 460.382 15.5781 457.068 15.5781Z" fill="black"/>
<path d="M439.496 15.5781C436.182 15.5781 433.496 18.2645 433.496 21.5781C433.496 24.8918 436.182 27.5781 439.496 27.5781C442.81 27.5781 445.496 24.8918 445.496 21.5781C445.496 18.2645 442.81 15.5781 439.496 15.5781Z" fill="black"/>
<path d="M421.924 15.5781C418.61 15.5781 415.924 18.2645 415.924 21.5781C415.924 24.8918 418.61 27.5781 421.924 27.5781C425.238 27.5781 427.924 24.8918 427.924 21.5781C427.924 18.2645 425.237 15.5781 421.924 15.5781Z" fill="black"/>
<path d="M404.352 15.5781C401.038 15.5781 398.352 18.2645 398.352 21.5781C398.352 24.8918 401.038 27.5781 404.352 27.5781C407.665 27.5781 410.352 24.8918 410.352 21.5781C410.351 18.2645 407.665 15.5781 404.352 15.5781Z" fill="black"/>
<path d="M386.779 15.5781C383.466 15.5781 380.779 18.2645 380.779 21.5781C380.779 24.8918 383.466 27.5781 386.779 27.5781C390.093 27.5781 392.779 24.8918 392.779 21.5781C392.779 18.2645 390.093 15.5781 386.779 15.5781Z" fill="black"/>
<path d="M369.207 15.5781C365.893 15.5781 363.207 18.2645 363.207 21.5781C363.207 24.8918 365.893 27.5781 369.207 27.5781C372.521 27.5781 375.207 24.8918 375.207 21.5781C375.207 18.2645 372.521 15.5781 369.207 15.5781Z" fill="black"/>
<path d="M351.635 15.5781C348.321 15.5781 345.635 18.2645 345.635 21.5781C345.635 24.8918 348.321 27.5781 351.635 27.5781C354.948 27.5781 357.635 24.8918 357.635 21.5781C357.635 18.2645 354.948 15.5781 351.635 15.5781Z" fill="black"/>
<path d="M334.062 15.5781C330.749 15.5781 328.063 18.2645 328.062 21.5781C328.062 24.8918 330.749 27.5781 334.062 27.5781C337.376 27.5781 340.062 24.8918 340.062 21.5781C340.062 18.2645 337.376 15.5781 334.062 15.5781Z" fill="black"/>
<path d="M316.49 15.5781C313.177 15.5781 310.49 18.2645 310.49 21.5781C310.49 24.8918 313.177 27.5781 316.49 27.5781C319.804 27.5781 322.49 24.8918 322.49 21.5781C322.49 18.2645 319.804 15.5781 316.49 15.5781Z" fill="black"/>
<path d="M298.918 15.5781C295.604 15.5781 292.918 18.2645 292.918 21.5781C292.918 24.8918 295.604 27.5781 298.918 27.5781C302.232 27.5781 304.918 24.8918 304.918 21.5781C304.918 18.2645 302.232 15.5781 298.918 15.5781Z" fill="black"/>
<path d="M281.346 15.5781C278.032 15.5781 275.346 18.2645 275.346 21.5781C275.346 24.8918 278.032 27.5781 281.346 27.5781C284.659 27.5781 287.346 24.8918 287.346 21.5781C287.346 18.2645 284.659 15.5781 281.346 15.5781Z" fill="black"/>
<path d="M263.773 15.5781C260.46 15.5781 257.774 18.2645 257.773 21.5781C257.773 24.8918 260.46 27.5781 263.773 27.5781C267.087 27.5781 269.773 24.8918 269.773 21.5781C269.773 18.2645 267.087 15.5781 263.773 15.5781Z" fill="black"/>
<path d="M246.201 15.5781C242.888 15.5781 240.201 18.2645 240.201 21.5781C240.201 24.8918 242.887 27.5781 246.201 27.5781C249.515 27.5781 252.201 24.8918 252.201 21.5781C252.201 18.2645 249.515 15.5781 246.201 15.5781Z" fill="black"/>
<path d="M228.629 15.5781C225.315 15.5781 222.629 18.2645 222.629 21.5781C222.629 24.8918 225.315 27.5781 228.629 27.5781C231.943 27.5781 234.629 24.8918 234.629 21.5781C234.629 18.2645 231.943 15.5781 228.629 15.5781Z" fill="black"/>
<path d="M211.057 15.5781C207.743 15.5781 205.057 18.2645 205.057 21.5781C205.057 24.8918 207.743 27.5781 211.057 27.5781C214.37 27.5781 217.057 24.8918 217.057 21.5781C217.057 18.2645 214.37 15.5781 211.057 15.5781Z" fill="black"/>
<path d="M193.484 15.5781C190.171 15.5781 187.484 18.2645 187.484 21.5781C187.484 24.8918 190.171 27.5781 193.484 27.5781C196.798 27.5781 199.484 24.8918 199.484 21.5781C199.484 18.2645 196.798 15.5781 193.484 15.5781Z" fill="black"/>
<path d="M175.912 15.5781C172.598 15.5781 169.912 18.2645 169.912 21.5781C169.912 24.8918 172.598 27.5781 175.912 27.5781C179.226 27.5781 181.912 24.8918 181.912 21.5781C181.912 18.2645 179.226 15.5781 175.912 15.5781Z" fill="black"/>
<path d="M158.34 15.5781C155.026 15.5781 152.34 18.2645 152.34 21.5781C152.34 24.8918 155.026 27.5781 158.34 27.5781C161.654 27.5781 164.34 24.8918 164.34 21.5781C164.34 18.2645 161.653 15.5781 158.34 15.5781Z" fill="black"/>
<path d="M140.768 15.5781C137.454 15.5781 134.768 18.2645 134.768 21.5781C134.768 24.8918 137.454 27.5781 140.768 27.5781C144.081 27.5781 146.768 24.8918 146.768 21.5781C146.767 18.2645 144.081 15.5781 140.768 15.5781Z" fill="black"/>
<path d="M123.195 15.5781C119.882 15.5781 117.195 18.2645 117.195 21.5781C117.195 24.8918 119.882 27.5781 123.195 27.5781C126.509 27.5781 129.195 24.8918 129.195 21.5781C129.195 18.2645 126.509 15.5781 123.195 15.5781Z" fill="black"/>
<path d="M105.623 15.5781C102.309 15.5781 99.6232 18.2645 99.623 21.5781C99.623 24.8918 102.309 27.5781 105.623 27.5781C108.937 27.5781 111.623 24.8918 111.623 21.5781C111.623 18.2645 108.937 15.5781 105.623 15.5781Z" fill="black"/>
<path d="M88.0508 15.5781C84.7372 15.5781 82.0509 18.2645 82.0508 21.5781C82.0508 24.8918 84.7371 27.5781 88.0508 27.5781C91.3645 27.5781 94.0508 24.8918 94.0508 21.5781C94.0507 18.2645 91.3644 15.5781 88.0508 15.5781Z" fill="black"/>
<path d="M70.4785 15.5781C67.1649 15.5781 64.4786 18.2645 64.4785 21.5781C64.4785 24.8918 67.1648 27.5781 70.4785 27.5781C73.7922 27.5781 76.4785 24.8918 76.4785 21.5781C76.4784 18.2645 73.7921 15.5781 70.4785 15.5781Z" fill="black"/>
<path d="M52.9062 15.5781C49.5926 15.5781 46.9064 18.2645 46.9062 21.5781C46.9062 24.8918 49.5925 27.5781 52.9062 27.5781C56.22 27.5781 58.9062 24.8918 58.9062 21.5781C58.9061 18.2645 56.2199 15.5781 52.9062 15.5781Z" fill="black"/>
<path d="M35.334 15.5781C32.0204 15.5781 29.3341 18.2645 29.334 21.5781C29.334 24.8918 32.0203 27.5781 35.334 27.5781C38.6477 27.5781 41.334 24.8918 41.334 21.5781C41.3339 18.2645 38.6476 15.5781 35.334 15.5781Z" fill="black"/>
<path d="M17.7617 15.5781C14.4481 15.5781 11.7618 18.2645 11.7617 21.5781C11.7617 24.8918 14.448 27.5781 17.7617 27.5781C21.0754 27.5781 23.7617 24.8918 23.7617 21.5781C23.7616 18.2645 21.0753 15.5781 17.7617 15.5781Z" fill="black"/>
<path d="M501 0C496.582 0 493 3.58172 493 8C493 12.4183 496.582 16 501 16C505.418 16 509 12.4183 509 8C509 3.58172 505.418 0 501 0Z" fill="black"/>
<path d="M483.428 0C479.009 0 475.428 3.58172 475.428 8C475.428 12.4183 479.009 16 483.428 16C487.846 15.9999 491.428 12.4182 491.428 8C491.428 3.5818 487.846 0.00013194 483.428 0Z" fill="black"/>
<path d="M465.856 0C461.438 0 457.856 3.58172 457.856 8C457.856 12.4183 461.438 16 465.856 16C470.275 15.9999 473.856 12.4182 473.856 8C473.856 3.5818 470.275 0.00013194 465.856 0Z" fill="black"/>
<path d="M448.284 0C443.866 0 440.284 3.58172 440.284 8C440.284 12.4183 443.866 16 448.284 16C452.702 15.9999 456.284 12.4182 456.284 8C456.284 3.5818 452.702 0.00013194 448.284 0Z" fill="black"/>
<path d="M430.712 0C426.294 0 422.712 3.58172 422.712 8C422.712 12.4183 426.294 16 430.712 16C435.13 15.9999 438.712 12.4182 438.712 8C438.712 3.5818 435.13 0.00013194 430.712 0Z" fill="black"/>
<path d="M413.14 0C408.721 0 405.14 3.58172 405.14 8C405.14 12.4183 408.721 16 413.14 16C417.558 15.9999 421.14 12.4182 421.14 8C421.14 3.5818 417.558 0.00013194 413.14 0Z" fill="black"/>
<path d="M395.567 0C391.149 0 387.567 3.58172 387.567 8C387.567 12.4183 391.149 16 395.567 16C399.986 15.9999 403.567 12.4182 403.567 8C403.567 3.5818 399.986 0.00013194 395.567 0Z" fill="black"/>
<path d="M377.995 0C373.577 0 369.995 3.58172 369.995 8C369.995 12.4183 373.577 16 377.995 16C382.413 15.9999 385.995 12.4182 385.995 8C385.995 3.5818 382.413 0.00013194 377.995 0Z" fill="black"/>
<path d="M360.423 0C356.005 0 352.423 3.58172 352.423 8C352.423 12.4183 356.005 16 360.423 16C364.841 15.9999 368.423 12.4182 368.423 8C368.423 3.5818 364.841 0.00013194 360.423 0Z" fill="black"/>
<path d="M342.851 0C338.432 0 334.851 3.58172 334.851 8C334.851 12.4183 338.432 16 342.851 16C347.269 15.9999 350.851 12.4182 350.851 8C350.851 3.5818 347.269 0.00013194 342.851 0Z" fill="black"/>
<path d="M325.278 0C320.86 0 317.278 3.58172 317.278 8C317.278 12.4183 320.86 16 325.278 16C329.696 15.9999 333.278 12.4182 333.278 8C333.278 3.5818 329.696 0.00013194 325.278 0Z" fill="black"/>
<path d="M307.706 0C303.288 0 299.706 3.58172 299.706 8C299.706 12.4183 303.288 16 307.706 16C312.124 15.9999 315.706 12.4182 315.706 8C315.706 3.5818 312.124 0.00013194 307.706 0Z" fill="black"/>
<path d="M290.134 0C285.716 0 282.134 3.58172 282.134 8C282.134 12.4183 285.716 16 290.134 16C294.552 15.9999 298.134 12.4182 298.134 8C298.134 3.5818 294.552 0.00013194 290.134 0Z" fill="black"/>
<path d="M272.562 0C268.143 0 264.562 3.58172 264.562 8C264.562 12.4183 268.143 16 272.562 16C276.98 15.9999 280.562 12.4182 280.562 8C280.562 3.5818 276.98 0.00013194 272.562 0Z" fill="black"/>
<path d="M254.989 0C250.571 0 246.989 3.58172 246.989 8C246.989 12.4183 250.571 16 254.989 16C259.407 15.9999 262.989 12.4182 262.989 8C262.989 3.5818 259.407 0.00013194 254.989 0Z" fill="black"/>
<path d="M237.417 0C232.999 0 229.417 3.58172 229.417 8C229.417 12.4183 232.999 16 237.417 16C241.835 15.9999 245.417 12.4182 245.417 8C245.417 3.5818 241.835 0.00013194 237.417 0Z" fill="black"/>
<path d="M219.845 0C215.426 0 211.845 3.58172 211.845 8C211.845 12.4183 215.426 16 219.845 16C224.263 15.9999 227.845 12.4182 227.845 8C227.845 3.5818 224.263 0.00013194 219.845 0Z" fill="black"/>
<path d="M202.272 0C197.854 0 194.272 3.58172 194.272 8C194.272 12.4183 197.854 16 202.272 16C206.691 15.9999 210.272 12.4182 210.272 8C210.272 3.5818 206.691 0.00013194 202.272 0Z" fill="black"/>
<path d="M184.7 0C180.282 0 176.7 3.58172 176.7 8C176.7 12.4183 180.282 16 184.7 16C189.118 15.9999 192.7 12.4182 192.7 8C192.7 3.5818 189.118 0.00013194 184.7 0Z" fill="black"/>
<path d="M167.128 0C162.71 0 159.128 3.58172 159.128 8C159.128 12.4183 162.71 16 167.128 16C171.546 15.9999 175.128 12.4182 175.128 8C175.128 3.5818 171.546 0.00013194 167.128 0Z" fill="black"/>
<path d="M149.556 0C145.137 0 141.556 3.58172 141.556 8C141.556 12.4183 145.137 16 149.556 16C153.974 15.9999 157.556 12.4182 157.556 8C157.556 3.5818 153.974 0.00013194 149.556 0Z" fill="black"/>
<path d="M131.983 0C127.565 0 123.983 3.58172 123.983 8C123.983 12.4183 127.565 16 131.983 16C136.402 15.9999 139.983 12.4182 139.983 8C139.983 3.5818 136.402 0.00013194 131.983 0Z" fill="black"/>
<path d="M114.411 0C109.993 0 106.411 3.58172 106.411 8C106.411 12.4183 109.993 16 114.411 16C118.829 15.9999 122.411 12.4182 122.411 8C122.411 3.5818 118.829 0.00013194 114.411 0Z" fill="black"/>
<path d="M96.8389 0C92.4206 0 88.8389 3.58172 88.8389 8C88.8389 12.4183 92.4206 16 96.8389 16C101.257 15.9999 104.839 12.4182 104.839 8C104.839 3.5818 101.257 0.00013194 96.8389 0Z" fill="black"/>
<path d="M79.2666 0C74.8483 0 71.2666 3.58172 71.2666 8C71.2666 12.4183 74.8483 16 79.2666 16C83.6848 15.9999 87.2666 12.4182 87.2666 8C87.2666 3.5818 83.6848 0.00013194 79.2666 0Z" fill="black"/>
<path d="M61.6943 0C57.2761 0 53.6943 3.58172 53.6943 8C53.6943 12.4183 57.2761 16 61.6943 16C66.1125 15.9999 69.6943 12.4182 69.6943 8C69.6943 3.5818 66.1125 0.00013194 61.6943 0Z" fill="black"/>
<path d="M44.1221 0C39.7038 0 36.1221 3.58172 36.1221 8C36.1221 12.4183 39.7038 16 44.1221 16C48.5402 15.9999 52.1221 12.4182 52.1221 8C52.1221 3.5818 48.5402 0.00013194 44.1221 0Z" fill="black"/>
<path d="M26.5498 0C22.1315 0 18.5498 3.58172 18.5498 8C18.5498 12.4183 22.1315 16 26.5498 16C30.968 15.9999 34.5498 12.4182 34.5498 8C34.5498 3.5818 30.968 0.00013194 26.5498 0Z" fill="black"/>
<path d="M8.97656 0C4.55829 0 0.976562 3.58172 0.976562 8C0.976562 12.4183 4.55829 16 8.97656 16C13.3947 15.9999 16.9766 12.4182 16.9766 8C16.9766 3.5818 13.3947 0.00013194 8.97656 0Z" fill="black"/>
</svg>
