<svg width="500" height="36" viewBox="0 0 500 36" fill="none" xmlns="http://www.w3.org/2000/svg">
<path d="M401.591 36H408.304C408.465 29.3888 413.875 24.0792 420.525 24.0791C427.175 24.0793 432.585 29.3889 432.746 36H438.569C438.569 29.2484 444.043 23.7745 450.795 23.7744C457.547 23.7744 463.019 29.2483 463.02 36H468.844C468.841 35.8991 468.84 35.7978 468.84 35.6963C468.84 28.9448 474.313 23.4711 481.064 23.4707C487.816 23.4707 493.29 28.9446 493.29 35.6963C493.29 35.7978 493.289 35.8991 493.286 36H500V10.9414L401.591 10.9414V36Z" fill="black"/>
<path d="M301.193 36H307.906C308.068 29.3888 313.478 24.0792 320.128 24.0791C326.778 24.0793 332.187 29.3889 332.349 36H338.172C338.172 29.2484 343.646 23.7745 350.397 23.7744C357.149 23.7745 362.622 29.2484 362.622 36H368.446C368.444 35.8991 368.442 35.7978 368.442 35.6963C368.442 28.9448 373.916 23.4711 380.667 23.4707C387.419 23.4708 392.893 28.9446 392.893 35.6963C392.893 35.7978 392.891 35.8991 392.889 36H399.603V10.9414L301.193 10.9414V36Z" fill="black"/>
<path d="M200.796 36H207.509C207.67 29.3888 213.08 24.0792 219.73 24.0791C226.38 24.0794 231.79 29.3889 231.951 36H237.774C237.774 29.2484 243.248 23.7745 250 23.7744C256.752 23.7746 262.225 29.2484 262.225 36H268.049C268.046 35.8991 268.045 35.7978 268.045 35.6963C268.045 28.9448 273.518 23.4711 280.27 23.4707C287.021 23.4708 292.495 28.9447 292.495 35.6963C292.495 35.7978 292.494 35.8991 292.491 36L299.205 36V10.9414L200.796 10.9414V36Z" fill="black"/>
<path d="M100.398 36H107.111C107.273 29.3888 112.683 24.0792 119.333 24.0791C125.983 24.0795 131.392 29.389 131.554 36H137.377C137.377 29.2484 142.851 23.7745 149.603 23.7744C156.354 23.7747 161.827 29.2485 161.827 36H167.651C167.649 35.8991 167.647 35.7978 167.647 35.6963C167.648 28.9448 173.121 23.4711 179.872 23.4707C186.624 23.4709 192.098 28.9447 192.098 35.6963C192.098 35.7978 192.096 35.8991 192.094 36H198.808V10.9414L100.398 10.9414V36Z" fill="black"/>
<path d="M0 36H6.71289C6.8743 29.389 12.2848 24.0795 18.9346 24.0791C25.5845 24.0793 30.9939 29.3889 31.1553 36H36.9785C36.9786 29.2485 42.4527 23.7748 49.2041 23.7744C55.9558 23.7744 61.4286 29.2483 61.4287 36L67.2529 36C67.2505 35.8991 67.249 35.7978 67.249 35.6963C67.2491 28.945 72.7225 23.4713 79.4736 23.4707C86.2253 23.4707 91.6992 28.9446 91.6992 35.6963C91.6992 35.7978 91.6978 35.8991 91.6953 36H98.4092V10.9414L0 10.9414V36Z" fill="black"/>
<path d="M401.591 8.35254L500 8.35254V0L401.591 0V8.35254Z" fill="black"/>
<path d="M301.193 8.35254L399.603 8.35254V0L301.193 0V8.35254Z" fill="black"/>
<path d="M200.796 8.35254L299.205 8.35254V0L200.796 0V8.35254Z" fill="black"/>
<path d="M100.398 8.35254L198.808 8.35254V0L100.398 0V8.35254Z" fill="black"/>
<path d="M0 8.35254L98.4092 8.35254V0L0 0V8.35254Z" fill="black"/>
</svg>
