<svg width="500" height="36" viewBox="0 0 500 36" fill="none" xmlns="http://www.w3.org/2000/svg">
<path fill-rule="evenodd" clip-rule="evenodd" d="M18 0C8.05887 0 0 8.05887 0 18C0 27.9411 8.05887 36 18 36C22.4201 36 26.4666 34.4052 29.5996 31.7617C32.7326 34.4054 36.7799 36 41.2002 36C45.6202 35.9999 49.6669 34.4052 52.7998 31.7617C55.9327 34.4052 59.9794 35.9999 64.3994 36C68.8196 36 72.867 34.4053 76 31.7617C79.1329 34.4052 83.1796 35.9999 87.5996 36C92.0199 36 96.0672 34.4054 99.2002 31.7617C102.333 34.4052 106.38 35.9999 110.8 36C115.22 36 119.267 34.4054 122.4 31.7617C125.533 34.4052 129.58 36 134 36C138.42 36 142.467 34.4052 145.6 31.7617C148.733 34.4054 152.78 36 157.2 36C161.62 35.9999 165.667 34.4052 168.8 31.7617C171.933 34.4052 175.979 35.9999 180.399 36C184.82 36 188.867 34.4053 192 31.7617C195.133 34.4052 199.18 35.9999 203.6 36C208.02 36 212.067 34.4053 215.2 31.7617C218.333 34.4052 222.38 35.9999 226.8 36C231.22 36 235.267 34.4054 238.4 31.7617C241.533 34.4052 245.58 36 250 36C254.42 36 258.467 34.4052 261.6 31.7617C264.733 34.4054 268.78 36 273.2 36C277.62 35.9999 281.667 34.4052 284.8 31.7617C287.933 34.4052 291.979 35.9999 296.399 36C300.82 36 304.867 34.4053 308 31.7617C311.133 34.4052 315.18 35.9999 319.6 36C324.02 36 328.067 34.4053 331.2 31.7617C334.333 34.4052 338.38 35.9999 342.8 36C347.22 36 351.267 34.4054 354.4 31.7617C357.533 34.4052 361.58 36 366 36C370.42 36 374.467 34.4052 377.6 31.7617C380.733 34.4054 384.78 36 389.2 36C393.62 35.9999 397.667 34.4052 400.8 31.7617C403.933 34.4052 407.979 35.9999 412.399 36C416.82 36 420.867 34.4053 424 31.7617C427.133 34.4052 431.18 35.9999 435.6 36C440.02 36 444.067 34.4053 447.2 31.7617C450.333 34.4052 454.38 35.9999 458.8 36C463.22 36 467.267 34.4054 470.4 31.7617C473.533 34.4052 477.58 36 482 36C491.941 36 500 27.9411 500 18C500 8.05887 491.941 0 482 0C477.58 0 473.533 1.59411 470.4 4.2373C467.267 1.59389 463.22 0 458.8 0C454.38 5.86622e-05 450.333 1.59409 447.2 4.2373C444.067 1.59397 440.02 0 435.6 0C431.18 0.000117324 427.133 1.59406 424 4.2373C420.867 1.59397 416.819 0 412.399 0C407.98 0.000117324 403.933 1.59406 400.8 4.2373C397.667 1.59409 393.62 5.8666e-05 389.2 0C384.78 0 380.733 1.59389 377.6 4.2373C374.467 1.59411 370.42 0 366 0C361.58 0 357.533 1.59411 354.4 4.2373C351.267 1.59389 347.22 0 342.8 0C338.38 5.86622e-05 334.333 1.59409 331.2 4.2373C328.067 1.59397 324.02 0 319.6 0C315.18 0.000117324 311.133 1.59406 308 4.2373C304.867 1.59397 300.819 0 296.399 0C291.98 0.000117324 287.933 1.59406 284.8 4.2373C281.667 1.59409 277.62 5.8666e-05 273.2 0C268.78 0 264.733 1.59389 261.6 4.2373C258.467 1.59411 254.42 0 250 0C245.58 0 241.533 1.59411 238.4 4.2373C235.267 1.59389 231.22 0 226.8 0C222.38 5.86622e-05 218.333 1.59409 215.2 4.2373C212.067 1.59397 208.02 0 203.6 0C199.18 0.000117324 195.133 1.59406 192 4.2373C188.867 1.59397 184.819 0 180.399 0C175.98 0.000117324 171.933 1.59406 168.8 4.2373C165.667 1.59409 161.62 5.8666e-05 157.2 0C152.78 0 148.733 1.59389 145.6 4.2373C142.467 1.59411 138.42 0 134 0C129.58 0 125.533 1.59411 122.4 4.2373C119.267 1.59389 115.22 0 110.8 0C106.38 5.86622e-05 102.333 1.59409 99.2002 4.2373C96.0673 1.59389 92.0197 0 87.5996 0C83.1798 5.86622e-05 79.1328 1.59409 76 4.2373C72.8671 1.59397 68.8194 0 64.3994 0C59.9796 0.000117324 55.9326 1.59406 52.7998 4.2373C49.667 1.59409 45.62 5.8666e-05 41.2002 0C36.7801 0 32.7325 1.59389 29.5996 4.2373C26.4667 1.59411 22.4199 0 18 0ZM18 2C21.8463 2 25.3762 3.35653 28.1357 5.61816C25.0768 8.84462 23.2002 13.203 23.2002 18C23.2002 22.7967 25.0771 27.1544 28.1357 30.3809C25.3761 32.6427 21.8465 34 18 34C9.16345 34 2 26.8366 2 18C2 9.16344 9.16345 2 18 2ZM482 2C490.837 2 498 9.16344 498 18C498 26.8366 490.837 34 482 34C478.154 34 474.625 32.6424 471.865 30.3809C474.924 27.1545 476.8 22.7965 476.8 18C476.8 13.2032 474.924 8.84458 471.865 5.61816C474.625 3.35682 478.154 2 482 2ZM458.8 2C462.646 2 466.176 3.35734 468.936 5.61914C465.877 8.84554 464 13.2033 464 18C464 22.7964 465.877 27.1535 468.936 30.3799C466.176 32.6419 462.646 34 458.8 34C454.954 33.9999 451.426 32.6414 448.666 30.3799C451.724 27.1536 453.6 22.7961 453.6 18C453.6 13.2037 451.724 8.84546 448.666 5.61914C451.425 3.35782 454.954 2.00006 458.8 2ZM435.6 2C439.446 2 442.976 3.35742 445.735 5.61914C442.677 8.84553 440.8 13.2034 440.8 18C440.8 22.7964 442.677 27.1535 445.735 30.3799C442.976 32.6418 439.446 34 435.6 34C431.753 33.9999 428.225 32.6415 425.466 30.3799C428.524 27.1536 430.399 22.7961 430.399 18C430.399 13.2037 428.524 8.84546 425.466 5.61914C428.225 3.3578 431.754 2.00011 435.6 2ZM412.399 2C416.246 2 419.776 3.35742 422.535 5.61914C419.477 8.84551 417.6 13.2034 417.6 18C417.6 22.7963 419.477 27.1536 422.535 30.3799C419.776 32.6418 416.246 34 412.399 34C408.553 33.9999 405.025 32.6415 402.266 30.3799C405.324 27.1536 407.2 22.7961 407.2 18C407.2 13.2036 405.324 8.84548 402.266 5.61914C405.025 3.3578 408.553 2.00011 412.399 2ZM389.2 2C393.046 2.00006 396.575 3.35754 399.335 5.61914C396.276 8.84551 394.399 13.2034 394.399 18C394.399 22.7963 396.277 27.1536 399.335 30.3799C396.575 32.6417 393.047 33.9999 389.2 34C385.354 34 381.825 32.6416 379.065 30.3799C382.123 27.1536 384 22.7962 384 18C384 13.2036 382.124 8.84549 379.065 5.61914C381.825 3.35763 385.354 2 389.2 2ZM366 2C369.846 2 373.376 3.35653 376.136 5.61816C373.077 8.84462 371.2 13.203 371.2 18C371.2 22.7967 373.077 27.1544 376.136 30.3809C373.376 32.6427 369.847 34 366 34C362.154 34 358.625 32.6424 355.865 30.3809C358.924 27.1545 360.8 22.7965 360.8 18C360.8 13.2032 358.924 8.84458 355.865 5.61816C358.625 3.35682 362.154 2 366 2ZM342.8 2C346.646 2 350.176 3.35734 352.936 5.61914C349.877 8.84554 348 13.2033 348 18C348 22.7964 349.877 27.1535 352.936 30.3799C350.176 32.6419 346.646 34 342.8 34C338.954 33.9999 335.426 32.6414 332.666 30.3799C335.724 27.1536 337.6 22.7961 337.6 18C337.6 13.2037 335.724 8.84546 332.666 5.61914C335.425 3.35782 338.954 2.00006 342.8 2ZM319.6 2C323.446 2 326.976 3.35742 329.735 5.61914C326.677 8.84553 324.8 13.2034 324.8 18C324.8 22.7964 326.677 27.1535 329.735 30.3799C326.976 32.6418 323.446 34 319.6 34C315.753 33.9999 312.225 32.6415 309.466 30.3799C312.524 27.1536 314.399 22.7961 314.399 18C314.399 13.2037 312.524 8.84546 309.466 5.61914C312.225 3.3578 315.754 2.00011 319.6 2ZM296.399 2C300.246 2 303.776 3.35742 306.535 5.61914C303.477 8.84551 301.6 13.2034 301.6 18C301.6 22.7963 303.477 27.1536 306.535 30.3799C303.775 32.6418 300.246 34 296.399 34C292.553 33.9999 289.025 32.6415 286.266 30.3799C289.324 27.1536 291.2 22.7961 291.2 18C291.2 13.2036 289.324 8.84548 286.266 5.61914C289.025 3.3578 292.553 2.00011 296.399 2ZM273.2 2C277.046 2.00006 280.575 3.35754 283.335 5.61914C280.277 8.84551 278.399 13.2034 278.399 18C278.399 22.7963 280.277 27.1536 283.335 30.3799C280.575 32.6417 277.047 33.9999 273.2 34C269.354 34 265.825 32.6416 263.065 30.3799C266.123 27.1536 268 22.7962 268 18C268 13.2036 266.124 8.84549 263.065 5.61914C265.825 3.35763 269.354 2 273.2 2ZM250 2C253.846 2 257.376 3.35653 260.136 5.61816C257.077 8.84462 255.2 13.203 255.2 18C255.2 22.7967 257.077 27.1544 260.136 30.3809C257.376 32.6427 253.847 34 250 34C246.154 34 242.625 32.6424 239.865 30.3809C242.924 27.1545 244.8 22.7965 244.8 18C244.8 13.2032 242.924 8.84458 239.865 5.61816C242.625 3.35682 246.154 2 250 2ZM226.8 2C230.646 2 234.176 3.35734 236.936 5.61914C233.877 8.84554 232 13.2033 232 18C232 22.7964 233.877 27.1535 236.936 30.3799C234.176 32.6419 230.646 34 226.8 34C222.954 33.9999 219.426 32.6414 216.666 30.3799C219.724 27.1536 221.6 22.7961 221.6 18C221.6 13.2037 219.724 8.84546 216.666 5.61914C219.425 3.35782 222.954 2.00006 226.8 2ZM203.6 2C207.446 2 210.976 3.35742 213.735 5.61914C210.677 8.84553 208.8 13.2034 208.8 18C208.8 22.7964 210.677 27.1535 213.735 30.3799C210.976 32.6418 207.446 34 203.6 34C199.753 33.9999 196.225 32.6415 193.466 30.3799C196.524 27.1536 198.399 22.7961 198.399 18C198.399 13.2037 196.524 8.84546 193.466 5.61914C196.225 3.3578 199.754 2.00011 203.6 2ZM180.399 2C184.246 2 187.776 3.35742 190.535 5.61914C187.477 8.84551 185.6 13.2034 185.6 18C185.6 22.7963 187.477 27.1536 190.535 30.3799C187.776 32.6418 184.246 34 180.399 34C176.553 33.9999 173.025 32.6415 170.266 30.3799C173.324 27.1536 175.2 22.7961 175.2 18C175.2 13.2036 173.324 8.84548 170.266 5.61914C173.025 3.3578 176.553 2.00011 180.399 2ZM157.2 2C161.046 2.00006 164.575 3.35754 167.335 5.61914C164.276 8.84551 162.399 13.2034 162.399 18C162.399 22.7963 164.277 27.1536 167.335 30.3799C164.575 32.6417 161.047 33.9999 157.2 34C153.354 34 149.825 32.6416 147.065 30.3799C150.123 27.1536 152 22.7962 152 18C152 13.2036 150.124 8.84549 147.065 5.61914C149.825 3.35763 153.354 2 157.2 2ZM134 2C137.846 2 141.376 3.35653 144.136 5.61816C141.077 8.84462 139.2 13.203 139.2 18C139.2 22.7967 141.077 27.1544 144.136 30.3809C141.376 32.6427 137.847 34 134 34C130.154 34 126.625 32.6424 123.865 30.3809C126.924 27.1545 128.8 22.7965 128.8 18C128.8 13.2032 126.924 8.84458 123.865 5.61816C126.625 3.35682 130.154 2 134 2ZM110.8 2C114.646 2 118.176 3.35734 120.936 5.61914C117.877 8.84554 116 13.2033 116 18C116 22.7964 117.877 27.1535 120.936 30.3799C118.176 32.6419 114.646 34 110.8 34C106.954 33.9999 103.426 32.6414 100.666 30.3799C103.724 27.1536 105.6 22.796 105.6 18C105.6 13.2037 103.724 8.84545 100.666 5.61914C103.425 3.35782 106.954 2.00006 110.8 2ZM87.5996 2C91.4461 2 94.9757 3.35734 97.7354 5.61914C94.6768 8.84553 92.7998 13.2034 92.7998 18C92.7998 22.7964 94.6771 27.1535 97.7354 30.3799C94.9757 32.6419 91.4463 34 87.5996 34C83.7534 33.9999 80.2253 32.6414 77.4658 30.3799C80.5237 27.1536 82.3994 22.7961 82.3994 18C82.3994 13.2037 80.524 8.84546 77.4658 5.61914C80.2253 3.35782 83.7536 2.00006 87.5996 2ZM64.3994 2C68.2458 2 71.7756 3.35742 74.5352 5.61914C71.4766 8.84553 69.5996 13.2034 69.5996 18C69.5996 22.7964 71.4769 27.1535 74.5352 30.3799C71.7755 32.6418 68.246 34 64.3994 34C60.5533 33.9999 57.0251 32.6415 54.2656 30.3799C57.3236 27.1536 59.2002 22.7961 59.2002 18C59.2002 13.2036 57.3239 8.84548 54.2656 5.61914C57.025 3.3578 60.5535 2.00011 64.3994 2ZM41.2002 2C45.0464 2.00006 48.5755 3.35754 51.335 5.61914C48.2765 8.84551 46.3994 13.2034 46.3994 18C46.3994 22.7963 48.2768 27.1536 51.335 30.3799C48.5754 32.6417 45.0467 33.9999 41.2002 34C37.3538 34 33.825 32.6416 31.0654 30.3799C34.1235 27.1536 36 22.7962 36 18C36 13.2036 34.1237 8.84549 31.0654 5.61914C33.825 3.35763 37.354 2 41.2002 2ZM29.6006 6.97949C32.3273 9.8488 34 13.7293 34 18C34 22.2705 32.327 26.1503 29.6006 29.0195C26.8738 26.1502 25.2002 22.2708 25.2002 18C25.2002 13.729 26.8735 9.84886 29.6006 6.97949ZM470.4 6.97949C473.127 9.84881 474.8 13.7292 474.8 18C474.8 22.2705 473.127 26.1503 470.4 29.0195C467.674 26.1502 466 22.2707 466 18C466 13.729 467.673 9.84885 470.4 6.97949ZM447.2 6.97949C449.927 9.84883 451.6 13.7291 451.6 18C451.6 22.2706 449.927 26.1502 447.2 29.0195C444.474 26.1502 442.8 22.2707 442.8 18C442.8 13.7291 444.473 9.84884 447.2 6.97949ZM400.801 6.97949C403.527 9.84879 405.2 13.7293 405.2 18C405.2 22.2704 403.527 26.1503 400.801 29.0195C398.074 26.1502 396.399 22.2709 396.399 18C396.399 13.7289 398.074 9.84888 400.801 6.97949ZM377.601 6.97949C380.327 9.8488 382 13.7293 382 18C382 22.2705 380.327 26.1503 377.601 29.0195C374.874 26.1502 373.2 22.2708 373.2 18C373.2 13.729 374.874 9.84886 377.601 6.97949ZM354.4 6.97949C357.127 9.84881 358.8 13.7292 358.8 18C358.8 22.2705 357.127 26.1503 354.4 29.0195C351.674 26.1502 350 22.2707 350 18C350 13.729 351.673 9.84885 354.4 6.97949ZM331.2 6.97949C333.927 9.84883 335.6 13.7291 335.6 18C335.6 22.2706 333.927 26.1502 331.2 29.0195C328.474 26.1502 326.8 22.2707 326.8 18C326.8 13.7291 328.473 9.84884 331.2 6.97949ZM284.801 6.97949C287.527 9.84879 289.2 13.7293 289.2 18C289.2 22.2704 287.527 26.1503 284.801 29.0195C282.074 26.1502 280.399 22.2709 280.399 18C280.399 13.7289 282.074 9.84888 284.801 6.97949ZM261.601 6.97949C264.327 9.8488 266 13.7293 266 18C266 22.2705 264.327 26.1503 261.601 29.0195C258.874 26.1502 257.2 22.2708 257.2 18C257.2 13.729 258.874 9.84886 261.601 6.97949ZM238.4 6.97949C241.127 9.84881 242.8 13.7292 242.8 18C242.8 22.2705 241.127 26.1503 238.4 29.0195C235.674 26.1502 234 22.2707 234 18C234 13.729 235.673 9.84885 238.4 6.97949ZM215.2 6.97949C217.927 9.84883 219.6 13.7291 219.6 18C219.6 22.2706 217.927 26.1502 215.2 29.0195C212.474 26.1502 210.8 22.2707 210.8 18C210.8 13.7291 212.473 9.84884 215.2 6.97949ZM168.801 6.97949C171.527 9.84879 173.2 13.7293 173.2 18C173.2 22.2704 171.527 26.1503 168.801 29.0195C166.074 26.1502 164.399 22.2709 164.399 18C164.399 13.7289 166.074 9.84888 168.801 6.97949ZM145.601 6.97949C148.327 9.8488 150 13.7293 150 18C150 22.2705 148.327 26.1503 145.601 29.0195C142.874 26.1502 141.2 22.2708 141.2 18C141.2 13.729 142.874 9.84886 145.601 6.97949ZM122.4 6.97949C125.127 9.84881 126.8 13.7292 126.8 18C126.8 22.2705 125.127 26.1503 122.4 29.0195C119.674 26.1502 118 22.2707 118 18C118 13.729 119.673 9.84885 122.4 6.97949ZM99.2002 6.97949C101.927 9.84881 103.6 13.7292 103.6 18C103.6 22.2705 101.927 26.1503 99.2002 29.0195C96.4736 26.1502 94.7998 22.2707 94.7998 18C94.7998 13.7291 96.4733 9.84884 99.2002 6.97949ZM76 6.97949C78.7268 9.84883 80.3994 13.7291 80.3994 18C80.3994 22.2706 78.7266 26.1502 76 29.0195C73.2734 26.1502 71.5996 22.2707 71.5996 18C71.5996 13.7291 73.2731 9.84884 76 6.97949ZM52.8008 6.97949C55.5274 9.84879 57.2002 13.7293 57.2002 18C57.2002 22.2704 55.5271 26.1503 52.8008 29.0195C50.0739 26.1502 48.3994 22.2709 48.3994 18C48.3994 13.7289 50.0737 9.84888 52.8008 6.97949ZM424 6.98047C426.727 9.84975 428.399 13.7294 428.399 18C428.399 22.2704 426.726 26.1493 424 29.0186C421.274 26.1493 419.6 22.2704 419.6 18C419.6 13.7294 421.273 9.84975 424 6.98047ZM308 6.98047C310.727 9.84975 312.399 13.7294 312.399 18C312.399 22.2704 310.726 26.1493 308 29.0186C305.274 26.1493 303.6 22.2704 303.6 18C303.6 13.7294 305.273 9.84975 308 6.98047ZM192 6.98047C194.727 9.84975 196.399 13.7294 196.399 18C196.399 22.2704 194.726 26.1493 192 29.0186C189.274 26.1493 187.6 22.2704 187.6 18C187.6 13.7294 189.273 9.84975 192 6.98047Z" fill="black"/>
</svg>
