<svg width="500" height="37" viewBox="0 0 500 37" fill="none" xmlns="http://www.w3.org/2000/svg">
<path d="M497.012 0.147461H499V36.1475H497.012V0.147461ZM447.311 0.147461H449.299V36.1475H447.311V0.147461ZM397.609 0.147461H399.598V36.1475H397.609V0.147461ZM347.908 0.147461H349.896V36.1475H347.908V0.147461ZM298.207 0.147461H300.195V36.1475H298.207V0.147461ZM248.506 0.147461H250.494V36.1475H248.506V0.147461ZM198.805 0.147461H200.793V36.1475H198.805V0.147461ZM149.104 0.147461H151.092V36.1475H149.104V0.147461ZM99.4023 0.147461H101.391V36.1475H99.4023V0.147461ZM49.7012 0.147461H51.6895V36.1475H49.7012V0.147461ZM0 0.147461H1.98828V36.1475H0V0.147461ZM487.071 12.1475H489.06V36.1475H487.071V12.1475ZM477.132 12.1475H479.119V36.1475H477.132V12.1475ZM467.191 12.1475H469.18V36.1475H467.191V12.1475ZM457.251 12.1475H459.239V36.1475H457.251V12.1475ZM437.37 12.1475H439.358V36.1475H437.37V12.1475ZM427.431 12.1475H429.418V36.1475H427.431V12.1475ZM417.49 12.1475H419.479V36.1475H417.49V12.1475ZM407.55 12.1475H409.538V36.1475H407.55V12.1475ZM387.669 12.1475H389.657V36.1475H387.669V12.1475ZM377.729 12.1475H379.717V36.1475H377.729V12.1475ZM367.789 12.1475L369.777 12.1475V36.1475H367.789V12.1475ZM357.849 12.1475H359.837V36.1475H357.849V12.1475ZM337.968 12.1475L339.956 12.1475V36.1475H337.968V12.1475ZM328.028 12.1475H330.016V36.1475H328.028V12.1475ZM318.088 12.1475H320.076V36.1475H318.088V12.1475ZM308.147 12.1475H310.136V36.1475H308.147V12.1475ZM288.267 12.1475H290.255V36.1475H288.267V12.1475ZM278.327 12.1475H280.314V36.1475H278.327V12.1475ZM268.387 12.1475H270.374V36.1475H268.387V12.1475ZM258.446 12.1475H260.435V36.1475H258.446V12.1475ZM238.565 12.1475H240.554V36.1475H238.565V12.1475ZM228.626 12.1475H230.613V36.1475H228.626V12.1475ZM218.686 12.1475H220.673V36.1475H218.686V12.1475ZM208.745 12.1475H210.733V36.1475H208.745V12.1475ZM188.864 12.1475H190.853V36.1475H188.864V12.1475ZM178.924 12.1475H180.912V36.1475L178.924 36.1475V12.1475ZM168.984 12.1475H170.972V36.1475H168.984V12.1475ZM159.044 12.1475H161.032V36.1475H159.044V12.1475ZM139.163 12.1475H141.151V36.1475H139.163V12.1475ZM129.223 12.1475H131.211V36.1475H129.223V12.1475ZM119.283 12.1475H121.271V36.1475H119.283V12.1475ZM109.343 12.1475H111.331V36.1475H109.343V12.1475ZM89.4619 12.1475H91.4502V36.1475H89.4619V12.1475ZM79.5215 12.1475H81.5098V36.1475H79.5215V12.1475ZM69.582 12.1475H71.5693V36.1475H69.582V12.1475ZM59.6416 12.1475H61.6299V36.1475H59.6416V12.1475ZM39.7607 12.1475H41.749V36.1475H39.7607V12.1475ZM29.8203 12.1475H31.8086V36.1475H29.8203V12.1475ZM19.8809 12.1475L21.8682 12.1475V36.1475H19.8809V12.1475ZM9.94043 12.1475H11.9287V36.1475H9.94043V12.1475ZM492.042 24.1475H494.03V36.1475H492.042V24.1475ZM482.102 24.1475H484.09V36.1475H482.102V24.1475ZM472.161 24.1475H474.149V36.1475H472.161V24.1475ZM462.221 24.1475L464.209 24.1475V36.1475H462.221V24.1475ZM452.281 24.1475H454.269V36.1475H452.281V24.1475ZM442.341 24.1475H444.329V36.1475H442.341V24.1475ZM432.4 24.1475H434.389V36.1475H432.4V24.1475ZM422.46 24.1475H424.448V36.1475H422.46V24.1475ZM412.52 24.1475H414.508V36.1475H412.52V24.1475ZM402.58 24.1475H404.567V36.1475H402.58V24.1475ZM392.64 24.1475H394.628V36.1475H392.64V24.1475ZM382.699 24.1475H384.688V36.1475H382.699V24.1475ZM372.759 24.1475H374.747V36.1475H372.759V24.1475ZM362.818 24.1475H364.807V36.1475H362.818V24.1475ZM352.879 24.1475H354.866V36.1475L352.879 36.1475V24.1475ZM342.938 24.1475H344.927V36.1475H342.938V24.1475ZM332.998 24.1475H334.986V36.1475H332.998V24.1475ZM323.058 24.1475H325.046V36.1475H323.058V24.1475ZM313.117 24.1475H315.105V36.1475H313.117V24.1475ZM303.178 24.1475L305.165 24.1475V36.1475H303.178V24.1475ZM293.237 24.1475H295.226V36.1475H293.237V24.1475ZM283.297 24.1475H285.285V36.1475H283.297V24.1475ZM273.356 24.1475H275.345V36.1475H273.356V24.1475ZM263.416 24.1475H265.404V36.1475H263.416V24.1475ZM253.477 24.1475H255.464V36.1475H253.477V24.1475ZM243.536 24.1475L245.523 24.1475V36.1475H243.536V24.1475ZM233.596 24.1475H235.584V36.1475H233.596V24.1475ZM223.655 24.1475H225.644V36.1475H223.655V24.1475ZM213.715 24.1475H215.703V36.1475H213.715V24.1475ZM203.774 24.1475H205.763V36.1475H203.774V24.1475ZM193.835 24.1475H195.822V36.1475H193.835V24.1475ZM183.895 24.1475H185.883V36.1475H183.895V24.1475ZM173.954 24.1475H175.942V36.1475H173.954V24.1475ZM164.014 24.1475H166.002V36.1475H164.014V24.1475ZM154.073 24.1475H156.062V36.1475H154.073V24.1475ZM144.134 24.1475H146.121V36.1475H144.134V24.1475ZM134.193 24.1475H136.182V36.1475H134.193V24.1475ZM124.253 24.1475H126.241V36.1475H124.253V24.1475ZM114.312 24.1475L116.301 24.1475V36.1475H114.312V24.1475ZM104.372 24.1475H106.36V36.1475H104.372V24.1475ZM94.4326 24.1475H96.4199V36.1475H94.4326V24.1475ZM84.4922 24.1475H86.4805V36.1475H84.4922V24.1475ZM74.5518 24.1475H76.54V36.1475H74.5518V24.1475ZM64.6113 24.1475H66.5996V36.1475H64.6113V24.1475ZM54.6709 24.1475L56.6592 24.1475V36.1475H54.6709V24.1475ZM44.7314 24.1475H46.7188V36.1475H44.7314V24.1475ZM34.791 24.1475H36.7793V36.1475H34.791V24.1475ZM24.8506 24.1475H26.8389V36.1475H24.8506V24.1475ZM14.9102 24.1475H16.8984V36.1475H14.9102V24.1475ZM4.96973 24.1475H6.95801V36.1475L4.96973 36.1475V24.1475Z" fill="black"/>
</svg>
