<svg width="502" height="38" viewBox="0 0 502 38" fill="none" xmlns="http://www.w3.org/2000/svg">
<path d="M459.37 0.396423L459.309 0.232361L417.739 0.232361L417.691 0.362244L417.643 0.232361L376.073 0.232361L376.024 0.364197L375.976 0.232361L334.406 0.232361L334.357 0.364197L334.309 0.232361L292.74 0.232361L292.691 0.364197L292.643 0.232361L251.073 0.232361L251.024 0.364197L250.976 0.232361L209.406 0.232361L209.358 0.362244L209.31 0.232361L167.74 0.232361L167.691 0.364197L167.643 0.232361L126.073 0.232361L126.025 0.362244L125.977 0.232361L84.4072 0.232361L84.3584 0.364197L84.3096 0.232361L42.7402 0.232361L42.6553 0.461853L42.5693 0.232361L1 0.232361L0.5 0.732361V36.7324L1 37.2324L42.5693 37.2324L42.6553 37.0029L42.7402 37.2324L84.3096 37.2324L84.3584 37.1005L84.4072 37.2324L125.977 37.2324L126.025 37.1025L126.073 37.2324H167.643L167.691 37.1005L167.74 37.2324L209.31 37.2324L209.358 37.1025L209.406 37.2324L250.976 37.2324L251.024 37.1005L251.073 37.2324H292.643L292.691 37.1005L292.74 37.2324L334.309 37.2324L334.357 37.1005L334.406 37.2324L375.976 37.2324L376.024 37.1005L376.073 37.2324L417.643 37.2324L417.691 37.1025L417.739 37.2324H459.309L459.37 37.0683L459.431 37.2324L501 37.2324L501.5 36.7324V0.732361L501 0.232361L459.431 0.232361L459.37 0.396423ZM499.659 36.2324H481.557L490.608 28.3935L499.659 36.2324ZM478.875 36.2324L460.771 36.2324L469.823 28.3935L478.875 36.2324ZM457.968 36.2324H439.865L448.917 28.3935L457.968 36.2324ZM437.184 36.2324H419.08L428.132 28.3935L437.184 36.2324ZM416.302 36.2324L398.198 36.2324L407.25 28.3935L416.302 36.2324ZM395.517 36.2324H377.414L386.466 28.3935L395.517 36.2324ZM374.635 36.2324H356.532L365.584 28.3935L374.635 36.2324ZM353.851 36.2324H335.747L344.799 28.3935L353.851 36.2324ZM332.968 36.2324H314.865L323.917 28.3935L332.968 36.2324ZM312.184 36.2324L294.081 36.2324L303.133 28.3935L312.184 36.2324ZM291.302 36.2324H273.198L282.25 28.3935L291.302 36.2324ZM270.517 36.2324H252.414L261.466 28.3935L270.517 36.2324ZM249.635 36.2324L231.532 36.2324L240.584 28.3935L249.635 36.2324ZM228.851 36.2324H210.747L219.799 28.3935L228.851 36.2324ZM207.969 36.2324H189.865L198.917 28.3935L207.969 36.2324ZM187.184 36.2324L169.081 36.2324L178.133 28.3935L187.184 36.2324ZM166.302 36.2324H148.199L157.251 28.3935L166.302 36.2324ZM145.518 36.2324H127.414L136.466 28.3935L145.518 36.2324ZM124.636 36.2324L106.532 36.2324L115.584 28.3935L124.636 36.2324ZM103.851 36.2324H85.748L94.7998 28.3935L103.851 36.2324ZM82.9688 36.2324L64.8662 36.2324L73.918 28.3935L82.9688 36.2324ZM62.1846 36.2324H44.0811L53.1328 28.3935L62.1846 36.2324ZM41.2285 36.2324H23.125L32.1768 28.3935L41.2285 36.2324ZM20.4434 36.2324L2.34082 36.2324L11.3926 28.3935L20.4434 36.2324ZM42.6553 36.1445L33.5176 28.2324H51.792L42.6553 36.1445ZM459.37 36.124L450.258 28.2324L468.482 28.2324L459.37 36.124ZM376.024 36.1132L366.925 28.2324L385.124 28.2324L376.024 36.1132ZM334.358 36.1132L325.258 28.2324L343.458 28.2324L334.358 36.1132ZM292.691 36.1132L283.591 28.2324L301.791 28.2324L292.691 36.1132ZM251.024 36.1132L241.925 28.2324L260.124 28.2324L251.024 36.1132ZM167.691 36.1132L158.592 28.2324L176.791 28.2324L167.691 36.1132ZM84.3584 36.1132L75.2588 28.2324L93.458 28.2324L84.3584 36.1132ZM417.691 36.1122L408.591 28.2324H426.791L417.691 36.1122ZM209.358 36.1122L200.258 28.2324H218.458L209.358 36.1122ZM126.025 36.1122L116.925 28.2324H135.125L126.025 36.1122ZM480.216 36.0703L471.164 28.2324L489.267 28.2324L480.216 36.0703ZM438.524 36.0703L429.473 28.2324H447.575L438.524 36.0703ZM396.858 36.0703L387.807 28.2324L405.909 28.2324L396.858 36.0703ZM355.191 36.0703L346.14 28.2324H364.242L355.191 36.0703ZM313.524 36.0703L304.474 28.2324L322.575 28.2324L313.524 36.0703ZM271.858 36.0703L262.807 28.2324H280.909L271.858 36.0703ZM230.191 36.0703L221.14 28.2324L239.242 28.2324L230.191 36.0703ZM188.525 36.0703L179.474 28.2324L197.576 28.2324L188.525 36.0703ZM146.858 36.0703L137.807 28.2324L155.909 28.2324L146.858 36.0703ZM105.192 36.0703L96.1406 28.2324L114.243 28.2324L105.192 36.0703ZM63.5254 36.0703L54.4736 28.2324H72.5762L63.5254 36.0703ZM21.7852 36.0703L12.7334 28.2324L30.8359 28.2324L21.7852 36.0703ZM500.5 35.6376L491.949 28.2324H500.5V35.6376ZM1.5 35.6376V28.2324H10.0508L1.5 35.6376ZM500.5 27.2324H491.949L500.5 19.8261V27.2324ZM489.267 27.2324L471.164 27.2324L480.216 19.3935L489.267 27.2324ZM468.482 27.2324L450.258 27.2324L459.37 19.3398L468.482 27.2324ZM447.575 27.2324H429.473L438.524 19.3935L447.575 27.2324ZM426.791 27.2324H408.591L417.691 19.3515L426.791 27.2324ZM405.909 27.2324L387.807 27.2324L396.858 19.3935L405.909 27.2324ZM385.124 27.2324L366.925 27.2324L376.024 19.3505L385.124 27.2324ZM364.242 27.2324H346.14L355.191 19.3935L364.242 27.2324ZM343.458 27.2324L325.258 27.2324L334.358 19.3505L343.458 27.2324ZM322.575 27.2324L304.474 27.2324L313.524 19.3935L322.575 27.2324ZM301.791 27.2324L283.591 27.2324L292.691 19.3505L301.791 27.2324ZM280.909 27.2324H262.807L271.858 19.3935L280.909 27.2324ZM260.124 27.2324L241.925 27.2324L251.024 19.3505L260.124 27.2324ZM239.242 27.2324L221.14 27.2324L230.191 19.3935L239.242 27.2324ZM218.458 27.2324H200.258L209.358 19.3515L218.458 27.2324ZM197.576 27.2324L179.474 27.2324L188.525 19.3935L197.576 27.2324ZM176.791 27.2324L158.592 27.2324L167.691 19.3505L176.791 27.2324ZM155.909 27.2324L137.807 27.2324L146.858 19.3935L155.909 27.2324ZM135.125 27.2324H116.925L126.025 19.3515L135.125 27.2324ZM114.243 27.2324L96.1406 27.2324L105.192 19.3935L114.243 27.2324ZM93.458 27.2324L75.2588 27.2324L84.3584 19.3505L93.458 27.2324ZM72.5762 27.2324H54.4736L63.5254 19.3935L72.5762 27.2324ZM51.792 27.2324H33.5176L42.6553 19.3193L51.792 27.2324ZM30.8359 27.2324L12.7334 27.2324L21.7852 19.3935L30.8359 27.2324ZM10.0508 27.2324H1.5V19.8261L10.0508 27.2324ZM490.608 27.0703L481.557 19.2324L499.659 19.2324L490.608 27.0703ZM469.823 27.0703L460.771 19.2324H478.875L469.823 27.0703ZM448.917 27.0703L439.865 19.2324H457.968L448.917 27.0703ZM428.132 27.0703L419.08 19.2324L437.184 19.2324L428.132 27.0703ZM407.25 27.0703L398.198 19.2324L416.302 19.2324L407.25 27.0703ZM386.466 27.0703L377.414 19.2324H395.517L386.466 27.0703ZM365.584 27.0703L356.532 19.2324L374.635 19.2324L365.584 27.0703ZM344.799 27.0703L335.747 19.2324L353.851 19.2324L344.799 27.0703ZM323.917 27.0703L314.865 19.2324H332.968L323.917 27.0703ZM303.133 27.0703L294.081 19.2324H312.184L303.133 27.0703ZM282.25 27.0703L273.198 19.2324L291.302 19.2324L282.25 27.0703ZM261.466 27.0703L252.414 19.2324L270.517 19.2324L261.466 27.0703ZM240.584 27.0703L231.532 19.2324H249.635L240.584 27.0703ZM219.799 27.0703L210.747 19.2324L228.851 19.2324L219.799 27.0703ZM198.917 27.0703L189.865 19.2324L207.969 19.2324L198.917 27.0703ZM178.133 27.0703L169.081 19.2324H187.184L178.133 27.0703ZM157.251 27.0703L148.199 19.2324H166.302L157.251 27.0703ZM136.466 27.0703L127.414 19.2324L145.518 19.2324L136.466 27.0703ZM115.584 27.0703L106.532 19.2324L124.636 19.2324L115.584 27.0703ZM94.7998 27.0703L85.748 19.2324H103.851L94.7998 27.0703ZM73.918 27.0703L64.8662 19.2324L82.9688 19.2324L73.918 27.0703ZM53.1328 27.0703L44.0811 19.2324L62.1846 19.2324L53.1328 27.0703ZM32.1768 27.0703L23.125 19.2324H41.2285L32.1768 27.0703ZM11.3926 27.0703L2.34082 19.2324H20.4434L11.3926 27.0703ZM499.659 18.2324L481.557 18.2324L490.608 10.3935L499.659 18.2324ZM478.875 18.2324H460.771L469.823 10.3935L478.875 18.2324ZM457.968 18.2324H439.865L448.917 10.3935L457.968 18.2324ZM437.184 18.2324L419.08 18.2324L428.132 10.3935L437.184 18.2324ZM416.302 18.2324L398.198 18.2324L407.25 10.3935L416.302 18.2324ZM395.517 18.2324H377.414L386.466 10.3935L395.517 18.2324ZM374.635 18.2324L356.532 18.2324L365.584 10.3935L374.635 18.2324ZM353.851 18.2324L335.747 18.2324L344.799 10.3935L353.851 18.2324ZM332.968 18.2324H314.865L323.917 10.3935L332.968 18.2324ZM312.184 18.2324H294.081L303.133 10.3935L312.184 18.2324ZM291.302 18.2324L273.198 18.2324L282.25 10.3935L291.302 18.2324ZM270.517 18.2324L252.414 18.2324L261.466 10.3935L270.517 18.2324ZM249.635 18.2324H231.532L240.584 10.3935L249.635 18.2324ZM228.851 18.2324L210.747 18.2324L219.799 10.3935L228.851 18.2324ZM207.969 18.2324L189.865 18.2324L198.917 10.3935L207.969 18.2324ZM187.184 18.2324H169.081L178.133 10.3935L187.184 18.2324ZM166.302 18.2324H148.199L157.251 10.3935L166.302 18.2324ZM145.518 18.2324L127.414 18.2324L136.466 10.3935L145.518 18.2324ZM124.636 18.2324L106.532 18.2324L115.584 10.3935L124.636 18.2324ZM103.851 18.2324H85.748L94.7998 10.3935L103.851 18.2324ZM82.9688 18.2324L64.8662 18.2324L73.918 10.3935L82.9688 18.2324ZM62.1846 18.2324L44.0811 18.2324L53.1328 10.3935L62.1846 18.2324ZM41.2285 18.2324H23.125L32.1768 10.3935L41.2285 18.2324ZM20.4434 18.2324H2.34082L11.3926 10.3935L20.4434 18.2324ZM42.6553 18.1445L33.5176 10.2324L51.792 10.2324L42.6553 18.1445ZM459.37 18.124L450.258 10.2324L468.482 10.2324L459.37 18.124ZM376.024 18.1132L366.925 10.2324L385.124 10.2324L376.024 18.1132ZM334.358 18.1132L325.258 10.2324L343.458 10.2324L334.358 18.1132ZM292.691 18.1132L283.591 10.2324L301.791 10.2324L292.691 18.1132ZM251.024 18.1132L241.925 10.2324L260.124 10.2324L251.024 18.1132ZM167.691 18.1132L158.592 10.2324L176.791 10.2324L167.691 18.1132ZM84.3584 18.1132L75.2588 10.2324L93.458 10.2324L84.3584 18.1132ZM417.691 18.1122L408.591 10.2324L426.791 10.2324L417.691 18.1122ZM209.358 18.1122L200.258 10.2324L218.458 10.2324L209.358 18.1122ZM126.025 18.1122L116.925 10.2324L135.125 10.2324L126.025 18.1122ZM480.216 18.0703L471.164 10.2324L489.267 10.2324L480.216 18.0703ZM438.524 18.0703L429.473 10.2324L447.575 10.2324L438.524 18.0703ZM396.858 18.0703L387.807 10.2324L405.909 10.2324L396.858 18.0703ZM355.191 18.0703L346.14 10.2324L364.242 10.2324L355.191 18.0703ZM313.524 18.0703L304.474 10.2324L322.575 10.2324L313.524 18.0703ZM271.858 18.0703L262.807 10.2324L280.909 10.2324L271.858 18.0703ZM230.191 18.0703L221.14 10.2324L239.242 10.2324L230.191 18.0703ZM188.525 18.0703L179.474 10.2324L197.576 10.2324L188.525 18.0703ZM146.858 18.0703L137.807 10.2324L155.909 10.2324L146.858 18.0703ZM105.192 18.0703L96.1406 10.2324L114.243 10.2324L105.192 18.0703ZM63.5254 18.0703L54.4736 10.2324L72.5762 10.2324L63.5254 18.0703ZM21.7852 18.0703L12.7334 10.2324L30.8359 10.2324L21.7852 18.0703ZM500.5 17.6376L491.949 10.2324L500.5 10.2324V17.6376ZM1.5 17.6376V10.2324H10.0508L1.5 17.6376ZM500.5 9.23236L491.949 9.23236L500.5 1.82611V9.23236ZM489.267 9.23236L471.164 9.23236L480.216 1.39349L489.267 9.23236ZM468.482 9.23236L450.258 9.23236L459.37 1.33978L468.482 9.23236ZM447.575 9.23236L429.473 9.23236L438.524 1.39349L447.575 9.23236ZM426.791 9.23236L408.591 9.23236L417.691 1.3515L426.791 9.23236ZM405.909 9.23236L387.807 9.23236L396.858 1.39349L405.909 9.23236ZM385.124 9.23236L366.925 9.23236L376.024 1.35052L385.124 9.23236ZM364.242 9.23236L346.14 9.23236L355.191 1.39349L364.242 9.23236ZM343.458 9.23236L325.258 9.23236L334.358 1.35052L343.458 9.23236ZM322.575 9.23236L304.474 9.23236L313.524 1.39349L322.575 9.23236ZM301.791 9.23236L283.591 9.23236L292.691 1.35052L301.791 9.23236ZM280.909 9.23236L262.807 9.23236L271.858 1.39349L280.909 9.23236ZM260.124 9.23236L241.925 9.23236L251.024 1.35052L260.124 9.23236ZM239.242 9.23236L221.14 9.23236L230.191 1.39349L239.242 9.23236ZM218.458 9.23236L200.258 9.23236L209.358 1.3515L218.458 9.23236ZM197.576 9.23236L179.474 9.23236L188.525 1.39349L197.576 9.23236ZM176.791 9.23236L158.592 9.23236L167.691 1.35052L176.791 9.23236ZM155.909 9.23236L137.807 9.23236L146.858 1.39349L155.909 9.23236ZM135.125 9.23236L116.925 9.23236L126.025 1.3515L135.125 9.23236ZM114.243 9.23236L96.1406 9.23236L105.192 1.39349L114.243 9.23236ZM93.458 9.23236L75.2588 9.23236L84.3584 1.35052L93.458 9.23236ZM72.5762 9.23236L54.4736 9.23236L63.5254 1.39349L72.5762 9.23236ZM51.792 9.23236L33.5176 9.23236L42.6553 1.31927L51.792 9.23236ZM30.8359 9.23236L12.7334 9.23236L21.7852 1.39349L30.8359 9.23236ZM10.0508 9.23236H1.5V1.82611L10.0508 9.23236ZM490.608 9.07025L481.557 1.23236L499.659 1.23236L490.608 9.07025ZM469.823 9.07025L460.771 1.23236L478.875 1.23236L469.823 9.07025ZM448.917 9.07025L439.865 1.23236L457.968 1.23236L448.917 9.07025ZM428.132 9.07025L419.08 1.23236L437.184 1.23236L428.132 9.07025ZM407.25 9.07025L398.198 1.23236L416.302 1.23236L407.25 9.07025ZM386.466 9.07025L377.414 1.23236L395.517 1.23236L386.466 9.07025ZM365.584 9.07025L356.532 1.23236L374.635 1.23236L365.584 9.07025ZM344.799 9.07025L335.747 1.23236L353.851 1.23236L344.799 9.07025ZM323.917 9.07025L314.865 1.23236L332.968 1.23236L323.917 9.07025ZM303.133 9.07025L294.081 1.23236L312.184 1.23236L303.133 9.07025ZM282.25 9.07025L273.198 1.23236L291.302 1.23236L282.25 9.07025ZM261.466 9.07025L252.414 1.23236L270.517 1.23236L261.466 9.07025ZM240.584 9.07025L231.532 1.23236L249.635 1.23236L240.584 9.07025ZM219.799 9.07025L210.747 1.23236L228.851 1.23236L219.799 9.07025ZM198.917 9.07025L189.865 1.23236L207.969 1.23236L198.917 9.07025ZM178.133 9.07025L169.081 1.23236L187.184 1.23236L178.133 9.07025ZM157.251 9.07025L148.199 1.23236L166.302 1.23236L157.251 9.07025ZM136.466 9.07025L127.414 1.23236L145.518 1.23236L136.466 9.07025ZM115.584 9.07025L106.532 1.23236L124.636 1.23236L115.584 9.07025ZM94.7998 9.07025L85.748 1.23236L103.851 1.23236L94.7998 9.07025ZM73.918 9.07025L64.8662 1.23236L82.9688 1.23236L73.918 9.07025ZM53.1328 9.07025L44.0811 1.23236L62.1846 1.23236L53.1328 9.07025ZM32.1768 9.07025L23.125 1.23236L41.2285 1.23236L32.1768 9.07025ZM11.3926 9.07025L2.34082 1.23236L20.4434 1.23236L11.3926 9.07025Z" fill="black"/>
</svg>
