<svg width="502" height="38" viewBox="0 0 502 38" fill="none" xmlns="http://www.w3.org/2000/svg">
<path d="M492.037 -0.000488281C488.129 -0.000488281 484.749 2.24977 483.116 5.52393C481.476 2.26949 478.107 0.0357772 474.214 0.0356445C470.301 0.0356445 466.917 2.29205 465.287 5.57373C463.657 2.29196 460.272 0.0357779 456.359 0.0356445C452.445 0.0356445 449.06 2.29294 447.43 5.57568C445.8 2.29286 442.415 0.035778 438.501 0.0356445C434.588 0.0356445 431.203 2.29294 429.573 5.57568C427.943 2.29286 424.558 0.035778 420.644 0.0356445C416.73 0.0356445 413.345 2.29294 411.715 5.57568C410.086 2.29281 406.7 0.035778 402.787 0.0356445C398.873 0.0356445 395.488 2.29289 393.858 5.57568C392.228 2.29286 388.843 0.035778 384.929 0.0356445C381.015 0.0357384 377.63 2.29346 376 5.57666C374.371 2.29341 370.986 0.035778 367.072 0.0356445C363.158 0.0356445 359.773 2.29294 358.143 5.57568C356.513 2.29286 353.128 0.035778 349.214 0.0356445C345.301 0.0356445 341.917 2.29205 340.287 5.57373C338.657 2.29196 335.272 0.0357779 331.359 0.0356445C327.445 0.0356445 324.06 2.29294 322.43 5.57568C320.8 2.29286 317.415 0.035778 313.501 0.0356445C309.588 0.0356445 306.203 2.29294 304.573 5.57568C302.943 2.29286 299.558 0.035778 295.644 0.0356445C291.73 0.0356445 288.345 2.29294 286.715 5.57568C285.086 2.29281 281.7 0.035778 277.787 0.0356445C273.873 0.0356445 270.488 2.29289 268.858 5.57568C267.228 2.29286 263.843 0.035778 259.929 0.0356445C256.015 0.0357384 252.63 2.29346 251 5.57666C249.371 2.29341 245.986 0.035778 242.072 0.0356445C238.158 0.0356445 234.773 2.29294 233.143 5.57568C231.513 2.29286 228.128 0.035778 224.214 0.0356445C220.301 0.0356445 216.917 2.29205 215.287 5.57373C213.657 2.29196 210.272 0.0357779 206.359 0.0356445C202.445 0.0356445 199.06 2.29294 197.43 5.57568C195.8 2.29286 192.415 0.035778 188.501 0.0356445C184.588 0.0356445 181.203 2.29294 179.573 5.57568C177.943 2.29286 174.558 0.035778 170.644 0.0356445C166.73 0.0356445 163.345 2.29294 161.715 5.57568C160.086 2.29281 156.7 0.035778 152.787 0.0356445C148.873 0.0356445 145.488 2.29289 143.858 5.57568C142.228 2.29286 138.843 0.035778 134.929 0.0356445C131.015 0.0357384 127.63 2.29346 126 5.57666C124.371 2.29341 120.986 0.035778 117.072 0.0356445C113.158 0.0356445 109.773 2.29294 108.143 5.57568C106.513 2.29286 103.128 0.035778 99.2144 0.0356445C95.3015 0.0356445 91.917 2.29205 90.2866 5.57373C88.6565 2.29196 85.2717 0.0357779 81.3589 0.0356445C77.4453 0.0356445 74.0602 2.29294 72.4302 5.57568C70.8004 2.29286 67.4151 0.035778 63.5015 0.0356445C59.5878 0.0356445 56.2028 2.29294 54.5728 5.57568C52.943 2.29286 49.5577 0.035778 45.644 0.0356445C41.7304 0.0356445 38.3454 2.29294 36.7153 5.57568C35.0856 2.29281 31.7003 0.035778 27.7866 0.0356445C23.8866 0.0356445 20.512 2.27736 18.8755 5.5415C17.2392 2.27732 13.8643 0.0357775 9.96436 0.0356445C4.4614 0.0356445 -0.000274658 4.49662 -0.000488281 9.99951C-0.000488281 13.9859 2.34177 17.4237 5.72412 19.0171C2.34158 20.6101 -0.000366211 24.0492 -0.000488281 28.0356C-0.000244141 33.5385 4.46143 38.0005 9.96436 38.0005C13.8716 38.0004 17.2515 35.7495 18.8843 32.4751C20.524 35.7301 23.8935 37.9644 27.7866 37.9644C31.7004 37.9642 35.0857 35.7066 36.7153 32.4233C38.3453 35.7065 41.7302 37.9644 45.644 37.9644C49.5579 37.9642 52.9431 35.7066 54.5728 32.4233C56.2027 35.7065 59.5876 37.9644 63.5015 37.9644C67.4153 37.9642 70.8005 35.7066 72.4302 32.4233C74.0601 35.7065 77.4451 37.9644 81.3589 37.9644C85.2719 37.9642 88.6566 35.7075 90.2866 32.4253C91.9169 35.7074 95.3013 37.9644 99.2144 37.9644C103.128 37.9642 106.513 35.7066 108.143 32.4233C109.773 35.7065 113.158 37.9644 117.072 37.9644C120.986 37.9642 124.371 35.7061 126 32.4224C127.63 35.706 131.015 37.9643 134.929 37.9644C138.843 37.9642 142.228 35.7066 143.858 32.4233C145.488 35.7065 148.873 37.9644 152.787 37.9644C156.7 37.9642 160.086 35.7066 161.715 32.4233C163.345 35.7065 166.73 37.9644 170.644 37.9644C174.558 37.9642 177.943 35.7066 179.573 32.4233C181.203 35.7065 184.588 37.9644 188.501 37.9644C192.415 37.9642 195.801 35.7066 197.43 32.4233C199.06 35.7065 202.445 37.9644 206.359 37.9644C210.272 37.9642 213.657 35.7075 215.287 32.4253C216.917 35.7074 220.301 37.9644 224.214 37.9644C228.128 37.9642 231.513 35.7066 233.143 32.4233C234.773 35.7065 238.158 37.9644 242.072 37.9644C245.986 37.9642 249.371 35.7061 251 32.4224C252.63 35.706 256.015 37.9643 259.929 37.9644C263.843 37.9642 267.228 35.7066 268.858 32.4233C270.488 35.7065 273.873 37.9644 277.787 37.9644C281.7 37.9642 285.086 35.7066 286.715 32.4233C288.345 35.7065 291.73 37.9644 295.644 37.9644C299.558 37.9642 302.943 35.7066 304.573 32.4233C306.203 35.7065 309.588 37.9644 313.501 37.9644C317.415 37.9642 320.801 35.7066 322.43 32.4233C324.06 35.7065 327.445 37.9644 331.359 37.9644C335.272 37.9642 338.657 35.7075 340.287 32.4253C341.917 35.7074 345.301 37.9644 349.214 37.9644C353.128 37.9642 356.513 35.7066 358.143 32.4233C359.773 35.7065 363.158 37.9644 367.072 37.9644C370.986 37.9642 374.371 35.7061 376 32.4224C377.63 35.706 381.015 37.9643 384.929 37.9644C388.843 37.9642 392.228 35.7066 393.858 32.4233C395.488 35.7065 398.873 37.9644 402.787 37.9644C406.7 37.9642 410.086 35.7066 411.715 32.4233C413.345 35.7065 416.73 37.9644 420.644 37.9644C424.558 37.9642 427.943 35.7066 429.573 32.4233C431.203 35.7065 434.588 37.9644 438.501 37.9644C442.415 37.9642 445.801 35.7066 447.43 32.4233C449.06 35.7065 452.445 37.9644 456.359 37.9644C460.272 37.9642 463.657 35.7075 465.287 32.4253C466.917 35.7074 470.301 37.9644 474.214 37.9644C478.114 37.9642 481.489 35.7221 483.125 32.4575C484.762 35.7221 488.136 37.9644 492.037 37.9644C497.54 37.9642 502 33.5025 502 27.9995C502 24.0133 499.659 20.5751 496.277 18.9819C499.659 17.3885 502 13.9497 502 9.96338C502 4.46071 497.539 -0.000300686 492.037 -0.000488281ZM9.96436 20.0718C14.0334 20.072 17.3879 23.1234 17.8677 27.063C17.8389 27.3714 17.8218 27.6836 17.8218 27.9995C17.8218 28.33 17.8391 28.6567 17.8706 28.979C17.4037 32.9325 14.0433 36.0003 9.96436 36.0005C5.56598 36.0005 1.99976 32.434 1.99951 28.0356C1.99969 23.6373 5.56595 20.0718 9.96436 20.0718ZM492.037 20.0356C496.435 20.0358 500 23.6013 500 27.9995C500 32.3979 496.435 35.9642 492.037 35.9644C487.962 35.9644 484.605 32.9043 484.131 28.9575C484.161 28.6422 484.178 28.3227 484.178 27.9995C484.178 27.676 484.162 27.3562 484.131 27.0405C484.605 23.0945 487.963 20.0356 492.037 20.0356ZM474.214 20.0356C478.288 20.0358 481.646 23.0946 482.12 27.0405C482.089 27.3562 482.072 27.6759 482.072 27.9995C482.072 28.3227 482.09 28.6422 482.12 28.9575C481.646 32.9042 478.288 35.9642 474.214 35.9644C470.082 35.9644 466.686 32.8167 466.29 28.7886C466.31 28.5282 466.323 28.2651 466.323 27.9995C466.323 27.7335 466.31 27.4702 466.29 27.2095C466.686 23.1821 470.083 20.0356 474.214 20.0356ZM456.359 20.0356C460.49 20.0358 463.887 23.1822 464.284 27.2095C464.263 27.4702 464.25 27.7335 464.25 27.9995C464.25 28.2652 464.263 28.5282 464.284 28.7886C463.888 32.8166 460.491 35.9642 456.359 35.9644C452.222 35.9644 448.823 32.8101 448.433 28.7759C448.453 28.5196 448.465 28.2608 448.465 27.9995C448.465 27.7379 448.453 27.4787 448.433 27.2222C448.824 23.1887 452.223 20.0356 456.359 20.0356ZM438.501 20.0356C442.637 20.0358 446.036 23.1888 446.427 27.2222C446.407 27.4788 446.394 27.7378 446.394 27.9995C446.394 28.2608 446.407 28.5196 446.427 28.7759C446.037 32.81 442.638 35.9642 438.501 35.9644C434.365 35.9644 430.966 32.8101 430.576 28.7759C430.595 28.5196 430.608 28.2608 430.608 27.9995C430.608 27.7379 430.595 27.4787 430.576 27.2222C430.967 23.1887 434.365 20.0356 438.501 20.0356ZM420.644 20.0356C424.78 20.0358 428.179 23.1888 428.57 27.2222C428.55 27.4788 428.537 27.7378 428.537 27.9995C428.537 28.2608 428.55 28.5196 428.57 28.7759C428.18 32.81 424.78 35.9642 420.644 35.9644C416.507 35.9644 413.109 32.8101 412.718 28.7759C412.738 28.5196 412.75 28.2608 412.75 27.9995C412.75 27.7379 412.738 27.4787 412.718 27.2222C413.109 23.1887 416.508 20.0356 420.644 20.0356ZM402.787 20.0356C406.923 20.0358 410.321 23.1888 410.712 27.2222C410.693 27.4788 410.679 27.7378 410.679 27.9995C410.679 28.2608 410.693 28.5196 410.712 28.7759C410.322 32.81 406.923 35.9642 402.787 35.9644C398.651 35.9644 395.253 32.8116 394.861 28.7788C394.881 28.5216 394.893 28.2618 394.893 27.9995C394.893 27.7369 394.881 27.4768 394.861 27.2192C395.253 23.1872 398.652 20.0356 402.787 20.0356ZM384.929 20.0356C389.065 20.0358 392.464 23.1883 392.855 27.2212C392.835 27.4781 392.822 27.7375 392.822 27.9995C392.822 28.2608 392.835 28.5196 392.855 28.7759C392.465 32.81 389.066 35.9642 384.929 35.9644C380.793 35.9642 377.394 32.81 377.003 28.7759C377.023 28.5196 377.036 28.2608 377.036 27.9995C377.036 27.7368 377.022 27.4768 377.002 27.2192C377.395 23.1872 380.794 20.0358 384.929 20.0356ZM367.072 20.0356C371.207 20.0358 374.606 23.1883 374.998 27.2212C374.978 27.4781 374.964 27.7375 374.964 27.9995C374.964 28.2599 374.979 28.5176 374.999 28.7729C374.61 32.8085 371.209 35.9642 367.072 35.9644C362.934 35.9644 359.534 32.8086 359.145 28.7729C359.165 28.5176 359.178 28.2598 359.178 27.9995C359.178 27.7368 359.165 27.4768 359.145 27.2192C359.537 23.1871 362.937 20.0356 367.072 20.0356ZM349.214 20.0356C353.349 20.0358 356.748 23.1872 357.14 27.2192C357.12 27.4768 357.107 27.7368 357.107 27.9995C357.107 28.2598 357.121 28.5176 357.14 28.7729C356.751 32.8085 353.352 35.9642 349.214 35.9644C345.082 35.9644 341.686 32.8167 341.29 28.7886C341.31 28.5282 341.323 28.2651 341.323 27.9995C341.323 27.7335 341.31 27.4702 341.29 27.2095C341.686 23.1821 345.083 20.0356 349.214 20.0356ZM331.359 20.0356C335.49 20.0358 338.887 23.1822 339.284 27.2095C339.263 27.4702 339.25 27.7335 339.25 27.9995C339.25 28.2652 339.263 28.5282 339.284 28.7886C338.888 32.8166 335.491 35.9642 331.359 35.9644C327.221 35.9644 323.821 32.8086 323.432 28.7729C323.452 28.5176 323.465 28.2598 323.465 27.9995C323.465 27.7368 323.452 27.4768 323.432 27.2192C323.824 23.1871 327.224 20.0356 331.359 20.0356ZM313.501 20.0356C317.636 20.0358 321.035 23.1872 321.427 27.2192C321.407 27.4768 321.394 27.7368 321.394 27.9995C321.394 28.2598 321.408 28.5176 321.427 28.7729C321.038 32.8085 317.639 35.9642 313.501 35.9644C309.364 35.9644 305.964 32.8086 305.575 28.7729C305.594 28.5176 305.608 28.2598 305.608 27.9995C305.608 27.7368 305.595 27.4768 305.575 27.2192C305.967 23.1871 309.366 20.0356 313.501 20.0356ZM295.644 20.0356C299.779 20.0358 303.178 23.1872 303.57 27.2192C303.55 27.4768 303.537 27.7368 303.537 27.9995C303.537 28.2598 303.55 28.5176 303.57 28.7729C303.181 32.8085 299.781 35.9642 295.644 35.9644C291.506 35.9644 288.106 32.8086 287.717 28.7729C287.737 28.5176 287.75 28.2598 287.75 27.9995C287.75 27.7368 287.737 27.4768 287.717 27.2192C288.11 23.1871 291.509 20.0356 295.644 20.0356ZM277.787 20.0356C281.922 20.0358 285.32 23.1872 285.712 27.2192C285.692 27.4768 285.679 27.7368 285.679 27.9995C285.679 28.2598 285.693 28.5176 285.712 28.7729C285.323 32.8085 281.924 35.9642 277.787 35.9644C273.651 35.9644 270.253 32.8116 269.861 28.7788C269.881 28.5216 269.893 28.2618 269.893 27.9995C269.893 27.7369 269.881 27.4768 269.861 27.2192C270.253 23.1872 273.652 20.0356 277.787 20.0356ZM259.929 20.0356C264.064 20.0358 267.463 23.1873 267.855 27.2192C267.835 27.4768 267.822 27.7368 267.822 27.9995C267.822 28.2598 267.835 28.5176 267.855 28.7729C267.466 32.8085 264.067 35.9642 259.929 35.9644C255.792 35.9642 252.391 32.8085 252.002 28.7729C252.022 28.5176 252.036 28.2598 252.036 27.9995C252.036 27.7368 252.022 27.4768 252.002 27.2192C252.395 23.1872 255.794 20.0358 259.929 20.0356ZM242.072 20.0356C246.207 20.0358 249.606 23.1883 249.998 27.2212C249.978 27.4781 249.964 27.7375 249.964 27.9995C249.964 28.2599 249.979 28.5176 249.999 28.7729C249.61 32.8085 246.209 35.9642 242.072 35.9644C237.934 35.9644 234.534 32.8086 234.145 28.7729C234.165 28.5176 234.178 28.2598 234.178 27.9995C234.178 27.7368 234.165 27.4768 234.145 27.2192C234.537 23.1871 237.937 20.0356 242.072 20.0356ZM224.214 20.0356C228.349 20.0358 231.748 23.1872 232.14 27.2192C232.12 27.4768 232.107 27.7368 232.107 27.9995C232.107 28.2598 232.121 28.5176 232.14 28.7729C231.751 32.8085 228.352 35.9642 224.214 35.9644C220.082 35.9644 216.686 32.8167 216.29 28.7886C216.31 28.5282 216.323 28.2651 216.323 27.9995C216.323 27.7335 216.31 27.4702 216.29 27.2095C216.686 23.1821 220.083 20.0356 224.214 20.0356ZM206.359 20.0356C210.49 20.0358 213.887 23.1822 214.284 27.2095C214.263 27.4702 214.25 27.7335 214.25 27.9995C214.25 28.2652 214.263 28.5282 214.284 28.7886C213.888 32.8166 210.491 35.9642 206.359 35.9644C202.221 35.9644 198.821 32.8086 198.432 28.7729C198.452 28.5176 198.465 28.2598 198.465 27.9995C198.465 27.7368 198.452 27.4768 198.432 27.2192C198.824 23.1871 202.224 20.0356 206.359 20.0356ZM188.501 20.0356C192.636 20.0358 196.035 23.1872 196.427 27.2192C196.407 27.4768 196.394 27.7368 196.394 27.9995C196.394 28.2598 196.408 28.5176 196.427 28.7729C196.038 32.8085 192.639 35.9642 188.501 35.9644C184.364 35.9644 180.964 32.8086 180.575 28.7729C180.594 28.5176 180.608 28.2598 180.608 27.9995C180.608 27.7368 180.595 27.4768 180.575 27.2192C180.967 23.1871 184.366 20.0356 188.501 20.0356ZM170.644 20.0356C174.779 20.0358 178.178 23.1872 178.57 27.2192C178.55 27.4768 178.537 27.7368 178.537 27.9995C178.537 28.2598 178.55 28.5176 178.57 28.7729C178.181 32.8085 174.781 35.9642 170.644 35.9644C166.506 35.9644 163.106 32.8086 162.717 28.7729C162.737 28.5176 162.75 28.2598 162.75 27.9995C162.75 27.7368 162.737 27.4768 162.717 27.2192C163.11 23.1871 166.509 20.0356 170.644 20.0356ZM152.787 20.0356C156.922 20.0358 160.32 23.1872 160.712 27.2192C160.692 27.4768 160.679 27.7368 160.679 27.9995C160.679 28.2598 160.693 28.5176 160.712 28.7729C160.323 32.8085 156.924 35.9642 152.787 35.9644C148.651 35.9644 145.253 32.8116 144.861 28.7788C144.881 28.5216 144.893 28.2618 144.893 27.9995C144.893 27.7369 144.881 27.4768 144.861 27.2192C145.253 23.1872 148.652 20.0356 152.787 20.0356ZM134.929 20.0356C139.064 20.0358 142.463 23.1873 142.855 27.2192C142.835 27.4768 142.822 27.7368 142.822 27.9995C142.822 28.2598 142.835 28.5176 142.855 28.7729C142.466 32.8085 139.067 35.9642 134.929 35.9644C130.792 35.9642 127.391 32.8085 127.002 28.7729C127.022 28.5176 127.036 28.2598 127.036 27.9995C127.036 27.7368 127.022 27.4768 127.002 27.2192C127.395 23.1872 130.794 20.0358 134.929 20.0356ZM117.072 20.0356C121.207 20.0358 124.606 23.1883 124.998 27.2212C124.978 27.4781 124.964 27.7375 124.964 27.9995C124.964 28.2599 124.979 28.5176 124.999 28.7729C124.61 32.8085 121.209 35.9642 117.072 35.9644C112.934 35.9644 109.534 32.8086 109.145 28.7729C109.165 28.5176 109.178 28.2598 109.178 27.9995C109.178 27.7368 109.165 27.4768 109.145 27.2192C109.537 23.1871 112.937 20.0356 117.072 20.0356ZM99.2144 20.0356C103.349 20.0358 106.748 23.1872 107.14 27.2192C107.12 27.4768 107.107 27.7368 107.107 27.9995C107.107 28.2598 107.121 28.5176 107.14 28.7729C106.751 32.8085 103.352 35.9642 99.2144 35.9644C95.0822 35.9644 91.6858 32.8167 91.2896 28.7886C91.31 28.5282 91.3228 28.2651 91.3228 27.9995C91.3228 27.7335 91.31 27.4702 91.2896 27.2095C91.6865 23.1821 95.0826 20.0356 99.2144 20.0356ZM81.3589 20.0356C85.4905 20.0358 88.8869 23.1822 89.2837 27.2095C89.2632 27.4702 89.2495 27.7335 89.2495 27.9995C89.2495 28.2652 89.2633 28.5282 89.2837 28.7886C88.8875 32.8166 85.491 35.9642 81.3589 35.9644C77.2213 35.9644 73.8211 32.8086 73.4321 28.7729C73.4517 28.5176 73.4653 28.2598 73.4653 27.9995C73.4653 27.7368 73.4521 27.4768 73.4321 27.2192C73.8245 23.1871 77.2238 20.0356 81.3589 20.0356ZM63.5015 20.0356C67.6364 20.0358 71.035 23.1872 71.4272 27.2192C71.4073 27.4768 71.394 27.7368 71.394 27.9995C71.394 28.2598 71.4076 28.5176 71.4272 28.7729C71.0383 32.8085 67.6389 35.9642 63.5015 35.9644C59.3639 35.9644 55.9637 32.8086 55.5747 28.7729C55.5943 28.5176 55.6079 28.2598 55.6079 27.9995C55.6079 27.7368 55.5947 27.4768 55.5747 27.2192C55.9671 23.1871 59.3664 20.0356 63.5015 20.0356ZM45.644 20.0356C49.779 20.0358 53.1776 23.1872 53.5698 27.2192C53.5499 27.4768 53.5366 27.7368 53.5366 27.9995C53.5366 28.2598 53.5502 28.5176 53.5698 28.7729C53.1809 32.8085 49.7815 35.9642 45.644 35.9644C41.5065 35.9644 38.1063 32.8086 37.7173 28.7729C37.7369 28.5176 37.7505 28.2598 37.7505 27.9995C37.7505 27.7368 37.7372 27.4768 37.7173 27.2192C38.1096 23.1871 41.5089 20.0356 45.644 20.0356ZM27.7866 20.0356C31.9216 20.0358 35.3201 23.1872 35.7124 27.2192C35.6924 27.4768 35.6792 27.7368 35.6792 27.9995C35.6792 28.2598 35.6928 28.5176 35.7124 28.7729C35.3235 32.8085 31.924 35.9642 27.7866 35.9644C23.7171 35.9644 20.3628 32.9113 19.8833 28.9712C19.912 28.6631 19.9282 28.3512 19.9282 28.0356C19.9282 27.7046 19.9119 27.3769 19.8804 27.0542C20.3483 23.1016 23.7082 20.0356 27.7866 20.0356ZM376 14.4224C376.992 16.4208 378.633 18.0389 380.65 18.9995C378.633 19.9599 376.992 21.5784 376 23.5767C375.009 21.5787 373.368 19.96 371.352 18.9995C373.368 18.0388 375.009 16.4206 376 14.4224ZM251 14.4224C251.992 16.4208 253.633 18.0389 255.65 18.9995C253.633 19.9599 251.992 21.5784 251 23.5767C250.009 21.5787 248.368 19.96 246.352 18.9995C248.368 18.0388 250.009 16.4206 251 14.4224ZM126 14.4224C126.992 16.4208 128.633 18.0389 130.65 18.9995C128.633 19.9599 126.992 21.5784 126 23.5767C125.009 21.5787 123.368 19.96 121.352 18.9995C123.368 18.0388 125.009 16.4206 126 14.4224ZM447.43 14.4233C448.422 16.4212 450.063 18.039 452.079 18.9995C450.063 19.9598 448.422 21.5781 447.43 23.5757C446.438 21.578 444.797 19.9599 442.782 18.9995C444.797 18.0389 446.439 16.4212 447.43 14.4233ZM429.573 14.4233C430.565 16.4212 432.205 18.039 434.221 18.9995C432.205 19.9598 430.565 21.5781 429.573 23.5757C428.581 21.578 426.94 19.9599 424.924 18.9995C426.94 18.0389 428.581 16.4212 429.573 14.4233ZM411.715 14.4233C412.707 16.4212 414.348 18.039 416.364 18.9995C414.348 19.9598 412.707 21.5781 411.715 23.5757C410.724 21.578 409.083 19.9599 407.067 18.9995C409.083 18.0389 410.724 16.4212 411.715 14.4233ZM393.858 14.4233C394.85 16.4211 396.491 18.039 398.506 18.9995C396.49 19.9598 394.85 21.5781 393.858 23.5757C392.866 21.5783 391.226 19.9599 389.21 18.9995C391.226 18.0389 392.866 16.4209 393.858 14.4233ZM358.143 14.4233C359.135 16.4212 360.776 18.039 362.792 18.9995C360.776 19.9598 359.135 21.5781 358.143 23.5757C357.151 21.578 355.51 19.9599 353.495 18.9995C355.51 18.0389 357.151 16.4212 358.143 14.4233ZM322.43 14.4233C323.422 16.4212 325.063 18.039 327.079 18.9995C325.063 19.9598 323.422 21.5781 322.43 23.5757C321.438 21.578 319.797 19.9599 317.782 18.9995C319.797 18.0389 321.439 16.4212 322.43 14.4233ZM304.573 14.4233C305.565 16.4212 307.205 18.039 309.221 18.9995C307.205 19.9598 305.565 21.5781 304.573 23.5757C303.581 21.578 301.94 19.9599 299.924 18.9995C301.94 18.0389 303.581 16.4212 304.573 14.4233ZM286.715 14.4233C287.707 16.4212 289.348 18.039 291.364 18.9995C289.348 19.9598 287.707 21.5781 286.715 23.5757C285.724 21.578 284.083 19.9599 282.067 18.9995C284.083 18.0389 285.724 16.4212 286.715 14.4233ZM268.858 14.4233C269.85 16.4211 271.491 18.039 273.506 18.9995C271.49 19.9598 269.85 21.5781 268.858 23.5757C267.866 21.5783 266.226 19.9599 264.21 18.9995C266.226 18.0389 267.866 16.4209 268.858 14.4233ZM233.143 14.4233C234.135 16.4212 235.776 18.039 237.792 18.9995C235.776 19.9598 234.135 21.5781 233.143 23.5757C232.151 21.578 230.51 19.9599 228.495 18.9995C230.51 18.0389 232.151 16.4212 233.143 14.4233ZM197.43 14.4233C198.422 16.4212 200.063 18.039 202.079 18.9995C200.063 19.9598 198.422 21.5781 197.43 23.5757C196.438 21.578 194.797 19.9599 192.782 18.9995C194.797 18.0389 196.439 16.4212 197.43 14.4233ZM179.573 14.4233C180.565 16.4212 182.205 18.039 184.221 18.9995C182.205 19.9598 180.565 21.5781 179.573 23.5757C178.581 21.578 176.94 19.9599 174.924 18.9995C176.94 18.0389 178.581 16.4212 179.573 14.4233ZM161.715 14.4233C162.707 16.4212 164.348 18.039 166.364 18.9995C164.348 19.9598 162.707 21.5781 161.715 23.5757C160.724 21.578 159.083 19.9599 157.067 18.9995C159.083 18.0389 160.724 16.4212 161.715 14.4233ZM143.858 14.4233C144.85 16.4211 146.491 18.039 148.506 18.9995C146.49 19.9598 144.85 21.5781 143.858 23.5757C142.866 21.5783 141.226 19.9599 139.21 18.9995C141.226 18.0389 142.866 16.4209 143.858 14.4233ZM108.143 14.4233C109.135 16.4212 110.776 18.039 112.792 18.9995C110.776 19.9598 109.135 21.5781 108.143 23.5757C107.151 21.578 105.51 19.9599 103.495 18.9995C105.51 18.0389 107.151 16.4212 108.143 14.4233ZM72.4302 14.4233C73.422 16.4212 75.0628 18.039 77.0786 18.9995C75.0627 19.9598 73.4221 21.5781 72.4302 23.5757C71.4385 21.578 69.7974 19.9599 67.7817 18.9995C69.7974 18.0389 71.4385 16.4212 72.4302 14.4233ZM54.5728 14.4233C55.5646 16.4212 57.2054 18.039 59.2212 18.9995C57.2053 19.9598 55.5647 21.5781 54.5728 23.5757C53.5811 21.578 51.94 19.9599 49.9243 18.9995C51.94 18.0389 53.5811 16.4212 54.5728 14.4233ZM36.7153 14.4233C37.7072 16.4212 39.3479 18.039 41.3638 18.9995C39.3479 19.9598 37.7072 21.5781 36.7153 23.5757C35.7236 21.578 34.0826 19.9599 32.0669 18.9995C34.0826 18.0389 35.7237 16.4212 36.7153 14.4233ZM465.287 14.4253C466.279 16.4222 467.919 18.0393 469.934 18.9995C467.919 19.9595 466.279 21.577 465.287 23.5737C464.295 21.577 462.654 19.9596 460.639 18.9995C462.654 18.0392 464.295 16.4222 465.287 14.4253ZM340.287 14.4253C341.279 16.4222 342.919 18.0393 344.934 18.9995C342.919 19.9595 341.279 21.577 340.287 23.5737C339.295 21.577 337.654 19.9596 335.639 18.9995C337.654 18.0392 339.295 16.4222 340.287 14.4253ZM215.287 14.4253C216.279 16.4222 217.919 18.0393 219.934 18.9995C217.919 19.9595 216.279 21.577 215.287 23.5737C214.295 21.577 212.654 19.9596 210.639 18.9995C212.654 18.0392 214.295 16.4222 215.287 14.4253ZM90.2866 14.4253C91.2785 16.4222 92.9189 18.0393 94.9341 18.9995C92.9189 19.9595 91.2786 21.577 90.2866 23.5737C89.2948 21.577 87.6542 19.9596 85.6392 18.9995C87.6542 18.0392 89.2949 16.4222 90.2866 14.4253ZM18.8755 14.4575C19.869 16.4395 21.5021 18.0445 23.5063 18.9995C21.4962 19.9571 19.8595 21.5692 18.8667 23.5591C17.8658 21.5725 16.2207 19.9668 14.2046 19.0171C16.2267 18.0643 17.8756 16.4525 18.8755 14.4575ZM483.135 14.439C484.136 16.4259 485.78 18.0321 487.796 18.9819C485.774 19.9344 484.126 21.5467 483.125 23.5415C482.132 21.5597 480.499 19.9544 478.495 18.9995C480.505 18.0414 482.143 16.4296 483.135 14.439ZM474.214 2.03564C478.283 2.03582 481.638 5.08754 482.118 9.02686C482.089 9.33524 482.072 9.64748 482.072 9.96338C482.072 10.2941 482.089 10.6213 482.121 10.9438C481.653 14.8971 478.293 17.9642 474.214 17.9644C470.082 17.9644 466.686 14.8167 466.29 10.7886C466.31 10.5282 466.323 10.2651 466.323 9.99951C466.323 9.73354 466.31 9.47019 466.29 9.20947C466.686 5.1821 470.083 2.03564 474.214 2.03564ZM456.359 2.03564C460.49 2.03582 463.887 5.18216 464.284 9.20947C464.263 9.47021 464.25 9.73352 464.25 9.99951C464.25 10.2652 464.263 10.5282 464.284 10.7886C463.888 14.8166 460.491 17.9642 456.359 17.9644C452.222 17.9644 448.823 14.8101 448.433 10.7759C448.453 10.5196 448.465 10.2608 448.465 9.99951C448.465 9.73786 448.453 9.47874 448.433 9.22217C448.824 5.18872 452.223 2.03564 456.359 2.03564ZM438.501 2.03564C442.637 2.03582 446.036 5.18879 446.427 9.22217C446.407 9.47877 446.394 9.73783 446.394 9.99951C446.394 10.2608 446.407 10.5196 446.427 10.7759C446.037 14.81 442.638 17.9642 438.501 17.9644C434.365 17.9644 430.966 14.8101 430.576 10.7759C430.595 10.5196 430.608 10.2608 430.608 9.99951C430.608 9.73786 430.595 9.47874 430.576 9.22217C430.967 5.18872 434.365 2.03564 438.501 2.03564ZM420.644 2.03564C424.78 2.03582 428.179 5.18879 428.57 9.22217C428.55 9.47877 428.537 9.73783 428.537 9.99951C428.537 10.2608 428.55 10.5196 428.57 10.7759C428.18 14.81 424.78 17.9642 420.644 17.9644C416.507 17.9644 413.109 14.8101 412.718 10.7759C412.738 10.5196 412.75 10.2608 412.75 9.99951C412.75 9.73788 412.738 9.47872 412.718 9.22217C413.109 5.18872 416.508 2.03564 420.644 2.03564ZM402.787 2.03564C406.923 2.03582 410.322 5.18873 410.712 9.22217C410.693 9.47877 410.679 9.73783 410.679 9.99951C410.679 10.2608 410.693 10.5196 410.712 10.7759C410.322 14.81 406.923 17.9642 402.787 17.9644C398.651 17.9644 395.253 14.8116 394.861 10.7788C394.881 10.5216 394.893 10.2618 394.893 9.99951C394.893 9.73688 394.881 9.47675 394.861 9.21924C395.253 5.18712 398.652 2.03564 402.787 2.03564ZM384.929 2.03564C389.065 2.03582 392.464 5.18823 392.855 9.22119C392.835 9.47809 392.822 9.73752 392.822 9.99951C392.822 10.2609 392.835 10.5196 392.855 10.7759C392.465 14.8099 389.066 17.9642 384.929 17.9644C380.793 17.9642 377.394 14.81 377.003 10.7759C377.023 10.5196 377.036 10.2608 377.036 9.99951C377.036 9.73684 377.022 9.47679 377.002 9.21924C377.395 5.18715 380.794 2.03577 384.929 2.03564ZM367.072 2.03564C371.207 2.03582 374.606 5.18828 374.998 9.22119C374.978 9.47808 374.964 9.73753 374.964 9.99951C374.964 10.2599 374.979 10.5176 374.999 10.7729C374.61 14.8085 371.209 17.9642 367.072 17.9644C362.934 17.9644 359.534 14.8086 359.145 10.7729C359.165 10.5176 359.178 10.2598 359.178 9.99951C359.178 9.73684 359.165 9.47679 359.145 9.21924C359.537 5.18714 362.937 2.03564 367.072 2.03564ZM349.214 2.03564C353.349 2.03582 356.748 5.18725 357.14 9.21924C357.12 9.47679 357.107 9.73684 357.107 9.99951C357.107 10.2598 357.121 10.5176 357.14 10.7729C356.751 14.8085 353.352 17.9642 349.214 17.9644C345.082 17.9644 341.686 14.8167 341.29 10.7886C341.31 10.5282 341.323 10.2651 341.323 9.99951C341.323 9.73354 341.31 9.47019 341.29 9.20947C341.686 5.1821 345.083 2.03564 349.214 2.03564ZM331.359 2.03564C335.49 2.03582 338.887 5.18216 339.284 9.20947C339.263 9.47021 339.25 9.73352 339.25 9.99951C339.25 10.2652 339.263 10.5282 339.284 10.7886C338.888 14.8166 335.491 17.9642 331.359 17.9644C327.221 17.9644 323.821 14.8086 323.432 10.7729C323.452 10.5176 323.465 10.2598 323.465 9.99951C323.465 9.73684 323.452 9.47679 323.432 9.21924C323.824 5.18714 327.224 2.03564 331.359 2.03564ZM313.501 2.03564C317.636 2.03582 321.035 5.18725 321.427 9.21924C321.407 9.47679 321.394 9.73684 321.394 9.99951C321.394 10.2598 321.408 10.5176 321.427 10.7729C321.038 14.8085 317.639 17.9642 313.501 17.9644C309.364 17.9644 305.964 14.8086 305.575 10.7729C305.594 10.5176 305.608 10.2598 305.608 9.99951C305.608 9.73684 305.595 9.47679 305.575 9.21924C305.967 5.18714 309.366 2.03564 313.501 2.03564ZM295.644 2.03564C299.779 2.03582 303.178 5.18725 303.57 9.21924C303.55 9.47679 303.537 9.73684 303.537 9.99951C303.537 10.2598 303.55 10.5176 303.57 10.7729C303.181 14.8085 299.781 17.9642 295.644 17.9644C291.506 17.9644 288.106 14.8086 287.717 10.7729C287.737 10.5176 287.75 10.2599 287.75 9.99951C287.75 9.73686 287.737 9.47677 287.717 9.21924C288.11 5.18714 291.509 2.03564 295.644 2.03564ZM277.787 2.03564C281.922 2.03582 285.32 5.18719 285.712 9.21924C285.692 9.47679 285.679 9.73684 285.679 9.99951C285.679 10.2598 285.693 10.5176 285.712 10.7729C285.323 14.8084 281.924 17.9642 277.787 17.9644C273.651 17.9644 270.253 14.8116 269.861 10.7788C269.881 10.5216 269.893 10.2618 269.893 9.99951C269.893 9.73688 269.881 9.47675 269.861 9.21924C270.253 5.18712 273.652 2.03564 277.787 2.03564ZM259.929 2.03564C264.064 2.03582 267.463 5.1872 267.855 9.21924C267.835 9.47677 267.822 9.73686 267.822 9.99951C267.822 10.2599 267.835 10.5176 267.855 10.7729C267.466 14.8084 264.067 17.9642 259.929 17.9644C255.792 17.9642 252.391 14.8085 252.002 10.7729C252.022 10.5176 252.036 10.2598 252.036 9.99951C252.036 9.73684 252.022 9.47679 252.002 9.21924C252.395 5.18715 255.794 2.03577 259.929 2.03564ZM242.072 2.03564C246.207 2.03582 249.606 5.18828 249.998 9.22119C249.978 9.47808 249.964 9.73753 249.964 9.99951C249.964 10.2599 249.979 10.5176 249.999 10.7729C249.61 14.8085 246.209 17.9642 242.072 17.9644C237.934 17.9644 234.534 14.8086 234.145 10.7729C234.165 10.5176 234.178 10.2598 234.178 9.99951C234.178 9.73684 234.165 9.47679 234.145 9.21924C234.537 5.18714 237.937 2.03564 242.072 2.03564ZM224.214 2.03564C228.349 2.03582 231.748 5.18725 232.14 9.21924C232.12 9.47679 232.107 9.73684 232.107 9.99951C232.107 10.2598 232.121 10.5176 232.14 10.7729C231.751 14.8085 228.352 17.9642 224.214 17.9644C220.082 17.9644 216.686 14.8167 216.29 10.7886C216.31 10.5282 216.323 10.2651 216.323 9.99951C216.323 9.73354 216.31 9.47019 216.29 9.20947C216.686 5.1821 220.083 2.03564 224.214 2.03564ZM206.359 2.03564C210.49 2.03582 213.887 5.18216 214.284 9.20947C214.263 9.47021 214.25 9.73352 214.25 9.99951C214.25 10.2652 214.263 10.5282 214.284 10.7886C213.888 14.8166 210.491 17.9642 206.359 17.9644C202.221 17.9644 198.821 14.8086 198.432 10.7729C198.452 10.5176 198.465 10.2598 198.465 9.99951C198.465 9.73684 198.452 9.47679 198.432 9.21924C198.824 5.18714 202.224 2.03564 206.359 2.03564ZM188.501 2.03564C192.636 2.03582 196.035 5.18725 196.427 9.21924C196.407 9.47679 196.394 9.73684 196.394 9.99951C196.394 10.2598 196.408 10.5176 196.427 10.7729C196.038 14.8085 192.639 17.9642 188.501 17.9644C184.364 17.9644 180.964 14.8086 180.575 10.7729C180.594 10.5176 180.608 10.2598 180.608 9.99951C180.608 9.73684 180.595 9.47679 180.575 9.21924C180.967 5.18714 184.366 2.03564 188.501 2.03564ZM170.644 2.03564C174.779 2.03582 178.178 5.18725 178.57 9.21924C178.55 9.47679 178.537 9.73684 178.537 9.99951C178.537 10.2598 178.55 10.5176 178.57 10.7729C178.181 14.8085 174.781 17.9642 170.644 17.9644C166.506 17.9644 163.106 14.8086 162.717 10.7729C162.737 10.5176 162.75 10.2599 162.75 9.99951C162.75 9.73686 162.737 9.47677 162.717 9.21924C163.11 5.18714 166.509 2.03564 170.644 2.03564ZM152.787 2.03564C156.922 2.03582 160.32 5.18719 160.712 9.21924C160.692 9.47679 160.679 9.73684 160.679 9.99951C160.679 10.2598 160.693 10.5176 160.712 10.7729C160.323 14.8084 156.924 17.9642 152.787 17.9644C148.651 17.9644 145.253 14.8116 144.861 10.7788C144.881 10.5216 144.893 10.2618 144.893 9.99951C144.893 9.73688 144.881 9.47675 144.861 9.21924C145.253 5.18712 148.652 2.03564 152.787 2.03564ZM134.929 2.03564C139.064 2.03582 142.463 5.1872 142.855 9.21924C142.835 9.47677 142.822 9.73686 142.822 9.99951C142.822 10.2599 142.835 10.5176 142.855 10.7729C142.466 14.8084 139.067 17.9642 134.929 17.9644C130.792 17.9642 127.391 14.8085 127.002 10.7729C127.022 10.5176 127.036 10.2598 127.036 9.99951C127.036 9.73684 127.022 9.47679 127.002 9.21924C127.395 5.18715 130.794 2.03577 134.929 2.03564ZM117.072 2.03564C121.207 2.03582 124.606 5.18828 124.998 9.22119C124.978 9.47808 124.964 9.73753 124.964 9.99951C124.964 10.2599 124.979 10.5176 124.999 10.7729C124.61 14.8085 121.209 17.9642 117.072 17.9644C112.934 17.9644 109.534 14.8086 109.145 10.7729C109.165 10.5176 109.178 10.2598 109.178 9.99951C109.178 9.73684 109.165 9.47679 109.145 9.21924C109.537 5.18714 112.937 2.03564 117.072 2.03564ZM99.2144 2.03564C103.349 2.03582 106.748 5.18725 107.14 9.21924C107.12 9.47679 107.107 9.73684 107.107 9.99951C107.107 10.2598 107.121 10.5176 107.14 10.7729C106.751 14.8085 103.352 17.9642 99.2144 17.9644C95.0822 17.9644 91.6858 14.8167 91.2896 10.7886C91.31 10.5282 91.3228 10.2651 91.3228 9.99951C91.3228 9.73354 91.31 9.47019 91.2896 9.20947C91.6865 5.1821 95.0826 2.03564 99.2144 2.03564ZM81.3589 2.03564C85.4905 2.03582 88.8869 5.18216 89.2837 9.20947C89.2632 9.47021 89.2495 9.73352 89.2495 9.99951C89.2495 10.2652 89.2633 10.5282 89.2837 10.7886C88.8875 14.8166 85.491 17.9642 81.3589 17.9644C77.2213 17.9644 73.8211 14.8086 73.4321 10.7729C73.4517 10.5176 73.4653 10.2598 73.4653 9.99951C73.4653 9.73684 73.4521 9.47679 73.4321 9.21924C73.8245 5.18714 77.2238 2.03564 81.3589 2.03564ZM63.5015 2.03564C67.6364 2.03582 71.035 5.18725 71.4272 9.21924C71.4073 9.47679 71.394 9.73684 71.394 9.99951C71.394 10.2598 71.4076 10.5176 71.4272 10.7729C71.0383 14.8085 67.6389 17.9642 63.5015 17.9644C59.3639 17.9644 55.9637 14.8086 55.5747 10.7729C55.5943 10.5176 55.6079 10.2598 55.6079 9.99951C55.6079 9.73684 55.5947 9.47679 55.5747 9.21924C55.9671 5.18714 59.3664 2.03564 63.5015 2.03564ZM45.644 2.03564C49.779 2.03582 53.1776 5.18725 53.5698 9.21924C53.5499 9.47679 53.5366 9.73684 53.5366 9.99951C53.5366 10.2598 53.5502 10.5176 53.5698 10.7729C53.1809 14.8085 49.7815 17.9642 45.644 17.9644C41.5065 17.9644 38.1063 14.8086 37.7173 10.7729C37.7369 10.5176 37.7505 10.2599 37.7505 9.99951C37.7505 9.73686 37.7372 9.47677 37.7173 9.21924C38.1096 5.18714 41.5089 2.03564 45.644 2.03564ZM27.7866 2.03564C31.9216 2.03582 35.3202 5.18719 35.7124 9.21924C35.6924 9.47679 35.6792 9.73684 35.6792 9.99951C35.6792 10.2598 35.6928 10.5176 35.7124 10.7729C35.3234 14.8084 31.924 17.9642 27.7866 17.9644C23.7125 17.9644 20.3548 14.9042 19.8813 10.9575C19.9114 10.6422 19.9282 10.3227 19.9282 9.99951C19.9282 9.67598 19.9115 9.35616 19.8813 9.04053C20.3553 5.09447 23.7129 2.03564 27.7866 2.03564ZM9.96436 2.03564C14.038 2.03582 17.3958 5.09458 17.8696 9.04053C17.8395 9.35617 17.8218 9.67597 17.8218 9.99951C17.8218 10.3227 17.8395 10.6422 17.8696 10.9575C17.3964 14.9042 14.0385 17.9642 9.96436 17.9644C5.56583 17.9644 1.99951 14.398 1.99951 9.99951C1.99973 5.60118 5.56598 2.03564 9.96436 2.03564ZM492.037 1.99951C496.435 1.9997 500 5.56528 500 9.96338C500 14.3618 496.435 17.928 492.037 17.9282C487.967 17.9282 484.613 14.8753 484.133 10.9351C484.162 10.627 484.178 10.315 484.178 9.99951C484.178 9.66867 484.162 9.34161 484.13 9.01904C484.598 5.06612 487.958 1.99951 492.037 1.99951Z" fill="black"/>
</svg>
