<svg width="502" height="37" viewBox="0 0 502 37" fill="none" xmlns="http://www.w3.org/2000/svg">
<path d="M0.5 -6.10352e-05V36.9999L501.5 36.9999V-6.10352e-05L0.5 -6.10352e-05ZM499.8 35.9999H483.949L489.233 25.3486L499.8 35.9999ZM482.337 35.9999L466.486 35.9999L477.054 25.3476L482.337 35.9999ZM464.086 35.9999H448.235L453.52 25.3486L464.086 35.9999ZM446.623 35.9999H430.772L441.34 25.3476L446.623 35.9999ZM428.371 35.9999L412.521 35.9999L417.805 25.3486L428.371 35.9999ZM410.908 35.9999H395.058L405.625 25.3476L410.908 35.9999ZM392.657 35.9999H376.807L382.091 25.3486L392.657 35.9999ZM375.194 35.9999H359.344L369.911 25.3476L375.194 35.9999ZM356.942 35.9999L341.092 35.9999L346.376 25.3486L356.942 35.9999ZM339.479 35.9999H323.629L334.196 25.3476L339.479 35.9999ZM321.229 35.9999H305.378L310.662 25.3486L321.229 35.9999ZM303.766 35.9999L287.915 35.9999L298.482 25.3476L303.766 35.9999ZM285.514 35.9999H269.663L274.947 25.3486L285.514 35.9999ZM268.051 35.9999H252.2L262.768 25.3476L268.051 35.9999ZM249.8 35.9999L233.949 35.9999L239.233 25.3486L249.8 35.9999ZM232.337 35.9999H216.486L227.054 25.3476L232.337 35.9999ZM214.086 35.9999H198.235L203.52 25.3486L214.086 35.9999ZM196.623 35.9999L180.772 35.9999L191.34 25.3476L196.623 35.9999ZM178.371 35.9999H162.521L167.805 25.3486L178.371 35.9999ZM160.908 35.9999H145.058L155.625 25.3476L160.908 35.9999ZM142.657 35.9999H126.807L132.091 25.3486L142.657 35.9999ZM125.194 35.9999L109.344 35.9999L119.911 25.3476L125.194 35.9999ZM106.942 35.9999H91.0918L96.376 25.3486L106.942 35.9999ZM89.4795 35.9999H73.6289L84.1963 25.3476L89.4795 35.9999ZM71.2285 35.9999L55.3779 35.9999L60.6621 25.3486L71.2285 35.9999ZM53.7656 35.9999H37.915L48.4824 25.3476L53.7656 35.9999ZM35.5137 35.9999H19.6631L24.9473 25.3486L35.5137 35.9999ZM18.0508 35.9999L2.2002 35.9999L12.7676 25.3476L18.0508 35.9999ZM488.489 24.5976L483.643 34.3671V19.7128L488.489 24.5976ZM452.775 24.5976L447.929 34.3671V19.7128L452.775 24.5976ZM417.061 24.5976L412.214 34.3671V19.7128L417.061 24.5976ZM381.347 24.5976L376.5 34.3671V19.7128L381.347 24.5976ZM345.632 24.5976L340.785 34.3671V19.7128L345.632 24.5976ZM309.918 24.5976L305.071 34.3671V19.7128L309.918 24.5976ZM274.203 24.5976L269.356 34.3671V19.7128L274.203 24.5976ZM238.489 24.5976L233.643 34.3671V19.7128L238.489 24.5976ZM202.775 24.5976L197.929 34.3671V19.7128L202.775 24.5976ZM167.061 24.5976L162.214 34.3671V19.7128L167.061 24.5976ZM131.347 24.5976L126.5 34.3671V19.7128L131.347 24.5976ZM95.6318 24.5976L90.7852 34.3671V19.7128L95.6318 24.5976ZM59.918 24.5976L55.0713 34.3671V19.7128L59.918 24.5976ZM24.2031 24.5976L19.3564 34.3671V19.7128L24.2031 24.5976ZM500.5 34.3652L492.631 18.4999L500.5 2.63373V34.3652ZM482.643 34.3652L477.798 24.5976L482.643 19.7138V34.3652ZM473.656 18.4999L465.786 34.3652V2.63373L473.656 18.4999ZM464.786 34.3652L456.917 18.4999L464.786 2.63373V34.3652ZM446.929 34.3652L442.084 24.5976L446.929 19.7138V34.3652ZM437.942 18.4999L430.072 34.3652V2.63373L437.942 18.4999ZM429.071 34.3652L421.202 18.4999L429.071 2.63373V34.3652ZM411.214 34.3652L406.369 24.5976L411.214 19.7138V34.3652ZM402.228 18.4999L394.357 34.3652V2.63373L402.228 18.4999ZM393.357 34.3652L385.488 18.4999L393.357 2.63373V34.3652ZM375.5 34.3652L370.655 24.5976L375.5 19.7138V34.3652ZM366.514 18.4999L358.644 34.3652V2.63373L366.514 18.4999ZM357.643 34.3652L349.773 18.4999L357.643 2.63373V34.3652ZM339.785 34.3652L334.94 24.5976L339.785 19.7138V34.3652ZM330.799 18.4999L322.929 34.3652V2.63373L330.799 18.4999ZM321.929 34.3652L314.06 18.4999L321.929 2.63373V34.3652ZM304.071 34.3652L299.227 24.5976L304.071 19.7138V34.3652ZM295.085 18.4999L287.215 34.3652V2.63373L295.085 18.4999ZM286.214 34.3652L278.345 18.4999L286.214 2.63373V34.3652ZM268.356 34.3652L263.512 24.5976L268.356 19.7138V34.3652ZM259.37 18.4999L251.5 34.3652V2.63373L259.37 18.4999ZM250.5 34.3652L242.631 18.4999L250.5 2.63373V34.3652ZM232.643 34.3652L227.798 24.5976L232.643 19.7138V34.3652ZM223.656 18.4999L215.786 34.3652V2.63373L223.656 18.4999ZM214.786 34.3652L206.917 18.4999L214.786 2.63373V34.3652ZM196.929 34.3652L192.084 24.5976L196.929 19.7138V34.3652ZM187.942 18.4999L180.072 34.3652V2.63373L187.942 18.4999ZM179.071 34.3652L171.202 18.4999L179.071 2.63373V34.3652ZM161.214 34.3652L156.369 24.5976L161.214 19.7138V34.3652ZM152.228 18.4999L144.357 34.3652V2.63373L152.228 18.4999ZM143.357 34.3652L135.488 18.4999L143.357 2.63373V34.3652ZM125.5 34.3652L120.655 24.5976L125.5 19.7138V34.3652ZM116.514 18.4999L108.644 34.3652V2.63373L116.514 18.4999ZM107.643 34.3652L99.7734 18.4999L107.643 2.63373V34.3652ZM89.7852 34.3652L84.9404 24.5976L89.7852 19.7138V34.3652ZM80.7988 18.4999L72.9287 34.3652V2.63373L80.7988 18.4999ZM71.9287 34.3652L64.0596 18.4999L71.9287 2.63373V34.3652ZM54.0713 34.3652L49.2266 24.5976L54.0713 19.7138V34.3652ZM45.085 18.4999L37.2148 34.3652V2.63373L45.085 18.4999ZM36.2139 34.3652L28.3447 18.4999L36.2139 2.63373V34.3652ZM18.3564 34.3652L13.5117 24.5976L18.3564 19.7138V34.3652ZM9.37012 18.4999L1.5 34.3652V2.63373L9.37012 18.4999ZM499.179 33.9531L489.703 24.4013L492.072 19.6249L499.179 33.9531ZM476.584 24.4013L467.107 33.9531L474.215 19.6249L476.584 24.4013ZM463.465 33.9531L453.989 24.4013L456.358 19.6249L463.465 33.9531ZM440.87 24.4013L431.394 33.9531L438.501 19.6249L440.87 24.4013ZM427.75 33.9531L418.274 24.4013L420.644 19.6249L427.75 33.9531ZM405.155 24.4013L395.679 33.9531L402.786 19.6249L405.155 24.4013ZM392.036 33.9531L382.561 24.4013L384.93 19.6249L392.036 33.9531ZM369.441 24.4013L359.965 33.9531L367.072 19.6249L369.441 24.4013ZM356.321 33.9531L346.846 24.4013L349.215 19.6249L356.321 33.9531ZM333.727 24.4013L324.25 33.9531L331.357 19.6249L333.727 24.4013ZM320.607 33.9531L311.132 24.4013L313.501 19.6249L320.607 33.9531ZM298.013 24.4013L288.536 33.9531L295.644 19.6249L298.013 24.4013ZM284.893 33.9531L275.417 24.4013L277.786 19.6249L284.893 33.9531ZM262.298 24.4013L252.821 33.9531L259.929 19.6249L262.298 24.4013ZM249.179 33.9531L239.703 24.4013L242.072 19.6249L249.179 33.9531ZM226.584 24.4013L217.107 33.9531L224.215 19.6249L226.584 24.4013ZM213.465 33.9531L203.989 24.4013L206.358 19.6249L213.465 33.9531ZM190.87 24.4013L181.394 33.9531L188.501 19.6249L190.87 24.4013ZM177.75 33.9531L168.274 24.4013L170.644 19.6249L177.75 33.9531ZM155.155 24.4013L145.679 33.9531L152.786 19.6249L155.155 24.4013ZM142.036 33.9531L132.561 24.4013L134.93 19.6249L142.036 33.9531ZM119.441 24.4013L109.965 33.9531L117.072 19.6249L119.441 24.4013ZM106.321 33.9531L96.8457 24.4013L99.2148 19.6249L106.321 33.9531ZM83.7266 24.4013L74.25 33.9531L81.3574 19.6249L83.7266 24.4013ZM70.6074 33.9531L61.1318 24.4013L63.501 19.6249L70.6074 33.9531ZM48.0127 24.4013L38.5361 33.9531L45.6436 19.6249L48.0127 24.4013ZM34.8926 33.9531L25.417 24.4013L27.7861 19.6249L34.8926 33.9531ZM12.2979 24.4013L2.82129 33.9531L9.92871 19.6249L12.2979 24.4013ZM491.514 18.4999L488.958 23.6513L483.848 18.4999L488.958 13.3476L491.514 18.4999ZM455.8 18.4999L453.244 23.6513L448.134 18.4999L453.244 13.3476L455.8 18.4999ZM420.085 18.4999L417.529 23.6513L412.419 18.4999L417.529 13.3476L420.085 18.4999ZM384.371 18.4999L381.815 23.6513L376.705 18.4999L381.815 13.3476L384.371 18.4999ZM348.656 18.4999L346.101 23.6513L340.99 18.4999L346.101 13.3476L348.656 18.4999ZM312.942 18.4999L310.387 23.6513L305.276 18.4999L310.387 13.3476L312.942 18.4999ZM277.228 18.4999L274.672 23.6513L269.562 18.4999L274.672 13.3476L277.228 18.4999ZM241.514 18.4999L238.958 23.6513L233.848 18.4999L238.958 13.3476L241.514 18.4999ZM205.8 18.4999L203.244 23.6513L198.134 18.4999L203.244 13.3476L205.8 18.4999ZM170.085 18.4999L167.529 23.6513L162.419 18.4999L167.529 13.3476L170.085 18.4999ZM134.371 18.4999L131.815 23.6513L126.705 18.4999L131.815 13.3476L134.371 18.4999ZM98.6562 18.4999L96.1006 23.6513L90.9902 18.4999L96.1006 13.3476L98.6562 18.4999ZM62.9424 18.4999L60.3867 23.6513L55.2764 18.4999L60.3867 13.3476L62.9424 18.4999ZM27.2275 18.4999L24.6719 23.6513L19.5615 18.4999L24.6719 13.3476L27.2275 18.4999ZM482.438 18.4999L477.328 23.6503L474.773 18.4999L477.328 13.3486L482.438 18.4999ZM446.725 18.4999L441.614 23.6503L439.06 18.4999L441.614 13.3486L446.725 18.4999ZM411.01 18.4999L405.899 23.6503L403.345 18.4999L405.899 13.3486L411.01 18.4999ZM375.296 18.4999L370.186 23.6503L367.631 18.4999L370.186 13.3486L375.296 18.4999ZM339.581 18.4999L334.471 23.6503L331.916 18.4999L334.471 13.3486L339.581 18.4999ZM303.867 18.4999L298.757 23.6503L296.202 18.4999L298.757 13.3486L303.867 18.4999ZM268.152 18.4999L263.042 23.6503L260.487 18.4999L263.042 13.3486L268.152 18.4999ZM232.438 18.4999L227.328 23.6503L224.773 18.4999L227.328 13.3486L232.438 18.4999ZM196.725 18.4999L191.614 23.6503L189.06 18.4999L191.614 13.3486L196.725 18.4999ZM161.01 18.4999L155.899 23.6503L153.345 18.4999L155.899 13.3486L161.01 18.4999ZM125.296 18.4999L120.186 23.6503L117.631 18.4999L120.186 13.3486L125.296 18.4999ZM89.5811 18.4999L84.4707 23.6503L81.916 18.4999L84.4707 13.3486L89.5811 18.4999ZM53.8672 18.4999L48.7568 23.6503L46.2021 18.4999L48.7568 13.3486L53.8672 18.4999ZM18.1523 18.4999L13.042 23.6503L10.4873 18.4999L13.042 13.3486L18.1523 18.4999ZM492.072 17.374L489.703 12.5976L499.179 3.04584L492.072 17.374ZM476.584 12.5976L474.215 17.374L467.107 3.04584L476.584 12.5976ZM456.358 17.374L453.989 12.5976L463.465 3.04584L456.358 17.374ZM440.87 12.5976L438.501 17.374L431.394 3.04584L440.87 12.5976ZM420.644 17.374L418.274 12.5976L427.75 3.04584L420.644 17.374ZM405.155 12.5976L402.786 17.374L395.679 3.04584L405.155 12.5976ZM384.93 17.374L382.561 12.5976L392.036 3.04584L384.93 17.374ZM369.441 12.5976L367.072 17.374L359.965 3.04584L369.441 12.5976ZM349.215 17.374L346.846 12.5976L356.321 3.04584L349.215 17.374ZM333.727 12.5976L331.357 17.374L324.25 3.04584L333.727 12.5976ZM313.501 17.374L311.132 12.5976L320.607 3.04584L313.501 17.374ZM298.013 12.5976L295.644 17.374L288.536 3.04584L298.013 12.5976ZM277.786 17.374L275.417 12.5976L284.893 3.04584L277.786 17.374ZM262.298 12.5976L259.929 17.374L252.821 3.04584L262.298 12.5976ZM242.072 17.374L239.703 12.5976L249.179 3.04584L242.072 17.374ZM226.584 12.5976L224.215 17.374L217.107 3.04584L226.584 12.5976ZM206.358 17.374L203.989 12.5976L213.465 3.04584L206.358 17.374ZM190.87 12.5976L188.501 17.374L181.394 3.04584L190.87 12.5976ZM170.644 17.374L168.274 12.5976L177.75 3.04584L170.644 17.374ZM155.155 12.5976L152.786 17.374L145.679 3.04584L155.155 12.5976ZM134.93 17.374L132.561 12.5976L142.036 3.04584L134.93 17.374ZM119.441 12.5976L117.072 17.374L109.965 3.04584L119.441 12.5976ZM99.2148 17.374L96.8457 12.5976L106.321 3.04584L99.2148 17.374ZM83.7266 12.5976L81.3574 17.374L74.25 3.04584L83.7266 12.5976ZM63.501 17.374L61.1318 12.5976L70.6074 3.04584L63.501 17.374ZM48.0127 12.5976L45.6436 17.374L38.5361 3.04584L48.0127 12.5976ZM27.7861 17.374L25.417 12.5976L34.8926 3.04584L27.7861 17.374ZM12.2979 12.5976L9.92871 17.374L2.82129 3.04584L12.2979 12.5976ZM488.489 12.4013L483.643 17.2861V2.63177L488.489 12.4013ZM452.775 12.4013L447.929 17.2861V2.63177L452.775 12.4013ZM417.061 12.4013L412.214 17.2861V2.63177L417.061 12.4013ZM381.347 12.4013L376.5 17.2861V2.63177L381.347 12.4013ZM345.632 12.4013L340.785 17.2861V2.63177L345.632 12.4013ZM309.918 12.4013L305.071 17.2861V2.63177L309.918 12.4013ZM274.203 12.4013L269.356 17.2861V2.63177L274.203 12.4013ZM238.489 12.4013L233.643 17.2861V2.63177L238.489 12.4013ZM202.775 12.4013L197.929 17.2861V2.63177L202.775 12.4013ZM167.061 12.4013L162.214 17.2861V2.63177L167.061 12.4013ZM131.347 12.4013L126.5 17.2861V2.63177L131.347 12.4013ZM95.6318 12.4013L90.7852 17.2861V2.63177L95.6318 12.4013ZM59.918 12.4013L55.0713 17.2861V2.63177L59.918 12.4013ZM24.2031 12.4013L19.3564 17.2861V2.63177L24.2031 12.4013ZM482.643 17.2851L477.798 12.4013L482.643 2.63373V17.2851ZM446.929 17.2851L442.084 12.4013L446.929 2.63373V17.2851ZM411.214 17.2851L406.369 12.4013L411.214 2.63373V17.2851ZM375.5 17.2851L370.655 12.4013L375.5 2.63373V17.2851ZM339.785 17.2851L334.94 12.4013L339.785 2.63373V17.2851ZM304.071 17.2851L299.227 12.4013L304.071 2.63373V17.2851ZM268.356 17.2851L263.512 12.4013L268.356 2.63373V17.2851ZM232.643 17.2851L227.798 12.4013L232.643 2.63373V17.2851ZM196.929 17.2851L192.084 12.4013L196.929 2.63373V17.2851ZM161.214 17.2851L156.369 12.4013L161.214 2.63373V17.2851ZM125.5 17.2851L120.655 12.4013L125.5 2.63373V17.2851ZM89.7852 17.2851L84.9404 12.4013L89.7852 2.63373V17.2851ZM54.0713 17.2851L49.2266 12.4013L54.0713 2.63373V17.2851ZM18.3564 17.2851L13.5117 12.4013L18.3564 2.63373V17.2851ZM477.054 11.6513L466.486 0.999939L482.337 0.999939L477.054 11.6513ZM441.34 11.6513L430.772 0.999939L446.623 0.999939L441.34 11.6513ZM405.625 11.6513L395.058 0.999939L410.908 0.999939L405.625 11.6513ZM369.911 11.6513L359.344 0.999939L375.194 0.999939L369.911 11.6513ZM334.196 11.6513L323.629 0.999939L339.479 0.999939L334.196 11.6513ZM298.482 11.6513L287.915 0.999939L303.766 0.999939L298.482 11.6513ZM262.768 11.6513L252.2 0.999939L268.051 0.999939L262.768 11.6513ZM227.054 11.6513L216.486 0.999939L232.337 0.999939L227.054 11.6513ZM191.34 11.6513L180.772 0.999939L196.623 0.999939L191.34 11.6513ZM155.625 11.6513L145.058 0.999939L160.908 0.999939L155.625 11.6513ZM119.911 11.6513L109.344 0.999939L125.194 0.999939L119.911 11.6513ZM84.1963 11.6513L73.6289 0.999939L89.4795 0.999939L84.1963 11.6513ZM48.4824 11.6513L37.915 0.999939L53.7656 0.999939L48.4824 11.6513ZM12.7676 11.6513L2.2002 0.999939L18.0508 0.999939L12.7676 11.6513ZM489.233 11.6503L483.949 0.999939L499.8 0.999939L489.233 11.6503ZM453.52 11.6503L448.235 0.999939L464.086 0.999939L453.52 11.6503ZM417.805 11.6503L412.521 0.999939L428.371 0.999939L417.805 11.6503ZM382.091 11.6503L376.807 0.999939L392.657 0.999939L382.091 11.6503ZM346.376 11.6503L341.092 0.999939L356.942 0.999939L346.376 11.6503ZM310.662 11.6503L305.378 0.999939L321.229 0.999939L310.662 11.6503ZM274.947 11.6503L269.663 0.999939L285.514 0.999939L274.947 11.6503ZM239.233 11.6503L233.949 0.999939L249.8 0.999939L239.233 11.6503ZM203.52 11.6503L198.235 0.999939L214.086 0.999939L203.52 11.6503ZM167.805 11.6503L162.521 0.999939L178.371 0.999939L167.805 11.6503ZM132.091 11.6503L126.807 0.999939L142.657 0.999939L132.091 11.6503ZM96.376 11.6503L91.0918 0.999939L106.942 0.999939L96.376 11.6503ZM60.6621 11.6503L55.3779 0.999939L71.2285 0.999939L60.6621 11.6503ZM24.9473 11.6503L19.6631 0.999939L35.5137 0.999939L24.9473 11.6503Z" fill="black"/>
</svg>
