<svg width="511" height="40" viewBox="0 0 511 40" fill="none" xmlns="http://www.w3.org/2000/svg">
<path fill-rule="evenodd" clip-rule="evenodd" d="M489.806 0.482083L0.984955 0.482083V39.5015L21.1927 39.5015V39.4644L510.014 39.4644V0.444946L489.806 0.444946V0.482083ZM19.0567 37.4459L3.01297 37.4459V21.0748H19.0567V37.4459ZM507.986 37.4088H491.942V21.0376L507.986 21.0376V37.4088ZM489.806 37.4088L473.837 37.4088V21.0376H489.806V37.4088ZM471.734 37.4088H455.729V21.0376L471.734 21.0376V37.4088ZM453.629 37.4088H437.622V21.0376H453.629V37.4088ZM435.522 37.4088L419.514 37.4088V21.0376H435.522V37.4088ZM417.414 37.4088H401.407V21.0376L417.414 21.0376V37.4088ZM399.307 37.4088H383.3V21.0376H399.307V37.4088ZM381.199 37.4088H365.192V21.0376L381.199 21.0376V37.4088ZM363.092 37.4088H347.087V21.0376L363.092 21.0376V37.4088ZM344.984 37.4088H328.979V21.0376H344.984V37.4088ZM326.879 37.4088H310.872V21.0376L326.879 21.0376V37.4088ZM308.772 37.4088L292.764 37.4088V21.0376H308.772V37.4088ZM290.664 37.4088H274.657V21.0376H290.664V37.4088ZM272.557 37.4088H256.55V21.0376L272.557 21.0376V37.4088ZM254.449 37.4088L238.442 37.4088V21.0376H254.449V37.4088ZM236.342 37.4088H220.337V21.0376L236.342 21.0376V37.4088ZM218.234 37.4088H202.229V21.0376L218.234 21.0376V37.4088ZM200.129 37.4088L184.122 37.4088V21.0376H200.129V37.4088ZM182.022 37.4088H166.014V21.0376L182.022 21.0376V37.4088ZM163.914 37.4088H147.907V21.0376H163.914V37.4088ZM145.807 37.4088L129.8 37.4088V21.0376H145.807V37.4088ZM127.699 37.4088H111.692V21.0376L127.699 21.0376V37.4088ZM109.592 37.4088H93.5867V21.0376H109.592V37.4088ZM91.4844 37.4088H75.4793V21.0376L91.4844 21.0376V37.4088ZM73.379 37.4088H57.3719V21.0376L73.379 21.0376V37.4088ZM55.2716 37.4088H39.2644V21.0376H55.2716V37.4088ZM37.1642 37.4088H21.1927V21.0376L37.1642 21.0376V37.4088ZM489.806 18.9088H473.837V2.53764L489.806 2.53764V18.9088ZM471.734 18.9088L455.729 18.9088V2.53764L471.734 2.53764V18.9088ZM453.629 18.9088H437.622V2.53764L453.629 2.53764V18.9088ZM435.522 18.9088H419.514V2.53764L435.522 2.53764V18.9088ZM417.414 18.9088L401.407 18.9088V2.53764L417.414 2.53764V18.9088ZM399.307 18.9088H383.3V2.53764L399.307 2.53764V18.9088ZM381.199 18.9088L365.192 18.9088V2.53764L381.199 2.53764V18.9088ZM363.092 18.9088L347.087 18.9088V2.53764L363.092 2.53764V18.9088ZM344.984 18.9088H328.979V2.53764L344.984 2.53764V18.9088ZM326.879 18.9088L310.872 18.9088V2.53764L326.879 2.53764V18.9088ZM308.772 18.9088H292.764V2.53764L308.772 2.53764V18.9088ZM290.664 18.9088H274.657V2.53764L290.664 2.53764V18.9088ZM272.557 18.9088L256.55 18.9088V2.53764L272.557 2.53764V18.9088ZM254.449 18.9088H238.442V2.53764L254.449 2.53764V18.9088ZM236.342 18.9088L220.337 18.9088V2.53764L236.342 2.53764V18.9088ZM218.234 18.9088L202.229 18.9088V2.53764L218.234 2.53764V18.9088ZM200.129 18.9088H184.122V2.53764L200.129 2.53764V18.9088ZM182.022 18.9088L166.014 18.9088V2.53764L182.022 2.53764V18.9088ZM163.914 18.9088H147.907V2.53764L163.914 2.53764V18.9088ZM145.807 18.9088H129.8V2.53764L145.807 2.53764V18.9088ZM127.699 18.9088L111.692 18.9088V2.53764L127.699 2.53764V18.9088ZM109.592 18.9088H93.5867V2.53764L109.592 2.53764V18.9088ZM91.4844 18.9088L75.4793 18.9088V2.53764L91.4844 2.53764V18.9088ZM73.379 18.9088L57.3719 18.9088V2.53764L73.379 2.53764V18.9088ZM55.2716 18.9088H39.2644V2.53764L55.2716 2.53764V18.9088ZM37.1642 18.9088L21.1927 18.9088V2.53764L37.1642 2.53764V18.9088ZM19.0567 18.9088H3.01297V2.53764L19.0567 2.53764V18.9088ZM507.986 18.8717L491.942 18.8717V2.5005L507.986 2.5005V18.8717Z" fill="black"/>
</svg>
