<svg width="502" height="38" viewBox="0 0 502 38" fill="none" xmlns="http://www.w3.org/2000/svg">
<path d="M501 36.9999L459.431 36.9999L480.216 0.999939L501 36.9999ZM501 36.9999V18.9999M1 36.9999L42.5693 36.9999L21.7842 0.999939L1 36.9999ZM1 36.9999V18.9999M501 0.999939L459.431 0.999939L480.216 36.9999L501 0.999939ZM501 0.999939V18.9999M1 0.999939L42.5693 0.999939L21.7842 36.9999L1 0.999939ZM1 0.999939V18.9999M501 18.9999L1 18.9999M417.739 36.9999H459.309L438.524 0.999939L417.739 36.9999ZM376.073 36.9999L417.643 36.9999L396.857 0.999939L376.073 36.9999ZM334.406 36.9999L375.976 36.9999L355.191 0.999939L334.406 36.9999ZM292.74 36.9999L334.309 36.9999L313.524 0.999939L292.74 36.9999ZM251.073 36.9999H292.643L271.857 0.999939L251.073 36.9999ZM209.406 36.9999L250.976 36.9999L230.191 0.999939L209.406 36.9999ZM167.74 36.9999L209.31 36.9999L188.524 0.999939L167.74 36.9999ZM126.073 36.9999H167.643L146.858 0.999939L126.073 36.9999ZM84.4072 36.9999L125.977 36.9999L105.191 0.999939L84.4072 36.9999ZM42.7402 36.9999L84.3096 36.9999L63.5254 0.999939L42.7402 36.9999ZM417.739 0.999939L459.309 0.999939L438.524 36.9999L417.739 0.999939ZM376.073 0.999939L417.643 0.999939L396.857 36.9999L376.073 0.999939ZM334.406 0.999939L375.976 0.999939L355.191 36.9999L334.406 0.999939ZM292.74 0.999939L334.309 0.999939L313.524 36.9999L292.74 0.999939ZM251.073 0.999939L292.643 0.999939L271.857 36.9999L251.073 0.999939ZM209.406 0.999939L250.976 0.999939L230.191 36.9999L209.406 0.999939ZM167.74 0.999939L209.31 0.999939L188.524 36.9999L167.74 0.999939ZM126.073 0.999939L167.643 0.999939L146.858 36.9999L126.073 0.999939ZM84.4072 0.999939L125.977 0.999939L105.191 36.9999L84.4072 0.999939ZM42.7402 0.999939L84.3096 0.999939L63.5254 36.9999L42.7402 0.999939Z" stroke="black" stroke-linejoin="bevel"/>
</svg>
