<svg width="501" height="37" viewBox="0 0 501 37" fill="none" xmlns="http://www.w3.org/2000/svg">
<path d="M496.521 18.46H493.753V36.46H501V0.607422L496.521 0.607422V18.46ZM478.502 18.6074H479.261V36.46H486.508V18.46L482.98 18.46V0.607422L478.502 0.607422V18.6074ZM469.492 18.46H464.961V0.607422L460.482 0.607422V18.6074H464.769V36.46L472.016 36.46V18.6074H473.971V0.607422L469.492 0.607422V18.46ZM451.473 18.46H450.276V36.46H457.523V18.46L455.951 18.46V0.607422L451.473 0.607422V18.46ZM442.463 18.46H437.932V0.607422L433.453 0.607422V18.6074H435.784V36.46H443.031V18.6074H446.941V0.607422L442.463 0.607422V18.46ZM424.443 18.46H421.292V36.46H428.539V18.6074H428.922V0.607422L424.443 0.607422V18.46ZM406.424 18.6074H406.8V36.46L414.047 36.46V18.46H410.902V0.607422L406.424 0.607422V18.6074ZM397.414 18.46H392.883V0.607422L388.404 0.607422V18.6074H392.308V36.46H399.555V18.6074H401.893V0.607422L397.414 0.607422V18.46ZM379.395 18.46H377.815V36.46H385.062V18.46H383.873V0.607422L379.395 0.607422V18.46ZM370.385 18.46H365.854V0.607422L361.375 0.607422V18.6074H363.323V36.46H370.57V18.6074H374.863V0.607422L370.385 0.607422V18.46ZM352.365 18.46H348.831V36.46L356.078 36.46V18.6074H356.844V0.607422L352.365 0.607422V18.46ZM334.346 18.46H334.339V36.46H341.586V18.46L338.824 18.46V0.607422L334.346 0.607422V18.46ZM325.336 18.46H320.805V0.607422L316.326 0.607422V18.6074H319.847V36.46H327.094V18.6074H329.814V0.607422L325.336 0.607422V18.46ZM307.316 18.46H305.354V36.46H312.602V18.46L311.795 18.46V0.607422L307.316 0.607422V18.46ZM289.297 18.6074H290.862V36.46L298.109 36.46V18.46H293.775V0.607422L289.297 0.607422V18.6074ZM280.287 18.46H276.37V36.46H283.617V18.6074H284.766V0.607422L280.287 0.607422V18.46ZM262.268 18.46H261.878V36.46H269.125V18.46H266.746V0.607422L262.268 0.607422V18.46ZM253.258 18.46H248.727V0.607422L244.248 0.607422V18.6074H247.386V36.46H254.633V18.6074H257.736V0.607422L253.258 0.607422V18.46ZM235.238 18.46H232.894V36.46L240.141 36.46V18.46H239.717V0.607422L235.238 0.607422V18.46ZM217.219 18.6074H218.401V36.46H225.648V18.46L221.697 18.46V0.607422L217.219 0.607422V18.6074ZM208.209 18.46H203.909V36.46H211.156V18.6074H212.688V0.607422L208.209 0.607422V18.46ZM190.189 18.46H189.417V36.46H196.664V18.46L194.668 18.46V0.607422L190.189 0.607422V18.46ZM181.18 18.46H176.648V0.607422L172.17 0.607422V18.6074H174.925V36.46L182.172 36.46V18.6074H185.658V0.607422L181.18 0.607422V18.46ZM163.16 18.46H160.433V36.46H167.68V18.46H167.639V0.607422L163.16 0.607422V18.46ZM145.141 18.6074H145.94V36.46H153.188V18.46H149.619V0.607422L145.141 0.607422V18.6074ZM136.131 18.46H131.6V0.607422L127.121 0.607422V18.6074H131.448V36.46H138.695V18.6074H140.609V0.607422L136.131 0.607422V18.46ZM118.111 18.46H116.956V36.46L124.203 36.46V18.46H122.59V0.607422L118.111 0.607422V18.46ZM109.102 18.46H104.57V0.607422L100.092 0.607422V18.6074H102.464V36.46H109.711V18.6074H113.58V0.607422L109.102 0.607422V18.46ZM91.082 18.46H87.9717V36.46H95.2188V18.6074H95.5605V0.607422L91.082 0.607422V18.46ZM73.0625 18.6074H73.4795V36.46H80.7266V18.46L77.541 18.46V0.607422L73.0625 0.607422V18.6074ZM64.0527 18.46H59.5215V0.607422L55.043 0.607422V18.6074H58.9873V36.46L66.2344 36.46V18.6074H68.5312V0.607422L64.0527 0.607422V18.46ZM46.0332 18.46H44.4951V36.46H51.7422V18.46L50.5117 18.46V0.607422L46.0332 0.607422V18.46ZM37.0234 18.46H32.4922V0.607422L28.0137 0.607422V18.6074H30.0029V36.46H37.25V18.6074H41.502V0.607422L37.0234 0.607422V18.46ZM19.0039 18.46H15.5107V36.46H22.7578V18.6074H23.4824V0.607422L19.0039 0.607422V18.46ZM0.984375 18.6074H1.01855V36.46L8.26562 36.46V18.46H5.46289V0.607422L0.984375 0.607422V18.6074ZM487.512 18.6074H491.99V0.607422L487.512 0.607422V18.6074ZM415.434 18.6074H419.912V0.607422L415.434 0.607422V18.6074ZM343.355 18.6074H347.834V0.607422L343.355 0.607422V18.6074ZM298.307 18.6074H302.785V0.607422L298.307 0.607422V18.6074ZM271.277 18.6074H275.756V0.607422L271.277 0.607422V18.6074ZM226.229 18.6074H230.707V0.607422L226.229 0.607422V18.6074ZM199.199 18.6074H203.678V0.607422L199.199 0.607422V18.6074ZM154.15 18.6074H158.629V0.607422L154.15 0.607422V18.6074ZM82.0723 18.6074H86.5508V0.607422L82.0723 0.607422V18.6074ZM9.99414 18.6074H14.4727V0.607422L9.99414 0.607422V18.6074Z" fill="black"/>
</svg>
