<svg width="500" height="36" viewBox="0 0 500 36" fill="none" xmlns="http://www.w3.org/2000/svg">
<path d="M18 0C8.05899 0 0.000152588 8.05901 0 18C0 27.9411 8.05887 36 18 36C20.4156 36 22.7195 35.5232 24.8242 34.6602C26.9284 35.5228 29.2316 35.9999 31.6465 36C34.0619 36 36.3661 35.5231 38.4707 34.6602C40.5752 35.523 42.8787 36 45.2939 36C47.7095 36 50.0135 35.5232 52.1182 34.6602C54.2226 35.5229 56.5262 36 58.9414 36C61.3567 36 63.6602 35.523 65.7646 34.6602C67.8691 35.523 70.1726 36 72.5879 36C75.0034 36 77.3075 35.5231 79.4121 34.6602C81.5165 35.5229 83.8202 36 86.2354 36C88.6506 36 90.9541 35.523 93.0586 34.6602C95.1631 35.523 97.4666 35.9999 99.8818 36C102.297 36 104.601 35.5231 106.706 34.6602C108.811 35.523 111.114 36 113.529 36C115.945 36 118.249 35.5232 120.354 34.6602C122.458 35.5228 124.761 35.9999 127.176 36C129.591 36 131.895 35.5231 134 34.6602C136.104 35.523 138.408 36 140.823 36C143.239 36 145.543 35.5231 147.647 34.6602C149.752 35.5229 152.056 36 154.471 36C156.886 36 159.189 35.523 161.294 34.6602C163.398 35.523 165.702 35.9999 168.117 36C170.533 36 172.837 35.5231 174.941 34.6602C177.046 35.523 179.349 36 181.765 36C184.18 36 186.484 35.5232 188.589 34.6602C190.693 35.5228 192.996 35.9999 195.411 36C197.827 36 200.131 35.5231 202.235 34.6602C204.34 35.523 206.643 36 209.059 36C211.474 36 213.778 35.5231 215.883 34.6602C217.987 35.5229 220.291 36 222.706 36C225.121 36 227.425 35.523 229.529 34.6602C231.634 35.523 233.937 35.9999 236.353 36C238.768 36 241.072 35.5231 243.177 34.6602C245.281 35.523 247.585 36 250 36C252.416 36 254.72 35.5232 256.824 34.6602C258.928 35.5228 261.232 35.9999 263.646 36C266.062 36 268.366 35.5231 270.471 34.6602C272.575 35.523 274.879 36 277.294 36C279.709 36 282.014 35.5231 284.118 34.6602C286.223 35.5229 288.526 36 290.941 36C293.357 36 295.66 35.523 297.765 34.6602C299.869 35.523 302.173 36 304.588 36C307.003 36 309.307 35.5231 311.412 34.6602C313.517 35.523 315.82 36 318.235 36C320.651 36 322.955 35.5232 325.06 34.6602C327.164 35.5228 329.467 35.9999 331.882 36C334.297 36 336.601 35.5231 338.706 34.6602C340.811 35.523 343.114 36 345.529 36C347.945 36 350.249 35.5232 352.354 34.6602C354.458 35.5229 356.762 36 359.177 36C361.592 36 363.896 35.523 366 34.6602C368.104 35.523 370.408 36 372.823 36C375.239 36 377.543 35.5231 379.647 34.6602C381.752 35.523 384.055 36 386.471 36C388.886 36 391.19 35.5232 393.295 34.6602C395.399 35.5228 397.702 35.9999 400.117 36C402.533 36 404.837 35.5231 406.941 34.6602C409.046 35.523 411.349 36 413.765 36C416.18 36 418.484 35.5232 420.589 34.6602C422.693 35.5229 424.997 36 427.412 36C429.827 36 432.131 35.523 434.235 34.6602C436.34 35.523 438.643 36 441.059 36C443.474 36 445.778 35.5231 447.883 34.6602C449.987 35.5229 452.291 36 454.706 36C457.121 36 459.425 35.523 461.529 34.6602C463.634 35.523 465.937 35.9999 468.353 36C470.768 36 473.072 35.5231 475.177 34.6602C477.281 35.523 479.585 36 482 36C491.941 36 500 27.9411 500 18C500 8.05901 491.941 0 482 0C479.585 0 477.281 0.477078 475.177 1.33984C473.072 0.476969 470.768 0 468.353 0C465.937 6.41097e-05 463.634 0.477027 461.529 1.33984C459.425 0.477053 457.121 3.2057e-05 454.706 0C452.291 0 449.987 0.477132 447.883 1.33984C445.778 0.476915 443.474 0 441.059 0C438.643 3.20549e-05 436.34 0.477053 434.235 1.33984C432.131 0.477053 429.827 3.2057e-05 427.412 0C424.997 0 422.693 0.477132 420.589 1.33984C418.484 0.476861 416.18 0 413.765 0C411.349 0 409.046 0.477078 406.941 1.33984C404.837 0.476969 402.533 0 400.117 0C397.702 6.41012e-05 395.399 0.477244 393.295 1.33984C391.19 0.476861 388.886 0 386.471 0C384.056 0 381.752 0.477078 379.647 1.33984C377.543 0.476915 375.239 0 372.823 0C370.408 3.20549e-05 368.104 0.477053 366 1.33984C363.896 0.477053 361.592 3.2057e-05 359.177 0C356.762 0 354.458 0.477132 352.354 1.33984C350.249 0.476861 347.945 0 345.529 0C343.114 0 340.81 0.477078 338.706 1.33984C336.602 0.476969 334.297 0 331.882 0C329.467 6.41012e-05 327.164 0.477244 325.06 1.33984C322.955 0.476861 320.651 0 318.235 0C315.82 0 313.517 0.477078 311.412 1.33984C309.308 0.476915 307.003 0 304.588 0C302.173 3.20549e-05 299.869 0.477053 297.765 1.33984C295.66 0.477053 293.357 3.2057e-05 290.941 0C288.526 0 286.223 0.477132 284.118 1.33984C282.014 0.476915 279.709 0 277.294 0C274.879 3.20549e-05 272.575 0.477053 270.471 1.33984C268.366 0.476969 266.062 0 263.646 0C261.232 6.41012e-05 258.928 0.477244 256.824 1.33984C254.72 0.476861 252.416 0 250 0C247.585 0 245.281 0.477078 243.177 1.33984C241.072 0.476969 238.768 0 236.353 0C233.937 6.41097e-05 231.634 0.477027 229.529 1.33984C227.425 0.477053 225.121 3.2057e-05 222.706 0C220.291 0 217.987 0.477132 215.883 1.33984C213.778 0.476915 211.474 0 209.059 0C206.643 3.20549e-05 204.34 0.477053 202.235 1.33984C200.131 0.476969 197.826 0 195.411 0C192.996 6.41012e-05 190.693 0.477244 188.589 1.33984C186.484 0.476861 184.18 0 181.765 0C179.349 0 177.046 0.477078 174.941 1.33984C172.837 0.476969 170.533 0 168.117 0C165.702 6.41097e-05 163.398 0.477027 161.294 1.33984C159.19 0.477053 156.886 3.2057e-05 154.471 0C152.056 0 149.752 0.477132 147.647 1.33984C145.543 0.476915 143.239 0 140.823 0C138.408 3.20549e-05 136.104 0.477053 134 1.33984C131.895 0.476969 129.591 0 127.176 0C124.761 6.41012e-05 122.458 0.477244 120.354 1.33984C118.249 0.476861 115.945 0 113.529 0C111.114 0 108.81 0.477078 106.706 1.33984C104.602 0.476969 102.297 0 99.8818 0C97.4667 6.41097e-05 95.163 0.477027 93.0586 1.33984C90.9542 0.477053 88.6505 3.2057e-05 86.2354 0C83.8203 0 81.5165 0.477132 79.4121 1.33984C77.3075 0.476915 75.0033 0 72.5879 0C70.1727 3.20549e-05 67.869 0.477053 65.7646 1.33984C63.6602 0.477053 61.3566 3.2057e-05 58.9414 0C56.5263 0 54.2225 0.477132 52.1182 1.33984C50.0135 0.476861 47.7094 0 45.2939 0C42.8788 0 40.5751 0.477078 38.4707 1.33984C36.3662 0.476969 34.0618 0 31.6465 0C29.2316 6.41012e-05 26.9284 0.477244 24.8242 1.33984C22.7196 0.476861 20.4155 0 18 0ZM18 2C19.502 2 20.9556 2.20774 22.334 2.59473C17.1272 5.7491 13.6466 11.4678 13.6465 18C13.6465 24.5322 17.1273 30.2508 22.334 33.4053C20.9555 33.7923 19.5021 34 18 34C9.16345 34 2 26.8366 2 18C2.00015 9.16358 9.16354 2 18 2ZM482 2C490.836 2 498 9.16358 498 18C498 26.8366 490.837 34 482 34C480.498 34 479.045 33.7921 477.667 33.4053C482.873 30.2507 486.353 24.5319 486.353 18C486.352 11.4681 482.873 5.74919 477.667 2.59473C479.045 2.20791 480.498 2 482 2ZM468.354 29.7363C469.592 31.1755 471.054 32.4173 472.687 33.4062C471.308 33.7931 469.854 34 468.353 34C466.851 34 465.398 33.7922 464.02 33.4053C465.652 32.4162 467.115 31.1756 468.354 29.7363ZM454.706 29.7373C455.945 31.1764 457.408 32.4164 459.04 33.4053C457.662 33.7923 456.208 34 454.706 34C453.204 34 451.751 33.793 450.373 33.4062C452.005 32.4174 453.467 31.1763 454.706 29.7373ZM441.06 29.7373C442.298 31.1763 443.76 32.4174 445.393 33.4062C444.014 33.7932 442.561 34 441.059 34C439.557 34 438.104 33.7921 436.726 33.4053C438.358 32.4164 439.821 31.1764 441.06 29.7373ZM427.412 29.7363C428.651 31.1756 430.114 32.4163 431.746 33.4053C430.368 33.7923 428.914 34 427.412 34C425.911 34 424.457 33.793 423.079 33.4062C424.711 32.4172 426.173 31.1755 427.412 29.7363ZM413.766 29.7373C415.004 31.1762 416.467 32.4165 418.099 33.4053C416.72 33.7923 415.267 34 413.765 34C412.263 34 410.81 33.7921 409.432 33.4053C411.064 32.4163 412.527 31.1764 413.766 29.7373ZM400.118 29.7363C401.357 31.1755 402.819 32.4173 404.451 33.4062C403.073 33.7931 401.619 34 400.117 34C398.616 34 397.163 33.7929 395.785 33.4062C397.417 32.4172 398.879 31.1755 400.118 29.7363ZM386.471 29.7373C387.709 31.1764 389.172 32.4164 390.805 33.4053C389.426 33.7923 387.973 34 386.471 34C384.969 34 383.516 33.7921 382.138 33.4053C383.77 32.4164 385.232 31.1762 386.471 29.7373ZM372.824 29.7363C374.063 31.1755 375.525 32.4173 377.157 33.4062C375.779 33.7932 374.325 34 372.823 34C371.321 34 369.868 33.7921 368.49 33.4053C370.123 32.4162 371.585 31.1756 372.824 29.7363ZM359.177 29.7363C360.416 31.1756 361.878 32.4163 363.511 33.4053C362.132 33.7923 360.679 34 359.177 34C357.675 34 356.222 33.793 354.844 33.4062C356.476 32.4172 357.938 31.1755 359.177 29.7363ZM345.53 29.7373C346.769 31.1762 348.231 32.4165 349.863 33.4053C348.485 33.7923 347.031 34 345.529 34C344.028 34 342.574 33.7921 341.196 33.4053C342.828 32.4163 344.292 31.1764 345.53 29.7373ZM331.883 29.7363C333.122 31.1755 334.583 32.4173 336.216 33.4062C334.838 33.7931 333.384 34 331.882 34C330.381 34 328.928 33.7929 327.55 33.4062C329.182 32.4172 330.644 31.1755 331.883 29.7363ZM318.235 29.7373C319.474 31.1764 320.937 32.4164 322.569 33.4053C321.191 33.7923 319.737 34 318.235 34C316.734 34 315.281 33.7921 313.902 33.4053C315.534 32.4164 316.997 31.1762 318.235 29.7373ZM304.589 29.7363C305.828 31.1755 307.289 32.4173 308.922 33.4062C307.544 33.7932 306.09 34 304.588 34C303.086 34 301.633 33.7921 300.255 33.4053C301.887 32.4162 303.35 31.1756 304.589 29.7363ZM290.941 29.7373C292.18 31.1764 293.643 32.4164 295.275 33.4053C293.897 33.7923 292.443 34 290.941 34C289.44 34 287.986 33.793 286.608 33.4062C288.241 32.4174 289.703 31.1763 290.941 29.7373ZM277.295 29.7373C278.534 31.1763 279.996 32.4174 281.628 33.4062C280.25 33.7932 278.796 34 277.294 34C275.792 34 274.339 33.7921 272.961 33.4053C274.593 32.4163 276.056 31.1764 277.295 29.7373ZM263.647 29.7363C264.886 31.1756 266.349 32.4163 267.981 33.4053C266.603 33.7924 265.149 34 263.646 34C262.145 34 260.692 33.7929 259.314 33.4062C260.947 32.4172 262.409 31.1755 263.647 29.7363ZM250 29.7373C251.239 31.1764 252.702 32.4164 254.334 33.4053C252.956 33.7923 251.502 34 250 34C248.498 34 247.045 33.7921 245.667 33.4053C247.299 32.4165 248.761 31.1762 250 29.7373ZM236.354 29.7363C237.592 31.1755 239.054 32.4173 240.687 33.4062C239.308 33.7931 237.854 34 236.353 34C234.851 34 233.398 33.7922 232.02 33.4053C233.652 32.4162 235.115 31.1756 236.354 29.7363ZM222.706 29.7373C223.945 31.1764 225.408 32.4164 227.04 33.4053C225.662 33.7923 224.208 34 222.706 34C221.204 34 219.751 33.793 218.373 33.4062C220.005 32.4174 221.467 31.1763 222.706 29.7373ZM209.06 29.7373C210.298 31.1763 211.76 32.4174 213.393 33.4062C212.014 33.7932 210.561 34 209.059 34C207.557 34 206.104 33.7921 204.726 33.4053C206.358 32.4163 207.821 31.1764 209.06 29.7373ZM195.412 29.7363C196.651 31.1756 198.114 32.4163 199.746 33.4053C198.368 33.7924 196.913 34 195.411 34C193.91 34 192.457 33.7929 191.079 33.4062C192.711 32.4172 194.173 31.1755 195.412 29.7363ZM181.765 29.7373C183.003 31.1764 184.466 32.4164 186.099 33.4053C184.72 33.7923 183.267 34 181.765 34C180.263 34 178.81 33.7921 177.432 33.4053C179.064 32.4165 180.526 31.1762 181.765 29.7373ZM168.118 29.7363C169.357 31.1755 170.819 32.4173 172.451 33.4062C171.073 33.7931 169.619 34 168.117 34C166.615 34 165.162 33.7922 163.784 33.4053C165.417 32.4162 166.879 31.1756 168.118 29.7363ZM154.471 29.7373C155.71 31.1764 157.172 32.4164 158.805 33.4053C157.426 33.7923 155.973 34 154.471 34C152.969 34 151.516 33.793 150.138 33.4062C151.77 32.4174 153.232 31.1763 154.471 29.7373ZM140.824 29.7373C142.063 31.1763 143.525 32.4174 145.157 33.4062C143.779 33.7932 142.325 34 140.823 34C139.321 34 137.868 33.7921 136.49 33.4053C138.122 32.4163 139.586 31.1764 140.824 29.7373ZM127.177 29.7363C128.416 31.1756 129.878 32.4163 131.511 33.4053C130.132 33.7924 128.678 34 127.176 34C125.674 34 124.222 33.7929 122.844 33.4062C124.476 32.4172 125.938 31.1755 127.177 29.7363ZM113.529 29.7373C114.768 31.1764 116.231 32.4164 117.863 33.4053C116.485 33.7923 115.031 34 113.529 34C112.028 34 110.574 33.7921 109.196 33.4053C110.828 32.4165 112.291 31.1762 113.529 29.7373ZM99.8828 29.7363C101.122 31.1755 102.583 32.4173 104.216 33.4062C102.838 33.7931 101.384 34 99.8818 34C98.3801 34 96.927 33.7922 95.5488 33.4053C97.1812 32.4162 98.644 31.1756 99.8828 29.7363ZM86.2354 29.7373C87.4742 31.1764 88.9371 32.4164 90.5693 33.4053C89.1909 33.7923 87.7374 34 86.2354 34C84.7338 34 83.2804 33.793 81.9023 33.4062C83.5345 32.4174 84.9967 31.1763 86.2354 29.7373ZM72.5889 29.7373C73.8276 31.1763 75.2896 32.4174 76.9219 33.4062C75.5436 33.7932 74.0898 34 72.5879 34C71.0861 34 69.633 33.7921 68.2549 33.4053C69.8871 32.4164 71.3502 31.1764 72.5889 29.7373ZM58.9414 29.7363C60.1803 31.1756 61.6429 32.4163 63.2754 33.4053C61.897 33.7923 60.4435 34 58.9414 34C57.4398 34 55.9864 33.793 54.6084 33.4062C56.2407 32.4172 57.7026 31.1755 58.9414 29.7363ZM45.2949 29.7373C46.5336 31.1762 47.9959 32.4165 49.6279 33.4053C48.2495 33.7923 46.7961 34 45.2939 34C43.7922 34 42.3391 33.7921 40.9609 33.4053C42.5931 32.4163 44.0562 31.1764 45.2949 29.7373ZM31.6475 29.7363C32.8863 31.1755 34.3481 32.4173 35.9805 33.4062C34.6022 33.7931 33.1483 34 31.6465 34C30.1451 34 28.6923 33.7929 27.3145 33.4062C28.9467 32.4172 30.4087 31.1755 31.6475 29.7363ZM475.177 3.52441C480.6 6.08545 484.352 11.6044 484.353 18C484.353 24.3956 480.6 29.9145 475.177 32.4756C473.005 31.4502 471.102 29.9507 469.6 28.1104C471.56 25.2284 472.706 21.748 472.706 18C472.706 14.2519 471.56 10.7716 469.6 7.88965C471.102 6.04943 473.005 4.54978 475.177 3.52441ZM406.941 3.52441C409.113 4.54982 411.016 6.04943 412.519 7.88965C410.558 10.7716 409.412 14.2518 409.412 18C409.412 21.7481 410.558 25.2284 412.519 28.1104C411.016 29.9507 409.113 31.4501 406.941 32.4756C404.77 31.4502 402.866 29.9507 401.364 28.1104C403.324 25.2284 404.471 21.7481 404.471 18C404.471 14.2518 403.324 10.7716 401.364 7.88965C402.866 6.04943 404.77 4.54978 406.941 3.52441ZM393.295 3.52441C395.466 4.54986 397.37 6.04944 398.872 7.88965C396.912 10.7717 395.765 14.2516 395.765 18C395.765 21.7483 396.912 25.2283 398.872 28.1104C397.37 29.9507 395.466 31.4501 393.295 32.4756C391.123 31.4502 389.22 29.9507 387.718 28.1104C389.678 25.2285 390.823 21.7479 390.823 18C390.823 14.252 389.678 10.7715 387.718 7.88965C389.22 6.04943 391.123 4.54974 393.295 3.52441ZM338.706 3.52441C340.878 4.54982 342.781 6.04943 344.283 7.88965C342.323 10.7716 341.177 14.2518 341.177 18C341.177 21.7481 342.323 25.2284 344.283 28.1104C342.781 29.9507 340.878 31.4501 338.706 32.4756C336.534 31.4502 334.631 29.9507 333.129 28.1104C335.089 25.2284 336.235 21.7481 336.235 18C336.235 14.2518 335.089 10.7716 333.129 7.88965C334.631 6.04943 336.535 4.54978 338.706 3.52441ZM325.06 3.52441C327.231 4.54986 329.135 6.04944 330.637 7.88965C328.676 10.7717 327.529 14.2516 327.529 18C327.529 21.7483 328.676 25.2283 330.637 28.1104C329.135 29.9507 327.231 31.4501 325.06 32.4756C322.888 31.4502 320.985 29.9507 319.482 28.1104C321.442 25.2285 322.588 21.7479 322.588 18C322.588 14.252 321.443 10.7715 319.482 7.88965C320.985 6.04943 322.888 4.54974 325.06 3.52441ZM256.824 3.52441C258.996 4.54986 260.899 6.04944 262.401 7.88965C260.441 10.7716 259.294 14.2517 259.294 18C259.294 21.7482 260.441 25.2284 262.401 28.1104C260.899 29.9507 258.996 31.4501 256.824 32.4756C254.653 31.4502 252.749 29.9507 251.247 28.1104C253.207 25.2285 254.353 21.748 254.353 18C254.352 14.2519 253.207 10.7715 251.247 7.88965C252.749 6.04943 254.653 4.54974 256.824 3.52441ZM243.177 3.52441C245.348 4.54982 247.252 6.04943 248.754 7.88965C246.794 10.7716 245.647 14.2517 245.646 18C245.646 21.7482 246.794 25.2284 248.754 28.1104C247.252 29.9507 245.348 31.4501 243.177 32.4756C241.005 31.4502 239.102 29.9507 237.6 28.1104C239.56 25.2284 240.706 21.748 240.706 18C240.706 14.2519 239.56 10.7716 237.6 7.88965C239.102 6.04943 241.005 4.54978 243.177 3.52441ZM188.589 3.52441C190.76 4.54986 192.664 6.04944 194.166 7.88965C192.206 10.7716 191.059 14.2517 191.059 18C191.059 21.7482 192.206 25.2284 194.166 28.1104C192.664 29.9507 190.76 31.4501 188.589 32.4756C186.417 31.4502 184.514 29.9507 183.012 28.1104C184.972 25.2285 186.117 21.748 186.117 18C186.117 14.2519 184.972 10.7715 183.012 7.88965C184.514 6.04943 186.417 4.54974 188.589 3.52441ZM174.941 3.52441C177.113 4.54982 179.016 6.04943 180.519 7.88965C178.558 10.7716 177.411 14.2517 177.411 18C177.411 21.7482 178.558 25.2284 180.519 28.1104C179.016 29.9507 177.113 31.4501 174.941 32.4756C172.77 31.4502 170.866 29.9507 169.364 28.1104C171.324 25.2284 172.471 21.748 172.471 18C172.471 14.2519 171.324 10.7716 169.364 7.88965C170.866 6.04943 172.77 4.54978 174.941 3.52441ZM120.354 3.52441C122.525 4.54986 124.429 6.04944 125.931 7.88965C123.97 10.7716 122.823 14.2517 122.823 18C122.823 21.7482 123.97 25.2284 125.931 28.1104C124.429 29.9507 122.525 31.4501 120.354 32.4756C118.182 31.4502 116.279 29.9507 114.776 28.1104C116.736 25.2285 117.882 21.748 117.882 18C117.882 14.2519 116.737 10.7715 114.776 7.88965C116.279 6.04943 118.182 4.54974 120.354 3.52441ZM106.706 3.52441C108.878 4.54982 110.781 6.04943 112.283 7.88965C110.323 10.7716 109.176 14.2517 109.176 18C109.176 21.7482 110.323 25.2284 112.283 28.1104C110.781 29.9507 108.878 31.4501 106.706 32.4756C104.534 31.4502 102.631 29.9507 101.129 28.1104C103.089 25.2284 104.235 21.748 104.235 18C104.235 14.2519 103.089 10.7716 101.129 7.88965C102.631 6.04943 104.534 4.54978 106.706 3.52441ZM38.4707 3.52441C40.6422 4.54982 42.5457 6.04943 44.0479 7.88965C42.0876 10.7716 40.9415 14.2518 40.9414 18C40.9414 21.7481 42.0877 25.2284 44.0479 28.1104C42.5457 29.9507 40.6422 31.4501 38.4707 32.4756C36.2991 31.4502 34.3958 29.9507 32.8936 28.1104C34.8537 25.2284 36 21.7481 36 18C35.9999 14.2518 34.8538 10.7716 32.8936 7.88965C34.3958 6.04943 36.2991 4.54978 38.4707 3.52441ZM24.8242 3.52441C26.9956 4.54986 28.8993 6.04944 30.4014 7.88965C28.4409 10.7717 27.294 14.2516 27.2939 18C27.2939 21.7483 28.4411 25.2283 30.4014 28.1104C28.8993 29.9507 26.9957 31.4501 24.8242 32.4756C19.4004 29.9146 15.6465 24.396 15.6465 18C15.6466 11.6041 19.4003 6.08528 24.8242 3.52441ZM461.529 3.52539C463.701 4.55077 465.604 6.04954 467.106 7.88965C465.146 10.7716 464 14.2518 464 18C464 21.7481 465.146 25.2284 467.106 28.1104C465.604 29.9506 463.701 31.4492 461.529 32.4746C459.358 31.4492 457.455 29.9503 455.953 28.1104C457.913 25.2285 459.059 21.7479 459.059 18C459.059 14.252 457.913 10.7715 455.953 7.88965C457.455 6.04976 459.358 4.5507 461.529 3.52539ZM447.883 3.52539C450.054 4.55081 451.958 6.04954 453.46 7.88965C451.5 10.7716 450.353 14.2517 450.353 18C450.353 21.7482 451.5 25.2284 453.46 28.1104C451.958 29.9506 450.054 31.4491 447.883 32.4746C445.711 31.4492 443.808 29.9506 442.306 28.1104C444.266 25.2284 445.412 21.748 445.412 18C445.412 14.2519 444.266 10.7716 442.306 7.88965C443.808 6.04954 445.711 4.55073 447.883 3.52539ZM434.235 3.52539C436.407 4.55077 438.31 6.04954 439.812 7.88965C437.852 10.7716 436.706 14.2518 436.706 18C436.706 21.7481 437.852 25.2284 439.812 28.1104C438.31 29.9506 436.407 31.4492 434.235 32.4746C432.064 31.4493 430.161 29.9503 428.659 28.1104C430.619 25.2285 431.765 21.7479 431.765 18C431.765 14.252 430.619 10.7715 428.659 7.88965C430.161 6.04976 432.064 4.55068 434.235 3.52539ZM420.589 3.52539C422.76 4.55083 424.664 6.04954 426.166 7.88965C424.206 10.7716 423.059 14.2517 423.059 18C423.059 21.7482 424.206 25.2284 426.166 28.1104C424.664 29.9506 422.76 31.4491 420.589 32.4746C418.417 31.4492 416.514 29.9506 415.012 28.1104C416.972 25.2285 418.117 21.748 418.117 18C418.117 14.2519 416.972 10.7715 415.012 7.88965C416.514 6.04954 418.417 4.55073 420.589 3.52539ZM379.647 3.52539C381.819 4.55081 383.723 6.04954 385.225 7.88965C383.264 10.7716 382.117 14.2517 382.117 18C382.117 21.7482 383.264 25.2284 385.225 28.1104C383.723 29.9506 381.819 31.4491 379.647 32.4746C377.476 31.4492 375.572 29.9506 374.07 28.1104C376.03 25.2284 377.177 21.748 377.177 18C377.177 14.2519 376.031 10.7716 374.07 7.88965C375.572 6.04954 377.476 4.55075 379.647 3.52539ZM366 3.52539C368.171 4.55077 370.075 6.04954 371.577 7.88965C369.617 10.7716 368.471 14.2518 368.471 18C368.471 21.7481 369.617 25.2284 371.577 28.1104C370.075 29.9506 368.171 31.4492 366 32.4746C363.829 31.4493 361.926 29.9503 360.424 28.1104C362.384 25.2285 363.529 21.7479 363.529 18C363.529 14.252 362.384 10.7715 360.424 7.88965C361.926 6.04976 363.829 4.55068 366 3.52539ZM352.354 3.52539C354.525 4.55083 356.429 6.04954 357.931 7.88965C355.97 10.7716 354.823 14.2517 354.823 18C354.823 21.7482 355.97 25.2284 357.931 28.1104C356.429 29.9506 354.525 31.4491 352.354 32.4746C350.182 31.4492 348.279 29.9506 346.776 28.1104C348.736 25.2285 349.882 21.748 349.882 18C349.882 14.2519 348.737 10.7715 346.776 7.88965C348.279 6.04954 350.182 4.55073 352.354 3.52539ZM311.412 3.52539C313.583 4.55081 315.487 6.04954 316.989 7.88965C315.029 10.7716 313.882 14.2517 313.882 18C313.882 21.7482 315.029 25.2284 316.989 28.1104C315.487 29.9506 313.583 31.4491 311.412 32.4746C309.241 31.4492 307.337 29.9506 305.835 28.1104C307.795 25.2284 308.941 21.748 308.941 18C308.941 14.2519 307.795 10.7716 305.835 7.88965C307.337 6.04954 309.241 4.55075 311.412 3.52539ZM297.765 3.52539C299.936 4.55077 301.84 6.04954 303.342 7.88965C301.382 10.7716 300.235 14.2518 300.235 18C300.235 21.7481 301.382 25.2284 303.342 28.1104C301.84 29.9506 299.936 31.4492 297.765 32.4746C295.593 31.4493 293.691 29.9503 292.188 28.1104C294.148 25.2285 295.294 21.7479 295.294 18C295.294 14.252 294.149 10.7715 292.188 7.88965C293.691 6.04976 295.593 4.55068 297.765 3.52539ZM284.118 3.52539C286.289 4.55081 288.193 6.04954 289.695 7.88965C287.735 10.7716 286.588 14.2517 286.588 18C286.588 21.7482 287.735 25.2284 289.695 28.1104C288.193 29.9506 286.29 31.4491 284.118 32.4746C281.947 31.4492 280.043 29.9506 278.541 28.1104C280.501 25.2285 281.646 21.748 281.646 18C281.646 14.2519 280.501 10.7715 278.541 7.88965C280.043 6.04954 281.947 4.55073 284.118 3.52539ZM270.471 3.52539C272.642 4.55079 274.546 6.04954 276.048 7.88965C274.088 10.7716 272.941 14.2518 272.941 18C272.941 21.7481 274.088 25.2284 276.048 28.1104C274.546 29.9506 272.642 31.4491 270.471 32.4746C268.299 31.4493 266.397 29.9503 264.895 28.1104C266.854 25.2285 268 21.7479 268 18C268 14.252 266.855 10.7715 264.895 7.88965C266.397 6.04976 268.3 4.55068 270.471 3.52539ZM229.529 3.52539C231.701 4.55077 233.604 6.04954 235.106 7.88965C233.146 10.7716 232 14.2518 232 18C232 21.7481 233.146 25.2284 235.106 28.1104C233.604 29.9506 231.701 31.4492 229.529 32.4746C227.358 31.4492 225.455 29.9503 223.953 28.1104C225.913 25.2285 227.059 21.7479 227.059 18C227.059 14.252 225.913 10.7715 223.953 7.88965C225.455 6.04976 227.358 4.5507 229.529 3.52539ZM215.883 3.52539C218.054 4.55081 219.958 6.04954 221.46 7.88965C219.5 10.7716 218.353 14.2517 218.353 18C218.353 21.7482 219.5 25.2284 221.46 28.1104C219.958 29.9506 218.054 31.4491 215.883 32.4746C213.711 31.4492 211.808 29.9506 210.306 28.1104C212.266 25.2285 213.411 21.748 213.411 18C213.411 14.2519 212.266 10.7715 210.306 7.88965C211.808 6.04954 213.711 4.55073 215.883 3.52539ZM202.235 3.52539C204.407 4.55079 206.31 6.04954 207.812 7.88965C205.852 10.7716 204.706 14.2518 204.706 18C204.706 21.7481 205.852 25.2284 207.812 28.1104C206.31 29.9506 204.407 31.4491 202.235 32.4746C200.064 31.4493 198.161 29.9503 196.659 28.1104C198.619 25.2285 199.765 21.7479 199.765 18C199.765 14.252 198.619 10.7715 196.659 7.88965C198.161 6.04976 200.064 4.55068 202.235 3.52539ZM161.294 3.52539C163.465 4.55077 165.369 6.04954 166.871 7.88965C164.911 10.7716 163.765 14.2518 163.765 18C163.765 21.7481 164.911 25.2284 166.871 28.1104C165.369 29.9506 163.465 31.4492 161.294 32.4746C159.123 31.4492 157.22 29.9503 155.718 28.1104C157.678 25.2285 158.823 21.7479 158.823 18C158.823 14.252 157.678 10.7715 155.718 7.88965C157.22 6.04976 159.123 4.5507 161.294 3.52539ZM147.647 3.52539C149.819 4.55081 151.723 6.04954 153.225 7.88965C151.264 10.7716 150.117 14.2517 150.117 18C150.117 21.7482 151.264 25.2284 153.225 28.1104C151.723 29.9506 149.819 31.4491 147.647 32.4746C145.476 31.4492 143.572 29.9506 142.07 28.1104C144.03 25.2285 145.176 21.748 145.176 18C145.176 14.2519 144.03 10.7715 142.07 7.88965C143.572 6.04954 145.476 4.55073 147.647 3.52539ZM134 3.52539C136.171 4.55079 138.075 6.04954 139.577 7.88965C137.617 10.7716 136.471 14.2518 136.471 18C136.471 21.7481 137.617 25.2284 139.577 28.1104C138.075 29.9506 136.171 31.4491 134 32.4746C131.829 31.4493 129.926 29.9503 128.424 28.1104C130.384 25.2285 131.529 21.7479 131.529 18C131.529 14.252 130.384 10.7715 128.424 7.88965C129.926 6.04976 131.829 4.55068 134 3.52539ZM93.0586 3.52539C95.2299 4.55077 97.1336 6.04954 98.6357 7.88965C96.6755 10.7716 95.5294 14.2518 95.5293 18C95.5293 21.7481 96.6756 25.2284 98.6357 28.1104C97.1336 29.9506 95.23 31.4492 93.0586 32.4746C90.8874 31.4492 88.9844 29.9503 87.4824 28.1104C89.4424 25.2285 90.5879 21.7479 90.5879 18C90.5878 14.252 89.4425 10.7715 87.4824 7.88965C88.9844 6.04976 90.8875 4.5507 93.0586 3.52539ZM79.4121 3.52539C81.5834 4.55081 83.4872 6.04954 84.9893 7.88965C83.0289 10.7716 81.8819 14.2517 81.8818 18C81.8818 21.7482 83.0291 25.2284 84.9893 28.1104C83.4872 29.9506 81.5834 31.4491 79.4121 32.4746C77.2406 31.4492 75.3371 29.9506 73.835 28.1104C75.795 25.2284 76.9414 21.748 76.9414 18C76.9413 14.2519 75.7952 10.7716 73.835 7.88965C75.3371 6.04954 77.2407 4.55073 79.4121 3.52539ZM65.7646 3.52539C67.936 4.55077 69.8397 6.04954 71.3418 7.88965C69.3815 10.7716 68.2354 14.2518 68.2354 18C68.2354 21.7481 69.3816 25.2284 71.3418 28.1104C69.8397 29.9506 67.9361 31.4492 65.7646 32.4746C63.5934 31.4493 61.6905 29.9503 60.1885 28.1104C62.1484 25.2285 63.2939 21.7479 63.2939 18C63.2939 14.252 62.1485 10.7715 60.1885 7.88965C61.6905 6.04976 63.5935 4.55068 65.7646 3.52539ZM52.1182 3.52539C54.2894 4.55083 56.1933 6.04954 57.6953 7.88965C55.7349 10.7716 54.588 14.2517 54.5879 18C54.5879 21.7482 55.735 25.2284 57.6953 28.1104C56.1933 29.9506 54.2895 31.4491 52.1182 32.4746C49.9467 31.4492 48.0432 29.9506 46.541 28.1104C48.501 25.2285 49.6465 21.748 49.6465 18C49.6464 14.2519 48.5012 10.7715 46.541 7.88965C48.0432 6.04954 49.9467 4.55073 52.1182 3.52539ZM31.6475 9.64453C33.1396 12.0764 33.9999 14.9377 34 18C34 21.0622 33.1395 23.9236 31.6475 26.3555C30.1553 23.9235 29.2939 21.0624 29.2939 18C29.294 14.9376 30.1552 12.0765 31.6475 9.64453ZM468.354 9.64453C469.846 12.0764 470.706 14.9378 470.706 18C470.706 21.0621 469.845 23.9236 468.354 26.3555C466.861 23.9235 466 21.0624 466 18C466 14.9376 466.861 12.0765 468.354 9.64453ZM441.06 9.64453C442.552 12.0764 443.412 14.9378 443.412 18C443.412 21.0621 442.552 23.9236 441.06 26.3555C439.567 23.9235 438.706 21.0624 438.706 18C438.706 14.9375 439.567 12.0765 441.06 9.64453ZM427.412 9.64453C428.904 12.0764 429.765 14.9377 429.765 18C429.765 21.0622 428.904 23.9236 427.412 26.3555C425.92 23.9235 425.059 21.0623 425.059 18C425.059 14.9376 425.92 12.0765 427.412 9.64453ZM400.118 9.64453C401.61 12.0764 402.471 14.9377 402.471 18C402.471 21.0622 401.61 23.9236 400.118 26.3555C398.626 23.9235 397.765 21.0624 397.765 18C397.765 14.9376 398.626 12.0765 400.118 9.64453ZM372.824 9.64453C374.316 12.0764 375.177 14.9378 375.177 18C375.177 21.0621 374.316 23.9236 372.824 26.3555C371.332 23.9235 370.471 21.0624 370.471 18C370.471 14.9376 371.332 12.0765 372.824 9.64453ZM359.177 9.64453C360.669 12.0764 361.529 14.9377 361.529 18C361.529 21.0622 360.669 23.9236 359.177 26.3555C357.685 23.9235 356.823 21.0623 356.823 18C356.823 14.9376 357.685 12.0765 359.177 9.64453ZM331.883 9.64453C333.375 12.0764 334.235 14.9377 334.235 18C334.235 21.0622 333.375 23.9236 331.883 26.3555C330.391 23.9235 329.529 21.0624 329.529 18C329.529 14.9376 330.391 12.0765 331.883 9.64453ZM304.589 9.64453C306.081 12.0764 306.941 14.9378 306.941 18C306.941 21.0621 306.081 23.9236 304.589 26.3555C303.097 23.9235 302.235 21.0624 302.235 18C302.235 14.9376 303.097 12.0765 304.589 9.64453ZM290.941 9.64453C292.434 12.0764 293.294 14.9377 293.294 18C293.294 21.0622 292.433 23.9236 290.941 26.3555C289.449 23.9235 288.588 21.0623 288.588 18C288.588 14.9376 289.449 12.0765 290.941 9.64453ZM263.647 9.64453C265.14 12.0764 266 14.9377 266 18C266 21.0622 265.139 23.9236 263.647 26.3555C262.155 23.9235 261.294 21.0623 261.294 18C261.294 14.9376 262.155 12.0765 263.647 9.64453ZM250 9.64453C251.492 12.0765 252.352 14.9376 252.353 18C252.353 21.0623 251.492 23.9235 250 26.3555C248.508 23.9235 247.646 21.0623 247.646 18C247.647 14.9376 248.508 12.0765 250 9.64453ZM236.354 9.64453C237.846 12.0764 238.706 14.9378 238.706 18C238.706 21.0621 237.845 23.9236 236.354 26.3555C234.861 23.9235 234 21.0624 234 18C234 14.9376 234.861 12.0765 236.354 9.64453ZM195.412 9.64453C196.904 12.0764 197.765 14.9377 197.765 18C197.765 21.0622 196.904 23.9236 195.412 26.3555C193.92 23.9235 193.059 21.0623 193.059 18C193.059 14.9376 193.92 12.0765 195.412 9.64453ZM181.765 9.64453C183.257 12.0765 184.117 14.9376 184.117 18C184.117 21.0623 183.257 23.9235 181.765 26.3555C180.273 23.9235 179.411 21.0623 179.411 18C179.411 14.9376 180.272 12.0765 181.765 9.64453ZM168.118 9.64453C169.61 12.0764 170.471 14.9378 170.471 18C170.471 21.0621 169.61 23.9236 168.118 26.3555C166.626 23.9235 165.765 21.0624 165.765 18C165.765 14.9376 166.626 12.0765 168.118 9.64453ZM127.177 9.64453C128.669 12.0764 129.529 14.9377 129.529 18C129.529 21.0622 128.669 23.9236 127.177 26.3555C125.685 23.9235 124.823 21.0623 124.823 18C124.823 14.9376 125.685 12.0765 127.177 9.64453ZM113.529 9.64453C115.022 12.0765 115.882 14.9376 115.882 18C115.882 21.0623 115.021 23.9235 113.529 26.3555C112.037 23.9235 111.176 21.0623 111.176 18C111.176 14.9376 112.037 12.0765 113.529 9.64453ZM99.8828 9.64453C101.375 12.0764 102.235 14.9378 102.235 18C102.235 21.0621 101.375 23.9236 99.8828 26.3555C98.3907 23.9235 97.5293 21.0624 97.5293 18C97.5294 14.9376 98.3905 12.0765 99.8828 9.64453ZM72.5889 9.64453C74.081 12.0764 74.9413 14.9378 74.9414 18C74.9414 21.0621 74.0808 23.9236 72.5889 26.3555C71.0966 23.9235 70.2354 21.0624 70.2354 18C70.2354 14.9375 71.0965 12.0765 72.5889 9.64453ZM58.9414 9.64453C60.4335 12.0764 61.2939 14.9377 61.2939 18C61.2939 21.0622 60.4334 23.9236 58.9414 26.3555C57.4493 23.9235 56.5879 21.0623 56.5879 18C56.588 14.9376 57.4492 12.0765 58.9414 9.64453ZM454.706 9.64551C456.198 12.0773 457.059 14.938 457.059 18C457.059 21.0619 456.198 23.9227 454.706 26.3545C453.214 23.9227 452.353 21.062 452.353 18C452.353 14.9379 453.214 12.0773 454.706 9.64551ZM413.766 9.64551C415.257 12.0772 416.117 14.9381 416.117 18C416.117 21.0618 415.257 23.9228 413.766 26.3545C412.274 23.9227 411.412 21.0621 411.412 18C411.412 14.9378 412.274 12.0774 413.766 9.64551ZM386.471 9.64551C387.963 12.0773 388.823 14.938 388.823 18C388.823 21.0619 387.962 23.9227 386.471 26.3545C384.979 23.9227 384.117 21.062 384.117 18C384.117 14.9379 384.979 12.0773 386.471 9.64551ZM345.53 9.64551C347.022 12.0772 347.882 14.9381 347.882 18C347.882 21.0618 347.022 23.9228 345.53 26.3545C344.038 23.9227 343.177 21.0621 343.177 18C343.177 14.9378 344.038 12.0774 345.53 9.64551ZM318.235 9.64551C319.727 12.0773 320.588 14.938 320.588 18C320.588 21.0619 319.727 23.9227 318.235 26.3545C316.744 23.9227 315.882 21.062 315.882 18C315.882 14.9379 316.743 12.0773 318.235 9.64551ZM277.295 9.64551C278.787 12.0772 279.646 14.9381 279.646 18C279.646 21.0618 278.787 23.9228 277.295 26.3545C275.803 23.9227 274.941 21.0621 274.941 18C274.941 14.9378 275.803 12.0774 277.295 9.64551ZM222.706 9.64551C224.198 12.0773 225.059 14.938 225.059 18C225.059 21.0619 224.198 23.9227 222.706 26.3545C221.214 23.9227 220.353 21.062 220.353 18C220.353 14.9379 221.214 12.0773 222.706 9.64551ZM209.06 9.64551C210.551 12.0772 211.411 14.9381 211.411 18C211.411 21.0618 210.551 23.9228 209.06 26.3545C207.568 23.9227 206.706 21.0621 206.706 18C206.706 14.9378 207.568 12.0774 209.06 9.64551ZM154.471 9.64551C155.963 12.0773 156.823 14.938 156.823 18C156.823 21.0619 155.962 23.9227 154.471 26.3545C152.979 23.9227 152.117 21.062 152.117 18C152.117 14.9379 152.979 12.0773 154.471 9.64551ZM140.824 9.64551C142.316 12.0772 143.176 14.9381 143.176 18C143.176 21.0618 142.316 23.9228 140.824 26.3545C139.332 23.9227 138.471 21.0621 138.471 18C138.471 14.9378 139.332 12.0774 140.824 9.64551ZM86.2354 9.64551C87.7272 12.0773 88.5878 14.938 88.5879 18C88.5879 21.0619 87.7271 23.9227 86.2354 26.3545C84.7435 23.9227 83.8818 21.062 83.8818 18C83.8819 14.9379 84.7434 12.0773 86.2354 9.64551ZM45.2949 9.64551C46.7867 12.0772 47.6464 14.9381 47.6465 18C47.6465 21.0618 46.7866 23.9228 45.2949 26.3545C43.803 23.9227 42.9414 21.0621 42.9414 18C42.9415 14.9378 43.8029 12.0774 45.2949 9.64551ZM31.6465 2C33.1483 2 34.6023 2.20689 35.9805 2.59375C34.3481 3.58266 32.8863 4.82452 31.6475 6.26367C30.4087 4.82453 28.9467 3.5827 27.3145 2.59375C28.6922 2.2071 30.1452 2.00004 31.6465 2ZM468.353 2C469.854 2 471.308 2.20689 472.687 2.59375C471.054 3.58266 469.592 4.82452 468.354 6.26367C467.115 4.82444 465.652 3.58372 464.02 2.59473C465.398 2.20787 466.851 2.00004 468.353 2ZM427.412 2C428.914 2.00002 430.368 2.20772 431.746 2.59473C430.114 3.58368 428.651 4.82444 427.412 6.26367C426.173 4.82453 424.711 3.5827 423.079 2.59375C424.457 2.20702 425.911 2 427.412 2ZM400.117 2C401.619 2 403.073 2.20689 404.451 2.59375C402.819 3.58266 401.357 4.82452 400.118 6.26367C398.879 4.82453 397.417 3.5827 395.785 2.59375C397.163 2.2071 398.616 2.00004 400.117 2ZM372.823 2C374.325 2 375.779 2.20685 377.157 2.59375C375.525 3.58266 374.063 4.82452 372.824 6.26367C371.585 4.82444 370.123 3.58372 368.49 2.59473C369.868 2.20789 371.322 2.00002 372.823 2ZM359.177 2C360.679 2.00002 362.132 2.20772 363.511 2.59473C361.878 3.58368 360.416 4.82444 359.177 6.26367C357.938 4.82453 356.476 3.5827 354.844 2.59375C356.222 2.20702 357.675 2 359.177 2ZM331.882 2C333.384 2 334.838 2.20689 336.216 2.59375C334.583 3.58266 333.122 4.82452 331.883 6.26367C330.644 4.82453 329.182 3.5827 327.55 2.59375C328.928 2.2071 330.381 2.00004 331.882 2ZM304.588 2C306.09 2 307.544 2.20685 308.922 2.59375C307.289 3.58266 305.828 4.82452 304.589 6.26367C303.35 4.82444 301.887 3.58372 300.255 2.59473C301.633 2.20789 303.086 2.00002 304.588 2ZM263.646 2C265.149 2 266.603 2.20766 267.981 2.59473C266.349 3.58368 264.886 4.82444 263.647 6.26367C262.409 4.82453 260.947 3.5827 259.314 2.59375C260.692 2.2071 262.145 2.00004 263.646 2ZM236.353 2C237.854 2 239.308 2.20689 240.687 2.59375C239.054 3.58266 237.592 4.82452 236.354 6.26367C235.115 4.82444 233.652 3.58372 232.02 2.59473C233.398 2.20787 234.851 2.00004 236.353 2ZM195.411 2C196.913 2 198.368 2.20766 199.746 2.59473C198.114 3.58368 196.651 4.82444 195.412 6.26367C194.173 4.82453 192.711 3.5827 191.079 2.59375C192.457 2.2071 193.91 2.00004 195.411 2ZM168.117 2C169.619 2 171.073 2.20689 172.451 2.59375C170.819 3.58266 169.357 4.82452 168.118 6.26367C166.879 4.82444 165.417 3.58372 163.784 2.59473C165.162 2.20787 166.615 2.00004 168.117 2ZM127.176 2C128.678 2 130.132 2.20766 131.511 2.59473C129.878 3.58368 128.416 4.82444 127.177 6.26367C125.938 4.82453 124.476 3.5827 122.844 2.59375C124.221 2.2071 125.674 2.00004 127.176 2ZM99.8818 2C101.384 2 102.838 2.20689 104.216 2.59375C102.583 3.58266 101.122 4.82452 99.8828 6.26367C98.644 4.82444 97.1812 3.58372 95.5488 2.59473C96.9269 2.20787 98.3801 2.00004 99.8818 2ZM58.9414 2C60.4435 2.00002 61.897 2.20772 63.2754 2.59473C61.6429 3.58368 60.1803 4.82444 58.9414 6.26367C57.7026 4.82453 56.2407 3.5827 54.6084 2.59375C55.9864 2.20702 57.4399 2 58.9414 2ZM454.706 2C456.208 2.00002 457.662 2.20772 459.04 2.59473C457.408 3.58356 455.945 4.8237 454.706 6.2627C453.467 4.82379 452.005 3.58257 450.373 2.59375C451.751 2.20702 453.205 2 454.706 2ZM441.059 2C442.56 2 444.014 2.20685 445.393 2.59375C443.76 3.58253 442.298 4.82378 441.06 6.2627C439.821 4.82371 438.358 3.58359 436.726 2.59473C438.104 2.20789 439.557 2.00002 441.059 2ZM413.765 2C415.267 2 416.72 2.20774 418.099 2.59473C416.467 3.58346 415.004 4.82391 413.766 6.2627C412.527 4.82371 411.064 3.5836 409.432 2.59473C410.81 2.20791 412.263 2 413.765 2ZM386.471 2C387.973 2 389.426 2.20774 390.805 2.59473C389.172 3.58356 387.709 4.8237 386.471 6.2627C385.232 4.82391 383.77 3.5835 382.138 2.59473C383.516 2.20791 384.969 2 386.471 2ZM345.529 2C347.031 2 348.485 2.20774 349.863 2.59473C348.231 3.58346 346.769 4.82391 345.53 6.2627C344.292 4.82371 342.828 3.5836 341.196 2.59473C342.574 2.20791 344.028 2 345.529 2ZM318.235 2C319.737 2 321.191 2.20774 322.569 2.59473C320.937 3.58356 319.474 4.8237 318.235 6.2627C316.997 4.82391 315.534 3.5835 313.902 2.59473C315.28 2.20791 316.734 2 318.235 2ZM290.941 2C292.443 2.00002 293.897 2.20772 295.275 2.59473C293.643 3.58355 292.18 4.8237 290.941 6.2627C289.703 4.82379 288.24 3.58257 286.608 2.59375C287.986 2.20702 289.44 2 290.941 2ZM277.294 2C278.796 2 280.25 2.20685 281.628 2.59375C279.996 3.58253 278.534 4.82378 277.295 6.2627C276.056 4.82371 274.593 3.5836 272.961 2.59473C274.339 2.20789 275.792 2.00002 277.294 2ZM250 2C251.502 2 252.956 2.20774 254.334 2.59473C252.702 3.58356 251.239 4.8237 250 6.2627C248.761 4.82391 247.299 3.58349 245.667 2.59473C247.045 2.20791 248.498 2 250 2ZM222.706 2C224.208 2.00002 225.662 2.20772 227.04 2.59473C225.408 3.58356 223.945 4.8237 222.706 6.2627C221.467 4.82379 220.005 3.58257 218.373 2.59375C219.751 2.20702 221.205 2 222.706 2ZM209.059 2C210.56 2 212.014 2.20685 213.393 2.59375C211.76 3.58253 210.298 4.82378 209.06 6.2627C207.821 4.82371 206.358 3.5836 204.726 2.59473C206.104 2.20789 207.557 2.00002 209.059 2ZM181.765 2C183.267 2 184.72 2.20774 186.099 2.59473C184.466 3.58356 183.003 4.8237 181.765 6.2627C180.526 4.82391 179.064 3.58349 177.432 2.59473C178.81 2.20791 180.263 2 181.765 2ZM154.471 2C155.973 2.00002 157.426 2.20772 158.805 2.59473C157.172 3.58356 155.71 4.8237 154.471 6.2627C153.232 4.82379 151.77 3.58257 150.138 2.59375C151.516 2.20702 152.969 2 154.471 2ZM140.823 2C142.325 2 143.779 2.20685 145.157 2.59375C143.525 3.58253 142.063 4.82378 140.824 6.2627C139.586 4.82371 138.122 3.5836 136.49 2.59473C137.868 2.20789 139.322 2.00002 140.823 2ZM113.529 2C115.031 2 116.485 2.20774 117.863 2.59473C116.231 3.58356 114.768 4.8237 113.529 6.2627C112.291 4.82391 110.828 3.58349 109.196 2.59473C110.574 2.20791 112.028 2 113.529 2ZM86.2354 2C87.7374 2.00002 89.1909 2.20772 90.5693 2.59473C88.9371 3.58356 87.4742 4.8237 86.2354 6.2627C84.9966 4.82379 83.5344 3.58257 81.9023 2.59375C83.2803 2.20702 84.7338 2 86.2354 2ZM72.5879 2C74.0898 2 75.5436 2.20685 76.9219 2.59375C75.2897 3.58253 73.8277 4.82378 72.5889 6.2627C71.3502 4.82371 69.887 3.58359 68.2549 2.59473C69.633 2.20789 71.0862 2.00002 72.5879 2ZM45.2939 2C46.796 2 48.2495 2.20774 49.6279 2.59473C47.9959 3.58346 46.5336 4.82391 45.2949 6.2627C44.0562 4.82371 42.593 3.5836 40.9609 2.59473C42.3391 2.20791 43.7922 2 45.2939 2Z" fill="black"/>
</svg>
