<?xml version="1.0" encoding="UTF-8" standalone="no"?><!DOCTYPE svg PUBLIC "-//W3C//DTD SVG 1.1//EN" "http://www.w3.org/Graphics/SVG/1.1/DTD/svg11.dtd"><svg width="100%" height="100%" viewBox="0 0 500 36" version="1.1" xmlns="http://www.w3.org/2000/svg" xmlns:xlink="http://www.w3.org/1999/xlink" xml:space="preserve" xmlns:serif="http://www.serif.com/" style="fill-rule:evenodd;clip-rule:evenodd;stroke-linejoin:round;stroke-miterlimit:2;"><g transform="matrix(1.61885,1.77425e-16,-1.74338e-15,-1.67105,-51.3634,14.3061)"><rect x="31.728" y="7.963" width="308.862" height="0.598"/></g><g transform="matrix(-9.69795e-17,-0.116557,-1.67105,-2.7258e-15,14.3061,39.6982)"><rect x="31.728" y="7.963" width="308.862" height="0.598"/></g><g transform="matrix(-0.194262,-2.87416e-17,-6.8422e-15,3.3421,68.1636,-24.6121)"><rect x="31.728" y="7.963" width="308.862" height="0.598"/></g><g transform="matrix(-0.0647539,-4.10431e-17,-2.39573e-15,5.01314,184.055,-31.9182)"><rect x="31.728" y="7.963" width="308.862" height="0.598"/></g><g transform="matrix(-0.0647539,-4.10431e-17,-2.39573e-15,5.01314,184.055,-27.9182)"><rect x="31.728" y="7.963" width="308.862" height="0.598"/></g><g transform="matrix(-0.0647539,-4.10431e-17,-2.39573e-15,5.01314,184.055,-35.9182)"><rect x="31.728" y="7.963" width="308.862" height="0.598"/></g><g transform="matrix(-0.129508,-4.51474e-17,-3.62989e-15,4.17762,136.109,-30.7651)"><rect x="31.728" y="7.963" width="308.862" height="0.598"/></g><g transform="matrix(-0.129508,-4.51474e-17,-3.62989e-15,4.17762,136.109,-25.7651)"><rect x="31.728" y="7.963" width="308.862" height="0.598"/></g><g transform="matrix(-0.129508,-4.51474e-17,-3.62989e-15,4.17762,136.109,-20.7935)"><rect x="31.728" y="7.963" width="308.862" height="0.598"/></g><g transform="matrix(-0.129508,-4.51474e-17,-3.62989e-15,4.17762,136.109,-7.26513)"><rect x="31.728" y="7.963" width="308.862" height="0.598"/></g><g transform="matrix(-0.129508,-4.51474e-17,-3.62989e-15,4.17762,136.109,-12.2651)"><rect x="31.728" y="7.963" width="308.862" height="0.598"/></g><g transform="matrix(-0.129508,-4.51474e-17,-3.62989e-15,4.17762,136.109,-2.26513)"><rect x="31.728" y="7.963" width="308.862" height="0.598"/></g><g transform="matrix(-0.129508,-4.51474e-17,-3.62989e-15,4.17762,412.109,-30.7651)"><rect x="31.728" y="7.963" width="308.862" height="0.598"/></g><g transform="matrix(-0.129508,-4.51474e-17,-3.62989e-15,4.17762,412.109,-25.7651)"><rect x="31.728" y="7.963" width="308.862" height="0.598"/></g><g transform="matrix(-0.129508,-4.51474e-17,-3.62989e-15,4.17762,412.109,-20.7935)"><rect x="31.728" y="7.963" width="308.862" height="0.598"/></g><g transform="matrix(-0.129508,-4.51474e-17,-3.62989e-15,4.17762,412.109,-7.26513)"><rect x="31.728" y="7.963" width="308.862" height="0.598"/></g><g transform="matrix(-0.129508,-4.51474e-17,-3.62989e-15,4.17762,412.109,-12.2651)"><rect x="31.728" y="7.963" width="308.862" height="0.598"/></g><g transform="matrix(-0.129508,-4.51474e-17,-3.62989e-15,4.17762,412.109,-2.26513)"><rect x="31.728" y="7.963" width="308.862" height="0.598"/></g><g transform="matrix(-0.0647539,-1.09448e-16,-2.39573e-15,13.3684,234.055,-99.4484)"><rect x="31.728" y="7.963" width="308.862" height="0.598"/></g><g transform="matrix(-0.0647539,-1.09448e-16,-2.39573e-15,13.3684,234.055,-85.4484)"><rect x="31.728" y="7.963" width="308.862" height="0.598"/></g><g transform="matrix(-0.0647539,-1.09448e-16,-2.39573e-15,13.3684,290.055,-99.4484)"><rect x="31.728" y="7.963" width="308.862" height="0.598"/></g><g transform="matrix(-0.0647539,-1.09448e-16,-2.39573e-15,13.3684,290.055,-85.4484)"><rect x="31.728" y="7.963" width="308.862" height="0.598"/></g><g transform="matrix(-0.0647539,-4.10431e-17,-2.39573e-15,5.01314,184.055,-14.9182)"><rect x="31.728" y="7.963" width="308.862" height="0.598"/></g><g transform="matrix(-0.0647539,-4.10431e-17,-2.39573e-15,5.01314,184.055,-10.9182)"><rect x="31.728" y="7.963" width="308.862" height="0.598"/></g><g transform="matrix(-0.0647539,-4.10431e-17,-2.39573e-15,5.01314,184.055,-18.9182)"><rect x="31.728" y="7.963" width="308.862" height="0.598"/></g><g transform="matrix(-0.194262,-2.87416e-17,-6.8422e-15,3.3421,68.1636,-21.6121)"><rect x="31.728" y="7.963" width="308.862" height="0.598"/></g><g transform="matrix(-0.194262,-2.87416e-17,-6.8422e-15,3.3421,68.1636,-18.6121)"><rect x="31.728" y="7.963" width="308.862" height="0.598"/></g><g transform="matrix(-0.194262,-2.87416e-17,-6.8422e-15,3.3421,68.1636,-15.6121)"><rect x="31.728" y="7.963" width="308.862" height="0.598"/></g><g transform="matrix(-0.194262,-2.87416e-17,-6.8422e-15,3.3421,68.1636,-12.6121)"><rect x="31.728" y="7.963" width="308.862" height="0.598"/></g><g transform="matrix(1,0,0,1,3,0)"><g transform="matrix(-0.0550408,-1.3681e-17,-2.03637e-15,1.67105,268.746,4.19395)"><rect x="31.728" y="7.963" width="308.862" height="0.598"/></g><g transform="matrix(-0.0550408,-1.3681e-17,-2.03637e-15,1.67105,245.746,4.19395)"><rect x="31.728" y="7.963" width="308.862" height="0.598"/></g><g transform="matrix(-0.0550408,-1.3681e-17,-2.03637e-15,1.67105,222.746,4.19395)"><rect x="31.728" y="7.963" width="308.862" height="0.598"/></g><g transform="matrix(-0.0550408,-1.3681e-17,-2.03637e-15,1.67105,199.746,4.19395)"><rect x="31.728" y="7.963" width="308.862" height="0.598"/></g><g transform="matrix(-0.0550408,-1.3681e-17,-2.03637e-15,1.67105,176.746,4.19395)"><rect x="31.728" y="7.963" width="308.862" height="0.598"/></g><g transform="matrix(-0.0550408,-1.3681e-17,-2.03637e-15,1.67105,153.746,4.19395)"><rect x="31.728" y="7.963" width="308.862" height="0.598"/></g><g transform="matrix(-0.0550408,-1.3681e-17,-2.03637e-15,1.67105,130.746,4.19395)"><rect x="31.728" y="7.963" width="308.862" height="0.598"/></g><g transform="matrix(-0.0550408,-1.3681e-17,-2.03637e-15,1.67105,107.746,4.19395)"><rect x="31.728" y="7.963" width="308.862" height="0.598"/></g><g transform="matrix(-0.0550408,-1.3681e-17,-2.03637e-15,1.67105,84.7464,4.19395)"><rect x="31.728" y="7.963" width="308.862" height="0.598"/></g><g transform="matrix(-0.0550408,-1.3681e-17,-2.03637e-15,1.67105,291.746,4.19395)"><rect x="31.728" y="7.963" width="308.862" height="0.598"/></g><g transform="matrix(-0.0550408,-1.3681e-17,-2.03637e-15,1.67105,314.746,4.19395)"><rect x="31.728" y="7.963" width="308.862" height="0.598"/></g><g transform="matrix(-0.0550408,-1.3681e-17,-2.03637e-15,1.67105,337.746,4.19395)"><rect x="31.728" y="7.963" width="308.862" height="0.598"/></g><g transform="matrix(-0.0550408,-1.3681e-17,-2.03637e-15,1.67105,360.746,4.19395)"><rect x="31.728" y="7.963" width="308.862" height="0.598"/></g><g transform="matrix(-0.0550408,-1.3681e-17,-2.03637e-15,1.67105,383.746,4.19395)"><rect x="31.728" y="7.963" width="308.862" height="0.598"/></g><g transform="matrix(-0.0550408,-1.3681e-17,-2.03637e-15,1.67105,406.746,4.19395)"><rect x="31.728" y="7.963" width="308.862" height="0.598"/></g><g transform="matrix(-0.0550408,-1.3681e-17,-2.03637e-15,1.67105,429.746,4.19395)"><rect x="31.728" y="7.963" width="308.862" height="0.598"/></g></g><g transform="matrix(-0.194262,-2.87416e-17,-6.8422e-15,3.3421,68.1636,2.3879)"><rect x="31.728" y="7.963" width="308.862" height="0.598"/></g><g transform="matrix(-0.194262,-2.87416e-17,-6.8422e-15,3.3421,68.1636,-0.612105)"><rect x="31.728" y="7.963" width="308.862" height="0.598"/></g><g transform="matrix(-0.194262,-2.87416e-17,-6.8422e-15,3.3421,68.1636,-3.6121)"><rect x="31.728" y="7.963" width="308.862" height="0.598"/></g><g transform="matrix(-0.194262,-2.87416e-17,-6.8422e-15,3.3421,68.1636,-6.6121)"><rect x="31.728" y="7.963" width="308.862" height="0.598"/></g><g transform="matrix(-0.194262,-2.87416e-17,-6.8422e-15,3.3421,68.1636,5.3879)"><rect x="31.728" y="7.963" width="308.862" height="0.598"/></g><g transform="matrix(1.61885,1.77425e-16,-1.74338e-15,-1.67105,-51.3634,49.3061)"><rect x="31.728" y="7.963" width="308.862" height="0.598"/></g><g transform="matrix(-9.69795e-17,-0.116557,-1.67105,-2.7258e-15,513.306,39.6982)"><rect x="31.728" y="7.963" width="308.862" height="0.598"/></g><g transform="matrix(-0.194262,-2.87533e-17,-6.83942e-15,3.3421,504.164,-24.6121)"><rect x="31.728" y="7.963" width="308.862" height="0.598"/></g><g transform="matrix(-0.194262,-2.87533e-17,-6.83942e-15,3.3421,504.164,-21.6121)"><rect x="31.728" y="7.963" width="308.862" height="0.598"/></g><g transform="matrix(-0.194262,-2.87533e-17,-6.83942e-15,3.3421,504.164,-18.6121)"><rect x="31.728" y="7.963" width="308.862" height="0.598"/></g><g transform="matrix(-0.194262,-2.87533e-17,-6.83942e-15,3.3421,504.164,-15.6121)"><rect x="31.728" y="7.963" width="308.862" height="0.598"/></g><g transform="matrix(-0.194262,-2.87533e-17,-6.83942e-15,3.3421,504.164,-12.6121)"><rect x="31.728" y="7.963" width="308.862" height="0.598"/></g><g transform="matrix(-0.194262,-2.87533e-17,-6.83942e-15,3.3421,504.164,2.3879)"><rect x="31.728" y="7.963" width="308.862" height="0.598"/></g><g transform="matrix(-0.194262,-2.87533e-17,-6.83942e-15,3.3421,504.164,-0.612105)"><rect x="31.728" y="7.963" width="308.862" height="0.598"/></g><g transform="matrix(-0.194262,-2.87533e-17,-6.83942e-15,3.3421,504.164,-3.6121)"><rect x="31.728" y="7.963" width="308.862" height="0.598"/></g><g transform="matrix(-0.194262,-2.87533e-17,-6.83942e-15,3.3421,504.164,-6.6121)"><rect x="31.728" y="7.963" width="308.862" height="0.598"/></g><g transform="matrix(-0.194262,-2.87533e-17,-6.83942e-15,3.3421,504.164,5.3879)"><rect x="31.728" y="7.963" width="308.862" height="0.598"/></g><g transform="matrix(-0.0647539,-4.10431e-17,-2.39573e-15,5.01314,340.055,-31.9182)"><rect x="31.728" y="7.963" width="308.862" height="0.598"/></g><g transform="matrix(-0.0647539,-4.10431e-17,-2.39573e-15,5.01314,340.055,-27.9182)"><rect x="31.728" y="7.963" width="308.862" height="0.598"/></g><g transform="matrix(-0.0647539,-4.10431e-17,-2.39573e-15,5.01314,340.055,-35.9182)"><rect x="31.728" y="7.963" width="308.862" height="0.598"/></g><g transform="matrix(-0.0647539,-4.10431e-17,-2.39573e-15,5.01314,340.055,-14.9182)"><rect x="31.728" y="7.963" width="308.862" height="0.598"/></g><g transform="matrix(-0.0647539,-4.10431e-17,-2.39573e-15,5.01314,340.055,-10.9182)"><rect x="31.728" y="7.963" width="308.862" height="0.598"/></g><g transform="matrix(-0.0647539,-4.10431e-17,-2.39573e-15,5.01314,340.055,-18.9182)"><rect x="31.728" y="7.963" width="308.862" height="0.598"/></g></svg>